<?xml version="1.0" encoding="UTF-8"?>
<svg version="1.1" xmlns="http://www.w3.org/2000/svg" width="512" height="512">
<path d="M0 0 C0.64694824 0.35852051 1.29389648 0.71704102 1.96044922 1.08642578 C10.67237132 5.96518839 18.49109643 11.37517223 26 18 C26.86367188 18.75410156 27.72734375 19.50820312 28.6171875 20.28515625 C31.10850105 22.49250549 33.55977501 24.73642429 36 27 C36.96292969 27.86431641 36.96292969 27.86431641 37.9453125 28.74609375 C49.22137443 39.33804314 57.97883587 52.571135 65.07275391 66.22753906 C65.90029265 67.80940618 66.7660211 69.37115949 67.63671875 70.9296875 C86.91109889 106.64546801 88.26362678 151.6410123 77 190 C68.87117963 215.33061602 55.03755495 236.57741851 37 256 C36.4225 256.64324219 35.845 257.28648437 35.25 257.94921875 C24.19525598 269.71956004 10.31412452 278.73054213 -4 286 C-4.61552734 286.31662598 -5.23105469 286.63325195 -5.86523438 286.95947266 C-43.76868609 306.24350826 -87.75606878 308.67620782 -128.25341797 296.31201172 C-149.87807335 289.2566999 -170.3571091 277.48209642 -187 262 C-187.91096436 261.15477783 -187.91096436 261.15477783 -188.84033203 260.29248047 C-212.58987233 237.99736468 -233.98318539 205.1544124 -237.203125 171.90234375 C-237.27622608 168.83819032 -237.16865474 166.38691382 -235.9375 163.5625 C-233.05717808 161.23965974 -230.64426778 161.12786904 -227 161 C-224.45733583 161.88712547 -223.30708539 162.41538072 -222.04101562 164.82568359 C-221.83154297 165.55094238 -221.62207031 166.27620117 -221.40625 167.0234375 C-221.16648437 167.83135742 -220.92671875 168.63927734 -220.6796875 169.47167969 C-219.81928406 172.67223212 -218.98165885 175.8775508 -218.16333008 179.08911133 C-211.46352469 204.70224293 -198.36730906 226.20616417 -180 245 C-179.41089844 245.65097656 -178.82179687 246.30195313 -178.21484375 246.97265625 C-167.879662 258.15368407 -153.54456111 266.37601756 -140 273 C-139.00212049 267.68870585 -138.84535221 262.99232805 -141 258 C-146.11920415 251.24810965 -152.60838149 245.62701833 -158.95288086 240.05200195 C-162.86696553 236.12858136 -163.22769845 233.31814765 -163.22659302 227.75311279 C-163.21110916 226.53727509 -163.21110916 226.53727509 -163.1953125 225.296875 C-163.1924826 224.45908508 -163.18965271 223.62129517 -163.18673706 222.75811768 C-163.17556349 220.08859837 -163.15046421 217.4194175 -163.125 214.75 C-163.11496654 212.93750485 -163.10584133 211.12500444 -163.09765625 209.3125 C-163.0756334 204.87487007 -163.04112304 200.43749237 -163 196 C-163.93779297 195.57267578 -163.93779297 195.57267578 -164.89453125 195.13671875 C-167.80038809 193.56787953 -168.60995991 191.97865733 -170 189 C-171.26628736 183.74003711 -171.17364095 179.98126052 -169 175 C-165.10492556 170.74125768 -161.67163892 168.26192538 -155.8125 167.6875 C-151.11028199 168.07292771 -147.74793157 169.09758878 -144 172 C-141.17315948 175.65034588 -140.11228243 179.06965987 -139.5625 183.625 C-140.10454345 187.80647803 -141.15349996 191.50871971 -144.54321289 194.24633789 C-148.07372392 198.49632293 -147.274412 206.05347526 -147.4375 211.4375 C-147.46156921 212.18043304 -147.48563843 212.92336609 -147.51043701 213.68881226 C-147.68328122 223.98222767 -146.33347933 230.56600461 -138.93774414 238.27172852 C-135.43573196 241.43512065 -131.86902228 244.44193331 -128.06298828 247.23364258 C-124.93088763 249.91538793 -124.12540565 251.84657525 -123.68115234 255.93261719 C-123.64973145 257.04282227 -123.61831055 258.15302734 -123.5859375 259.296875 C-123.54726562 260.50214844 -123.50859375 261.70742188 -123.46875 262.94921875 C-123.4378125 264.20347656 -123.406875 265.45773437 -123.375 266.75 C-123.33632812 268.01972656 -123.29765625 269.28945313 -123.2578125 270.59765625 C-123.1635606 273.73153181 -123.08069218 276.86574598 -123 280 C-117.06 281.65 -111.12 283.3 -105 285 C-105.01775742 277.14982713 -105.05659236 269.30043146 -105.13209057 261.45063591 C-105.16631833 257.80522379 -105.19146382 254.16022883 -105.19555664 250.51464844 C-105.19984892 246.99347619 -105.22838585 243.47324428 -105.27343178 239.95236588 C-105.29265922 237.96173318 -105.28705838 235.97091058 -105.28105164 233.98019409 C-105.18832649 226.61179062 -105.18832649 226.61179062 -108.48168945 220.31689453 C-109.31273193 219.55231934 -110.14377441 218.78774414 -111 218 C-112.55417619 213.33747142 -112.54448802 209.51246673 -110.875 204.875 C-108.18528477 200.75076999 -105.60561251 197.82993584 -100.890625 196.328125 C-95.83631859 195.45669286 -92.15770436 196.12564806 -87.7265625 198.703125 C-83.84407542 201.61938227 -82.30045952 204.8196233 -81.125 209.4375 C-80.98209684 213.5102402 -81.46159465 216.22391415 -83 220 C-83.83877686 220.60481201 -84.67755371 221.20962402 -85.54174805 221.83276367 C-89.25111587 225.43252565 -88.64190354 230.15222803 -88.71894836 235.0193634 C-88.71550546 236.36317081 -88.71152049 237.70697693 -88.70703125 239.05078125 C-88.720154 240.43371248 -88.73546001 241.81662456 -88.75285339 243.19950867 C-88.79265044 246.82783143 -88.80289025 250.45565222 -88.80688477 254.08416748 C-88.81622645 257.79129208 -88.85364628 261.49812297 -88.88867188 265.20507812 C-88.95319384 272.47010641 -88.98388082 279.73467354 -89 287 C-81.74 287 -74.48 287 -67 287 C-67.03665771 284.95167969 -67.07331543 282.90335937 -67.11108398 280.79296875 C-67.22738794 274.00392208 -67.30451717 267.21482987 -67.3626852 260.42504883 C-67.39912414 256.31065922 -67.44849786 252.19729539 -67.52807617 248.08349609 C-67.60447797 244.10875465 -67.64606046 240.13499582 -67.6641407 236.15957642 C-67.67701442 234.64768005 -67.70215522 233.13583383 -67.7401104 231.62435913 C-68.06088595 218.31343873 -68.06088595 218.31343873 -63.70507812 213.18920898 C-61.31250603 210.92452811 -58.71130019 209.0144952 -56.03515625 207.09765625 C-50.06888693 202.71677274 -45.73347204 198.68290587 -44.23974609 191.18261719 C-43.75477588 186.76732814 -43.69425747 182.37524122 -43.75 177.9375 C-43.75460236 177.19968292 -43.75920471 176.46186584 -43.76394653 175.70169067 C-43.88812854 167.46786404 -44.24203515 162.15229206 -50 156 C-51.72922412 152.54155176 -51.35136443 148.78834735 -51 145 C-49.30835942 140.28121312 -47.13951382 137.79417183 -43 135 C-37.97141801 133.323806 -33.65969589 133.39357265 -28.75 135.1875 C-25.1822189 137.53899209 -22.90778921 140.18442157 -21 144 C-20.47928102 149.65781204 -20.25255307 154.41978709 -24 159 C-24.52215088 159.36963867 -25.04430176 159.73927734 -25.58227539 160.12011719 C-27.85857553 163.13845903 -27.40007172 166.50849823 -27.37109375 170.140625 C-27.38848511 171.78515824 -27.40606939 173.42968944 -27.42382812 175.07421875 C-27.43387347 177.65905658 -27.43750414 180.2437568 -27.43579102 182.82861328 C-27.43938126 185.32886274 -27.46680667 187.82806357 -27.49609375 190.328125 C-27.48791122 191.09191467 -27.4797287 191.85570435 -27.47129822 192.64263916 C-27.54292021 197.85649015 -28.55880765 201.9348498 -32 206 C-33.39329202 207.20577643 -34.82056637 208.37287378 -36.27099609 209.50927734 C-43.97637368 215.59282069 -50.0517188 221.10354508 -51.56347656 231.17675781 C-52.14964345 238.63175077 -52.00490528 246.04805256 -51.69952393 253.51324463 C-51.57389635 257.07310425 -51.55368739 260.63359179 -51.5234375 264.1953125 C-51.44953813 271.13475277 -51.2529887 278.0647958 -51 285 C-44.07 283.02 -37.14 281.04 -30 279 C-29.88488132 274.8173545 -29.78547651 270.64024614 -29.7253418 266.45727539 C-29.70026853 265.03618709 -29.66620001 263.61522687 -29.62280273 262.19458008 C-29.56182142 260.14632538 -29.53372238 258.09978117 -29.51171875 256.05078125 C-29.48553467 254.82012939 -29.45935059 253.58947754 -29.43237305 252.3215332 C-30.1535467 248.10150413 -31.85716789 246.78888091 -35 244 C-36.72812003 238.81563992 -36.94480491 233.17305129 -34.75 228.125 C-29.15515904 221.33126455 -29.15515904 221.33126455 -23.73046875 220.76171875 C-17.92712587 220.59234315 -14.54365271 221.01045128 -10 225 C-6.4525079 229.03680135 -5.70818799 232.56310958 -5.77734375 237.9375 C-6.1849087 241.71283851 -7.68791929 244.88490295 -10.5871582 247.34887695 C-12.54488128 249.63677762 -12.34460199 251.12795178 -12.29296875 254.10546875 C-12.2784668 255.57983398 -12.2784668 255.57983398 -12.26367188 257.08398438 C-12.23853516 258.10814453 -12.21339844 259.13230469 -12.1875 260.1875 C-12.17396484 261.22326172 -12.16042969 262.25902344 -12.14648438 263.32617188 C-12.11111389 265.88463699 -12.06175544 268.4420578 -12 271 C-9.80964682 269.77571105 -7.62280367 268.54574635 -5.4375 267.3125 C-4.52387695 266.80299805 -4.52387695 266.80299805 -3.59179688 266.28320312 C-2.98271484 265.93837891 -2.37363281 265.59355469 -1.74609375 265.23828125 C-1.19622803 264.92930908 -0.6463623 264.62033691 -0.07983398 264.30200195 C0.60651123 263.87234131 1.29285645 263.44268066 2 263 C2.58169952 262.74172928 3.16339905 262.48345856 3.76272583 262.21736145 C6.02054299 261.01691586 7.39750649 260.00798872 9 258 C10.05492868 253.54411912 9.93291299 249.15804426 9.859375 244.59765625 C9.86132874 243.28719833 9.86328247 241.97674042 9.86529541 240.62657166 C9.86658796 237.85629016 9.84368583 235.0875985 9.80273438 232.31762695 C9.75170488 228.77859914 9.75384471 225.24207623 9.77334213 221.70281315 C9.78615772 218.31332556 9.75899803 214.92458333 9.734375 211.53515625 C9.73822205 210.26938248 9.74206909 209.0036087 9.74603271 207.69947815 C9.77831639 200.46567888 9.77831639 200.46567888 6.51660156 194.27905273 C5.68612305 193.52696533 4.85564453 192.77487793 4 192 C2.14509359 188.29018719 2.5459909 184.04876607 3 180 C5.61320839 174.86691209 8.53937241 171.8202092 14 170 C19.61875724 169.6315569 23.15711379 169.80809772 28 173 C32.4473819 177.92817995 33.33996478 180.94887378 33.29296875 187.453125 C32.7631268 192.05921771 30.16572234 194.83427766 27 198 C26.70863836 199.97939141 26.70863836 199.97939141 26.77294922 202.26611328 C26.77310028 203.14687531 26.77325134 204.02763733 26.77340698 204.93508911 C26.78889084 206.36327469 26.78889084 206.36327469 26.8046875 207.8203125 C26.8075174 208.79410858 26.81034729 209.76790466 26.81326294 210.77120972 C26.82448087 213.88926349 26.8495883 217.00703268 26.875 220.125 C26.88502772 222.23567294 26.89415393 224.34635038 26.90234375 226.45703125 C26.92442542 231.63811835 26.95791871 236.81903885 27 242 C32.0407082 236.5481556 36.95895768 231.18032395 41 224.9375 C41.41024414 224.30956543 41.82048828 223.68163086 42.24316406 223.03466797 C58.38559652 197.86709196 69.03113806 167.29420812 67 137 C66.95891113 136.36755371 66.91782227 135.73510742 66.87548828 135.08349609 C63.98345637 94.10534418 46.01417962 57.78054891 15.17578125 30.5625 C-14.15305943 6.33473874 -52.26955928 -5.83683018 -90.1887207 -2.5378418 C-124.68585609 0.91898764 -154.8522004 15.30557586 -180 39 C-180.60199219 39.54914063 -181.20398438 40.09828125 -181.82421875 40.6640625 C-205.20320817 62.7896329 -218.73088068 95.25175478 -221.97607422 126.8059082 C-222.48979062 131.53868521 -222.93440981 135.15055004 -226 139 C-228.85324437 140.42662219 -230.83454549 140.31033868 -234 140 C-238.74393301 137.00200128 -238.74393301 137.00200128 -239.62890625 133.5390625 C-239.07274368 109.13334043 -231.87013226 85.22832782 -220 64 C-219.64147949 63.35305176 -219.28295898 62.70610352 -218.91357422 62.03955078 C-214.03481161 53.32762868 -208.62482777 45.50890357 -202 38 C-201.24589844 37.13632813 -200.49179688 36.27265625 -199.71484375 35.3828125 C-197.50749451 32.89149895 -195.26357571 30.44022499 -193 28 C-192.42378906 27.35804688 -191.84757812 26.71609375 -191.25390625 26.0546875 C-180.20184741 14.28879858 -166.31877973 5.2548484 -152 -2 C-151.36852051 -2.32194336 -150.73704102 -2.64388672 -150.08642578 -2.97558594 C-103.20639583 -26.57867239 -45.85752285 -25.64190953 0 0 Z " fill="#000000" transform="translate(334,114)"/>
<path d="M0 0 C1.15202911 -0.01248528 1.15202911 -0.01248528 2.32733154 -0.02522278 C4.86443163 -0.04930156 7.40127435 -0.05809323 9.93847656 -0.06469727 C11.70721512 -0.07366685 13.47595292 -0.08278875 15.24468994 -0.09205627 C18.95350995 -0.1085442 22.66223972 -0.11624574 26.37109375 -0.11914062 C31.11015629 -0.12451716 35.8483635 -0.16216747 40.58718491 -0.20788479 C44.24191333 -0.23771758 47.89643759 -0.24486557 51.55127716 -0.24586678 C53.2975073 -0.25005853 55.04373864 -0.26245074 56.78984833 -0.28338432 C67.32781828 -0.39964 74.11309437 -0.14160982 82.35253906 7.07983398 C82.79855469 7.60834961 83.24457031 8.13686523 83.70410156 8.68139648 C84.39632812 9.46643555 84.39632812 9.46643555 85.10253906 10.26733398 C88.55344426 16.00418912 88.65362005 22.23751017 88.74316406 28.73999023 C88.77221329 30.05689598 88.77221329 30.05689598 88.80184937 31.40040588 C88.86122894 34.18147318 88.90786273 36.96258282 88.95410156 39.74389648 C88.99231972 41.63909599 89.03137364 43.53427884 89.07128906 45.42944336 C89.16689585 50.05495777 89.25107911 54.6805534 89.32910156 59.30639648 C90.50303467 59.68441406 91.67696777 60.06243164 92.88647461 60.4519043 C101.51130597 63.2584494 109.93330351 66.1657581 118.14160156 70.05639648 C119.79358685 70.82279463 121.44591934 71.58844491 123.09863281 72.35327148 C123.79577393 72.68166016 124.49291504 73.01004883 125.21118164 73.34838867 C127.55659731 74.40930061 129.93330026 75.36555325 132.32910156 76.30639648 C133.06435059 75.54496338 133.79959961 74.78353027 134.55712891 73.99902344 C137.32094547 71.14385493 140.10197702 68.30596532 142.88818359 65.47265625 C144.0855621 64.25032565 145.27839268 63.02352098 146.46630859 61.79199219 C161.05221266 46.68472485 161.05221266 46.68472485 171.64941406 44.67749023 C182.3797549 44.93155123 188.1890684 48.23072379 195.59472656 55.99389648 C197.32910156 58.30639648 197.32910156 58.30639648 198.07910156 62.11889648 C196.89411338 67.15509625 196.89411338 67.15509625 194.32910156 69.30639648 C190.03967239 70.6013185 188.13723876 70.73423383 184.14160156 68.61889648 C181.32910156 66.30639648 181.32910156 66.30639648 179.32910156 64.05639648 C177.40325302 62.10271765 177.40325302 62.10271765 174.57910156 61.61889648 C167.52663614 63.11076417 162.4252459 70.16184015 157.54394531 75.16967773 C157.03471527 75.69130997 156.52548523 76.2129422 156.00082397 76.75038147 C153.88389472 78.92217602 151.76816039 81.09461282 149.67163086 83.28613281 C148.11978801 84.90483457 146.55226166 86.50690966 144.98144531 88.10717773 C144.51770004 88.59986649 144.05395477 89.09255524 143.57615662 89.60017395 C140.13029632 93.07338993 137.14009149 94.5013282 132.32910156 95.30639648 C129.80957031 94.7980957 129.80957031 94.7980957 127.51660156 93.73608398 C126.66324219 93.35162109 125.80988281 92.9671582 124.93066406 92.57104492 C124.07214844 92.15371094 123.21363281 91.73637695 122.32910156 91.30639648 C121.51183594 90.91742188 120.69457031 90.52844727 119.85253906 90.12768555 C117.33614155 88.91242532 114.83310337 87.67196577 112.32910156 86.43139648 C104.12688799 82.43602996 95.92570903 79.23909462 87.21191406 76.56030273 C75.69318089 72.91184812 75.69318089 72.91184812 72.32910156 67.30639648 C71.75591406 63.83559634 71.79550992 60.40746512 71.82519531 56.89624023 C71.81106346 55.38955528 71.81106346 55.38955528 71.79664612 53.85243225 C71.76800645 50.64937859 71.76491809 47.44706785 71.76660156 44.24389648 C71.76299617 41.03726333 71.75349702 37.83116926 71.72584534 34.62464905 C71.7090325 32.63142229 71.70620032 30.63801762 71.71885681 28.64476013 C71.70853172 27.28798912 71.70853172 27.28798912 71.69799805 25.90380859 C71.69895981 25.11058701 71.69992157 24.31736542 71.70091248 23.50010681 C71.22899292 20.71574851 70.2488435 19.35383846 68.32910156 17.30639648 C65.00889232 16.19966007 62.50724044 16.1660191 59.00927734 16.14526367 C57.05177048 16.13085236 57.05177048 16.13085236 55.05471802 16.1161499 C53.62795181 16.11130203 52.20118357 16.10702317 50.77441406 16.10327148 C49.31094359 16.09751783 47.84747313 16.09176012 46.38400269 16.08599854 C43.3157313 16.07549682 40.24748605 16.06964868 37.17919922 16.06616211 C33.25275301 16.06067796 29.32665368 16.03664849 25.40031624 16.00819016 C22.37709552 15.98954226 19.35395803 15.98435705 16.33068466 15.98282623 C14.8834328 15.9798042 13.43618225 15.9717908 11.98898697 15.95864105 C9.96196635 15.94153694 7.93480231 15.94531192 5.90771484 15.94995117 C4.17921799 15.94448273 4.17921799 15.94448273 2.415802 15.93890381 C-1.02768943 16.34887488 -2.90667304 17.24707895 -5.67089844 19.30639648 C-6.8448997 21.654399 -6.79534979 23.04463141 -6.796875 25.66088867 C-6.80258514 27.01304474 -6.80258514 27.01304474 -6.80841064 28.39251709 C-6.80995148 29.85809052 -6.80995148 29.85809052 -6.81152344 31.35327148 C-6.82985411 33.4157825 -6.84942466 35.47828281 -6.87011719 37.54077148 C-6.89907212 40.79746515 -6.920898 44.05347204 -6.92138672 47.31030273 C-6.92472506 50.45024778 -6.95930304 53.58860282 -6.99902344 56.72827148 C-6.99195374 57.69722351 -6.98488403 58.66617554 -6.9776001 59.66448975 C-7.05604807 64.03264611 -7.17636741 67.31070438 -9.90917969 70.84790039 C-12.56758619 73.2144274 -14.15280452 74.2841901 -17.53027344 75.22045898 C-18.46943604 75.50066895 -19.40859863 75.78087891 -20.3762207 76.06958008 C-21.38096436 76.35397949 -22.38570801 76.63837891 -23.42089844 76.93139648 C-33.9237695 80.13851596 -43.58472358 84.32819659 -53.3828125 89.26977539 C-66.67799554 95.95222809 -66.67799554 95.95222809 -71.9375 94.24780273 C-76.32019709 92.24105496 -79.32243268 89.14313574 -82.62792969 85.70483398 C-83.25696701 85.0677652 -83.88600433 84.43069641 -84.53410339 83.77432251 C-86.52694575 81.75265136 -88.50558172 79.71775986 -90.48339844 77.68139648 C-92.48166182 75.64061686 -94.48275711 73.60269081 -96.48625183 71.56704712 C-97.72858882 70.3030146 -98.96740953 69.03551461 -100.2023468 67.76425171 C-104.1512028 63.55329368 -104.1512028 63.55329368 -109.47219849 61.96871948 C-113.6423166 62.40894614 -114.89828649 63.77385618 -117.85009766 66.70922852 C-118.56829933 67.41165932 -118.56829933 67.41165932 -119.30101013 68.12828064 C-120.87460309 69.67553308 -122.42530446 71.24362547 -123.97558594 72.81420898 C-125.06472709 73.89930683 -126.15475746 74.98351281 -127.24563599 76.06686401 C-129.52651329 78.33890285 -131.79620466 80.6214205 -134.05859375 82.91186523 C-136.95713408 85.84459102 -139.88178218 88.74955216 -142.81535149 91.64718819 C-145.07047848 93.88061657 -147.31109745 96.1281612 -149.54761124 98.38021469 C-150.62049331 99.45709455 -151.69783747 100.52954809 -152.77968979 101.59741592 C-154.29082871 103.0932856 -155.78135111 104.60710246 -157.26806641 106.12719727 C-158.54664017 107.41293137 -158.54664017 107.41293137 -159.8510437 108.72463989 C-162.0605935 111.8592416 -162.13307016 113.54829001 -161.67089844 117.30639648 C-160.63008161 119.29401085 -160.63008161 119.29401085 -158.94042969 120.92749023 C-157.98064209 121.94431885 -157.98064209 121.94431885 -157.00146484 122.98168945 C-151.61239571 128.3572097 -146.19147904 133.70195908 -140.69116211 138.96386719 C-139.07246036 140.51571004 -137.47038526 142.08323639 -135.87011719 143.65405273 C-135.37742844 144.117798 -134.88473969 144.58154327 -134.37712097 145.05934143 C-130.90390499 148.50520173 -129.47596672 151.49540656 -128.67089844 156.30639648 C-129.17919922 158.82592773 -129.17919922 158.82592773 -130.24121094 161.11889648 C-130.81790527 162.39893555 -130.81790527 162.39893555 -131.40625 163.70483398 C-131.82358398 164.56334961 -132.24091797 165.42186523 -132.67089844 166.30639648 C-133.05987305 167.12366211 -133.44884766 167.94092773 -133.84960938 168.78295898 C-135.0648696 171.29935649 -136.30532916 173.80239468 -137.54589844 176.30639648 C-141.54126496 184.50861006 -144.7382003 192.70978902 -147.41699219 201.42358398 C-151.0654468 212.94231715 -151.0654468 212.94231715 -156.67089844 216.30639648 C-160.14169858 216.87958399 -163.5698298 216.83998813 -167.08105469 216.81030273 C-168.58773964 216.82443459 -168.58773964 216.82443459 -170.12486267 216.83885193 C-173.32791633 216.8674916 -176.53022707 216.87057996 -179.73339844 216.86889648 C-182.94003159 216.87250187 -186.14612566 216.88200103 -189.35264587 216.90965271 C-191.34587263 216.92646555 -193.33927731 216.92929773 -195.33253479 216.91664124 C-196.6893058 216.92696632 -196.6893058 216.92696632 -198.07348633 216.9375 C-198.86670792 216.93653824 -199.6599295 216.93557648 -200.47718811 216.93458557 C-203.26154641 217.40650513 -204.62345646 218.38665454 -206.67089844 220.30639648 C-207.77763485 223.62660572 -207.81127582 226.12825761 -207.83203125 229.6262207 C-207.84644257 231.58372757 -207.84644257 231.58372757 -207.86114502 233.58078003 C-207.86599289 235.00754624 -207.87027175 236.43431447 -207.87402344 237.86108398 C-207.87977709 239.32455446 -207.8855348 240.78802492 -207.89129639 242.25149536 C-207.9017981 245.31976675 -207.90764624 248.388012 -207.91113281 251.45629883 C-207.91661696 255.38274503 -207.94064644 259.30884436 -207.96910477 263.23518181 C-207.98775266 266.25840252 -207.99293787 269.28154002 -207.99446869 272.30481339 C-207.99749072 273.75206525 -208.00550412 275.1993158 -208.01865387 276.64651108 C-208.03575798 278.67353169 -208.031983 280.70069573 -208.02734375 282.7277832 C-208.03098938 283.88011444 -208.03463501 285.03244568 -208.03839111 286.21969604 C-207.62842004 289.66318747 -206.73021597 291.54217109 -204.67089844 294.30639648 C-202.32289592 295.48039774 -200.93266351 295.43084784 -198.31640625 295.43237305 C-196.96425018 295.43808319 -196.96425018 295.43808319 -195.58477783 295.44390869 C-194.11920441 295.44544952 -194.11920441 295.44544952 -192.62402344 295.44702148 C-190.56151242 295.46535216 -188.49901211 295.48492271 -186.43652344 295.50561523 C-183.17982978 295.53457017 -179.92382288 295.55639605 -176.66699219 295.55688477 C-173.52704714 295.5602231 -170.3886921 295.59480108 -167.24902344 295.63452148 C-166.28007141 295.62745178 -165.31111938 295.62038208 -164.31280518 295.61309814 C-159.94464882 295.69154612 -156.66659054 295.81186546 -153.12939453 298.54467773 C-150.76286752 301.20308424 -149.69310482 302.78830257 -148.75683594 306.16577148 C-148.336521 307.57451538 -148.336521 307.57451538 -147.90771484 309.01171875 C-147.62331543 310.0164624 -147.33891602 311.02120605 -147.04589844 312.05639648 C-143.83877896 322.55926755 -139.64909833 332.22022163 -134.70751953 342.01831055 C-128.02506683 355.31349359 -128.02506683 355.31349359 -129.72949219 360.57299805 C-131.73623996 364.95569514 -134.83415918 367.95793073 -138.27246094 371.26342773 C-138.90952972 371.89246506 -139.54659851 372.52150238 -140.20297241 373.16960144 C-142.22464356 375.1624438 -144.25953507 377.14107976 -146.29589844 379.11889648 C-148.33667806 381.11715986 -150.37460411 383.11825516 -152.4102478 385.12174988 C-153.67428032 386.36408687 -154.94178031 387.60290758 -156.21304321 388.83784485 C-160.42400124 392.78670085 -160.42400124 392.78670085 -162.00857544 398.10769653 C-161.56834878 402.27781465 -160.20343874 403.53378454 -157.26806641 406.4855957 C-156.5656356 407.20379738 -156.5656356 407.20379738 -155.84901428 407.93650818 C-154.30176184 409.51010114 -152.73366945 411.06080251 -151.16308594 412.61108398 C-150.07798809 413.70022513 -148.99378211 414.79025551 -147.91043091 415.88113403 C-145.63839207 418.16201133 -143.35587442 420.43170271 -141.06542969 422.6940918 C-138.1327039 425.59263212 -135.22774277 428.51728023 -132.33010674 431.45084953 C-130.09667836 433.70597652 -127.84913372 435.9465955 -125.59708023 438.18310928 C-124.52020038 439.25599136 -123.44774684 440.33333551 -122.379879 441.41518784 C-120.88400933 442.92632675 -119.37019247 444.41684916 -117.85009766 445.90356445 C-116.99294159 446.75594696 -116.13578552 447.60832947 -115.25265503 448.48654175 C-112.11805332 450.69609155 -110.42900491 450.7685682 -106.67089844 450.30639648 C-104.68328407 449.26557966 -104.68328407 449.26557966 -103.04980469 447.57592773 C-102.37191895 446.93606934 -101.6940332 446.29621094 -100.99560547 445.63696289 C-95.62008522 440.24789375 -90.27533584 434.82697708 -85.01342773 429.32666016 C-83.46158488 427.7079584 -81.89405853 426.10588331 -80.32324219 424.50561523 C-79.85949692 424.01292648 -79.39575165 423.52023773 -78.91795349 423.01261902 C-75.47209319 419.53940304 -72.48188836 418.11146477 -67.67089844 417.30639648 C-65.15136719 417.81469727 -65.15136719 417.81469727 -62.85839844 418.87670898 C-61.57835937 419.45340332 -61.57835937 419.45340332 -60.27246094 420.04174805 C-59.41394531 420.45908203 -58.55542969 420.87641602 -57.67089844 421.30639648 C-56.85363281 421.69537109 -56.03636719 422.0843457 -55.19433594 422.48510742 C-52.67793843 423.70036765 -50.17490025 424.9408272 -47.67089844 426.18139648 C-39.46868486 430.17676301 -31.2675059 433.37369835 -22.55371094 436.05249023 C-11.03497777 439.70094485 -11.03497777 439.70094485 -7.67089844 445.30639648 C-7.09771094 448.77719663 -7.13730679 452.20532785 -7.16699219 455.71655273 C-7.15286034 457.22323769 -7.15286034 457.22323769 -7.13844299 458.76036072 C-7.10980332 461.96341438 -7.10671496 465.16572512 -7.10839844 468.36889648 C-7.10479305 471.57552964 -7.09529389 474.7816237 -7.06764221 477.98814392 C-7.05082937 479.98137068 -7.0479972 481.97477535 -7.06065369 483.96803284 C-7.05377029 484.87254684 -7.0468869 485.77706085 -7.03979492 486.70898438 C-7.04075668 487.50220596 -7.04171844 488.29542755 -7.04270935 489.11268616 C-6.5707898 491.89704446 -5.59064038 493.25895451 -3.67089844 495.30639648 C-0.3506892 496.4131329 2.15096269 496.44677387 5.64892578 496.4675293 C7.60643265 496.48194061 7.60643265 496.48194061 9.60348511 496.49664307 C11.03025131 496.50149094 12.45701955 496.50576979 13.88378906 496.50952148 C15.34725954 496.51527514 16.81073 496.52103285 18.27420044 496.52679443 C21.34247183 496.53729615 24.41071708 496.54314429 27.47900391 496.54663086 C31.40545011 496.55211501 35.33154944 496.57614448 39.25788689 496.60460281 C42.2811076 496.62325071 45.3042451 496.62843592 48.32751846 496.62996674 C49.77477033 496.63298877 51.22202088 496.64100217 52.66921616 496.65415192 C54.69623677 496.67125603 56.72340081 496.66748105 58.75048828 496.6628418 C59.90281952 496.66648743 61.05515076 496.67013306 62.24240112 496.67388916 C65.68589255 496.26391809 67.56487616 495.36571402 70.32910156 493.30639648 C71.48274974 490.99910013 71.45927488 489.67057013 71.47094727 487.10375977 C71.47798172 486.23590851 71.48501617 485.36805725 71.49226379 484.47390747 C71.49851021 483.06454422 71.49851021 483.06454422 71.50488281 481.62670898 C71.52807903 479.64622958 71.55219629 477.66576079 71.57714844 475.68530273 C71.61229166 472.5558358 71.64162143 469.42675956 71.6550293 466.29711914 C71.67048548 463.281499 71.71067902 460.26702669 71.75488281 457.25170898 C71.7529744 456.31618195 71.75106598 455.38065491 71.74909973 454.41677856 C71.87155507 447.9256363 71.87155507 447.9256363 74.23999023 444.72021484 C76.4847368 443.20106942 77.6405628 442.73864543 80.32910156 442.74389648 C81.31910156 442.71102539 81.31910156 442.71102539 82.32910156 442.67749023 C85.6048057 443.70754564 86.53755814 445.40302676 88.32910156 448.30639648 C88.91012474 451.65820834 88.86605201 454.96244593 88.82519531 458.35717773 C88.82665054 459.32995163 88.82810577 460.30272552 88.8296051 461.30497742 C88.8279478 463.36008705 88.81640543 465.41520931 88.7956543 467.47021484 C88.76679628 470.59779326 88.77503044 473.72366505 88.78808594 476.85131836 C88.78184493 478.85327965 88.77345117 480.85523561 88.76269531 482.85717773 C88.76563095 483.78452225 88.76856659 484.71186676 88.77159119 485.66731262 C88.66259942 493.26493415 87.26511618 499.79123542 82.01660156 505.61889648 C81.46359375 506.2544043 80.91058594 506.88991211 80.34082031 507.54467773 C75.46783993 511.81208385 70.73744064 512.75220537 64.43115234 512.72631836 C63.66284088 512.7347879 62.89452942 512.74325745 62.10293579 512.75198364 C59.57659099 512.77527998 57.05085792 512.77637753 54.52441406 512.77514648 C52.7585323 512.78225291 50.99265284 512.78995261 49.22677612 512.79821777 C45.52986225 512.81164594 41.83316187 512.81323903 38.13623047 512.80737305 C33.41287555 512.80148079 28.69054986 512.83205617 23.96739388 512.87248993 C20.32122335 512.89841764 16.67529892 512.90123973 13.02904892 512.89759827 C11.28841441 512.89928501 9.54776799 512.90888444 7.80722427 512.92674255 C-2.68185514 513.02251777 -9.54392308 512.78282427 -17.69433594 505.49780273 C-18.36335938 504.69149414 -18.36335938 504.69149414 -19.04589844 503.86889648 C-19.50738281 503.33393555 -19.96886719 502.79897461 -20.44433594 502.24780273 C-23.92876588 496.73263815 -24.00085062 491.05646297 -24.08496094 484.75170898 C-24.11401016 483.39938675 -24.11401016 483.39938675 -24.14364624 482.01974487 C-24.20314139 479.15705652 -24.24970661 476.29432731 -24.29589844 473.43139648 C-24.33410591 471.48346286 -24.37315924 469.53554563 -24.41308594 467.58764648 C-24.50881809 462.82736391 -24.5929596 458.06700229 -24.67089844 453.30639648 C-25.84483154 452.92837891 -27.01876465 452.55036133 -28.22827148 452.16088867 C-36.85310284 449.35434357 -45.27510039 446.44703487 -53.48339844 442.55639648 C-55.13538373 441.78999834 -56.78771621 441.02434806 -58.44042969 440.25952148 C-59.1375708 439.93113281 -59.83471191 439.60274414 -60.55297852 439.2644043 C-62.89839419 438.20349235 -65.27509714 437.24723972 -67.67089844 436.30639648 C-68.40614746 437.06782959 -69.14139648 437.8292627 -69.89892578 438.61376953 C-72.66274235 441.46893804 -75.44377389 444.30682765 -78.22998047 447.14013672 C-79.42735898 448.36246732 -80.62018955 449.58927199 -81.80810547 450.82080078 C-96.39400954 465.92806812 -96.39400954 465.92806812 -106.99121094 467.93530273 C-108.37953125 467.90243164 -108.37953125 467.90243164 -109.79589844 467.86889648 C-111.19195312 467.87083008 -111.19195312 467.87083008 -112.61621094 467.87280273 C-122.63340306 466.01539499 -128.8697073 458.69611914 -135.72167969 451.78686523 C-136.86832933 450.64291465 -138.0155718 449.49955802 -139.16337585 448.35676575 C-141.55760878 445.96840598 -143.94451882 443.57302367 -146.32641602 441.17236328 C-149.37031921 438.10564634 -152.43186686 435.05727581 -155.49912739 432.01394176 C-157.86821433 429.65934965 -160.22764176 427.29526286 -162.58431053 424.92824745 C-163.70924067 423.80066157 -164.83711499 422.67600459 -165.96804237 421.55443382 C-167.54988941 419.98281595 -169.11823642 418.39881594 -170.68383789 416.81103516 C-172.0233123 415.46678719 -172.0233123 415.46678719 -173.3898468 414.09538269 C-177.22121908 409.41085724 -179.10392295 404.61378189 -179.17089844 398.49389648 C-179.20183594 397.55932617 -179.23277344 396.62475586 -179.26464844 395.66186523 C-177.17744544 383.86642198 -168.58725481 376.6188394 -160.35839844 368.68139648 C-159.12742117 367.47554782 -157.89759312 366.26852482 -156.66894531 365.06030273 C-153.68267217 362.12862818 -150.68130206 359.21327866 -147.67089844 356.30639648 C-148.89852249 353.18032489 -150.19296413 350.11394447 -151.62402344 347.07592773 C-151.9965625 346.2709082 -152.36910156 345.46588867 -152.75292969 344.63647461 C-153.50942799 343.00582859 -154.27206888 341.37801251 -155.04199219 339.75366211 C-158.97756019 331.19077951 -161.7865706 322.26367289 -164.67089844 313.30639648 C-166.41777954 313.28452271 -166.41777954 313.28452271 -168.19995117 313.26220703 C-172.55571906 313.20386337 -176.91098935 313.12663501 -181.26635742 313.04394531 C-183.14485547 313.01086464 -185.0234489 312.98278122 -186.90209961 312.95996094 C-189.61580733 312.92610263 -192.3286542 312.87377433 -195.04199219 312.81811523 C-195.87049179 312.81172531 -196.69899139 312.80533539 -197.55259705 312.79875183 C-204.13072649 312.63602173 -210.49441238 311.52993672 -215.97558594 307.69311523 C-216.75289062 306.85200195 -216.75289062 306.85200195 -217.54589844 305.99389648 C-218.07957031 305.44088867 -218.61324219 304.88788086 -219.16308594 304.31811523 C-223.00126113 299.19723382 -224.1166981 294.71248948 -224.09082031 288.40844727 C-224.09928986 287.6401358 -224.1077594 286.87182434 -224.1164856 286.08023071 C-224.13978194 283.55388591 -224.14087949 281.02815284 -224.13964844 278.50170898 C-224.14675486 276.73582722 -224.15445456 274.96994776 -224.16271973 273.20407104 C-224.1761479 269.50715717 -224.17774098 265.81045679 -224.171875 262.11352539 C-224.16598274 257.39017047 -224.19655813 252.66784479 -224.23699188 247.9446888 C-224.26291959 244.29851827 -224.26574168 240.65259384 -224.26210022 237.00634384 C-224.26378696 235.26570933 -224.27338639 233.52506291 -224.29124451 231.7845192 C-224.38721288 221.27428577 -224.09898627 214.49967731 -216.89746094 206.28295898 C-216.36894531 205.83694336 -215.84042969 205.39092773 -215.29589844 204.93139648 C-214.51085937 204.23916992 -214.51085937 204.23916992 -213.70996094 203.53295898 C-207.9731058 200.08205379 -201.73978475 199.981878 -195.23730469 199.89233398 C-193.92039894 199.86328476 -193.92039894 199.86328476 -192.57688904 199.83364868 C-189.79582174 199.77426911 -187.01471211 199.72763531 -184.23339844 199.68139648 C-182.33819893 199.64317833 -180.44301608 199.6041244 -178.54785156 199.56420898 C-173.92233715 199.46860219 -169.29674152 199.38441893 -164.67089844 199.30639648 C-164.29288086 198.13246338 -163.91486328 196.95853027 -163.52539062 195.74902344 C-160.71884552 187.12419208 -157.81153682 178.70219454 -153.92089844 170.49389648 C-153.1545003 168.84191119 -152.38885001 167.18957871 -151.62402344 165.53686523 C-151.29563477 164.83972412 -150.96724609 164.14258301 -150.62890625 163.42431641 C-149.56799431 161.07890073 -148.61174167 158.70219778 -147.67089844 156.30639648 C-148.43233154 155.57114746 -149.19376465 154.83589844 -149.97827148 154.07836914 C-152.83343999 151.31455258 -155.67132961 148.53352103 -158.50463867 145.74731445 C-159.72696927 144.54993595 -160.95377394 143.35710537 -162.18530273 142.16918945 C-177.29257007 127.58328538 -177.29257007 127.58328538 -179.29980469 116.98608398 C-179.27789062 116.06053711 -179.25597656 115.13499023 -179.23339844 114.18139648 C-179.2346875 113.25069336 -179.23597656 112.31999023 -179.23730469 111.36108398 C-177.37989694 101.34389186 -170.06062109 95.10758762 -163.15136719 88.25561523 C-162.0074166 87.1089656 -160.86405998 85.96172312 -159.7212677 84.81391907 C-157.33290794 82.41968614 -154.93752562 80.0327761 -152.53686523 77.65087891 C-149.4701483 74.60697571 -146.42177776 71.54542806 -143.37844372 68.47816753 C-141.0238516 66.10908059 -138.65976482 63.74965316 -136.2927494 61.39298439 C-135.16516353 60.26805425 -134.04050654 59.14017993 -132.91893578 58.00925255 C-131.34731791 56.42740551 -129.76331789 54.8590585 -128.17553711 53.29345703 C-127.2793718 52.40047409 -126.38320648 51.50749115 -125.45988464 50.58744812 C-120.7753592 46.75607584 -115.97828385 44.87337197 -109.85839844 44.80639648 C-108.45654297 44.75999023 -108.45654297 44.75999023 -107.02636719 44.71264648 C-95.23092393 46.79984948 -87.98334135 55.39004011 -80.04589844 63.61889648 C-78.84004977 64.84987375 -77.63302677 66.07970181 -76.42480469 67.30834961 C-73.49313013 70.29462276 -70.57778061 73.29599286 -67.67089844 76.30639648 C-64.54482684 75.07877243 -61.47844642 73.78433079 -58.44042969 72.35327148 C-57.63541016 71.98073242 -56.83039063 71.60819336 -56.00097656 71.22436523 C-54.37033055 70.46786693 -52.74251446 69.70522604 -51.11816406 68.93530273 C-42.55528147 64.99973473 -33.62817484 62.19072432 -24.67089844 59.30639648 C-24.65687988 57.51407593 -24.65687988 57.51407593 -24.64257812 55.68554688 C-24.60246082 51.21789379 -24.53664301 46.75091366 -24.46337891 42.28369141 C-24.43529472 40.35669656 -24.41401824 38.4295892 -24.39990234 36.50244141 C-24.37829787 33.71906451 -24.33156033 30.93702259 -24.28027344 28.15405273 C-24.2790448 27.30367935 -24.27781616 26.45330597 -24.27655029 25.5771637 C-24.1070291 18.52614713 -22.31292523 12.39736143 -17.67089844 6.96655273 C-17.01089844 6.43932617 -16.35089844 5.91209961 -15.67089844 5.36889648 C-15.01089844 4.82362305 -14.35089844 4.27834961 -13.67089844 3.71655273 C-9.12151374 0.50888111 -5.52164917 0.0050895 0 0 Z " fill="#000000" transform="translate(223.6708984375,-0.306396484375)"/>
<path d="M0 0 C3.49329124 2.52541853 6.44772277 5.46411244 9.41088867 8.58764648 C10.80575552 10.05540309 12.22989035 11.48868703 13.66210938 12.91992188 C19.98415796 19.40465362 24.39708533 24.40867197 24.5 33.8125 C24.54640625 35.21435547 24.54640625 35.21435547 24.59375 36.64453125 C22.506547 48.43997451 13.91635638 55.68755709 5.6875 63.625 C4.45652273 64.83084866 3.22669468 66.03787166 1.99804688 67.24609375 C-0.98822627 70.17776831 -3.98959638 73.09311782 -7 76 C-5.77237595 79.12607159 -4.47793431 82.19245202 -3.046875 85.23046875 C-2.67433594 86.03548828 -2.30179687 86.84050781 -1.91796875 87.66992188 C-1.16147044 89.30056789 -0.39882956 90.92838398 0.37109375 92.55273438 C4.30666175 101.11561697 7.11567216 110.0427236 10 119 C11.1645874 119.01458252 12.3291748 119.02916504 13.52905273 119.04418945 C17.88482063 119.10253312 22.24009091 119.17976148 26.59545898 119.26245117 C28.47395704 119.29553184 30.35255046 119.32361527 32.23120117 119.34643555 C34.94490889 119.38029386 37.65775576 119.43262215 40.37109375 119.48828125 C41.19959335 119.49467117 42.02809296 119.5010611 42.88169861 119.50764465 C49.45982806 119.67037476 55.82351395 120.77645976 61.3046875 124.61328125 C61.82289063 125.17402344 62.34109375 125.73476562 62.875 126.3125 C63.40867187 126.86550781 63.94234375 127.41851562 64.4921875 127.98828125 C68.3303627 133.10916266 69.44579966 137.59390701 69.41992188 143.89794922 C69.42839142 144.66626068 69.43686096 145.43457214 69.44558716 146.22616577 C69.4688835 148.75251058 69.46998105 151.27824364 69.46875 153.8046875 C69.47585642 155.57056926 69.48355612 157.33644872 69.49182129 159.10232544 C69.50524946 162.79923931 69.50684255 166.4959397 69.50097656 170.19287109 C69.49508431 174.91622601 69.52565969 179.6385517 69.56609344 184.36170769 C69.59202116 188.00787822 69.59484324 191.65380264 69.59120178 195.30005264 C69.59288852 197.04068715 69.60248796 198.78133357 69.62034607 200.52187729 C69.71631444 211.03211072 69.42808783 217.80671917 62.2265625 226.0234375 C61.69804687 226.46945312 61.16953125 226.91546875 60.625 227.375 C60.10164062 227.83648437 59.57828125 228.29796875 59.0390625 228.7734375 C53.30220736 232.2243427 47.06888632 232.32451849 40.56640625 232.4140625 C39.2495005 232.44311172 39.2495005 232.44311172 37.9059906 232.4727478 C35.1249233 232.53212738 32.34381367 232.57876117 29.5625 232.625 C27.66730049 232.66321816 25.77211764 232.70227208 23.87695312 232.7421875 C19.25143871 232.83779429 14.62584308 232.92197755 10 233 C9.62198242 234.17393311 9.24396484 235.34786621 8.85449219 236.55737305 C6.04794709 245.1822044 3.14063838 253.60420195 -0.75 261.8125 C-1.51639814 263.46448529 -2.28204843 265.11681778 -3.046875 266.76953125 C-3.37526367 267.46667236 -3.70365234 268.16381348 -4.04199219 268.88208008 C-5.10290413 271.22749575 -6.05915677 273.6041987 -7 276 C-6.23856689 276.73524902 -5.47713379 277.47049805 -4.69262695 278.22802734 C-1.83745845 280.99184391 1.00043117 283.77287546 3.83374023 286.55908203 C5.05607083 287.75646054 6.28287551 288.94929111 7.5144043 290.13720703 C22.62167163 304.7231111 22.62167163 304.7231111 24.62890625 315.3203125 C24.59603516 316.70863281 24.59603516 316.70863281 24.5625 318.125 C24.56378906 319.05570312 24.56507813 319.98640625 24.56640625 320.9453125 C22.7089985 330.96250462 15.38972266 337.19880886 8.48046875 344.05078125 C7.33651816 345.19743089 6.19316154 346.34467336 5.05036926 347.49247742 C2.6620095 349.88671034 0.26662718 352.27362038 -2.1340332 354.65551758 C-5.20075014 357.69942077 -8.24912067 360.76096842 -11.29245472 363.82822895 C-13.64704683 366.1973159 -16.01113362 368.55674332 -18.37814903 370.91341209 C-19.50573491 372.03834223 -20.6303919 373.16621655 -21.75196266 374.29714394 C-23.32358053 375.87899098 -24.90758054 377.44733798 -26.49536133 379.01293945 C-27.39152664 379.90592239 -28.28769196 380.79890533 -29.21101379 381.71894836 C-33.89553924 385.55032064 -38.69261459 387.43302451 -44.8125 387.5 C-46.21435547 387.54640625 -46.21435547 387.54640625 -47.64453125 387.59375 C-59.43997451 385.506547 -66.68755709 376.91635638 -74.625 368.6875 C-75.83084866 367.45652273 -77.03787166 366.22669468 -78.24609375 364.99804688 C-81.17776831 362.01177373 -84.09311782 359.01040362 -87 356 C-89.45142242 356.96622635 -91.85317535 357.92658767 -94.2109375 359.10546875 C-99.14628603 361.57314302 -102.49409081 362.76189094 -108 361 C-110.76913845 358.67749678 -110.97632892 357.14465659 -111.5625 353.5625 C-110.92413947 349.51954999 -109.88862886 348.66955963 -106.75805664 346.22436523 C-103.96205909 344.27714572 -100.99706482 342.72840293 -97.9375 341.25 C-97.33873047 340.94707031 -96.73996094 340.64414062 -96.12304688 340.33203125 C-88.00102832 336.32884576 -88.00102832 336.32884576 -82.77832031 338.08056641 C-78.35366947 340.06263728 -75.36675181 343.14424002 -72.04296875 346.6015625 C-71.41393143 347.23863129 -70.7848941 347.87570007 -70.13679504 348.53207397 C-68.14395269 350.55374512 -66.16531672 352.58863663 -64.1875 354.625 C-62.18923662 356.66577962 -60.18814133 358.70370567 -58.18464661 360.73934937 C-56.94230961 362.00338189 -55.7034889 363.27088187 -54.46855164 364.54214478 C-50.51969563 368.7531028 -50.51969563 368.7531028 -45.19869995 370.337677 C-41.02858184 369.89745035 -39.77261195 368.5325403 -36.82080078 365.59716797 C-36.34199966 365.12888077 -35.86319855 364.66059357 -35.36988831 364.17811584 C-33.79629535 362.6308634 -32.24559398 361.06277101 -30.6953125 359.4921875 C-29.60617135 358.40708965 -28.51614098 357.32288367 -27.42526245 356.23953247 C-25.14438515 353.96749363 -22.87469378 351.68497599 -20.61230469 349.39453125 C-17.71376436 346.46180547 -14.78911626 343.55684433 -11.85554695 340.6592083 C-9.60041996 338.42577992 -7.35980099 336.17823529 -5.1232872 333.92618179 C-4.05040513 332.84930194 -2.97306097 331.7768484 -1.89120865 330.70898056 C-0.38006973 329.21311089 1.11045267 327.69929403 2.59716797 326.17919922 C3.44955048 325.32204315 4.30193298 324.46488708 5.18014526 323.58175659 C7.389719 320.44712092 7.46215428 318.75814927 7 315 C5.95933655 313.01026881 5.95933655 313.01026881 4.26953125 311.375 C3.30974365 310.35792969 3.30974365 310.35792969 2.33056641 309.3203125 C-3.04983713 303.96358139 -8.47208743 298.64414606 -13.97973633 293.41796875 C-15.60092288 291.8759403 -17.20187225 290.31507455 -18.80078125 288.75 C-19.75122314 287.83734375 -20.70166504 286.9246875 -21.6809082 285.984375 C-24.44082549 282.43271389 -25.66782846 279.47996168 -26 275 C-25.3125 272.21850586 -25.3125 272.21850586 -24 269.71484375 C-23.29157959 268.31214233 -23.29157959 268.31214233 -22.56884766 266.88110352 C-21.79226807 265.42401978 -21.79226807 265.42401978 -21 263.9375 C-19.96283864 261.88447991 -18.9289759 259.82979004 -17.8984375 257.7734375 C-17.39538086 256.78182617 -16.89232422 255.79021484 -16.37402344 254.76855469 C-12.8544669 247.67691092 -9.9214226 240.32079744 -7.7421875 232.70703125 C-7.53255371 231.98443115 -7.32291992 231.26183105 -7.10693359 230.51733398 C-6.71631703 229.13854864 -6.34518725 227.75401547 -5.99853516 226.36352539 C-4.86002192 222.2748463 -3.27086909 219.66942551 0.06719971 217.03146362 C3.95711599 214.95556 8.1985273 215.33870591 12.5078125 215.3984375 C13.51085419 215.39043121 14.51389587 215.38242493 15.54733276 215.37417603 C18.74030317 215.35115361 21.93199582 215.36055855 25.125 215.375 C28.3249048 215.37884662 31.52424909 215.37543111 34.72409058 215.35440063 C36.71178833 215.34230357 38.69964369 215.34499347 40.68728638 215.36410522 C41.58857269 215.36044952 42.48985901 215.35679382 43.41845703 215.35302734 C44.20866241 215.35700531 44.9988678 215.36098328 45.8130188 215.36508179 C48.5967692 214.90037886 49.95418517 213.91828753 52 212 C53.10673641 208.67979076 53.14037738 206.17813887 53.16113281 202.68017578 C53.17074036 201.3751712 53.1803479 200.07016663 53.19024658 198.72561646 C53.19509446 197.29885025 53.19937331 195.87208201 53.203125 194.4453125 C53.20887866 192.98184203 53.21463636 191.51837157 53.22039795 190.05490112 C53.23089966 186.98662973 53.2367478 183.91838449 53.24023438 180.85009766 C53.24571852 176.92365145 53.269748 172.99755212 53.29820633 169.07121468 C53.31685422 166.04799396 53.32203944 163.02485647 53.32357025 160.0015831 C53.32659228 158.55433124 53.33460569 157.10708068 53.34775543 155.65988541 C53.36485954 153.63286479 53.36108456 151.60570075 53.35644531 149.57861328 C53.36009094 148.42628204 53.36373657 147.27395081 53.36749268 146.08670044 C52.95752161 142.64320901 52.05931753 140.7642254 50 138 C47.65199748 136.82599874 46.26176507 136.87554864 43.64550781 136.87402344 C42.29335175 136.86831329 42.29335175 136.86831329 40.91387939 136.86248779 C39.93683044 136.86146057 38.95978149 136.86043335 37.953125 136.859375 C35.89061398 136.84104433 33.82811368 136.82147378 31.765625 136.80078125 C28.50893134 136.77182632 25.25292444 136.75000044 21.99609375 136.74951172 C18.85614871 136.74617338 15.71779366 136.7115954 12.578125 136.671875 C11.60917297 136.6789447 10.64022095 136.6860144 9.64190674 136.69329834 C5.27375038 136.61485037 1.9956921 136.49453102 -1.54150391 133.76171875 C-3.90803091 131.10331224 -4.97779361 129.51809391 -5.9140625 126.140625 C-6.33437744 124.7318811 -6.33437744 124.7318811 -6.76318359 123.29467773 C-7.04758301 122.28993408 -7.33198242 121.28519043 -7.625 120.25 C-10.83211947 109.74712894 -15.02180011 100.08617486 -19.96337891 90.28808594 C-26.64583161 76.99290289 -26.64583161 76.99290289 -24.94140625 71.73339844 C-22.93465847 67.35070135 -19.83673926 64.34846576 -16.3984375 61.04296875 C-15.76136871 60.41393143 -15.12429993 59.7848941 -14.46792603 59.13679504 C-12.44625488 57.14395269 -10.41136337 55.16531672 -8.375 53.1875 C-6.33422038 51.18923662 -4.29629433 49.18814133 -2.26065063 47.18464661 C-0.99661811 45.94230961 0.27088187 44.7034889 1.54214478 43.46855164 C5.7871214 39.50297632 5.7871214 39.50297632 7.29052734 34.13525391 C6.93825987 30.33372546 6.09674598 29.40784748 3.3515625 26.8359375 C2.59359375 26.10632813 1.835625 25.37671875 1.0546875 24.625 C0.25289063 23.8825 -0.54890625 23.14 -1.375 22.375 C-2.94958614 20.88732283 -4.52007592 19.39529501 -6.0859375 17.8984375 C-7.1385376 16.91883057 -7.1385376 16.91883057 -8.21240234 15.91943359 C-10.01192873 13.98719152 -11.07377522 12.46486475 -12 10 C-11.82357605 6.64794489 -11.56269287 4.02608699 -9.9375 1.0625 C-6.54492604 -0.79794379 -3.64991618 -1.01169193 0 0 Z " fill="#000000" transform="translate(443,80)"/>
<path d="M0 0 C3.82095466 1.5523922 4.89538031 2.79535257 6.79663086 6.5144043 C7.39066435 8.04865315 7.96604284 9.59019471 8.52734375 11.13671875 C8.85645248 12.00060715 9.18556122 12.86449554 9.52464294 13.75456238 C10.27337808 15.72329553 11.01490181 17.69478062 11.75067139 19.668396 C13.11145354 23.29721487 14.50568647 26.91248722 15.90673828 30.52587891 C18.32805575 36.77841098 20.72132999 43.04111716 23.09563637 49.31164742 C24.47500835 52.95358953 25.86063293 56.59287402 27.26098633 60.22680664 C28.639436 63.80428103 30.00218512 67.38736788 31.35401726 70.97498131 C31.8656697 72.32497979 32.38274857 73.6729356 32.90555 75.01865578 C33.63107173 76.88928687 34.33467498 78.76837399 35.03735352 80.64770508 C35.44180191 81.70878983 35.84625031 82.76987457 36.26295471 83.8631134 C37.13896773 87.59145077 36.83971567 90.28185746 36 94 C33.77834456 96.55078958 32.39170557 96.93332671 29.0625 97.5 C25.93533533 96.9894425 24.3560974 96.33846593 22.234375 93.96875 C19.30871472 89.30250703 16 82.57952178 16 77 C3.46 77 -9.08 77 -22 77 C-22.99 80.3 -23.98 83.6 -25 87 C-28.36842105 94.57894737 -28.36842105 94.57894737 -32 97 C-35.72476949 97.4858395 -37.55411242 97.24233021 -40.875 95.4375 C-43.19213843 92.77960592 -43.43446935 91.61289974 -43.3187561 88.16854858 C-42.62813006 83.47010953 -40.72560921 79.11073619 -39.01171875 74.70703125 C-38.5971492 73.61488312 -38.18257965 72.52273499 -37.75544739 71.39749146 C-36.41098642 67.86463491 -35.04990546 64.33847105 -33.6875 60.8125 C-32.76357012 58.40010915 -31.84039364 55.98742961 -30.91796875 53.57446289 C-29.10782468 48.84603976 -27.29036418 44.12053433 -25.46630859 39.39746094 C-23.68627904 34.78709862 -21.92094176 30.17159425 -20.17207336 25.54933167 C-18.95716095 22.34187579 -17.72830234 19.13985178 -16.5 15.9375 C-16.08709717 14.84219971 -15.67419434 13.74689941 -15.2487793 12.6184082 C-14.86761963 11.63960693 -14.48645996 10.66080566 -14.09375 9.65234375 C-13.78115234 8.83757568 -13.46855469 8.02280762 -13.14648438 7.18334961 C-10.07412719 1.33239341 -6.42322981 -0.50378273 0 0 Z M-4 29 C-5.71111852 33.39573909 -7.42005899 37.79231609 -9.12695312 42.18969727 C-9.7083802 43.68667686 -10.29041028 45.18342239 -10.87304688 46.67993164 C-11.70860498 48.82637811 -12.54201727 50.97364676 -13.375 53.12109375 C-13.63748535 53.79401962 -13.8999707 54.4669455 -14.17041016 55.16026306 C-15.45272701 57.99910709 -15.45272701 57.99910709 -16 61 C-7.75 61 0.5 61 9 61 C8.22724995 56.36349972 7.38823863 53.00536966 5.71484375 48.7265625 C5.04291992 46.99599609 5.04291992 46.99599609 4.35742188 45.23046875 C3.88884766 44.04066406 3.42027344 42.85085937 2.9375 41.625 C2.46505859 40.41199219 1.99261719 39.19898438 1.50585938 37.94921875 C0.34236751 34.96409821 -0.82640292 31.98115892 -2 29 C-2.66 29 -3.32 29 -4 29 Z " fill="#000000" transform="translate(200,156)"/>
<path d="M0 0 C2.03904837 0.00313737 4.07661171 -0.02023325 6.11547852 -0.0456543 C17.51444522 -0.05127786 26.59005524 1.68643083 35.37524414 9.31567383 C41.99645424 17.21019356 43.84603839 24.63469252 43.69555664 34.83520508 C43.25146601 39.66062893 41.82775461 43.18827815 39.37524414 47.31567383 C38.81836914 48.36754883 38.26149414 49.41942383 37.68774414 50.50317383 C32.30506815 57.04967165 24.73693674 61.11084866 16.37524414 62.31567383 C10.04294802 62.63444065 3.70991313 62.49127554 -2.62475586 62.31567383 C-2.60380859 63.23380859 -2.58286133 64.15194336 -2.5612793 65.09790039 C-2.49301003 68.51222811 -2.44291201 71.92582825 -2.4050293 75.34057617 C-2.38494285 76.81692973 -2.35766785 78.29320401 -2.32299805 79.76928711 C-2.27434402 81.89432345 -2.25175913 84.01830617 -2.23413086 86.14379883 C-2.21318359 87.42158203 -2.19223633 88.69936523 -2.1706543 90.01586914 C-2.62475586 93.31567383 -2.62475586 93.31567383 -4.43041992 95.73266602 C-7.63233528 98.04254799 -9.77680388 97.86538125 -13.62475586 97.31567383 C-15.98973025 95.44858878 -17.28506301 93.99505952 -18.62475586 91.31567383 C-18.72828719 88.65174178 -18.77156491 86.01376084 -18.77001953 83.34936523 C-18.77337814 82.52644485 -18.77673676 81.70352448 -18.78019714 80.85566711 C-18.78972201 78.12617497 -18.79165108 75.39674407 -18.79272461 72.66723633 C-18.79593633 70.77395604 -18.79930033 68.880676 -18.80281067 66.98739624 C-18.80880592 63.01445948 -18.81065018 59.04154448 -18.81005859 55.06860352 C-18.809957 49.97516031 -18.82360507 44.88185658 -18.8408308 39.78844643 C-18.85194451 35.87654986 -18.85397799 31.96468707 -18.85344887 28.05277634 C-18.85463009 26.174885 -18.85905984 24.29699281 -18.86678123 22.41911697 C-18.87656758 19.79290226 -18.87370836 17.16699098 -18.86767578 14.54077148 C-18.87329529 13.7634819 -18.87891479 12.98619232 -18.88470459 12.18534851 C-18.86275794 8.42957351 -18.81867243 5.45647702 -16.62475586 2.31567383 C-11.91220359 -1.07696016 -5.53558991 -0.01781205 0 0 Z M-2.62475586 16.31567383 C-2.62475586 26.21567383 -2.62475586 36.11567383 -2.62475586 46.31567383 C1.64461914 46.40848633 1.64461914 46.40848633 6.00024414 46.50317383 C6.88534668 46.53048584 7.77044922 46.55779785 8.68237305 46.5859375 C14.41432138 46.64592751 18.66286514 45.84765707 23.01977539 41.78051758 C26.81796347 36.81365624 28.16207788 33.62174713 27.37524414 27.31567383 C26.00728441 22.98525355 23.8335271 20.25002438 19.81274414 18.12817383 C15.13020659 15.90620537 10.97340327 15.85151324 5.87524414 16.06567383 C3.07024414 16.14817383 0.26524414 16.23067383 -2.62475586 16.31567383 Z " fill="#000000" transform="translate(269.624755859375,155.684326171875)"/>
<path d="M0 0 C2.19322205 1.4912262 2.19322205 1.4912262 4 4 C4.39970394 6.94202911 4.55742689 9.51093639 4.53344727 12.45288086 C4.54206284 13.30374771 4.55067841 14.15461456 4.55955505 15.03126526 C4.58225016 17.84276791 4.5754695 20.65327661 4.56640625 23.46484375 C4.57164052 25.42013343 4.57791627 27.37542058 4.58518982 29.33070374 C4.59560076 33.42884196 4.59102295 37.52663312 4.57641602 41.62475586 C4.55923302 46.87533159 4.5827139 52.12481254 4.61790562 57.37526608 C4.63987235 61.41336818 4.63843979 65.45120809 4.6301403 69.48935127 C4.62932027 71.42503624 4.63619354 73.36074036 4.65091133 75.29636955 C4.66834263 78.00417098 4.65382711 80.71000226 4.63110352 83.41772461 C4.64279572 84.21632904 4.65448792 85.01493347 4.66653442 85.83773804 C4.59750779 89.88278642 4.17262473 91.77906579 1.65196228 95.00514221 C-1 97 -1 97 -4.0625 97.5 C-7.27875747 96.95255192 -8.7075691 96.2924309 -11 94 C-12.24100054 90.27699839 -12.15554738 86.8142138 -12.16113281 82.93603516 C-12.16609772 82.11457504 -12.17106262 81.29311493 -12.17617798 80.44676208 C-12.19079066 77.72752039 -12.19759986 75.00833702 -12.203125 72.2890625 C-12.20887688 70.39960732 -12.2146346 68.51015216 -12.22039795 66.62069702 C-12.23090517 62.65793587 -12.23674977 58.695195 -12.24023438 54.73242188 C-12.24572068 49.65586116 -12.26975281 44.57956845 -12.29820633 39.50309181 C-12.31683341 35.59973366 -12.32203833 31.69644008 -12.32357025 27.79304123 C-12.32659679 25.92154855 -12.33462536 24.05005701 -12.34775543 22.17860794 C-12.36481857 19.5597826 -12.36293519 16.94161235 -12.35644531 14.32275391 C-12.3656601 13.55063065 -12.37487488 12.77850739 -12.3843689 11.98298645 C-12.34945986 7.48398225 -11.80143926 4.56983738 -9 1 C-5.90826248 -0.54586876 -3.40570448 -0.29359521 0 0 Z " fill="#000000" transform="translate(339,155)"/>
</svg>
