<?xml version="1.0" encoding="UTF-8"?>
<svg version="1.1" xmlns="http://www.w3.org/2000/svg" width="500" height="500">
<path d="M0 0 C3.88557637 1.29519212 4.11490867 2.60516532 5.9375 6.1875 C7.52610726 9.23200532 9.06566511 12.09644563 11 14.9375 C12.90368811 17.85252241 14.40540305 20.75232913 15.9375 23.875 C18.86163856 29.82639537 22.12139451 35.3335922 25.9375 40.75 C28.45379074 44.7150642 30.4288769 48.85662324 32.4375 53.09765625 C33.89430113 56.02395049 33.89430113 56.02395049 35.9375 58.37109375 C38.07969085 61.10157565 39.45162247 63.7617056 40.94628906 66.87207031 C42.73385818 70.48199904 44.81386172 73.91630557 46.875 77.375 C47.31553711 78.11959473 47.75607422 78.86418945 48.20996094 79.63134766 C50.53626553 83.55837544 52.88511903 87.47106951 55.25 91.375 C57.19664838 94.60133923 59.0289621 97.8682728 60.8125 101.1875 C63.24843244 105.70772109 65.83968771 110.1101259 68.5 114.5 C71.65466335 119.70744925 74.66192388 124.96287339 77.54296875 130.328125 C80.24620401 135.28526419 83.13748751 140.13372877 86 145 C87.2301204 147.10360925 88.45930211 149.20776771 89.6875 151.3125 C90.22761719 152.23675781 90.76773438 153.16101563 91.32421875 154.11328125 C94.02031376 158.75760343 96.68243199 163.4182752 99.2890625 168.11328125 C99.86527344 169.1487207 99.86527344 169.1487207 100.453125 170.20507812 C101.24451686 171.62826449 102.03352244 173.05278005 102.8203125 174.47851562 C105.05400385 178.49775781 105.05400385 178.49775781 108 182 C108.66666667 183.66666667 109.33333333 185.33333333 110 187 C111.84021792 190.37373286 113.71106731 193.57623205 115.875 196.75 C117.63592332 199.44317684 119.16970285 202.10678741 120.6875 204.9375 C123.16293029 209.54368041 125.78922376 214.03057735 128.5 218.5 C131.61434924 223.63870839 134.56819962 228.82730595 137.40625 234.125 C139.35290855 237.63661935 141.41947716 241.06653601 143.5 244.5 C147.17956966 250.57603086 150.64769167 256.73647654 154 263 C157.2594076 269.03273336 157.2594076 269.03273336 160.9375 274.8125 C162.85404554 277.77443401 164.38542419 280.71145772 165.9375 283.875 C168.86163856 289.82639537 172.12139451 295.3335922 175.9375 300.75 C178.45379074 304.7150642 180.4288769 308.85662324 182.4375 313.09765625 C183.90895018 316.07643926 183.90895018 316.07643926 186.1875 318.55859375 C188 321 188 321 188 326 C73.82 326 -40.36 326 -158 326 C-158.33 325.34 -158.66 324.68 -159 324 C-151.05395868 321.76368897 -143.09586453 320.28325085 -134.94018555 319.09057617 C-134.17230713 318.97689697 -133.40442871 318.86321777 -132.61328125 318.74609375 C-131.60454956 318.60192017 -131.60454956 318.60192017 -130.57543945 318.45483398 C-128.28172767 318.04975435 -126.03490652 317.56068885 -123.76513672 317.04101562 C-119.248174 316.02340978 -114.72243821 315.27933466 -110.14453125 314.59765625 C-99.46679502 312.95859397 -88.86191273 310.9810922 -78.24780273 308.97680664 C-69.14814698 307.26224664 -60.07365126 305.67192446 -50.89770508 304.41821289 C-47.54240832 303.93395783 -44.29938808 303.27434618 -41 302.5 C-36.34304684 301.46050153 -31.72930937 300.63338965 -27 300 C-22.37600339 299.37901932 -17.86489215 298.58295492 -13.3125 297.5625 C-7.91505038 296.36306675 -2.52450833 295.39997774 2.9375 294.5625 C18.70322611 292.1420826 34.44597378 289.55828676 50 286 C48.85724609 284.67548828 48.85724609 284.67548828 47.69140625 283.32421875 C42.13701203 276.87316723 36.64401639 270.38621187 31.27734375 263.77734375 C28.71795701 260.65603333 26.11394576 257.57560158 23.5 254.5 C16.41642775 246.15843643 9.50500002 237.68534982 2.7265625 229.09375 C1.22792051 227.27639229 -0.3189234 225.64463049 -2 224 C-7 218.46478873 -7 218.46478873 -7 216 C-7.99 215.67 -8.98 215.34 -10 215 C-11.75305427 212.9067148 -13.38963187 210.82267886 -15 208.625 C-18.71761747 203.570843 -18.71761747 203.570843 -23 199 C-28 193.46478873 -28 193.46478873 -28 191 C-29.32 190.34 -30.64 189.68 -32 189 C-32 188.01 -32 187.02 -32 186 C-32.57363281 185.77183594 -33.14726562 185.54367187 -33.73828125 185.30859375 C-36.60384519 183.65062498 -38.15128793 181.66411429 -40.1875 179.0625 C-40.88230469 178.18722656 -41.57710938 177.31195313 -42.29296875 176.41015625 C-44 174 -44 174 -45 171 C-45.66 171 -46.32 171 -47 171 C-47.268125 170.195625 -47.53625 169.39125 -47.8125 168.5625 C-48.204375 167.716875 -48.59625 166.87125 -49 166 C-49.99 165.67 -50.98 165.34 -52 165 C-52.33 164.01 -52.66 163.02 -53 162 C-54.99665314 160.31461399 -54.99665314 160.31461399 -57 159 C-56.43073217 152.97389338 -54.61422001 147.91185464 -52.375 142.3125 C-49.18255431 134.15298226 -46.17576386 125.95404434 -43.34716797 117.66137695 C-42.16114674 114.2088094 -40.93436252 110.8476939 -39.48828125 107.4921875 C-38.07003369 104.16433102 -36.90493561 100.84613819 -35.78613281 97.41064453 C-31.32677367 83.73619976 -26.38259984 70.22823437 -21.28881836 56.77978516 C-18.91211679 50.48734094 -16.63120753 44.17090797 -14.4375 37.8125 C-11.98916295 30.72584889 -9.41909186 23.69409607 -6.75 16.6875 C-6.42056396 15.82165283 -6.09112793 14.95580566 -5.75170898 14.0637207 C-3.93528764 9.32783514 -2.03209628 4.64747946 0 0 Z " fill="#0189D6" transform="translate(287,99)"/>
<path d="M0 0 C-0.29519531 0.73347656 -0.59039062 1.46695313 -0.89453125 2.22265625 C-1.55070589 3.87120808 -2.19762742 5.52357218 -2.82421875 7.18359375 C-4.92799196 12.67625049 -7.4074799 17.88793138 -10.08081055 23.125 C-12.71270271 28.32666257 -15.12407228 33.6146774 -17.5 38.9375 C-21.24829948 47.3335964 -25.0767595 55.68386378 -29 64 C-29.36125977 64.76763672 -29.72251953 65.53527344 -30.09472656 66.32617188 C-38.27952801 83.71286177 -38.27952801 83.71286177 -41.9296875 90.796875 C-43.05862325 93.12066976 -44.0673471 95.48493961 -45.07617188 97.86279297 C-47.082131 102.50342885 -49.20702523 107.09140263 -51.3125 111.6875 C-51.80234375 112.75806641 -52.2921875 113.82863281 -52.796875 114.93164062 C-55.70278894 121.25605015 -58.70912312 127.49941914 -61.87890625 133.6953125 C-62.87164933 135.73614322 -63.68757368 137.73615688 -64.4375 139.875 C-65.96069336 144.20407587 -68.07557224 148.20422774 -70.1628418 152.28442383 C-72.86863768 157.62292434 -75.27526087 163.06907443 -77.60253906 168.58203125 C-79.16605425 172.24948999 -80.9520492 175.58854511 -83 179 C-84.01230072 181.32802313 -85.01160565 183.66172691 -86 186 C-87.1301596 188.27867447 -88.27626082 190.54950605 -89.4375 192.8125 C-91.85724738 197.58219436 -94.01289635 202.37268258 -95.93359375 207.36328125 C-97.46095883 211.13973336 -99.20400476 214.80762576 -100.94360352 218.49023438 C-103.343867 223.57652185 -105.68480788 228.68792676 -108.01293945 233.80761719 C-113.24089947 245.29389782 -118.69453517 256.6193091 -124.4609375 267.84375 C-126.85558175 272.54596052 -128.9298753 277.25990147 -130.84375 282.17578125 C-135.01139792 292.3555429 -140.08691965 302.1738393 -145 312 C-179.32 312 -213.64 312 -249 312 C-248.12518326 305.87628281 -247.12147289 302.9136119 -244 298 C-242.99683775 296.33523477 -241.99702886 294.66844576 -241 293 C-240.48566406 292.14535156 -239.97132813 291.29070312 -239.44140625 290.41015625 C-236.7379875 285.88980566 -234.16567316 281.30103984 -231.625 276.6875 C-228.27601011 270.65117477 -224.72382958 264.74292722 -221.05078125 258.8984375 C-217.13310092 252.64507347 -213.59769155 246.3697616 -210.37890625 239.73046875 C-208.79398121 236.59204777 -207.00905045 233.65375669 -205.078125 230.71875 C-203.91690698 228.86753287 -202.9490675 226.96715809 -202 225 C-201.34 225 -200.68 225 -200 225 C-199.79375 224.236875 -199.5875 223.47375 -199.375 222.6875 C-196.25904963 214.33108763 -191.3477715 206.87957908 -186.5234375 199.421875 C-184.81041612 196.69861025 -183.41358554 193.88863132 -182 191 C-179.52487309 186.74307992 -176.94342632 182.54958912 -174.3828125 178.34375 C-172.31865602 174.9342975 -170.28310276 171.56620553 -168.5 168 C-165.79667437 162.59334873 -162.52458492 157.50414915 -159.3828125 152.34375 C-158.86460937 151.4878125 -158.34640625 150.631875 -157.8125 149.75 C-157.11060547 148.59757812 -157.11060547 148.59757812 -156.39453125 147.421875 C-155.42573845 145.73937771 -154.51649613 144.02174798 -153.65625 142.28125 C-151.05290072 137.12367124 -148.10495566 132.1697203 -145.18554688 127.18603516 C-143.18136845 123.76431528 -141.18869901 120.35618596 -139.33203125 116.8515625 C-136.18860748 111.00719103 -132.34979972 107.41148797 -127.09375 103.3828125 C-123.00272246 100.23189483 -119.12653348 96.85136949 -115.23999023 93.45336914 C-111.2189948 90 -111.2189948 90 -109 90 C-109 89.34 -109 88.68 -109 88 C-107.12890625 86.30078125 -107.12890625 86.30078125 -104.5625 84.3125 C-103.655 83.60351562 -102.7475 82.89453125 -101.8125 82.1640625 C-100.884375 81.44992188 -99.95625 80.73578125 -99 80 C-97.3535214 78.73000278 -95.70763721 77.45923436 -94.0625 76.1875 C-92.99708984 75.37345703 -92.99708984 75.37345703 -91.91015625 74.54296875 C-90.14411057 73.11640833 -88.58594477 71.62042183 -87 70 C-81.46478873 65 -81.46478873 65 -79 65 C-78.77183594 64.42636719 -78.54367188 63.85273438 -78.30859375 63.26171875 C-76.65062498 60.39615481 -74.66411429 58.84871207 -72.0625 56.8125 C-71.18722656 56.11769531 -70.31195313 55.42289063 -69.41015625 54.70703125 C-67 53 -67 53 -64 52 C-64 51.34 -64 50.68 -64 50 C-62.7934375 49.5978125 -62.7934375 49.5978125 -61.5625 49.1875 C-60.716875 48.795625 -59.87125 48.40375 -59 48 C-58.67 47.01 -58.34 46.02 -58 45 C-55.953125 43.125 -55.953125 43.125 -53.25 41 C-52.25484375 40.2059375 -51.2596875 39.411875 -50.234375 38.59375 C-49.70521484 38.17222656 -49.17605469 37.75070313 -48.63085938 37.31640625 C-45.87810278 35.09442069 -43.19169337 32.79524241 -40.5 30.5 C-36.53156357 27.12647908 -32.53980846 23.78821619 -28.5 20.5 C-23.29034298 16.25904934 -18.16173527 11.92778392 -13.04296875 7.578125 C-12.03878906 6.72734375 -11.03460938 5.8765625 -10 5 C-9.47873535 4.52498047 -8.9574707 4.04996094 -8.42041016 3.56054688 C-5.2616811 0.74354298 -4.40789451 0 0 0 Z " fill="#0189D6" transform="translate(274,75)"/>
<path d="M0 0 C3.27379995 2.78272996 4.93953629 6.29116532 7 10 C7.33 10.33 7.66 10.66 8 11 C8 12.65 8 14.3 8 16 C-106.18 16 -220.36 16 -338 16 C-338.33 15.34 -338.66 14.68 -339 14 C-331.05395868 11.76368897 -323.09586453 10.28325085 -314.94018555 9.09057617 C-311.0458422 8.51404501 -307.22426508 7.84971355 -303.390625 6.94921875 C-299.40827105 6.0334903 -295.52314175 5.61299855 -291.4375 5.375 C-290.21933594 5.30023438 -289.00117188 5.22546875 -287.74609375 5.1484375 C-286.83988281 5.09945313 -285.93367188 5.05046875 -285 5 C-288.03570977 6.69122293 -290.77291864 7.46230032 -294.1875 8.0625 C-297.39132953 8.42184668 -297.39132953 8.42184668 -300 10 C-309.13283134 12.22706338 -318.73613492 12.91013352 -328 14 C-218.11 14 -108.22 14 5 14 C3.35 10.7 1.7 7.4 0 4 C0 2.68 0 1.36 0 0 Z " fill="#388AB6" transform="translate(467,409)"/>
<path d="M0 0 C0.88336837 2.4667645 1.1312406 3.63859372 0.22265625 6.140625 C-0.16019531 6.83671875 -0.54304688 7.5328125 -0.9375 8.25 C-1.31777344 8.95640625 -1.69804688 9.6628125 -2.08984375 10.390625 C-2.39019531 10.92171875 -2.69054688 11.4528125 -3 12 C-3.66 12 -4.32 12 -5 12 C-5.185625 13.2065625 -5.185625 13.2065625 -5.375 14.4375 C-5.58125 15.283125 -5.7875 16.12875 -6 17 C-6.66 17.33 -7.32 17.66 -8 18 C-8.33 20.31 -8.66 22.62 -9 25 C40.005 24.505 40.005 24.505 90 24 C90.33 22.35 90.66 20.7 91 19 C91.99 19 92.98 19 94 19 C94 17.68 94 16.36 94 15 C94.66 15 95.32 15 96 15 C95.38188124 20.0994798 93.84410149 22.02282239 91 27 C56.68 27 22.36 27 -13 27 C-12.12467305 20.87271138 -11.11803214 17.91652091 -8 13 C-6.95612818 11.25131447 -5.91456572 9.50124886 -4.875 7.75 C-3.29964356 5.12168511 -1.70041421 2.55062132 0 0 Z " fill="#51A8D0" transform="translate(38,360)"/>
<path d="M0 0 C-3.03570977 1.69122293 -5.77291864 2.46230032 -9.1875 3.0625 C-12.39132953 3.42184668 -12.39132953 3.42184668 -15 5 C-24.14086342 7.22902202 -33.66516412 7.97130765 -43 9 C-43 9.66 -43 10.32 -43 11 C-46.3 11 -49.6 11 -53 11 C-53.33 10.34 -53.66 9.68 -54 9 C-46.05395868 6.76368897 -38.09586453 5.28325085 -29.94018555 4.09057617 C-25.22936421 3.39317098 -20.61647203 2.50086279 -15.9753418 1.43481445 C-10.74446487 0.28338795 -5.35105455 -0.17261466 0 0 Z " fill="#59ACD6" transform="translate(182,414)"/>
<path d="M0 0 C1.32 0 2.64 0 4 0 C3.566875 1.07507813 3.566875 1.07507813 3.125 2.171875 C2.40213469 3.98907808 1.69261836 5.81167965 1 7.640625 C0.67 8.50171875 0.34 9.3628125 0 10.25 C-0.33 11.12140625 -0.66 11.9928125 -1 12.890625 C-2 15 -2 15 -4 16 C-3.67 13.03 -3.34 10.06 -3 7 C-3.33 7.33 -3.66 7.66 -4 8 C-6.01963511 9.23397486 -8.05289463 10.44327341 -10.08984375 11.6484375 C-12.27421758 13.02260042 -12.27421758 13.02260042 -14 16 C-14.99 16.33 -15.98 16.66 -17 17 C-17.33 17.99 -17.66 18.98 -18 20 C-21 22 -21 22 -23.1875 21.625 C-24.0846875 21.315625 -24.0846875 21.315625 -25 21 C-17.73771157 14.82301381 -10.4478905 8.69033881 -3.046875 2.6796875 C-1.12984433 1.16253021 -1.12984433 1.16253021 0 0 Z " fill="#61B1D8" transform="translate(270,75)"/>
<path d="M0 0 C0.66 0.33 1.32 0.66 2 1 C0.53060759 8.92581363 -0.93482686 15.99108079 -5 23 C-6.17024576 19.48926273 -5.67289278 17.58876152 -5 14 C-5 13.01 -5 12.02 -5 11 C-5.99 11.66 -6.98 12.32 -8 13 C-10.28397032 12.65394389 -11.93409037 12.03295481 -14 11 C-13.1646875 10.6596875 -13.1646875 10.6596875 -12.3125 10.3125 C-9.80089951 9.02250701 -9.80089951 9.02250701 -7.5 6.5 C-5.28616635 4.28616635 -3.76322514 3.28292596 -1 2 C-0.67 1.34 -0.34 0.68 0 0 Z " fill="#0588D1" transform="translate(266,81)"/>
<path d="M0 0 C3 1 3 1 4.38671875 3.28515625 C4.81597656 4.20167969 5.24523437 5.11820312 5.6875 6.0625 C6.34298828 7.44115234 6.34298828 7.44115234 7.01171875 8.84765625 C7.33785156 9.55792969 7.66398437 10.26820312 8 11 C7.01 11 6.02 11 5 11 C2.21519796 11.48734036 -0.31237917 12.10412639 -3 13 C-3 13.66 -3 14.32 -3 15 C-3.66 15 -4.32 15 -5 15 C-5.33 15.66 -5.66 16.32 -6 17 C-5.34331435 13.25141943 -4.3123267 9.82030057 -3 6.25 C-2.649375 5.28578125 -2.29875 4.3215625 -1.9375 3.328125 C-1 1 -1 1 0 0 Z " fill="#2D98D3" transform="translate(287,99)"/>
<path d="M0 0 C0.66 0.33 1.32 0.66 2 1 C0.6875 3.5 0.6875 3.5 -1 6 C-1.99 6 -2.98 6 -4 6 C-4 6.66 -4 7.32 -4 8 C-4.99 8.33 -5.98 8.66 -7 9 C-7.33 9.66 -7.66 10.32 -8 11 C-8.66 11 -9.32 11 -10 11 C-10.0825 11.598125 -10.165 12.19625 -10.25 12.8125 C-11.22294427 15.65025411 -12.44449313 16.49676067 -15 18 C-15.99 18 -16.98 18 -18 18 C-18 18.66 -18 19.32 -18 20 C-18.99 20 -19.98 20 -21 20 C-21.33 20.99 -21.66 21.98 -22 23 C-24.4375 24.75 -24.4375 24.75 -27 26 C-27.66 25.67 -28.32 25.34 -29 25 C-27.625 23.5 -27.625 23.5 -26 22 C-25.34 22 -24.68 22 -24 22 C-24 21.34 -24 20.68 -24 20 C-23.195625 19.731875 -22.39125 19.46375 -21.5625 19.1875 C-20.716875 18.795625 -19.87125 18.40375 -19 18 C-18.67 17.01 -18.34 16.02 -18 15 C-16.34731229 13.49885632 -14.62793314 12.07026333 -12.875 10.6875 C-11.88628906 9.89859375 -10.89757812 9.1096875 -9.87890625 8.296875 C-8.92886719 7.53890625 -7.97882813 6.7809375 -7 6 C-4.64718131 4.02121915 -2.32327582 2.01350571 0 0 Z " fill="#42A0D3" transform="translate(234,105)"/>
<path d="M0 0 C3.27379995 2.78272996 4.93953629 6.29116532 7 10 C7.33 10.33 7.66 10.66 8 11 C8.04063832 12.66617115 8.042721 14.33388095 8 16 C4.9999376 16.02721831 2.00012744 16.04694378 -1 16.0625 C-1.83917969 16.07087891 -2.67835938 16.07925781 -3.54296875 16.08789062 C-8.79319339 16.10824033 -13.80455662 15.76368207 -19 15 C-19 14.67 -19 14.34 -19 14 C-11.08 14 -3.16 14 5 14 C3.35 10.7 1.7 7.4 0 4 C0 2.68 0 1.36 0 0 Z " fill="#2C8DC3" transform="translate(467,409)"/>
<path d="M0 0 C0.99 0 1.98 0 3 0 C0.60292686 8.17824952 -3.08858772 15.46651278 -7 23 C-7.33 23 -7.66 23 -8 23 C-8 21.02 -8 19.04 -8 17 C-7.34 17 -6.68 17 -6 17 C-6 14.03 -6 11.06 -6 8 C-5.01 7.67 -4.02 7.34 -3 7 C-2.67 6.34 -2.34 5.68 -2 5 C-1.34 5 -0.68 5 0 5 C0 3.35 0 1.7 0 0 Z " fill="#359CD6" transform="translate(159,315)"/>
<path d="M0 0 C-0.61875 0.28875 -1.2375 0.5775 -1.875 0.875 C-4.13325765 1.93720042 -4.13325765 1.93720042 -6 4 C-9.00390625 4.37890625 -9.00390625 4.37890625 -12.5625 4.5625 C-16.60086946 4.42225226 -16.60086946 4.42225226 -20 6 C-22.85877909 6.23701239 -25.69883297 6.42219182 -28.5625 6.5625 C-29.36880859 6.60568359 -30.17511719 6.64886719 -31.00585938 6.69335938 C-33.00368805 6.79975262 -35.0018207 6.90040888 -37 7 C-33.85784469 5.22559006 -31.05517207 4.52362457 -27.5 3.96484375 C-25.9221875 3.71057617 -25.9221875 3.71057617 -24.3125 3.45117188 C-23.219375 3.28166016 -22.12625 3.11214844 -21 2.9375 C-18.83311625 2.59381384 -16.6664402 2.24881488 -14.5 1.90234375 C-13.5409375 1.75273193 -12.581875 1.60312012 -11.59375 1.44897461 C-9.05714439 1.04445244 -9.05714439 1.04445244 -6.828125 0.44750977 C-4.52127215 -0.11718859 -2.36500841 -0.06569468 0 0 Z " fill="#5BADD5" transform="translate(276,397)"/>
<path d="M0 0 C1.9375 0.375 1.9375 0.375 4 1 C4.33 1.66 4.66 2.32 5 3 C7.02463255 3.65213292 7.02463255 3.65213292 9 4 C9.33 6.64 9.66 9.28 10 12 C6.93466836 13.53266582 3.73245728 13.10276471 0.375 13.0625 C-0.33140625 13.05798828 -1.0378125 13.05347656 -1.765625 13.04882812 C-3.51045275 13.03703875 -5.255237 13.01910324 -7 13 C-7 12.67 -7 12.34 -7 12 C-0.07 10.515 -0.07 10.515 7 9 C5.845 7.700625 4.69 6.40125 3.5 5.0625 C0 1.125 0 1.125 0 0 Z " fill="#4AA7D6" transform="translate(330,376)"/>
<path d="M0 0 C0.88336837 2.4667645 1.1312406 3.63859372 0.22265625 6.140625 C-0.16019531 6.83671875 -0.54304688 7.5328125 -0.9375 8.25 C-1.31777344 8.95640625 -1.69804688 9.6628125 -2.08984375 10.390625 C-2.39019531 10.92171875 -2.69054688 11.4528125 -3 12 C-3.66 12 -4.32 12 -5 12 C-5.185625 13.2065625 -5.185625 13.2065625 -5.375 14.4375 C-5.58125 15.283125 -5.7875 16.12875 -6 17 C-6.66 17.33 -7.32 17.66 -8 18 C-8.40729228 20.32156597 -8.74438677 22.6568787 -9 25 C-10.32 24.67 -11.64 24.34 -13 24 C-9.96672767 15.45168706 -4.68546301 7.71249753 0 0 Z " fill="#55A9D5" transform="translate(38,360)"/>
<path d="M0 0 C0.33 0.66 0.66 1.32 1 2 C0.67 2.99 0.34 3.98 0 5 C-0.99 5.33 -1.98 5.66 -3 6 C-3.4125 6.78375 -3.825 7.5675 -4.25 8.375 C-6.58161597 11.87242395 -9.1640863 12.46563452 -13 14 C-13.99 15.485 -13.99 15.485 -15 17 C-16.32 16.67 -17.64 16.34 -19 16 C-16.87996003 14.16064138 -14.75442773 12.32843267 -12.625 10.5 C-12.02171875 9.97535156 -11.4184375 9.45070312 -10.796875 8.91015625 C-6.2265625 5 -6.2265625 5 -4 5 C-4 4.34 -4 3.68 -4 3 C-2 1.375 -2 1.375 0 0 Z " fill="#55ABD6" transform="translate(169,160)"/>
<path d="M0 0 C0.66 0 1.32 0 2 0 C1.34764225 4.43603269 0.15544109 6.68911782 -2 11 C-13.22 11 -24.44 11 -36 11 C-36 10.67 -36 10.34 -36 10 C-25.44 9.67 -14.88 9.34 -4 9 C-3.67 7.35 -3.34 5.7 -3 4 C-2.01 4 -1.02 4 0 4 C0 2.68 0 1.36 0 0 Z " fill="#258FCA" transform="translate(132,375)"/>
<path d="M0 0 C0.66 0.33 1.32 0.66 2 1 C0.12520346 5.84486895 -2.00675795 10.57078149 -4.125 15.3125 C-4.49753906 16.14845703 -4.87007812 16.98441406 -5.25390625 17.84570312 C-6.16842738 19.89751336 -7.08381593 21.9489319 -8 24 C-8.33 24 -8.66 24 -9 24 C-9 21.69 -9 19.38 -9 17 C-8.34 16.67 -7.68 16.34 -7 16 C-6.26924352 13.6859378 -5.59861742 11.35171131 -5 9 C-4.34 9 -3.68 9 -3 9 C-2.814375 7.88625 -2.814375 7.88625 -2.625 6.75 C-2.04513299 4.19858515 -1.26291261 2.2732427 0 0 Z " fill="#49A4D0" transform="translate(206,216)"/>
<path d="M0 0 C0.62109375 1.8671875 0.62109375 1.8671875 1 4 C-0.9375 6.125 -0.9375 6.125 -3 8 C-3 8.66 -3 9.32 -3 10 C-3.66 10 -4.32 10 -5 10 C-5 9.34 -5 8.68 -5 8 C-5.66 8 -6.32 8 -7 8 C-7.33 8.99 -7.66 9.98 -8 11 C-9.98 11.33 -11.96 11.66 -14 12 C-9.73412126 7.45890328 -4.96387672 3.75264754 0 0 Z " fill="#3B9CD3" transform="translate(184,148)"/>
<path d="M0 0 C0 7.93379601 -5.42045476 16.10497433 -9 23 C-10.35439668 20.29120665 -10.06501451 17.99066732 -10 15 C-9.01 15 -8.02 15 -7 15 C-6.896875 13.72125 -6.79375 12.4425 -6.6875 11.125 C-6.51171875 8.9453125 -6.51171875 8.9453125 -6 7 C-5.01 6.34 -4.02 5.68 -3 5 C-1.94895617 3.36504293 -0.94011682 1.70116376 0 0 Z " fill="#48A4D5" transform="translate(146,347)"/>
<path d="M0 0 C2 3 2 3 1.609375 5.55859375 C1.32578125 6.50863281 1.0421875 7.45867187 0.75 8.4375 C0.47671875 9.38496094 0.2034375 10.33242187 -0.078125 11.30859375 C-0.88887691 13.67557709 -1.81507591 15.80165399 -3 18 C-3.66 18 -4.32 18 -5 18 C-5.33 19.32 -5.66 20.64 -6 22 C-7.15699511 18.52901466 -6.82954442 17.85266875 -5.56640625 14.55078125 C-5.0878418 13.27944336 -5.0878418 13.27944336 -4.59960938 11.98242188 C-4.25736328 11.10134766 -3.91511719 10.22027344 -3.5625 9.3125 C-3.22412109 8.41982422 -2.88574219 7.52714844 -2.53710938 6.60742188 C-1.69962693 4.40165826 -0.85367026 2.19953824 0 0 Z " fill="#44A3D3" transform="translate(262,166)"/>
<path d="M0 0 C-0.639375 0.28875 -1.27875 0.5775 -1.9375 0.875 C-4.15206079 1.82823451 -4.15206079 1.82823451 -5 4 C-12.59 4.33 -20.18 4.66 -28 5 C-28 4.67 -28 4.34 -28 4 C-24.27206058 3.32634616 -20.54247005 2.66231022 -16.8125 2 C-15.75740234 1.80921875 -14.70230469 1.6184375 -13.61523438 1.421875 C-12.59365234 1.24140625 -11.57207031 1.0609375 -10.51953125 0.875 C-9.11344604 0.62363281 -9.11344604 0.62363281 -7.67895508 0.3671875 C-5.08032281 0.01100934 -2.61893788 -0.06645996 0 0 Z " fill="#5BABD6" transform="translate(220,407)"/>
<path d="M0 0 C0 0.66 0 1.32 0 2 C-3.63 2.33 -7.26 2.66 -11 3 C-11 3.66 -11 4.32 -11 5 C-15.62 5 -20.24 5 -25 5 C-25 4.67 -25 4.34 -25 4 C-21.77245186 3.32533254 -18.54273065 2.66169431 -15.3125 2 C-14.40048828 1.80921875 -13.48847656 1.6184375 -12.54882812 1.421875 C-11.66259766 1.24140625 -10.77636719 1.0609375 -9.86328125 0.875 C-9.05157471 0.70742188 -8.23986816 0.53984375 -7.40356445 0.3671875 C-4.89938135 -0.0153713 -2.52924498 -0.06298509 0 0 Z " fill="#53A9D5" transform="translate(315,390)"/>
<path d="M0 0 C0.33 0.66 0.66 1.32 1 2 C0.24812026 3.73259244 -0.50721987 5.46398226 -1.296875 7.1796875 C-2.19913336 9.51553415 -2.22515052 11.52334423 -2 14 C-2.66 14 -3.32 14 -4 14 C-4 14.99 -4 15.98 -4 17 C-5.32 17.33 -6.64 17.66 -8 18 C-7.37793965 13.80109263 -5.93005303 10.51731506 -4 6.75 C-3.195625 5.16445313 -3.195625 5.16445313 -2.375 3.546875 C-1 1 -1 1 0 0 Z " fill="#49A7D5" transform="translate(66,311)"/>
<path d="M0 0 C1.30514174 2.96623123 0.96620438 4.09071456 -0.1875 7.1875 C-0.7855878 8.4612055 -1.39044892 9.73174049 -2 11 C-2.73304292 12.64411054 -3.46217277 14.289971 -4.1875 15.9375 C-4.79120246 17.29187368 -5.39520315 18.64611467 -6 20 C-6.33 20 -6.66 20 -7 20 C-7 17.69 -7 15.38 -7 13 C-6.34 12.67 -5.68 12.34 -5 12 C-4.16166796 9.45615533 -4.16166796 9.45615533 -3.5 6.5 C-2.78125 3.46875 -2.78125 3.46875 -2 1 C-1.34 0.67 -0.68 0.34 0 0 Z " fill="#47A2D0" transform="translate(190,250)"/>
<path d="M0 0 C0.95723508 2.56045702 1.11371335 3.69468745 0.14453125 6.296875 C-0.29503906 7.10640625 -0.73460937 7.9159375 -1.1875 8.75 C-1.87972656 10.05324219 -1.87972656 10.05324219 -2.5859375 11.3828125 C-3.28589844 12.67832031 -3.28589844 12.67832031 -4 14 C-4.77676467 15.53868671 -5.54827138 17.08004862 -6.3125 18.625 C-6.869375 19.73875 -7.42625 20.8525 -8 22 C-9.31223496 18.06329512 -8.24296256 15.87511856 -7 12 C-6.34 12 -5.68 12 -5 12 C-5 10.35 -5 8.7 -5 7 C-4.01 7 -3.02 7 -2 7 C-1.34 4.69 -0.68 2.38 0 0 Z " fill="#59ADD6" transform="translate(174,286)"/>
<path d="M0 0 C5.406055 4.93946097 9.02815991 12.39591091 12 19 C12 19.66 12 20.32 12 21 C9 20 9 20 7.9375 17.96875 C7.3125 16.32291667 6.6875 14.67708333 6.0625 13.03125 C5.11816821 10.65380285 5.11816821 10.65380285 2 10 C2 8.02 2 6.04 2 4 C1.01 3.67 0.02 3.34 -1 3 C-0.67 2.01 -0.34 1.02 0 0 Z " fill="#56AAD7" transform="translate(366,234)"/>
<path d="M0 0 C1.125 3.75 1.125 3.75 0 6 C-0.66 6 -1.32 6 -2 6 C-2.0825 7.0725 -2.165 8.145 -2.25 9.25 C-3.05476902 13.2738451 -3.87729874 14.48169253 -7 17 C-7.66 16.67 -8.32 16.34 -9 16 C-6.3131884 10.42735372 -3.36721643 5.18882532 0 0 Z " fill="#4BA5D4" transform="translate(48,343)"/>
<path d="M0 0 C0.66 0 1.32 0 2 0 C0.50640515 4.84286815 -1.45033567 9.31350896 -3.625 13.875 C-3.94984375 14.56335938 -4.2746875 15.25171875 -4.609375 15.9609375 C-5.40323472 17.64205219 -6.20119558 19.32122921 -7 21 C-7.95821359 17.62103629 -8.01444422 15.41222148 -7 12 C-6.34 11.67 -5.68 11.34 -5 11 C-4.34786708 8.97536745 -4.34786708 8.97536745 -4 7 C-3.34 7 -2.68 7 -2 7 C-1.855625 6.21625 -1.71125 5.4325 -1.5625 4.625 C-1 2 -1 2 0 0 Z " fill="#53ABD5" transform="translate(243,137)"/>
<path d="M0 0 C3.48243141 2.32162094 3.56990454 3.21445319 5 7 C7.02757576 10.89783961 9.25060972 14.56326215 12 18 C11.67 18.66 11.34 19.32 11 20 C4.48103554 15.65402369 2.1105399 7.25819819 0 0 Z " fill="#5DABD3" transform="translate(392,279)"/>
<path d="M0 0 C4.455 0.99 4.455 0.99 9 2 C9 2.66 9 3.32 9 4 C8.34 4 7.68 4 7 4 C7 5.32 7 6.64 7 8 C7.66 8.33 8.32 8.66 9 9 C8.01 9 7.02 9 6 9 C5.34 7.68 4.68 6.36 4 5 C3.34 5 2.68 5 2 5 C1.34 3.35 0.68 1.7 0 0 Z " fill="#40A0D6" transform="translate(238,265)"/>
<path d="M0 0 C4.52723595 1.34593501 5.72648517 2.96967825 8 7 C8.99 7.33 9.98 7.66 11 8 C11.33 9.98 11.66 11.96 12 14 C6.99345667 10.51059101 3.48289714 5.94832361 0 1 C0 0.67 0 0.34 0 0 Z " fill="#54ACD8" transform="translate(318,361)"/>
<path d="M0 0 C1.21386936 3.64160808 0.6674695 4.33165469 -0.9375 7.6875 C-1.31777344 8.49574219 -1.69804688 9.30398438 -2.08984375 10.13671875 C-2.39019531 10.75160156 -2.69054687 11.36648438 -3 12 C-3.66 12 -4.32 12 -5 12 C-5.33 12.99 -5.66 13.98 -6 15 C-6.66 15 -7.32 15 -8 15 C-6.25565047 10.08410586 -3.74513488 3.74513488 0 0 Z " fill="#4BA6D5" transform="translate(93,265)"/>
<path d="M0 0 C0.33 0.66 0.66 1.32 1 2 C0.328125 3.734375 0.328125 3.734375 -0.75 5.75 C-1.12125 6.45640625 -1.4925 7.1628125 -1.875 7.890625 C-2.431875 8.93476563 -2.431875 8.93476563 -3 10 C-3.5775 11.155 -4.155 12.31 -4.75 13.5 C-5.1625 14.325 -5.575 15.15 -6 16 C-6.33 16 -6.66 16 -7 16 C-7.33 13.69 -7.66 11.38 -8 9 C-7.01 9 -6.02 9 -5 9 C-4.9175 8.443125 -4.835 7.88625 -4.75 7.3125 C-3.77389987 4.30285794 -2.04811186 2.37845248 0 0 Z " fill="#51A8D6" transform="translate(252,120)"/>
<path d="M0 0 C1.1577506 3.47325181 1.06866652 6.36067448 1 10 C-0.32 10 -1.64 10 -3 10 C-3 10.66 -3 11.32 -3 12 C-4.32 12.33 -5.64 12.66 -7 13 C-6.34 11.35 -5.68 9.7 -5 8 C-4.34 8 -3.68 8 -3 8 C-2.690625 7.05125 -2.38125 6.1025 -2.0625 5.125 C-1 2 -1 2 0 0 Z " fill="#46A6D8" transform="translate(77,292)"/>
<path d="M0 0 C1.10844919 3.32534757 0.84454356 5.62182575 0 9 C-0.66 9 -1.32 9 -2 9 C-2 10.98 -2 12.96 -2 15 C-2.66 15 -3.32 15 -4 15 C-4.33 15.99 -4.66 16.98 -5 18 C-6 16 -6 16 -5.0390625 12.8125 C-4.57542563 11.5388309 -4.10371282 10.26807971 -3.625 9 C-3.39039063 8.35804688 -3.15578125 7.71609375 -2.9140625 7.0546875 C-2.02921154 4.65151274 -1.14614063 2.29228126 0 0 Z " fill="#4AA6D1" transform="translate(249,203)"/>
<path d="M0 0 C1.98 0.66 3.96 1.32 6 2 C6 2.66 6 3.32 6 4 C6.99 4.33 7.98 4.66 9 5 C10.64820195 7.60242414 11 8.86248779 11 12 C10.34 12 9.68 12 9 12 C8.7525 11.4225 8.505 10.845 8.25 10.25 C7.06009525 7.86550111 7.06009525 7.86550111 4.875 5.875 C4.25625 5.25625 3.6375 4.6375 3 4 C3 3.34 3 2.68 3 2 C2.01 1.67 1.02 1.34 0 1 C0 0.67 0 0.34 0 0 Z " fill="#53A9D7" transform="translate(277,313)"/>
<path d="M0 0 C1.37988943 2.75977886 0.62402826 4.01978801 -0.25 6.9375 C-0.62898438 8.25041016 -0.62898438 8.25041016 -1.015625 9.58984375 C-2.01885365 12.04616152 -2.99968237 13.29748247 -5 15 C-4.64989059 4.84682713 -4.64989059 4.84682713 -1.9375 1.3125 C-0.9784375 0.6628125 -0.9784375 0.6628125 0 0 Z " fill="#1C8AC3" transform="translate(271,76)"/>
<path d="M0 0 C0.144375 0.61875 0.28875 1.2375 0.4375 1.875 C0.93152225 4.03258322 0.93152225 4.03258322 2 6 C-0.31944788 9.47917182 -2.26369964 10.29429766 -6 12 C-4.68139111 7.38486888 -2.78644563 3.90102388 0 0 Z " fill="#4EA8D8" transform="translate(84,280)"/>
<path d="M0 0 C0.66 0 1.32 0 2 0 C2.474375 0.495 2.94875 0.99 3.4375 1.5 C4.99969942 3.34626591 4.99969942 3.34626591 8 3 C7.67 4.65 7.34 6.3 7 8 C8.32 7.67 9.64 7.34 11 7 C11 7.99 11 8.98 11 10 C8.875 10 8.875 10 6 9 C0 2.48009368 0 2.48009368 0 0 Z " fill="#45A8DA" transform="translate(246,275)"/>
<path d="M0 0 C0.99 0 1.98 0 3 0 C1.36041242 5.23272633 -0.38952035 10.15196636 -3 15 C-3.33 15 -3.66 15 -4 15 C-4 13.02 -4 11.04 -4 9 C-3.34 9 -2.68 9 -2 9 C-2 7.68 -2 6.36 -2 5 C-1.34 5 -0.68 5 0 5 C0 3.35 0 1.7 0 0 Z " fill="#4FABD7" transform="translate(159,315)"/>
<path d="M0 0 C1.3484585 3.06467841 0.91740262 4.2434449 -0.1875 7.5 C-1.84704181 10.70463246 -3.29492345 12.66803746 -6 15 C-3.10933941 4.44191344 -3.10933941 4.44191344 0 0 Z " fill="#228ECC" transform="translate(70,305)"/>
<path d="M0 0 C0.609375 1.81640625 0.609375 1.81640625 1 4 C-0.75 6.9375 -0.75 6.9375 -3 10 C-3.53625 10.94875 -4.0725 11.8975 -4.625 12.875 C-5.07875 13.57625 -5.5325 14.2775 -6 15 C-6.66 15 -7.32 15 -8 15 C-6.62712658 11.30123909 -4.93644547 8.0485524 -2.875 4.6875 C-2.33617188 3.80449219 -1.79734375 2.92148438 -1.2421875 2.01171875 C-0.83226563 1.34785156 -0.42234375 0.68398437 0 0 Z " fill="#54ACDA" transform="translate(124,211)"/>
<path d="M0 0 C4.04191465 4.49101628 6.43674441 9.58984989 9 15 C8.01 15 7.02 15 6 15 C5.731875 14.236875 5.46375 13.47375 5.1875 12.6875 C4.22741872 10.00620795 4.22741872 10.00620795 2.4375 8.625 C0.18589594 6.07970846 0.31030744 3.28925887 0 0 Z " fill="#56ACD9" transform="translate(350,206)"/>
<path d="M0 0 C2.97 0.495 2.97 0.495 6 1 C6.33 2.98 6.66 4.96 7 7 C7.66 7 8.32 7 9 7 C8.67 8.32 8.34 9.64 8 11 C6.66375099 9.35653302 5.33107149 7.71016314 4 6.0625 C3.2575 5.14597656 2.515 4.22945313 1.75 3.28515625 C0 1 0 1 0 0 Z " fill="#4CA6D5" transform="translate(292,330)"/>
<path d="M0 0 C0.66 0.33 1.32 0.66 2 1 C3.32 0.67 4.64 0.34 6 0 C5.34 2.64 4.68 5.28 4 8 C-0.875 3.25 -0.875 3.25 -2 1 C-1.34 0.67 -0.68 0.34 0 0 Z " fill="#2C99D5" transform="translate(314,353)"/>
<path d="M0 0 C1.23896243 2.92845666 0.99614276 4.01050025 -0.125 7.0625 C-2.12690348 10.19881545 -3.69432714 11.39183483 -7 13 C-5.2298836 8.23430199 -2.81223668 4.21835501 0 0 Z " fill="#56ABD4" transform="translate(102,249)"/>
<path d="M0 0 C2 3 2 3 1.64453125 5.4453125 C1.36996094 6.32960937 1.09539062 7.21390625 0.8125 8.125 C0.55082031 9.01445312 0.28914062 9.90390625 0.01953125 10.8203125 C-0.48513672 11.89925781 -0.48513672 11.89925781 -1 13 C-1.99 13.33 -2.98 13.66 -4 14 C-3.00956295 9.16371695 -2.04301154 4.52381127 0 0 Z " fill="#4CA9D2" transform="translate(242,221)"/>
<path d="M0 0 C3.89126347 3.33536869 6.17099741 7.26210499 8 12 C8 12.99 8 13.98 8 15 C6 13.625 6 13.625 4 12 C4 11.34 4 10.68 4 10 C3.34 9.01 2.68 8.02 2 7 C2 6.01 2 5.02 2 4 C1.34 4 0.68 4 0 4 C0 2.68 0 1.36 0 0 Z " fill="#5EADDC" transform="translate(295,111)"/>
<path d="M0 0 C4.25563001 3.64768286 6.04258136 8.88059742 8 14 C7.01 13.67 6.02 13.34 5 13 C4.67 12.01 4.34 11.02 4 10 C3.505 9.5875 3.01 9.175 2.5 8.75 C0.23752544 6.11044635 0.31861257 3.37729327 0 0 Z " fill="#5EB0D8" transform="translate(382,261)"/>
<path d="M0 0 C2.79018264 3.4877283 5.06137816 6.9791547 7 11 C6.10546875 13.21875 6.10546875 13.21875 5 15 C4.15733289 13.25447527 3.32619962 11.5033792 2.5 9.75 C2.0359375 8.77546875 1.571875 7.8009375 1.09375 6.796875 C0 4 0 4 0 0 Z " fill="#4AA9D8" transform="translate(359,221)"/>
<path d="M0 0 C1.22589844 0.01353516 1.22589844 0.01353516 2.4765625 0.02734375 C3.41628906 0.04474609 3.41628906 0.04474609 4.375 0.0625 C4.375 1.0525 4.375 2.0425 4.375 3.0625 C1.075 3.0625 -2.225 3.0625 -5.625 3.0625 C-5.955 2.4025 -6.285 1.7425 -6.625 1.0625 C-4.21954362 -0.14022819 -2.67503047 -0.03821472 0 0 Z " fill="#4FA1C3" transform="translate(134.625,421.9375)"/>
<path d="M0 0 C3.29078593 2.79716804 5.06305458 6.19528578 7 10 C6.67 10.66 6.34 11.32 6 12 C5.01 11.67 4.02 11.34 3 11 C3 10.01 3 9.02 3 8 C2.34 8 1.68 8 1 8 C0.67 5.36 0.34 2.72 0 0 Z " fill="#4BA5D5" transform="translate(432,348)"/>
<path d="M0 0 C0.33 0 0.66 0 1 0 C1 2.31 1 4.62 1 7 C0.34 7 -0.32 7 -1 7 C-1 8.98 -1 10.96 -1 13 C-1.99 13.33 -2.98 13.66 -4 14 C-3.46148032 8.72250715 -2.22656164 4.74354436 0 0 Z " fill="#50A7DA" transform="translate(254,189)"/>
<path d="M0 0 C0.33 0.66 0.66 1.32 1 2 C0.67 2.99 0.34 3.98 0 5 C-0.99 5.33 -1.98 5.66 -3 6 C-4.69882448 8.49759982 -4.69882448 8.49759982 -6 11 C-6.99 10.67 -7.98 10.34 -9 10 C-6.22237877 6.39937989 -3.26008643 3.16952847 0 0 Z " fill="#369DD4" transform="translate(169,160)"/>
<path d="M0 0 C0.33 0.66 0.66 1.32 1 2 C0.67 2.99 0.34 3.98 0 5 C-0.99 5 -1.98 5 -3 5 C-3.33 5.99 -3.66 6.98 -4 8 C-6.4375 9.75 -6.4375 9.75 -9 11 C-9.66 10.67 -10.32 10.34 -11 10 C-9.625 8.5 -9.625 8.5 -8 7 C-7.34 7 -6.68 7 -6 7 C-6 6.34 -6 5.68 -6 5 C-5.195625 4.731875 -4.39125 4.46375 -3.5625 4.1875 C-2.716875 3.795625 -1.87125 3.40375 -1 3 C-0.67 2.01 -0.34 1.02 0 0 Z " fill="#6AB5DE" transform="translate(216,120)"/>
<path d="M0 0 C0.66 0.33 1.32 0.66 2 1 C0.6875 3.5 0.6875 3.5 -1 6 C-1.99 6 -2.98 6 -4 6 C-4 6.66 -4 7.32 -4 8 C-5.65 8.33 -7.3 8.66 -9 9 C-6 6 -3 3 0 0 Z " fill="#6CB6DB" transform="translate(234,105)"/>
<path d="M0 0 C1 3 1 3 0 6 C-1.84765625 6.73046875 -1.84765625 6.73046875 -4.0625 7.1875 C-4.79597656 7.34605469 -5.52945313 7.50460938 -6.28515625 7.66796875 C-7.13400391 7.83232422 -7.13400391 7.83232422 -8 8 C-5.58443874 4.80800833 -3.31996462 2.25283313 0 0 Z " fill="#4EA8D8" transform="translate(244,97)"/>
<path d="M0 0 C0.33 0.66 0.66 1.32 1 2 C0.29296875 4.09375 0.29296875 4.09375 -0.8125 6.5 C-1.16957031 7.2940625 -1.52664063 8.088125 -1.89453125 8.90625 C-3 11 -3 11 -5 13 C-4.64989059 4.80743982 -4.64989059 4.80743982 -1.9375 1.4375 C-1.298125 0.963125 -0.65875 0.48875 0 0 Z " fill="#50A9D4" transform="translate(265,91)"/>
<path d="M0 0 C0.66 0 1.32 0 2 0 C2 0.66 2 1.32 2 2 C1.01 2.495 1.01 2.495 0 3 C-0.40729228 5.32156597 -0.74438677 7.6568787 -1 10 C-2.32 9.67 -3.64 9.34 -5 9 C-3.7580393 5.56072421 -2.44259716 2.74792181 0 0 Z " fill="#40A1D0" transform="translate(30,375)"/>
<path d="M0 0 C2.475 0.495 2.475 0.495 5 1 C5.33 2.32 5.66 3.64 6 5 C6.66 5 7.32 5 8 5 C8.33 6.32 8.66 7.64 9 9 C7.0625 8.25 7.0625 8.25 5 7 C4.66666667 5.66666667 4.33333333 4.33333333 4 3 C2.0162233 1.71563266 2.0162233 1.71563266 0 1 C0 0.67 0 0.34 0 0 Z " fill="#62B3D8" transform="translate(255,287)"/>
<path d="M0 0 C0.66 0 1.32 0 2 0 C0.58192622 4.47238653 -1.11304374 8.71146306 -3 13 C-3.33 13 -3.66 13 -4 13 C-4.125 10.125 -4.125 10.125 -4 7 C-3.34 6.34 -2.68 5.68 -2 5 C-1.29289322 3.35008418 -0.62056011 1.68437744 0 0 Z " fill="#51AAD4" transform="translate(222,182)"/>
<path d="M0 0 C3.36591427 2.72478774 4.44226276 6.06856792 6 10 C5.01 10.495 5.01 10.495 4 11 C3.896875 10.360625 3.79375 9.72125 3.6875 9.0625 C3.460625 8.381875 3.23375 7.70125 3 7 C2.01 6.67 1.02 6.34 0 6 C0 4.02 0 2.04 0 0 Z " fill="#48A3D2" transform="translate(332,175)"/>
<path d="M0 0 C0.99 0.33 1.98 0.66 3 1 C2.67 1.99 2.34 2.98 2 4 C1.34 4 0.68 4 0 4 C0.33 5.65 0.66 7.3 1 9 C-0.37562854 7.71034824 -1.70766393 6.37310707 -3 5 C-3 3 -3 3 -1.5 1.375 C-1.005 0.92125 -0.51 0.4675 0 0 Z " fill="#2394D2" transform="translate(291,321)"/>
<path d="M0 0 C0.66 0 1.32 0 2 0 C-0.89066059 9.59453303 -0.89066059 9.59453303 -4 13 C-4.63934602 7.88523181 -2.40533547 4.32745622 0 0 Z " fill="#58ACD6" transform="translate(181,270)"/>
<path d="M0 0 C1 2 1 2 0.5 4 C-1.75069493 7.00092657 -4.44640878 7.21031306 -8 8 C-5.58443874 4.80800833 -3.31996462 2.25283313 0 0 Z " fill="#4EAAD9" transform="translate(149,177)"/>
<path d="M0 0 C0.99 0.33 1.98 0.66 3 1 C3.33 1.99 3.66 2.98 4 4 C2.35 5.65 0.7 7.3 -1 9 C-2.25541557 5.23375329 -1.37061958 3.62811066 0 0 Z " fill="#3A99D2" transform="translate(280,116)"/>
<path d="M0 0 C0.66 0.33 1.32 0.66 2 1 C0.35 4.3 -1.3 7.6 -3 11 C-4.35439668 8.29120665 -4.06501451 5.99066732 -4 3 C-3.01 3 -2.02 3 -1 3 C-0.67 2.01 -0.34 1.02 0 0 Z " fill="#55AFD9" transform="translate(140,359)"/>
<path d="M0 0 C0.75 1.625 0.75 1.625 1 4 C-0.8125 7.25 -0.8125 7.25 -3 10 C-3.66 10 -4.32 10 -5 10 C-3.84414715 6.08788267 -2.64465038 3.1254959 0 0 Z " fill="#5DABD8" transform="translate(134,194)"/>
<path d="M0 0 C0.99 0 1.98 0 3 0 C2.54917531 1.46067199 2.08906463 2.91848032 1.625 4.375 C1.36976563 5.18710938 1.11453125 5.99921875 0.8515625 6.8359375 C0 9 0 9 -2 11 C-2 10.34 -2 9.68 -2 9 C-2.99 8.67 -3.98 8.34 -5 8 C-4.01 7.67 -3.02 7.34 -2 7 C-0.77030122 3.48809191 -0.77030122 3.48809191 0 0 Z " fill="#52ACDA" transform="translate(215,195)"/>
<path d="M0 0 C2.74277578 3.19990508 4.6302836 6.00499382 6 10 C4 9 2 8 0 7 C0 4.69 0 2.38 0 0 Z " fill="#4AA3D5" transform="translate(304,126)"/>
<path d="M0 0 C1.98 0.66 3.96 1.32 6 2 C6.33 3.98 6.66 5.96 7 8 C3.75700849 5.61042731 1.49097658 3.7952131 0 0 Z " fill="#5CB0D9" transform="translate(270,304)"/>
<path d="M0 0 C0.66 0 1.32 0 2 0 C1.54917531 1.46067199 1.08906463 2.91848032 0.625 4.375 C0.36976563 5.18710938 0.11453125 5.99921875 -0.1484375 6.8359375 C-1 9 -1 9 -3 11 C-3 8.69 -3 6.38 -3 4 C-2.34 3.67 -1.68 3.34 -1 3 C-0.67 2.01 -0.34 1.02 0 0 Z " fill="#4FABDA" transform="translate(200,229)"/>
<path d="M0 0 C1.98 0.495 1.98 0.495 4 1 C2.66666667 4.33333333 1.33333333 7.66666667 0 11 C-1.37432457 7.18243176 -0.67975039 3.92744671 0 0 Z " fill="#46A4D6" transform="translate(225,171)"/>
<path d="M0 0 C1.47118907 3.82509158 0.45442741 6.28312995 -1 10 C-1.33 10.66 -1.66 11.32 -2 12 C-2.66 12 -3.32 12 -4 12 C-2.66666667 8 -1.33333333 4 0 0 Z " fill="#5FB1DA" transform="translate(269,147)"/>
<path d="M0 0 C0.66 0 1.32 0 2 0 C1.39301257 4.12751449 -0.03810791 7.3321148 -2 11 C-2.33 11 -2.66 11 -3 11 C-3 8.69 -3 6.38 -3 4 C-2.01 4 -1.02 4 0 4 C0 2.68 0 1.36 0 0 Z " fill="#62AED7" transform="translate(132,375)"/>
<path d="M0 0 C3.48331435 3.01887244 4.79157144 5.56909529 6 10 C3.5625 8.9375 3.5625 8.9375 1 7 C0.1875 3.3125 0.1875 3.3125 0 0 Z " fill="#5AADD5" transform="translate(426,338)"/>
<path d="M0 0 C2.76223278 2.76223278 2.57856291 5.20706617 3 9 C1.68 8.34 0.36 7.68 -1 7 C-0.67 4.69 -0.34 2.38 0 0 Z " fill="#71BDE0" transform="translate(231,251)"/>
<path d="M0 0 C3.03869411 1.51934706 3.64410306 3.98004772 5 7 C5 7.66 5 8.32 5 9 C4.34 9 3.68 9 3 9 C3 8.34 3 7.68 3 7 C2.01 6.67 1.02 6.34 0 6 C0 4.02 0 2.04 0 0 Z " fill="#59ABD6" transform="translate(338,185)"/>
<path d="M0 0 C0.99 0 1.98 0 3 0 C2.71125 0.70125 2.4225 1.4025 2.125 2.125 C0.97866412 5.05452503 -0.02625654 8.00921653 -1 11 C-1.33 11 -1.66 11 -2 11 C-2 8.69 -2 6.38 -2 4 C-1.34 4 -0.68 4 0 4 C0 2.68 0 1.36 0 0 Z " fill="#56AFD9" transform="translate(231,161)"/>
<path d="M0 0 C1.27514492 3.82543475 0.52740413 5.33423008 -1 9 C-2.625 10.875 -2.625 10.875 -4 12 C-3.33501617 7.61110675 -1.81242323 4.0188515 0 0 Z " fill="#6EB6DE" transform="translate(274,134)"/>
<path d="M0 0 C1.125 1.625 1.125 1.625 2 4 C1.125 7.25 1.125 7.25 0 10 C-0.33 10 -0.66 10 -1 10 C-1.33 7.36 -1.66 4.72 -2 2 C-1.34 2 -0.68 2 0 2 C0 1.34 0 0.68 0 0 Z " fill="#399FD9" transform="translate(258,101)"/>
<path d="M0 0 C-0.61875 0.28875 -1.2375 0.5775 -1.875 0.875 C-4.13325765 1.93720042 -4.13325765 1.93720042 -6 4 C-9.125 4.125 -9.125 4.125 -12 4 C-11.01 3.67 -10.02 3.34 -9 3 C-9 2.34 -9 1.68 -9 1 C-5.92677456 0.08941469 -3.19902639 -0.08886184 0 0 Z " fill="#48A4D6" transform="translate(276,397)"/>
<path d="M0 0 C3.48331435 3.01887244 4.79157144 5.56909529 6 10 C2.46413986 6.82679218 0.41421969 4.83256305 0 0 Z " fill="#5DADD6" transform="translate(446,373)"/>
<path d="M0 0 C3.2542015 2.83430453 4.5206753 4.68607774 5 9 C2.5 7.875 2.5 7.875 0 6 C-0.3125 2.8125 -0.3125 2.8125 0 0 Z " fill="#56ACD7" transform="translate(441,364)"/>
<path d="M0 0 C0.66 0 1.32 0 2 0 C1.01 2.97 0.02 5.94 -1 9 C-1.33 9 -1.66 9 -2 9 C-2 6.69 -2 4.38 -2 2 C-1.34 2 -0.68 2 0 2 C0 1.34 0 0.68 0 0 Z " fill="#42A3D1" transform="translate(149,338)"/>
<path d="M0 0 C0.66 0 1.32 0 2 0 C2.41176754 3.60296594 2.1535853 4.78402067 0 7.8125 C-0.66 8.534375 -1.32 9.25625 -2 10 C-1.34 6.7 -0.68 3.4 0 0 Z " fill="#52A7D1" transform="translate(167,298)"/>
<path d="M0 0 C0.66 1.32 1.32 2.64 2 4 C1.34 4 0.68 4 0 4 C0.33 4.99 0.66 5.98 1 7 C0.01 6.67 -0.98 6.34 -2 6 C-2.6875 3.9375 -2.6875 3.9375 -3 2 C-2.01 1.34 -1.02 0.68 0 0 Z " fill="#39A0DB" transform="translate(237,258)"/>
<path d="M0 0 C0.66 0.99 1.32 1.98 2 3 C1.125 6.1875 1.125 6.1875 0 9 C-0.66 9 -1.32 9 -2 9 C-1.125 2.25 -1.125 2.25 0 0 Z " fill="#57AAD5" transform="translate(262,166)"/>
<path d="M0 0 C0.33 0 0.66 0 1 0 C1.33 2.31 1.66 4.62 2 7 C0.02 7.99 0.02 7.99 -2 9 C-1.125 2.25 -1.125 2.25 0 0 Z " fill="#3193CA" transform="translate(265,159)"/>
<path d="M0 0 C2.79872437 2.52788007 4.45773019 4.20411134 5 8 C2.525 7.01 2.525 7.01 0 6 C0 4.02 0 2.04 0 0 Z " fill="#55AFDB" transform="translate(310,137)"/>
<path d="M0 0 C2.61500768 2.36595933 4.38999603 4.86049226 6 8 C5.67 8.66 5.34 9.32 5 10 C0 4.5 0 4.5 0 0 Z " fill="#64B2D8" transform="translate(467,409)"/>
<path d="M0 0 C1.32 0.33 2.64 0.66 4 1 C4.33 2.98 4.66 4.96 5 7 C2.5 5.1875 2.5 5.1875 0 3 C0 2.01 0 1.02 0 0 Z " fill="#4CA5D3" transform="translate(325,368)"/>
<path d="M0 0 C1.485 0.99 1.485 0.99 3 2 C3.66 2 4.32 2 5 2 C4.34 3.65 3.68 5.3 3 7 C2.34 5.68 1.68 4.36 1 3 C0.34 3 -0.32 3 -1 3 C-0.67 2.01 -0.34 1.02 0 0 Z " fill="#2198DE" transform="translate(57,327)"/>
<path d="M0 0 C0.33 0.66 0.66 1.32 1 2 C0.01 3.32 -0.98 4.64 -2 6 C-3.32 5.67 -4.64 5.34 -6 5 C-5.34 5 -4.68 5 -4 5 C-3.71125 4.360625 -3.4225 3.72125 -3.125 3.0625 C-2 1 -2 1 0 0 Z " fill="#5BB6DB" transform="translate(199,135)"/>
<path d="M0 0 C0.99 0.33 1.98 0.66 3 1 C3 1.66 3 2.32 3 3 C1.37373596 4.38232443 -0.2925002 5.71937515 -2 7 C-1.125 1.125 -1.125 1.125 0 0 Z " fill="#65B1D5" transform="translate(287,99)"/>
<path d="M0 0 C3.35914922 2.23943282 3.81681636 3.26842083 5 7 C5 7.99 5 8.98 5 10 C0.76169024 7.17446016 1.02284652 4.87819112 0 0 Z " fill="#65AFDA" transform="translate(392,279)"/>
<path d="M0 0 C1.32 0.99 2.64 1.98 4 3 C3.67 3.66 3.34 4.32 3 5 C2.34 4.67 1.68 4.34 1 4 C0.01 4.99 -0.98 5.98 -2 7 C-1.125 2.25 -1.125 2.25 0 0 Z " fill="#198BCD" transform="translate(378,257)"/>
<path d="M0 0 C0.33 0 0.66 0 1 0 C0.67 2.97 0.34 5.94 0 9 C-0.66 9 -1.32 9 -2 9 C-1.125 2.25 -1.125 2.25 0 0 Z " fill="#57ADD5" transform="translate(237,235)"/>
<path d="M0 0 C3 3 3 3 4 6 C3.01 6.99 2.02 7.98 1 9 C0.67 6.03 0.34 3.06 0 0 Z " fill="#5BB2DC" transform="translate(346,199)"/>
<path d="M0 0 C0.75 1.75 0.75 1.75 1 4 C-0.9375 6.25 -0.9375 6.25 -3 8 C-3 4.42424104 -1.91159393 2.94704065 0 0 Z " fill="#68AFD7" transform="translate(139,185)"/>
<path d="M0 0 C0.33 0 0.66 0 1 0 C0.38461538 6.52307692 0.38461538 6.52307692 -1.5625 8.9375 C-2.036875 9.288125 -2.51125 9.63875 -3 10 C-1.125 2.25 -1.125 2.25 0 0 Z " fill="#6CB7D9" transform="translate(269,81)"/>
</svg>
