<?xml version="1.0" encoding="UTF-8"?>
<svg version="1.1" xmlns="http://www.w3.org/2000/svg" width="200" height="200">
<path d="M0 0 C4.84798932 4.10336351 8.7365831 8.56097183 12 14 C13.0725 13.360625 14.145 12.72125 15.25 12.0625 C22.70257749 7.61961727 32.58688104 7.78570575 40.890625 9.6484375 C50.52608036 13.19355787 58.48953075 19.71967348 63 29 C66.32126671 38.00270096 66.42272689 45.81034627 64 55 C64.804375 55.04125 65.60875 55.0825 66.4375 55.125 C73.93682415 56.96693926 79.24530237 61.62730239 83.7109375 67.77734375 C88.84488682 76.62951697 89.63325096 86.14210214 87.2734375 96.05078125 C84.00483642 104.80691179 78.22541891 110.69268284 70 115 C64.20430195 117.04840285 59.02473388 117.26509924 52.91015625 117.1953125 C51.4933683 117.19106766 51.4933683 117.19106766 50.04795837 117.18673706 C47.05267276 117.17560684 44.05769414 117.1505156 41.0625 117.125 C39.0227908 117.11496095 36.98307688 117.10583672 34.94335938 117.09765625 C29.9621226 117.07569096 24.98111322 117.04121076 20 117 C19.375 114.625 19.375 114.625 19 112 C21.65632534 109.34367466 23.63377721 109.75530153 27.24684143 109.72354126 C28.10511032 109.72453827 28.96337921 109.72553528 29.84765625 109.7265625 C31.66862573 109.70625441 33.48958921 109.68540329 35.31054688 109.6640625 C38.1783552 109.64156413 41.04592617 109.62503406 43.91381836 109.61914062 C46.68386786 109.60954323 49.45284931 109.57565845 52.22265625 109.5390625 C53.06675552 109.54410797 53.9108548 109.54915344 54.78053284 109.55435181 C61.82426914 109.43954168 67.88346746 107.61705487 73.33984375 103.03515625 C73.86707031 102.38417969 74.39429688 101.73320313 74.9375 101.0625 C75.48277344 100.41410156 76.02804688 99.76570313 76.58984375 99.09765625 C80.8188029 92.80693308 80.7034346 86.35489852 80 79 C78.34820179 72.88735753 74.45567137 68.15756323 69 65 C64.73040192 63.39391287 60.41775374 62.12935058 56 61 C54.99150301 56.71033673 55.34074774 55.05594996 57 51 C58.94002817 42.79971287 57.13846938 36.11853362 53.3125 28.75 C48.20239229 22.67311516 41.92552677 18.3294432 34 17 C25.96259269 16.72443175 19.03697229 18.26356689 13.05859375 23.796875 C8.22112033 29.00801547 5.22419006 34.15491011 4.4375 41.3125 C4 45 4 45 2 47 C-0.625 46.625 -0.625 46.625 -3 46 C-3.97845673 36.79525888 -1.53572946 30.90815007 3 23 C3.67637458 21.67156496 4.34731071 20.34023092 5 19 C-1.38765976 8.11194358 -9.05416558 2.99787258 -21 -1 C-33.81580517 -3.53446893 -45.15628267 -0.98018252 -56.234375 5.921875 C-64.77869506 12.34218329 -69.92785116 21.58222418 -72 32 C-72.8455161 41.83214435 -71.86873363 48.97508927 -67.99609375 58.07421875 C-66.99208254 61.02325559 -66.84948009 62.16848094 -68 65 C-69.8125 65.6875 -69.8125 65.6875 -72 66 C-74.70659217 63.85728119 -75.86678798 61.45488378 -77.1875 58.3125 C-77.53167969 57.50425781 -77.87585938 56.69601563 -78.23046875 55.86328125 C-78.48441406 55.24839844 -78.73835938 54.63351563 -79 54 C-85.5341689 55.470188 -90.4658603 59.51465027 -94.36328125 64.875 C-98.86646757 72.47310347 -99.31035907 81.28493994 -97.3515625 89.828125 C-94.90168064 96.65429156 -91.08035628 101.73926206 -84.6875 105.28125 C-78.29099431 108.2270092 -72.76764902 109.16311742 -65.734375 109.31640625 C-64.54427826 109.3475779 -64.54427826 109.3475779 -63.33013916 109.37937927 C-60.80351156 109.44459973 -58.27678279 109.50363144 -55.75 109.5625 C-54.03384384 109.6057114 -52.31769778 109.64932653 -50.6015625 109.69335938 C-46.40114454 109.80025283 -42.20062511 109.90159729 -38 110 C-37.375 112.375 -37.375 112.375 -37 115 C-39.87098537 117.87098537 -42.76614935 117.32430942 -46.61328125 117.3359375 C-47.7613752 117.3459227 -47.7613752 117.3459227 -48.93266296 117.35610962 C-50.56095987 117.36625361 -52.18929849 117.3709261 -53.81762695 117.37060547 C-56.26522711 117.37491673 -58.71092995 117.41103821 -61.15820312 117.44921875 C-73.56241262 117.53957578 -85.25996086 116.4053226 -95.06640625 107.984375 C-103.42865065 99.4025161 -106.53322948 90.30139965 -106.4921875 78.50439453 C-106.17619784 69.48091494 -103.07430679 61.15820511 -96.8046875 54.53125 C-91.8189788 50.30095171 -86.51084883 46.99809804 -80 46 C-80.20625 44.7625 -80.4125 43.525 -80.625 42.25 C-81.80776313 31.13550534 -78.64760858 19.17355887 -71.91796875 10.234375 C-69.7009288 7.7114062 -67.40971888 5.33859871 -65 3 C-64.4225 2.41347656 -63.845 1.82695312 -63.25 1.22265625 C-45.87712971 -15.18969476 -18.40139656 -13.0473179 0 0 Z " fill="#000000" transform="translate(109,17)"/>
<path d="M0 0 C1.40958984 -0.00193359 1.40958984 -0.00193359 2.84765625 -0.00390625 C3.83636719 -0.00003906 4.82507813 0.00382812 5.84375 0.0078125 C7.32681641 0.00201172 7.32681641 0.00201172 8.83984375 -0.00390625 C9.77957031 -0.00261719 10.71929687 -0.00132813 11.6875 0 C12.55568359 0.00112793 13.42386719 0.00225586 14.31835938 0.00341797 C16.34375 0.1328125 16.34375 0.1328125 17.34375 1.1328125 C17.38438832 2.79898365 17.386471 4.46669345 17.34375 6.1328125 C12.56416378 8.52260561 6.68748985 7.1328125 1.34375 7.1328125 C1.34375 17.6928125 1.34375 28.2528125 1.34375 39.1328125 C13.55375 38.8028125 25.76375 38.4728125 38.34375 38.1328125 C37.02375 36.8128125 35.70375 35.4928125 34.34375 34.1328125 C34.09375 30.8828125 34.09375 30.8828125 34.34375 28.1328125 C38.42569666 27.63619584 39.96211697 27.85281542 43.3359375 30.328125 C44.31260557 31.28895521 45.27336526 32.26618611 46.21875 33.2578125 C46.71632812 33.7321875 47.21390625 34.2065625 47.7265625 34.6953125 C50.05461071 37.06173513 51.27908211 38.84909615 52.01953125 42.09765625 C51.0559265 46.42552267 48.79658272 48.56251434 45.65625 51.5703125 C45.12580078 52.12396484 44.59535156 52.67761719 44.04882812 53.24804688 C42.45703125 54.81640625 42.45703125 54.81640625 39.34375 57.1328125 C36.44921875 56.98046875 36.44921875 56.98046875 34.34375 56.1328125 C33.53125 54.4453125 33.53125 54.4453125 33.34375 52.1328125 C34.95893279 50.41620535 36.62446449 48.74514401 38.34375 47.1328125 C37.08191895 47.11299316 35.82008789 47.09317383 34.52001953 47.07275391 C29.84956508 46.99682485 25.1794274 46.90808838 20.50927734 46.81542969 C18.48590334 46.77708729 16.46245994 46.74224379 14.43896484 46.7109375 C11.53457797 46.66540081 8.63067106 46.60738841 5.7265625 46.546875 C4.81818634 46.53532379 3.90981018 46.52377258 2.97390747 46.51187134 C2.13318695 46.49200165 1.29246643 46.47213196 0.42626953 46.45166016 C-0.31541473 46.43833649 -1.057099 46.42501282 -1.82125854 46.4112854 C-3.65625 46.1328125 -3.65625 46.1328125 -5.65625 44.1328125 C-5.90348816 42.2665863 -5.90348816 42.2665863 -5.89916992 39.97436523 C-5.90224655 39.11685165 -5.90532318 38.25933807 -5.90849304 37.37583923 C-5.90130753 36.44872635 -5.89412201 35.52161346 -5.88671875 34.56640625 C-5.88626053 33.61717789 -5.88580231 32.66794952 -5.8853302 31.68995667 C-5.88230638 29.68171947 -5.87441624 27.67348466 -5.86206055 25.6652832 C-5.84380439 22.57950601 -5.84155082 19.49402867 -5.84179688 16.40820312 C-5.83688183 14.46093489 -5.83105357 12.5136687 -5.82421875 10.56640625 C-5.82310593 9.63726913 -5.8219931 8.70813202 -5.82084656 7.75083923 C-5.81446671 6.89647781 -5.80808685 6.04211639 -5.80151367 5.16186523 C-5.79770187 4.40622787 -5.79389008 3.65059052 -5.78996277 2.87205505 C-5.51081186 -0.75894552 -3.07592271 0.00399619 0 0 Z " fill="#000000" transform="translate(115.65625,111.8671875)"/>
<path d="M0 0 C0.93972656 -0.00128906 1.87945312 -0.00257812 2.84765625 -0.00390625 C3.83636719 -0.00003906 4.82507813 0.00382812 5.84375 0.0078125 C7.32681641 0.00201172 7.32681641 0.00201172 8.83984375 -0.00390625 C10.24943359 -0.00197266 10.24943359 -0.00197266 11.6875 0 C12.55568359 0.00112793 13.42386719 0.00225586 14.31835938 0.00341797 C16.34375 0.1328125 16.34375 0.1328125 17.34375 1.1328125 C17.44676414 2.47274866 17.48223453 3.81799215 17.48901367 5.16186523 C17.49539352 6.01622665 17.50177338 6.87058807 17.50834656 7.75083923 C17.50945938 8.67997635 17.5105722 9.60911346 17.51171875 10.56640625 C17.51671135 11.98881371 17.51671135 11.98881371 17.52180481 13.43995667 C17.52687819 15.44995639 17.52921301 17.45996458 17.52905273 19.4699707 C17.53123822 22.55368869 17.54938683 25.63704856 17.56835938 28.72070312 C17.57129334 30.6692696 17.57327812 32.61783779 17.57421875 34.56640625 C17.58140427 35.49351913 17.58858978 36.42063202 17.59599304 37.37583923 C17.59291641 38.23335281 17.58983978 39.09086639 17.58666992 39.97436523 C17.58809494 40.73079819 17.58951996 41.48723114 17.59098816 42.2665863 C17.34375 44.1328125 17.34375 44.1328125 15.34375 46.1328125 C13.50875854 46.4112854 13.50875854 46.4112854 11.26123047 46.45166016 C10.00014969 46.48146469 10.00014969 46.48146469 8.71359253 46.51187134 C7.80521637 46.52342255 6.89684021 46.53497375 5.9609375 46.546875 C5.03153351 46.56624115 4.10212952 46.5856073 3.14456177 46.6055603 C0.1693852 46.66544935 -2.80582988 46.7117786 -5.78125 46.7578125 C-7.79559 46.79598371 -9.80991354 46.83503493 -11.82421875 46.875 C-16.76809575 46.9711585 -21.71204917 47.0551549 -26.65625 47.1328125 C-26.00140625 47.73609375 -25.3465625 48.339375 -24.671875 48.9609375 C-22.65625 51.1328125 -22.65625 51.1328125 -22.40625 53.8828125 C-22.48875 54.6253125 -22.57125 55.3678125 -22.65625 56.1328125 C-24.7265625 57.015625 -24.7265625 57.015625 -27.65625 57.1328125 C-30.29669645 55.44086074 -32.36530494 53.26001201 -34.53125 51.0078125 C-35.44003906 50.13382813 -35.44003906 50.13382813 -36.3671875 49.2421875 C-40.58932101 44.96247944 -40.58932101 44.96247944 -40.86328125 41.56640625 C-39.23816954 38.28988652 -37.04339629 35.86103723 -34.46875 33.3203125 C-33.99888672 32.81822266 -33.52902344 32.31613281 -33.04492188 31.79882812 C-30.42947295 29.17624291 -29.02627898 28.16848312 -25.29296875 27.80859375 C-24.42285156 27.91558594 -23.55273438 28.02257812 -22.65625 28.1328125 C-22.40625 30.8828125 -22.40625 30.8828125 -22.65625 34.1328125 C-23.97625 35.4528125 -25.29625 36.7728125 -26.65625 38.1328125 C-8.34125 38.6278125 -8.34125 38.6278125 10.34375 39.1328125 C10.34375 28.5728125 10.34375 18.0128125 10.34375 7.1328125 C5.72375 7.1328125 1.10375 7.1328125 -3.65625 7.1328125 C-4.31625 6.8028125 -4.97625 6.4728125 -5.65625 6.1328125 C-5.698971 4.46669345 -5.69688832 2.79898365 -5.65625 1.1328125 C-4.03424485 -0.48919265 -2.23601969 0.002905 0 0 Z " fill="#000000" transform="translate(69.65625,111.8671875)"/>
<path d="M0 0 C3.53571429 0.53571429 3.53571429 0.53571429 5 2 C5.12495027 4.463493 5.18602203 6.90036767 5.20532227 9.36547852 C5.21522186 10.13615662 5.22512146 10.90683472 5.23532104 11.7008667 C5.26702701 14.26018147 5.2917292 16.81951483 5.31640625 19.37890625 C5.33696794 21.14868159 5.35796419 22.91845194 5.37937927 24.68821716 C5.43468109 29.3554582 5.48405446 34.02274414 5.53222656 38.69006348 C5.58238253 43.44901546 5.63809934 48.20790191 5.69335938 52.96679688 C5.80104008 62.31114198 5.90246288 71.6555439 6 81 C6.77730469 80.17113281 7.55460937 79.34226562 8.35546875 78.48828125 C9.66451172 77.25658203 9.66451172 77.25658203 11 76 C13.3125 76.1875 13.3125 76.1875 15 77 C15.69140625 79.25 15.69140625 79.25 16 82 C14.16533586 85.0948967 11.55689261 87.48361262 9 90 C8.46246094 90.54785156 7.92492187 91.09570312 7.37109375 91.66015625 C5.1744676 93.71913481 3.77078596 95.0168975 0.68359375 94.94921875 C-2.9257014 93.6725685 -5.19143125 91.43055896 -7.8125 88.75 C-8.56563477 88.03263672 -8.56563477 88.03263672 -9.33398438 87.30078125 C-11.65672434 84.96856072 -12.92962531 83.50897253 -13.38671875 80.203125 C-13 78 -13 78 -12 77 C-9.6875 76.6875 -9.6875 76.6875 -7 77 C-4.83203125 79.01953125 -4.83203125 79.01953125 -3 81 C-2.99191315 80.01472321 -2.98382629 79.02944641 -2.97549438 78.01431274 C-2.89811835 68.74364835 -2.81040102 59.47313227 -2.71247292 50.20266151 C-2.66245785 45.43624424 -2.61612845 40.66984969 -2.578125 35.90332031 C-2.54133779 31.30614194 -2.49499612 26.70915139 -2.44193649 22.11213303 C-2.42335752 20.35543476 -2.4082626 18.59869619 -2.39665604 16.84193802 C-2.37985319 14.38742962 -2.35083353 11.93335468 -2.31884766 9.47900391 C-2.31668747 8.74748611 -2.31452728 8.01596832 -2.31230164 7.26228333 C-2.22810432 2.22810432 -2.22810432 2.22810432 0 0 Z " fill="#000000" transform="translate(97,98)"/>
<path d="M0 0 C4.29 0 8.58 0 13 0 C13.33 1.65 13.66 3.3 14 5 C12 7 12 7 9.6875 7.23046875 C8.800625 7.21628906 7.91375 7.20210938 7 7.1875 C5.6696875 7.17783203 5.6696875 7.17783203 4.3125 7.16796875 C2 7 2 7 0 6 C0 4.02 0 2.04 0 0 Z " fill="#000000" transform="translate(136,112)"/>
<path d="M0 0 C1.65322266 0.01740234 1.65322266 0.01740234 3.33984375 0.03515625 C4.99693359 0.04869141 4.99693359 0.04869141 6.6875 0.0625 C7.54214844 0.07410156 8.39679687 0.08570312 9.27734375 0.09765625 C9.90234375 2.47265625 9.90234375 2.47265625 10.27734375 5.09765625 C8.27734375 7.09765625 8.27734375 7.09765625 5.96484375 7.328125 C5.07796875 7.31394531 4.19109375 7.29976563 3.27734375 7.28515625 C1.94703125 7.27548828 1.94703125 7.27548828 0.58984375 7.265625 C-1.72265625 7.09765625 -1.72265625 7.09765625 -3.72265625 6.09765625 C-3.76537725 4.4315372 -3.76329457 2.7638274 -3.72265625 1.09765625 C-2.72265625 0.09765625 -2.72265625 0.09765625 0 0 Z " fill="#000000" transform="translate(50.72265625,111.90234375)"/>
</svg>
