<?xml version="1.0" encoding="UTF-8"?>
<svg version="1.1" xmlns="http://www.w3.org/2000/svg" width="256" height="256">
<path d="M0 0 C15.17959643 12.09720005 28.8783375 30.39013535 31.25439453 50.20483398 C31.86669315 56.69685415 31.86669315 56.69685415 35.77734375 61.640625 C37.84331022 62.5661992 39.93692891 63.43192004 42.05078125 64.2421875 C53.96106765 69.52141839 59.63748999 81.45117141 64.1875 92.8671875 C67.88688119 104.70013965 65.15545847 117.45782724 60.0703125 128.375 C53.53216313 140.2811186 43.83495352 147.85203548 31.3203125 152.69140625 C24.92560422 154.51263223 18.92141825 154.75447414 12.3203125 154.69140625 C12.34649658 155.33166748 12.37268066 155.97192871 12.3996582 156.6315918 C12.50392531 159.54711127 12.56873003 162.46223823 12.6328125 165.37890625 C12.6956543 166.89000977 12.6956543 166.89000977 12.75976562 168.43164062 C12.88332998 175.91964075 12.88332998 175.91964075 10.12890625 179.6953125 C7.49589299 181.56661956 4.84838739 183.29452353 2.0703125 184.94140625 C-1.58920507 187.3636866 -1.58920507 187.3636866 -3.546875 191.140625 C-3.77839801 193.37517284 -3.85220453 195.45375883 -3.6796875 197.69140625 C-2.5659375 198.03171875 -2.5659375 198.03171875 -1.4296875 198.37890625 C1.87797059 199.95756125 3.26889659 201.68754724 5.3203125 204.69140625 C6.77047805 209.0419029 6.83101357 213.1447481 6.3203125 217.69140625 C3.82696747 222.67809632 0.32680301 226.18816099 -4.6796875 228.69140625 C-10.28649581 229.31666275 -15.35559229 229.30229023 -20.140625 226.08203125 C-23.63680938 222.92304232 -26.17191027 219.27381614 -27.08984375 214.60546875 C-27.29651641 209.91489786 -26.27260372 206.53895934 -23.6796875 202.69140625 C-22.47886275 201.84728908 -21.26981615 201.01479938 -20.0546875 200.19140625 C-18.06964073 198.78367738 -18.06964073 198.78367738 -16.6796875 196.69140625 C-16.25491691 193.37812489 -16.25491691 193.37812489 -16.3046875 189.75390625 C-16.17589219 183.32091967 -16.17589219 183.32091967 -13.84765625 180.3671875 C-10.55312029 177.84847925 -7.1365509 175.92121239 -3.43359375 174.05859375 C-0.47454618 171.51507201 -0.26182277 171.20391604 0.125 167.58203125 C0.1778598 166.03588203 0.20044366 164.48845029 0.1953125 162.94140625 C0.22625 161.75224609 0.22625 161.75224609 0.2578125 160.5390625 C0.30477068 158.5902981 0.31605633 156.64073168 0.3203125 154.69140625 C-4.2996875 154.69140625 -8.9196875 154.69140625 -13.6796875 154.69140625 C-13.8859375 156.23828125 -14.0921875 157.78515625 -14.3046875 159.37890625 C-15.03781901 163.12956454 -15.70127014 165.29852804 -18.6796875 167.75390625 C-22.51439909 170.23049082 -24.18576815 170.81493452 -28.6875 170.7890625 C-29.67363281 170.78583984 -30.65976563 170.78261719 -31.67578125 170.77929688 C-32.70832031 170.77091797 -33.74085938 170.76253906 -34.8046875 170.75390625 C-36.36509766 170.74713867 -36.36509766 170.74713867 -37.95703125 170.74023438 C-40.53127437 170.72842592 -43.10548803 170.7104901 -45.6796875 170.69140625 C-46.0096875 174.32140625 -46.3396875 177.95140625 -46.6796875 181.69140625 C-45.3596875 182.02140625 -44.0396875 182.35140625 -42.6796875 182.69140625 C-38.95837669 186.58992234 -35.73221591 190.15887063 -35.6484375 195.79296875 C-36.00156198 201.07217966 -37.09230752 204.63200259 -40.6796875 208.69140625 C-45.4421533 212.31088025 -49.19388485 213.40002283 -55.1796875 213.14453125 C-60.43780015 212.19149833 -64.18186896 209.43080843 -67.6171875 205.44140625 C-69.40773643 200.80704431 -70.50668872 196.33037645 -68.984375 191.47265625 C-67.16450528 187.63230126 -65.08036789 184.32419107 -61.6796875 181.69140625 C-60.6896875 181.69140625 -59.6996875 181.69140625 -58.6796875 181.69140625 C-59.0096875 178.06140625 -59.3396875 174.43140625 -59.6796875 170.69140625 C-61.19820313 170.7378125 -62.71671875 170.78421875 -64.28125 170.83203125 C-66.28904278 170.86956009 -68.29685689 170.90595905 -70.3046875 170.94140625 C-71.30371094 170.97492188 -72.30273438 171.0084375 -73.33203125 171.04296875 C-80.74564696 171.14116234 -84.13265449 170.11612778 -89.4921875 164.94140625 C-91.26123842 161.5895203 -91.36581875 158.45783123 -91.6796875 154.69140625 C-96.2996875 154.69140625 -100.9196875 154.69140625 -105.6796875 154.69140625 C-106.73570396 164.58046206 -106.73570396 164.58046206 -103.27441406 173.46191406 C-99.46929078 176.84495644 -95.14250553 179.28148451 -90.6796875 181.69140625 C-88.83775815 183.5333356 -89.63536067 186.85004772 -89.6171875 189.31640625 C-89.36918384 194.55189761 -89.36918384 194.55189761 -86.90625 199 C-85.48897986 200.14865396 -84.03967646 201.25911097 -82.55859375 202.32421875 C-80.01559957 204.17463032 -79.27941138 205.61782139 -78.6796875 208.69140625 C-77.99914981 214.62180614 -78.7472635 218.03815238 -82.2109375 222.92578125 C-85.16154641 226.47278983 -87.65119353 228.40075637 -92.296875 229.06640625 C-98.25750942 229.32486194 -102.0976802 228.82638844 -106.6796875 224.69140625 C-111.06079782 219.718254 -112.0308084 216.82185848 -111.96484375 210.30078125 C-111.42732542 205.3821204 -109.21599987 202.09216165 -105.5546875 198.75390625 C-103.6796875 197.69140625 -103.6796875 197.69140625 -101.6796875 197.69140625 C-101.30818397 193.8525364 -101.17813273 192.16949741 -102.6796875 188.69140625 C-105.90936408 185.53018356 -109.76266419 183.18177166 -113.5546875 180.7578125 C-116.6796875 178.69140625 -116.6796875 178.69140625 -117.6796875 176.69140625 C-117.76418378 174.95096455 -117.78691774 173.20730903 -117.77734375 171.46484375 C-117.77412109 170.43359375 -117.77089844 169.40234375 -117.76757812 168.33984375 C-117.75500977 166.71949219 -117.75500977 166.71949219 -117.7421875 165.06640625 C-117.73767578 163.9784375 -117.73316406 162.89046875 -117.72851562 161.76953125 C-117.71670526 159.07676836 -117.70023528 156.38411437 -117.6796875 153.69140625 C-118.69804688 153.73136719 -119.71640625 153.77132812 -120.765625 153.8125 C-134.50806565 153.38733467 -147.14921879 144.6318573 -156.4921875 135.12890625 C-169.04149784 120.33368612 -172.15469592 103.5678265 -170.6796875 84.69140625 C-168.0058179 69.63569733 -159.56483057 56.58486096 -147.54296875 47.2578125 C-139.08227908 41.41962442 -139.08227908 41.41962442 -133.6796875 40.69140625 C-133.3084375 39.43328125 -132.9371875 38.17515625 -132.5546875 36.87890625 C-129.18476019 26.87884287 -123.60939714 18.57074277 -116.6796875 10.69140625 C-116.02484375 9.94117187 -115.37 9.1909375 -114.6953125 8.41796875 C-104.48944072 -2.51689388 -91.76196629 -9.65545256 -77.6796875 -14.30859375 C-76.69355469 -14.64761719 -75.70742187 -14.98664062 -74.69140625 -15.3359375 C-49.26681022 -22.64340417 -20.66486829 -15.83052031 0 0 Z " fill="#F7F8F8" transform="translate(180.6796875,22.30859375)"/>
<path d="M0 0 C15.17959643 12.09720005 28.8783375 30.39013535 31.25439453 50.20483398 C31.86669315 56.69685415 31.86669315 56.69685415 35.77734375 61.640625 C37.84331022 62.5661992 39.93692891 63.43192004 42.05078125 64.2421875 C53.96106765 69.52141839 59.63748999 81.45117141 64.1875 92.8671875 C67.88688119 104.70013965 65.15545847 117.45782724 60.0703125 128.375 C53.53216313 140.2811186 43.83495352 147.85203548 31.3203125 152.69140625 C24.92560422 154.51263223 18.92141825 154.75447414 12.3203125 154.69140625 C12.34649658 155.33166748 12.37268066 155.97192871 12.3996582 156.6315918 C12.50392531 159.54711127 12.56873003 162.46223823 12.6328125 165.37890625 C12.6956543 166.89000977 12.6956543 166.89000977 12.75976562 168.43164062 C12.88332998 175.91964075 12.88332998 175.91964075 10.12890625 179.6953125 C7.49589299 181.56661956 4.84838739 183.29452353 2.0703125 184.94140625 C-1.58920507 187.3636866 -1.58920507 187.3636866 -3.546875 191.140625 C-3.77839801 193.37517284 -3.85220453 195.45375883 -3.6796875 197.69140625 C-2.5659375 198.03171875 -2.5659375 198.03171875 -1.4296875 198.37890625 C1.87797059 199.95756125 3.26889659 201.68754724 5.3203125 204.69140625 C6.77047805 209.0419029 6.83101357 213.1447481 6.3203125 217.69140625 C3.82696747 222.67809632 0.32680301 226.18816099 -4.6796875 228.69140625 C-10.28649581 229.31666275 -15.35559229 229.30229023 -20.140625 226.08203125 C-23.63680938 222.92304232 -26.17191027 219.27381614 -27.08984375 214.60546875 C-27.29651641 209.91489786 -26.27260372 206.53895934 -23.6796875 202.69140625 C-22.47886275 201.84728908 -21.26981615 201.01479938 -20.0546875 200.19140625 C-18.06964073 198.78367738 -18.06964073 198.78367738 -16.6796875 196.69140625 C-16.25491691 193.37812489 -16.25491691 193.37812489 -16.3046875 189.75390625 C-16.17589219 183.32091967 -16.17589219 183.32091967 -13.84765625 180.3671875 C-10.55312029 177.84847925 -7.1365509 175.92121239 -3.43359375 174.05859375 C-0.47454618 171.51507201 -0.26182277 171.20391604 0.125 167.58203125 C0.1778598 166.03588203 0.20044366 164.48845029 0.1953125 162.94140625 C0.22625 161.75224609 0.22625 161.75224609 0.2578125 160.5390625 C0.30477068 158.5902981 0.31605633 156.64073168 0.3203125 154.69140625 C-4.2996875 154.69140625 -8.9196875 154.69140625 -13.6796875 154.69140625 C-13.8859375 156.23828125 -14.0921875 157.78515625 -14.3046875 159.37890625 C-15.03781901 163.12956454 -15.70127014 165.29852804 -18.6796875 167.75390625 C-22.51439909 170.23049082 -24.18576815 170.81493452 -28.6875 170.7890625 C-29.67363281 170.78583984 -30.65976563 170.78261719 -31.67578125 170.77929688 C-32.70832031 170.77091797 -33.74085938 170.76253906 -34.8046875 170.75390625 C-36.36509766 170.74713867 -36.36509766 170.74713867 -37.95703125 170.74023438 C-40.53127437 170.72842592 -43.10548803 170.7104901 -45.6796875 170.69140625 C-46.0096875 174.32140625 -46.3396875 177.95140625 -46.6796875 181.69140625 C-45.3596875 182.02140625 -44.0396875 182.35140625 -42.6796875 182.69140625 C-38.95837669 186.58992234 -35.73221591 190.15887063 -35.6484375 195.79296875 C-36.00156198 201.07217966 -37.09230752 204.63200259 -40.6796875 208.69140625 C-45.4421533 212.31088025 -49.19388485 213.40002283 -55.1796875 213.14453125 C-60.43780015 212.19149833 -64.18186896 209.43080843 -67.6171875 205.44140625 C-69.40773643 200.80704431 -70.50668872 196.33037645 -68.984375 191.47265625 C-67.16450528 187.63230126 -65.08036789 184.32419107 -61.6796875 181.69140625 C-60.6896875 181.69140625 -59.6996875 181.69140625 -58.6796875 181.69140625 C-59.0096875 178.06140625 -59.3396875 174.43140625 -59.6796875 170.69140625 C-61.19820313 170.7378125 -62.71671875 170.78421875 -64.28125 170.83203125 C-66.28904278 170.86956009 -68.29685689 170.90595905 -70.3046875 170.94140625 C-71.30371094 170.97492188 -72.30273438 171.0084375 -73.33203125 171.04296875 C-80.74564696 171.14116234 -84.13265449 170.11612778 -89.4921875 164.94140625 C-91.26123842 161.5895203 -91.36581875 158.45783123 -91.6796875 154.69140625 C-96.2996875 154.69140625 -100.9196875 154.69140625 -105.6796875 154.69140625 C-106.73570396 164.58046206 -106.73570396 164.58046206 -103.27441406 173.46191406 C-99.46929078 176.84495644 -95.14250553 179.28148451 -90.6796875 181.69140625 C-88.83775815 183.5333356 -89.63536067 186.85004772 -89.6171875 189.31640625 C-89.36918384 194.55189761 -89.36918384 194.55189761 -86.90625 199 C-85.48897986 200.14865396 -84.03967646 201.25911097 -82.55859375 202.32421875 C-80.01559957 204.17463032 -79.27941138 205.61782139 -78.6796875 208.69140625 C-77.99914981 214.62180614 -78.7472635 218.03815238 -82.2109375 222.92578125 C-85.16154641 226.47278983 -87.65119353 228.40075637 -92.296875 229.06640625 C-98.25750942 229.32486194 -102.0976802 228.82638844 -106.6796875 224.69140625 C-111.06079782 219.718254 -112.0308084 216.82185848 -111.96484375 210.30078125 C-111.42732542 205.3821204 -109.21599987 202.09216165 -105.5546875 198.75390625 C-103.6796875 197.69140625 -103.6796875 197.69140625 -101.6796875 197.69140625 C-101.30818397 193.8525364 -101.17813273 192.16949741 -102.6796875 188.69140625 C-105.90936408 185.53018356 -109.76266419 183.18177166 -113.5546875 180.7578125 C-116.6796875 178.69140625 -116.6796875 178.69140625 -117.6796875 176.69140625 C-117.76418378 174.95096455 -117.78691774 173.20730903 -117.77734375 171.46484375 C-117.77412109 170.43359375 -117.77089844 169.40234375 -117.76757812 168.33984375 C-117.75500977 166.71949219 -117.75500977 166.71949219 -117.7421875 165.06640625 C-117.73767578 163.9784375 -117.73316406 162.89046875 -117.72851562 161.76953125 C-117.71670526 159.07676836 -117.70023528 156.38411437 -117.6796875 153.69140625 C-118.69804688 153.73136719 -119.71640625 153.77132812 -120.765625 153.8125 C-134.50806565 153.38733467 -147.14921879 144.6318573 -156.4921875 135.12890625 C-169.04149784 120.33368612 -172.15469592 103.5678265 -170.6796875 84.69140625 C-168.0058179 69.63569733 -159.56483057 56.58486096 -147.54296875 47.2578125 C-139.08227908 41.41962442 -139.08227908 41.41962442 -133.6796875 40.69140625 C-133.3084375 39.43328125 -132.9371875 38.17515625 -132.5546875 36.87890625 C-129.18476019 26.87884287 -123.60939714 18.57074277 -116.6796875 10.69140625 C-116.02484375 9.94117187 -115.37 9.1909375 -114.6953125 8.41796875 C-104.48944072 -2.51689388 -91.76196629 -9.65545256 -77.6796875 -14.30859375 C-76.69355469 -14.64761719 -75.70742187 -14.98664062 -74.69140625 -15.3359375 C-49.26681022 -22.64340417 -20.66486829 -15.83052031 0 0 Z M-110.25 19.57421875 C-116.80638896 27.9086115 -123.38640026 37.98945433 -124.6796875 48.69140625 C-125.4634375 48.89765625 -126.2471875 49.10390625 -127.0546875 49.31640625 C-140.69404157 54.48995435 -149.87168147 63.3055322 -155.97265625 76.484375 C-161.32816618 89.57347327 -160.57892866 101.57654303 -155.49609375 114.76171875 C-150.4321104 125.97994816 -141.87615559 134.5200879 -130.6796875 139.69140625 C-130.10887451 139.96138428 -129.53806152 140.2313623 -128.94995117 140.50952148 C-121.28871779 143.62215495 -113.22713021 143.02124877 -105.1171875 142.87890625 C-103.61654991 142.86383017 -102.11589765 142.85014694 -100.61523438 142.83789062 C-96.96974298 142.80512107 -93.32481115 142.75350104 -89.6796875 142.69140625 C-89.64210327 141.30634888 -89.64210327 141.30634888 -89.60375977 139.89331055 C-89.50859705 136.46594209 -89.40936536 133.03874164 -89.30737305 129.61157227 C-89.2640742 128.1285461 -89.22239551 126.64547171 -89.18237305 125.16235352 C-89.12454792 123.02996286 -89.06088918 120.89781383 -88.99609375 118.765625 C-88.95943604 117.48260498 -88.92277832 116.19958496 -88.88500977 114.87768555 C-88.6796875 111.69140625 -88.6796875 111.69140625 -87.6796875 108.69140625 C-84.02324125 106.73973544 -80.89140902 106.43902009 -76.79125977 106.43261719 C-75.62977921 106.42631287 -74.46829865 106.42000854 -73.2716217 106.41351318 C-71.40273537 106.41958588 -71.40273537 106.41958588 -69.49609375 106.42578125 C-68.20783188 106.4238678 -66.91957001 106.42195435 -65.5922699 106.41998291 C-62.86965114 106.41704048 -60.14716396 106.42130009 -57.42456055 106.43066406 C-53.9467166 106.44204684 -50.46918179 106.43550121 -46.99134922 106.42351913 C-43.65957311 106.4145238 -40.32787862 106.42083623 -36.99609375 106.42578125 C-35.13024376 106.41970856 -35.13024376 106.41970856 -33.22669983 106.41351318 C-32.06206711 106.4198175 -30.89743439 106.42612183 -29.69750977 106.43261719 C-28.6777858 106.43420837 -27.65806183 106.43579956 -26.60743713 106.43743896 C-23.32610985 106.7220773 -20.69934845 107.37476513 -17.6796875 108.69140625 C-16.51566023 112.18348806 -16.46850242 115.08288397 -16.36328125 118.765625 C-16.3321096 119.79137383 -16.3321096 119.79137383 -16.30030823 120.83784485 C-16.23502596 123.01809835 -16.17602733 125.1984703 -16.1171875 127.37890625 C-16.07398197 128.85873611 -16.03036703 130.33855408 -15.98632812 131.81835938 C-15.87936667 135.44258247 -15.77803927 139.06693814 -15.6796875 142.69140625 C-10.18454126 142.79114363 -4.68993524 142.86328045 0.8059082 142.91113281 C2.67091057 142.9311052 4.53585148 142.95829293 6.40063477 142.99316406 C20.0999609 143.24270978 31.32184659 142.86476686 42.31640625 133.6796875 C50.13061972 125.92640357 54.30839732 116.06670086 54.6953125 105.12890625 C54.57841581 94.55625019 49.67457756 85.14925251 42.3203125 77.69140625 C36.58585731 72.82192474 30.58643025 70.42071194 23.3203125 68.69140625 C23.17335937 67.42167969 23.02640625 66.15195313 22.875 64.84375 C20.20159657 43.63654275 12.78423259 24.48575508 -4.22119141 10.41601562 C-11.1523441 5.05350334 -18.54671684 0.93677435 -26.6796875 -2.30859375 C-27.91912109 -2.83259766 -27.91912109 -2.83259766 -29.18359375 -3.3671875 C-57.98541911 -14.22984777 -90.54548371 -2.52598341 -110.25 19.57421875 Z " fill="#424242" transform="translate(180.6796875,22.30859375)"/>
<path d="M0 0 C1.16170715 -0.00960754 2.32341431 -0.01921509 3.52032471 -0.02911377 C4.78173279 -0.03336365 6.04314087 -0.03761353 7.34277344 -0.04199219 C9.28153351 -0.0505423 9.28153351 -0.0505423 11.25946045 -0.05926514 C13.99996331 -0.0697764 16.74043684 -0.07561762 19.48095703 -0.07910156 C22.98249266 -0.08457382 26.48363696 -0.10857349 29.9850502 -0.13707352 C33.33345015 -0.16025348 36.68179743 -0.16215373 40.03027344 -0.16699219 C41.28358459 -0.17933899 42.53689575 -0.19168579 43.82818604 -0.20440674 C45.00250183 -0.20140564 46.17681763 -0.19840454 47.38671875 -0.1953125 C48.41549133 -0.19895813 49.44426392 -0.20260376 50.50421143 -0.20635986 C54.04111465 0.23455391 56.41362858 1.31846155 59.45214844 3.16113281 C61.58632838 6.36240272 61.72314795 7.31511379 61.81860352 11.01220703 C61.84815628 11.99687958 61.87770905 12.98155212 61.90815735 13.99606323 C61.92911972 15.05858307 61.95008209 16.12110291 61.97167969 17.21582031 C61.99816086 18.30951935 62.02464203 19.40321838 62.05192566 20.53005981 C62.10463044 22.84496419 62.15220789 25.15999009 62.19506836 27.47509766 C62.26424858 31.01566846 62.3602115 34.55484494 62.45800781 38.09472656 C62.50586941 40.34339022 62.55214574 42.59208829 62.59667969 44.84082031 C62.64330498 46.42852737 62.64330498 46.42852737 62.69087219 48.04830933 C62.81825927 57.20129616 62.81825927 57.20129616 59.45214844 61.16113281 C54.11827026 66.10801037 48.93951715 65.64135421 42.07714844 65.41113281 C41.05492187 65.39308594 40.03269531 65.37503906 38.97949219 65.35644531 C36.46997146 65.30953838 33.96093627 65.23780205 31.45214844 65.16113281 C31.12214844 68.79113281 30.79214844 72.42113281 30.45214844 76.16113281 C31.77214844 76.49113281 33.09214844 76.82113281 34.45214844 77.16113281 C38.17345925 81.0596489 41.39962003 84.62859719 41.48339844 90.26269531 C41.13027396 95.54190623 40.03952842 99.10172915 36.45214844 103.16113281 C31.68968264 106.78060682 27.93795109 107.86974939 21.95214844 107.61425781 C16.69403579 106.6612249 12.94996698 103.90053499 9.51464844 99.91113281 C7.72409951 95.27677087 6.62514721 90.80010301 8.14746094 85.94238281 C9.96733065 82.10202782 12.05146805 78.79391763 15.45214844 76.16113281 C16.44214844 76.16113281 17.43214844 76.16113281 18.45214844 76.16113281 C18.12214844 72.53113281 17.79214844 68.90113281 17.45214844 65.16113281 C15.93363281 65.20753906 14.41511719 65.25394531 12.85058594 65.30175781 C10.84279316 65.33928665 8.83497904 65.37568561 6.82714844 65.41113281 C5.828125 65.44464844 4.82910156 65.47816406 3.79980469 65.51269531 C-2.17635339 65.59184972 -5.90879572 65.34652704 -10.54785156 61.16113281 C-13.29788955 58.09247721 -13.91943668 56.20649521 -13.87597656 52.10473633 C-13.87186768 51.10011856 -13.86775879 50.09550079 -13.86352539 49.06044006 C-13.84185303 47.98120773 -13.82018066 46.9019754 -13.79785156 45.79003906 C-13.78326904 44.67555893 -13.76868652 43.5610788 -13.75366211 42.41282654 C-13.7175439 40.05657733 -13.6733119 37.70044059 -13.62158203 35.34448242 C-13.54820162 31.74082403 -13.5173257 28.13844077 -13.48925781 24.53417969 C-13.44888155 22.24441896 -13.40599616 19.95470083 -13.36035156 17.66503906 C-13.35487305 16.58783096 -13.34939453 15.51062286 -13.34375 14.40077209 C-13.12586282 6.91325716 -13.12586282 6.91325716 -10.12207031 3.00463867 C-6.39302579 0.33411371 -4.55237188 0.03030802 0 0 Z " fill="#6457FE" transform="translate(103.5478515625,127.8388671875)"/>
<path d="M0 0 C8.01167361 4.89361685 12.23086992 10.51292227 15.16796875 19.32421875 C15.16796875 26.25421875 15.16796875 33.18421875 15.16796875 40.32421875 C-2.65203125 40.32421875 -20.47203125 40.32421875 -38.83203125 40.32421875 C-38.83203125 13.92475066 -38.83203125 13.92475066 -29.55859375 3.98046875 C-21.44658012 -3.80119138 -9.8597662 -4.97351038 0 0 Z " fill="#BFC6C7" transform="translate(139.83203125,87.67578125)"/>
<path d="M0 0 C4.98669007 2.49334503 8.49675474 5.99350949 11 11 C11.62460429 16.60095982 11.62696426 21.69590654 8.375 26.4609375 C5.64157133 29.52051391 2.90520203 31.65162406 -1 33 C-2.96083393 32.96758952 -4.9213464 32.85825636 -6.875 32.6875 C-11.03328758 32.45531135 -12.52633891 32.64792037 -15.921875 35.171875 C-18.3941076 37.70126905 -20.69780776 40.31716642 -23 43 C-26.50442137 44.75221068 -30.45084431 44.31183537 -34.3125 44.375 C-35.59543945 44.43107422 -35.59543945 44.43107422 -36.90429688 44.48828125 C-41.44332334 44.55156744 -43.38215306 44.46804234 -47.109375 41.64453125 C-49 39 -49 39 -48.9375 36.3125 C-48 34 -48 34 -46 32 C-44.04538453 31.91049152 -42.08922637 31.83143832 -40.13256836 31.82666016 C-31.68596964 31.92104725 -31.68596964 31.92104725 -24.4375 28.125 C-21.33998806 24.17607771 -21.68171434 20.54608246 -22 15.71875 C-22 11.45641838 -20.4844224 8.3980487 -18 5 C-12.5585873 -0.17597793 -7.26297132 -0.81580957 0 0 Z " fill="#414141" transform="translate(240,181)"/>
<path d="M0 0 C4.86046112 2.43023056 8.17397447 6.25855043 9.9609375 11.38671875 C10.01953125 14.328125 10.01953125 14.328125 9.8359375 17.44921875 C9.70403829 21.61723375 9.77137384 24.24066016 12.3984375 27.57421875 C16.8645978 31.42084957 22.37849641 31.12704711 28.00561523 31.0378418 C33.5424505 31.00141931 33.5424505 31.00141931 35.98046875 33.24609375 C36.9609375 35.38671875 36.9609375 35.38671875 36.8984375 37.94921875 C35.69948635 41.06649174 34.89873455 41.77552068 31.9609375 43.38671875 C28.9748588 43.82903095 26.03697926 43.80528803 23.0234375 43.76171875 C22.22486328 43.77332031 21.42628906 43.78492188 20.60351562 43.796875 C15.89912574 43.77348947 12.75292803 43.44366764 8.9609375 40.38671875 C7.74324654 39.01714375 6.55553721 37.62035464 5.3984375 36.19921875 C2.88461564 33.57610029 1.70565218 32.47492183 -1.94140625 32.04296875 C-4.00620945 32.14712024 -6.070173 32.26952174 -8.1328125 32.41015625 C-12.79868038 32.37252828 -15.71187935 30.53794509 -19.0390625 27.38671875 C-22.94739839 23.01204733 -23.67950044 18.51554978 -23.42578125 12.75 C-22.63284608 7.90428507 -19.98136289 5.21684052 -16.4140625 2.07421875 C-11.45487225 -1.44941643 -5.84663895 -1.75847187 0 0 Z " fill="#414141" transform="translate(28.0390625,181.61328125)"/>
<path d="M0 0 C3.96 0 7.92 0 12 0 C12 3.96 12 7.92 12 12 C13.32 12.33 14.64 12.66 16 13 C19.72131081 16.89851609 22.94747159 20.46746438 23.03125 26.1015625 C22.67812552 31.38077341 21.58737998 34.94059634 18 39 C13.2375342 42.619474 9.48580265 43.70861658 3.5 43.453125 C-1.75811265 42.50009208 -5.50218146 39.73940218 -8.9375 35.75 C-10.72804893 31.11563806 -11.82700122 26.6389702 -10.3046875 21.78125 C-8.48481778 17.94089501 -6.40068039 14.63278482 -3 12 C-2.01 12 -1.02 12 0 12 C0 8.04 0 4.08 0 0 Z " fill="#414141" transform="translate(122,192)"/>
<path d="M0 0 C5.27011062 1.82426906 7.83751204 4.57251686 11 9 C11.95624506 11.89205823 12.11815484 14.51308373 12.09765625 17.546875 C12.09515869 18.30838867 12.09266113 19.06990234 12.09008789 19.85449219 C12.08098389 20.81000977 12.07187988 21.76552734 12.0625 22.75 C12.041875 25.8025 12.02125 28.855 12 32 C1.44 32 -9.12 32 -20 32 C-20.12375 26.988125 -20.12375 26.988125 -20.25 21.875 C-20.30462402 20.31241455 -20.30462402 20.31241455 -20.36035156 18.71826172 C-20.42915293 12.94893426 -19.94667903 9.52791721 -16 5 C-10.58420856 0.22894564 -7.09115125 -0.64682799 0 0 Z " fill="#F7F8F8" transform="translate(132,96)"/>
<path d="M0 0 C2 2 2 2 2.4375 4.4375 C2.293125 5.283125 2.14875 6.12875 2 7 C-1.30279235 9.32139119 -4.90537308 10.88554156 -8.57080078 12.55102539 C-16.54636272 16.23548097 -21.91815068 20.24604195 -27.5703125 26.97265625 C-30 29 -30 29 -33.2421875 28.87109375 C-36 28 -36 28 -37 27 C-37.45418997 22.83659193 -37.47738482 20.70048915 -35.0859375 17.19140625 C-26.85631289 9.21080486 -12.29629576 -4.21587283 0 0 Z " fill="#BFC6C6" transform="translate(115,30)"/>
<path d="M0 0 C4.42610196 0.36279524 6.39743509 1.54792364 9.8125 4.3125 C11.53785218 7.76320435 11.31563772 11.53896707 10.8125 15.3125 C9.48439785 16.98333819 8.15077304 18.64979713 6.8125 20.3125 C6.40452896 22.92684501 6.25098712 25.46127001 6.18359375 28.10546875 C6.06113281 28.83378906 5.93867188 29.56210938 5.8125 30.3125 C2.8125 32.3125 2.8125 32.3125 -0.3125 32.0625 C-1.26125 31.815 -2.21 31.5675 -3.1875 31.3125 C-4.32234807 29.04280385 -4.35176051 27.52007139 -4.5 25 C-4.82753985 21.56629059 -4.98322284 20.56010868 -7.25 17.8125 C-9.74149246 14.59767102 -9.81568404 12.45460096 -9.65625 8.46875 C-8.90926776 5.03263168 -6.88071676 3.41452284 -4.1875 1.3125 C-3.1875 0.3125 -3.1875 0.3125 0 0 Z " fill="#F5F6F8" transform="translate(127.1875,143.6875)"/>
<path d="M0 0 C2.4375 0.75 2.4375 0.75 4.4375 2.75 C4.80237512 5.59602594 4.83949375 7.1364306 3.25 9.5625 C0.78842224 11.17525784 -0.67315736 11.1834014 -3.5625 10.75 C-5.4375 9.625 -5.4375 9.625 -6.5625 7.75 C-6.4375 4.6875 -6.4375 4.6875 -5.5625 1.75 C-2.5625 -0.25 -2.5625 -0.25 0 0 Z " fill="#E9EAEA" transform="translate(171.5625,229.25)"/>
<path d="M0 0 C2.9375 0.875 2.9375 0.875 4.9375 3.875 C4.6133631 7.19740324 4.32973697 8.48276303 1.9375 10.875 C-0.90852594 11.23987512 -2.4489306 11.27699375 -4.875 9.6875 C-6.48775784 7.22592224 -6.4959014 5.76434264 -6.0625 2.875 C-4.29035152 -0.0785808 -3.47140412 -0.14168996 0 0 Z " fill="#E9EAEA" transform="translate(86.0625,229.125)"/>
<path d="M0 0 C2.5625 0.3125 2.5625 0.3125 4.4375 1.4375 C5.5625 3.3125 5.5625 3.3125 5.4375 6.375 C4.5625 9.3125 4.5625 9.3125 1.5625 11.3125 C-1 11.125 -1 11.125 -3.4375 10.3125 C-5.4375 7.3125 -5.4375 7.3125 -5.1875 4.75 C-4.19253762 1.51637226 -3.41216263 0.43745675 0 0 Z " fill="#B4BCBC" transform="translate(21.4375,191.6875)"/>
<path d="M0 0 C2.5625 0.3125 2.5625 0.3125 4.375 1.5 C5.98775784 3.96157776 5.9959014 5.42315736 5.5625 8.3125 C4.4375 10.1875 4.4375 10.1875 2.5625 11.3125 C-2.87228261 10.87771739 -2.87228261 10.87771739 -4.4375 9.3125 C-4.625 5.875 -4.625 5.875 -4.4375 2.3125 C-2.4375 0.3125 -2.4375 0.3125 0 0 Z " fill="#B6BEBE" transform="translate(234.4375,191.6875)"/>
<path d="M0 0 C2.4375 0.8125 2.4375 0.8125 4.4375 2.8125 C4.75 5.8125 4.75 5.8125 4.4375 8.8125 C1.4375 10.8125 1.4375 10.8125 -1.75 10.4375 C-3.1421875 10.128125 -3.1421875 10.128125 -4.5625 9.8125 C-5.89328101 3.40055513 -5.89328101 3.40055513 -4.4375 0.8125 C-2.5625 -0.1875 -2.5625 -0.1875 0 0 Z " fill="#B8C0C0" transform="translate(128.5625,213.1875)"/>
<path d="M0 0 C6.6 0 13.2 0 20 0 C20 0.33 20 0.66 20 1 C13.4 1 6.8 1 0 1 C0 0.67 0 0.34 0 0 Z " fill="#404040" transform="translate(118,3)"/>
<path d="M0 0 C0.99 0.495 0.99 0.495 2 1 C1.67 5.95 1.34 10.9 1 16 C0.67 16 0.34 16 0 16 C0 10.72 0 5.44 0 0 Z " fill="#404040" transform="translate(76,178)"/>
<path d="M0 0 C0.66 0 1.32 0 2 0 C2 5.28 2 10.56 2 16 C1.67 16 1.34 16 1 16 C0.67 10.72 0.34 5.44 0 0 Z " fill="#404040" transform="translate(178,178)"/>
<path d="M0 0 C5.28 0 10.56 0 16 0 C16 0.33 16 0.66 16 1 C10.72 1 5.44 1 0 1 C0 0.67 0 0.34 0 0 Z " fill="#404040" transform="translate(195,211)"/>
<path d="M0 0 C5.28 0 10.56 0 16 0 C16 0.33 16 0.66 16 1 C10.72 1 5.44 1 0 1 C0 0.67 0 0.34 0 0 Z " fill="#404040" transform="translate(45,211)"/>
<path d="M0 0 C0.33 0 0.66 0 1 0 C1 4.62 1 9.24 1 14 C0.34 13.67 -0.32 13.34 -1 13 C-0.67 8.71 -0.34 4.42 0 0 Z " fill="#404040" transform="translate(163,205)"/>
<path d="M0 0 C0.33 0 0.66 0 1 0 C1.33 4.62 1.66 9.24 2 14 C1.34 14 0.68 14 0 14 C0 9.38 0 4.76 0 0 Z " fill="#404040" transform="translate(92,205)"/>
<path d="M0 0 C4.29 0 8.58 0 13 0 C13 0.33 13 0.66 13 1 C8.71 1 4.42 1 0 1 C0 0.67 0 0.34 0 0 Z " fill="#404040" transform="translate(199,226)"/>
<path d="M0 0 C0.33 0 0.66 0 1 0 C1 3.96 1 7.92 1 12 C0.67 12 0.34 12 0 12 C0 8.04 0 4.08 0 0 Z " fill="#404040" transform="translate(247,122)"/>
<path d="M0 0 C3.3 0 6.6 0 10 0 C10 0.33 10 0.66 10 1 C6.7 1 3.4 1 0 1 C0 0.67 0 0.34 0 0 Z " fill="#404040" transform="translate(123,236)"/>
<path d="M0 0 C2.97 0 5.94 0 9 0 C9 0.33 9 0.66 9 1 C6.03 1 3.06 1 0 1 C0 0.67 0 0.34 0 0 Z " fill="#404040" transform="translate(166,252)"/>
<path d="M0 0 C2.97 0 5.94 0 9 0 C9 0.33 9 0.66 9 1 C6.03 1 3.06 1 0 1 C0 0.67 0 0.34 0 0 Z " fill="#404040" transform="translate(81,252)"/>
<path d="M0 0 C0.33 0 0.66 0 1 0 C1 2.97 1 5.94 1 9 C0.67 9 0.34 9 0 9 C0 6.03 0 3.06 0 0 Z " fill="#404040" transform="translate(188,230)"/>
<path d="M0 0 C0.33 0 0.66 0 1 0 C1 2.97 1 5.94 1 9 C0.67 9 0.34 9 0 9 C0 6.03 0 3.06 0 0 Z " fill="#404040" transform="translate(67,230)"/>
<path d="M0 0 C0.33 0 0.66 0 1 0 C1 2.97 1 5.94 1 9 C0.67 9 0.34 9 0 9 C0 6.03 0 3.06 0 0 Z " fill="#414145" transform="translate(135,194)"/>
<path d="M0 0 C0.33 0 0.66 0 1 0 C1 2.97 1 5.94 1 9 C0.67 9 0.34 9 0 9 C0 6.03 0 3.06 0 0 Z " fill="#414145" transform="translate(120,194)"/>
<path d="M0 0 C0.33 0 0.66 0 1 0 C1 2.97 1 5.94 1 9 C0.67 9 0.34 9 0 9 C0 6.03 0 3.06 0 0 Z " fill="#414141" transform="translate(252,193)"/>
<path d="M0 0 C0.33 0 0.66 0 1 0 C1 2.97 1 5.94 1 9 C0.67 9 0.34 9 0 9 C0 6.03 0 3.06 0 0 Z " fill="#404040" transform="translate(3,193)"/>
<path d="M0 0 C2.97 0 5.94 0 9 0 C9 0.33 9 0.66 9 1 C6.03 1 3.06 1 0 1 C0 0.67 0 0.34 0 0 Z " fill="#404040" transform="translate(230,179)"/>
<path d="M0 0 C2.97 0 5.94 0 9 0 C9 0.33 9 0.66 9 1 C6.03 1 3.06 1 0 1 C0 0.67 0 0.34 0 0 Z " fill="#404040" transform="translate(17,179)"/>
<path d="M0 0 C0.33 0 0.66 0 1 0 C1 2.31 1 4.62 1 7 C0.67 7 0.34 7 0 7 C0 4.69 0 2.38 0 0 Z " fill="#404040" transform="translate(152,231)"/>
<path d="M0 0 C0.33 0 0.66 0 1 0 C1 2.31 1 4.62 1 7 C0.67 7 0.34 7 0 7 C0 4.69 0 2.38 0 0 Z " fill="#404040" transform="translate(103,231)"/>
<path d="M0 0 C2.31 0 4.62 0 7 0 C7 0.33 7 0.66 7 1 C4.69 1 2.38 1 0 1 C0 0.67 0 0.34 0 0 Z " fill="#404040" transform="translate(231,215)"/>
<path d="M0 0 C0.33 0 0.66 0 1 0 C1 2.31 1 4.62 1 7 C0.67 7 0.34 7 0 7 C0 4.69 0 2.38 0 0 Z " fill="#404040" transform="translate(8,120)"/>
<path d="M0 0 C0.33 0 0.66 0 1 0 C1 2.31 1 4.62 1 7 C0.67 7 0.34 7 0 7 C0 4.69 0 2.38 0 0 Z " fill="#404040" transform="translate(8,108)"/>
<path d="M0 0 C1.98 0 3.96 0 6 0 C6 0.33 6 0.66 6 1 C4.02 1 2.04 1 0 1 C0 0.67 0 0.34 0 0 Z " fill="#404040" transform="translate(18,215)"/>
<path d="M0 0 C0.33 0 0.66 0 1 0 C1 1.98 1 3.96 1 6 C0.67 6 0.34 6 0 6 C0 4.02 0 2.04 0 0 Z " fill="#404040" transform="translate(216,194)"/>
<path d="M0 0 C0.33 0 0.66 0 1 0 C1 1.98 1 3.96 1 6 C0.67 6 0.34 6 0 6 C0 4.02 0 2.04 0 0 Z " fill="#404040" transform="translate(39,194)"/>
<path d="M0 0 C0.33 0 0.66 0 1 0 C1 1.98 1 3.96 1 6 C0.67 6 0.34 6 0 6 C0 4.02 0 2.04 0 0 Z " fill="#6256F8" transform="translate(167,178)"/>
<path d="M0 0 C0.33 0 0.66 0 1 0 C1 1.98 1 3.96 1 6 C0.67 6 0.34 6 0 6 C0 4.02 0 2.04 0 0 Z " fill="#6155F8" transform="translate(88,178)"/>
<path d="M0 0 C1.65 0 3.3 0 5 0 C4.67 0.66 4.34 1.32 4 2 C2.68 1.34 1.36 0.68 0 0 Z " fill="#404040" transform="translate(57,177)"/>
<path d="M0 0 C1.65 0 3.3 0 5 0 C5 0.33 5 0.66 5 1 C3.35 1 1.7 1 0 1 C0 0.67 0 0.34 0 0 Z " fill="#404040" transform="translate(202,177)"/>
<path d="M0 0 C0.33 0 0.66 0 1 0 C1 1.65 1 3.3 1 5 C0.67 5 0.34 5 0 5 C0 3.35 0 1.7 0 0 Z " fill="#404040" transform="translate(214,76)"/>
<path d="M0 0 C1.65 0 3.3 0 5 0 C5 0.33 5 0.66 5 1 C3.35 1 1.7 1 0 1 C0 0.67 0 0.34 0 0 Z " fill="#404040" transform="translate(140,4)"/>
<path d="M0 0 C1.65 0 3.3 0 5 0 C5 0.33 5 0.66 5 1 C3.35 1 1.7 1 0 1 C0 0.67 0 0.34 0 0 Z " fill="#404040" transform="translate(111,4)"/>
<path d="M0 0 C4 1 4 1 4 1 Z " fill="#404040" transform="translate(25,214)"/>
<path d="M0 0 C1 4 1 4 1 4 Z " fill="#404040" transform="translate(217,201)"/>
<path d="M0 0 C1 4 1 4 1 4 Z " fill="#404040" transform="translate(38,201)"/>
<path d="M0 0 C3 1 3 1 3 1 Z " fill="#404040" transform="translate(227,214)"/>
<path d="" fill="#404040" transform="translate(0,0)"/>
<path d="" fill="#404040" transform="translate(0,0)"/>
<path d="M0 0 C3 1 3 1 3 1 Z " fill="#404040" transform="translate(208,176)"/>
<path d="M0 0 C3 1 3 1 3 1 Z " fill="#404040" transform="translate(53,176)"/>
<path d="" fill="#404040" transform="translate(0,0)"/>
<path d="" fill="#404040" transform="translate(0,0)"/>
<path d="" fill="#404040" transform="translate(0,0)"/>
<path d="" fill="#404040" transform="translate(0,0)"/>
<path d="" fill="#404040" transform="translate(0,0)"/>
<path d="" fill="#404040" transform="translate(0,0)"/>
<path d="" fill="#404040" transform="translate(0,0)"/>
<path d="" fill="#404040" transform="translate(0,0)"/>
<path d="M0 0 C3 1 3 1 3 1 Z " fill="#414141" transform="translate(156,8)"/>
<path d="M0 0 C3 1 3 1 3 1 Z " fill="#404040" transform="translate(97,8)"/>
<path d="M0 0 C3 1 3 1 3 1 Z " fill="#414141" transform="translate(153,7)"/>
<path d="M0 0 C3 1 3 1 3 1 Z " fill="#414141" transform="translate(100,7)"/>
<path d="M0 0 C3 1 3 1 3 1 Z " fill="#404040" transform="translate(150,6)"/>
<path d="M0 0 C3 1 3 1 3 1 Z " fill="#404040" transform="translate(103,6)"/>
<path d="M0 0 C3 1 3 1 3 1 Z " fill="#404040" transform="translate(146,5)"/>
<path d="M0 0 C3 1 3 1 3 1 Z " fill="#404040" transform="translate(107,5)"/>
<path d="M0 0 C2 1 2 1 2 1 Z " fill="#404040" transform="translate(176,251)"/>
<path d="M0 0 C2 1 2 1 2 1 Z " fill="#404040" transform="translate(163,251)"/>
<path d="M0 0 C2 1 2 1 2 1 Z " fill="#404040" transform="translate(91,251)"/>
<path d="M0 0 C2 1 2 1 2 1 Z " fill="#414141" transform="translate(78,251)"/>
<path d="M0 0 C2 1 2 1 2 1 Z " fill="#404040" transform="translate(178,250)"/>
<path d="M0 0 C2 1 2 1 2 1 Z " fill="#414141" transform="translate(76,250)"/>
<path d="" fill="#404040" transform="translate(0,0)"/>
<path d="" fill="#404040" transform="translate(0,0)"/>
<path d="" fill="#404040" transform="translate(0,0)"/>
<path d="" fill="#404040" transform="translate(0,0)"/>
<path d="" fill="#404040" transform="translate(0,0)"/>
<path d="" fill="#414141" transform="translate(0,0)"/>
<path d="" fill="#404040" transform="translate(0,0)"/>
<path d="" fill="#404040" transform="translate(0,0)"/>
<path d="M0 0 C2 1 2 1 2 1 Z " fill="#414141" transform="translate(133,235)"/>
<path d="M0 0 C2 1 2 1 2 1 Z " fill="#414141" transform="translate(121,235)"/>
<path d="M0 0 C2 1 2 1 2 1 Z " fill="#404040" transform="translate(137,233)"/>
<path d="M0 0 C2 1 2 1 2 1 Z " fill="#414141" transform="translate(117,233)"/>
<path d="" fill="#404040" transform="translate(0,0)"/>
<path d="" fill="#404040" transform="translate(0,0)"/>
<path d="" fill="#404040" transform="translate(0,0)"/>
<path d="" fill="#414141" transform="translate(0,0)"/>
<path d="" fill="#404040" transform="translate(0,0)"/>
<path d="" fill="#404040" transform="translate(0,0)"/>
<path d="" fill="#414141" transform="translate(0,0)"/>
<path d="" fill="#404040" transform="translate(0,0)"/>
<path d="" fill="#404040" transform="translate(0,0)"/>
<path d="" fill="#404040" transform="translate(0,0)"/>
<path d="M0 0 C2 1 2 1 2 1 Z " fill="#404040" transform="translate(215,225)"/>
<path d="M0 0 C2 1 2 1 2 1 Z " fill="#414141" transform="translate(194,225)"/>
<path d="M0 0 C2 1 2 1 2 1 Z " fill="#404040" transform="translate(60,225)"/>
<path d="M0 0 C2 1 2 1 2 1 Z " fill="#404040" transform="translate(39,225)"/>
<path d="" fill="#404040" transform="translate(0,0)"/>
<path d="" fill="#404040" transform="translate(0,0)"/>
<path d="" fill="#404040" transform="translate(0,0)"/>
<path d="" fill="#404040" transform="translate(0,0)"/>
<path d="" fill="#414141" transform="translate(0,0)"/>
<path d="" fill="#414141" transform="translate(0,0)"/>
<path d="M0 0 C2 1 2 1 2 1 Z " fill="#414141" transform="translate(159,220)"/>
<path d="M0 0 C2 1 2 1 2 1 Z " fill="#404040" transform="translate(95,220)"/>
<path d="M0 0 C2 1 2 1 2 1 Z " fill="#404040" transform="translate(179,219)"/>
<path d="M0 0 C2 1 2 1 2 1 Z " fill="#414141" transform="translate(75,219)"/>
<path d="" fill="#414141" transform="translate(0,0)"/>
<path d="" fill="#414141" transform="translate(0,0)"/>
<path d="M0 0 C2 1 2 1 2 1 Z " fill="#404040" transform="translate(239,214)"/>
<path d="M0 0 C2 1 2 1 2 1 Z " fill="#404040" transform="translate(15,214)"/>
<path d="M0 0 C2 1 2 1 2 1 Z " fill="#414141" transform="translate(243,212)"/>
<path d="" fill="#404040" transform="translate(0,0)"/>
<path d="" fill="#414141" transform="translate(0,0)"/>
<path d="M0 0 C2 1 2 1 2 1 Z " fill="#404040" transform="translate(11,212)"/>
<path d="M0 0 C2 1 2 1 2 1 Z " fill="#404040" transform="translate(179,210)"/>
<path d="" fill="#414141" transform="translate(0,0)"/>
<path d="" fill="#414141" transform="translate(0,0)"/>
<path d="M0 0 C2 1 2 1 2 1 Z " fill="#404040" transform="translate(75,210)"/>
<path d="M0 0 C2 1 2 1 2 1 Z " fill="#404040" transform="translate(182,208)"/>
<path d="" fill="#404040" transform="translate(0,0)"/>
<path d="" fill="#414141" transform="translate(0,0)"/>
<path d="" fill="#404040" transform="translate(0,0)"/>
<path d="M0 0 C2 1 2 1 2 1 Z " fill="#404040" transform="translate(168,200)"/>
<path d="M0 0 C2 1 2 1 2 1 Z " fill="#404040" transform="translate(86,200)"/>
<path d="" fill="#404040" transform="translate(0,0)"/>
<path d="M0 0 C2 1 2 1 2 1 Z " fill="#404040" transform="translate(171,198)"/>
<path d="M0 0 C2 1 2 1 2 1 Z " fill="#404040" transform="translate(83,198)"/>
<path d="M0 0 C2 1 2 1 2 1 Z " fill="#414141" transform="translate(174,196)"/>
<path d="M0 0 C2 1 2 1 2 1 Z " fill="#404040" transform="translate(80,196)"/>
<path d="M0 0 C2 1 2 1 2 1 Z " fill="#404040" transform="translate(177,194)"/>
<path d="M0 0 C2 1 2 1 2 1 Z " fill="#404040" transform="translate(77,194)"/>
<path d="M0 0 C2 1 2 1 2 1 Z " fill="#6356FF" transform="translate(157,193)"/>
<path d="M0 0 C2 1 2 1 2 1 Z " fill="#6356FF" transform="translate(97,193)"/>
<path d="" fill="#404040" transform="translate(0,0)"/>
<path d="" fill="#404040" transform="translate(0,0)"/>
<path d="" fill="#404040" transform="translate(0,0)"/>
<path d="" fill="#404040" transform="translate(0,0)"/>
<path d="" fill="#404040" transform="translate(0,0)"/>
<path d="" fill="#414141" transform="translate(0,0)"/>
<path d="" fill="#414141" transform="translate(0,0)"/>
<path d="" fill="#414141" transform="translate(0,0)"/>
<path d="" fill="#404040" transform="translate(0,0)"/>
<path d="" fill="#6356FF" transform="translate(0,0)"/>
<path d="" fill="#6357FE" transform="translate(0,0)"/>
<path d="M0 0 C2 1 2 1 2 1 Z " fill="#404040" transform="translate(242,181)"/>
<path d="M0 0 C2 1 2 1 2 1 Z " fill="#414141" transform="translate(12,181)"/>
<path d="M0 0 C2 1 2 1 2 1 Z " fill="#404040" transform="translate(240,180)"/>
<path d="M0 0 C2 1 2 1 2 1 Z " fill="#404040" transform="translate(227,180)"/>
<path d="M0 0 C2 1 2 1 2 1 Z " fill="#414141" transform="translate(27,180)"/>
<path d="M0 0 C2 1 2 1 2 1 Z " fill="#404040" transform="translate(14,180)"/>
<path d="M0 0 C2 1 2 1 2 1 Z " fill="#404040" transform="translate(212,175)"/>
<path d="M0 0 C2 1 2 1 2 1 Z " fill="#404040" transform="translate(50,175)"/>
<path d="M0 0 C2 1 2 1 2 1 Z " fill="#404040" transform="translate(215,174)"/>
<path d="M0 0 C2 1 2 1 2 1 Z " fill="#404040" transform="translate(47,174)"/>
<path d="M0 0 C2 1 2 1 2 1 Z " fill="#414141" transform="translate(217,173)"/>
<path d="M0 0 C2 1 2 1 2 1 Z " fill="#404040" transform="translate(45,173)"/>
<path d="M0 0 C2 1 2 1 2 1 Z " fill="#404040" transform="translate(219,172)"/>
<path d="M0 0 C2 1 2 1 2 1 Z " fill="#404040" transform="translate(224,169)"/>
<path d="M0 0 C2 1 2 1 2 1 Z " fill="#404040" transform="translate(37,169)"/>
<path d="M0 0 C2 1 2 1 2 1 Z " fill="#414141" transform="translate(229,165)"/>
<path d="" fill="#404040" transform="translate(0,0)"/>
<path d="" fill="#414141" transform="translate(0,0)"/>
<path d="" fill="#404040" transform="translate(0,0)"/>
<path d="" fill="#404040" transform="translate(0,0)"/>
<path d="" fill="#404040" transform="translate(0,0)"/>
<path d="" fill="#404040" transform="translate(0,0)"/>
<path d="" fill="#404040" transform="translate(0,0)"/>
<path d="" fill="#414141" transform="translate(0,0)"/>
<path d="" fill="#404040" transform="translate(0,0)"/>
<path d="" fill="#414141" transform="translate(0,0)"/>
<path d="" fill="#404040" transform="translate(0,0)"/>
<path d="" fill="#404040" transform="translate(0,0)"/>
<path d="" fill="#404040" transform="translate(0,0)"/>
<path d="" fill="#404040" transform="translate(0,0)"/>
<path d="" fill="#414141" transform="translate(0,0)"/>
<path d="" fill="#414141" transform="translate(0,0)"/>
<path d="" fill="#404040" transform="translate(0,0)"/>
<path d="" fill="#404040" transform="translate(0,0)"/>
<path d="" fill="#414141" transform="translate(0,0)"/>
<path d="" fill="#414141" transform="translate(0,0)"/>
<path d="" fill="#414141" transform="translate(0,0)"/>
<path d="" fill="#404040" transform="translate(0,0)"/>
<path d="" fill="#404040" transform="translate(0,0)"/>
<path d="" fill="#404040" transform="translate(0,0)"/>
<path d="" fill="#404040" transform="translate(0,0)"/>
<path d="" fill="#404040" transform="translate(0,0)"/>
<path d="" fill="#414141" transform="translate(0,0)"/>
<path d="" fill="#414141" transform="translate(0,0)"/>
<path d="" fill="#404040" transform="translate(0,0)"/>
<path d="M0 0 C2 1 2 1 2 1 Z " fill="#404040" transform="translate(224,86)"/>
<path d="" fill="#414141" transform="translate(0,0)"/>
<path d="M0 0 C2 1 2 1 2 1 Z " fill="#414141" transform="translate(219,83)"/>
<path d="M0 0 C2 1 2 1 2 1 Z " fill="#404040" transform="translate(217,82)"/>
<path d="M0 0 C2 1 2 1 2 1 Z " fill="#404040" transform="translate(215,81)"/>
<path d="" fill="#404040" transform="translate(0,0)"/>
<path d="M0 0 C2 1 2 1 2 1 Z " fill="#414141" transform="translate(30,70)"/>
<path d="M0 0 C2 1 2 1 2 1 Z " fill="#414141" transform="translate(34,67)"/>
<path d="" fill="#404040" transform="translate(0,0)"/>
<path d="M0 0 C2 1 2 1 2 1 Z " fill="#404040" transform="translate(37,65)"/>
<path d="" fill="#414141" transform="translate(0,0)"/>
<path d="" fill="#404040" transform="translate(0,0)"/>
<path d="" fill="#404040" transform="translate(0,0)"/>
<path d="" fill="#414141" transform="translate(0,0)"/>
<path d="" fill="#404040" transform="translate(0,0)"/>
<path d="" fill="#404040" transform="translate(0,0)"/>
<path d="" fill="#404040" transform="translate(0,0)"/>
<path d="" fill="#414141" transform="translate(0,0)"/>
<path d="" fill="#404040" transform="translate(0,0)"/>
<path d="" fill="#404040" transform="translate(0,0)"/>
<path d="" fill="#404040" transform="translate(0,0)"/>
<path d="" fill="#404040" transform="translate(0,0)"/>
<path d="" fill="#404040" transform="translate(0,0)"/>
<path d="" fill="#404040" transform="translate(0,0)"/>
<path d="" fill="#404040" transform="translate(0,0)"/>
<path d="M0 0 C2 1 2 1 2 1 Z " fill="#404040" transform="translate(180,21)"/>
<path d="M0 0 C2 1 2 1 2 1 Z " fill="#404040" transform="translate(74,21)"/>
<path d="M0 0 C2 1 2 1 2 1 Z " fill="#404040" transform="translate(171,15)"/>
<path d="M0 0 C2 1 2 1 2 1 Z " fill="#404040" transform="translate(83,15)"/>
<path d="M0 0 C2 1 2 1 2 1 Z " fill="#404040" transform="translate(166,12)"/>
<path d="M0 0 C2 1 2 1 2 1 Z " fill="#404040" transform="translate(164,11)"/>
<path d="M0 0 C2 1 2 1 2 1 Z " fill="#414141" transform="translate(159,9)"/>
<path d="M0 0 C2 1 2 1 2 1 Z " fill="#404040" transform="translate(95,9)"/>
<path d="" fill="#414141" transform="translate(0,0)"/>
<path d="" fill="#404040" transform="translate(0,0)"/>
<path d="" fill="#414141" transform="translate(0,0)"/>
<path d="" fill="#414141" transform="translate(0,0)"/>
<path d="" fill="#414141" transform="translate(0,0)"/>
<path d="" fill="#414141" transform="translate(0,0)"/>
<path d="" fill="#404040" transform="translate(0,0)"/>
<path d="" fill="#404040" transform="translate(0,0)"/>
<path d="" fill="#404040" transform="translate(0,0)"/>
<path d="" fill="#414141" transform="translate(0,0)"/>
<path d="" fill="#404040" transform="translate(0,0)"/>
<path d="" fill="#404040" transform="translate(0,0)"/>
<path d="" fill="#404040" transform="translate(0,0)"/>
<path d="" fill="#414141" transform="translate(0,0)"/>
<path d="" fill="#414141" transform="translate(0,0)"/>
<path d="" fill="#404040" transform="translate(0,0)"/>
<path d="" fill="#404040" transform="translate(0,0)"/>
<path d="" fill="#414141" transform="translate(0,0)"/>
<path d="" fill="#414141" transform="translate(0,0)"/>
<path d="" fill="#404040" transform="translate(0,0)"/>
<path d="" fill="#414141" transform="translate(0,0)"/>
<path d="" fill="#414141" transform="translate(0,0)"/>
<path d="" fill="#404040" transform="translate(0,0)"/>
<path d="" fill="#414141" transform="translate(0,0)"/>
<path d="" fill="#414141" transform="translate(0,0)"/>
<path d="" fill="#404040" transform="translate(0,0)"/>
<path d="" fill="#414141" transform="translate(0,0)"/>
<path d="" fill="#404040" transform="translate(0,0)"/>
<path d="" fill="#414141" transform="translate(0,0)"/>
<path d="" fill="#404040" transform="translate(0,0)"/>
<path d="" fill="#404040" transform="translate(0,0)"/>
<path d="" fill="#414141" transform="translate(0,0)"/>
<path d="" fill="#404040" transform="translate(0,0)"/>
<path d="" fill="#414141" transform="translate(0,0)"/>
<path d="" fill="#414141" transform="translate(0,0)"/>
<path d="" fill="#414141" transform="translate(0,0)"/>
<path d="" fill="#404040" transform="translate(0,0)"/>
<path d="" fill="#404040" transform="translate(0,0)"/>
<path d="" fill="#404040" transform="translate(0,0)"/>
<path d="" fill="#404040" transform="translate(0,0)"/>
<path d="" fill="#404040" transform="translate(0,0)"/>
<path d="" fill="#404040" transform="translate(0,0)"/>
<path d="" fill="#404040" transform="translate(0,0)"/>
<path d="" fill="#414141" transform="translate(0,0)"/>
<path d="" fill="#404040" transform="translate(0,0)"/>
<path d="" fill="#404040" transform="translate(0,0)"/>
<path d="" fill="#404040" transform="translate(0,0)"/>
<path d="" fill="#404040" transform="translate(0,0)"/>
<path d="" fill="#404040" transform="translate(0,0)"/>
<path d="" fill="#414141" transform="translate(0,0)"/>
<path d="" fill="#404040" transform="translate(0,0)"/>
<path d="" fill="#404040" transform="translate(0,0)"/>
<path d="" fill="#404040" transform="translate(0,0)"/>
<path d="" fill="#414141" transform="translate(0,0)"/>
<path d="" fill="#414141" transform="translate(0,0)"/>
<path d="" fill="#414141" transform="translate(0,0)"/>
<path d="" fill="#404040" transform="translate(0,0)"/>
<path d="" fill="#414141" transform="translate(0,0)"/>
<path d="" fill="#404040" transform="translate(0,0)"/>
<path d="" fill="#414141" transform="translate(0,0)"/>
<path d="" fill="#404040" transform="translate(0,0)"/>
<path d="" fill="#414141" transform="translate(0,0)"/>
<path d="" fill="#404040" transform="translate(0,0)"/>
<path d="" fill="#414141" transform="translate(0,0)"/>
<path d="" fill="#414141" transform="translate(0,0)"/>
<path d="" fill="#414141" transform="translate(0,0)"/>
<path d="" fill="#404040" transform="translate(0,0)"/>
<path d="" fill="#414141" transform="translate(0,0)"/>
<path d="" fill="#414141" transform="translate(0,0)"/>
<path d="" fill="#414141" transform="translate(0,0)"/>
<path d="" fill="#404040" transform="translate(0,0)"/>
<path d="" fill="#414141" transform="translate(0,0)"/>
<path d="" fill="#404040" transform="translate(0,0)"/>
<path d="" fill="#414141" transform="translate(0,0)"/>
<path d="" fill="#404040" transform="translate(0,0)"/>
<path d="" fill="#414141" transform="translate(0,0)"/>
<path d="" fill="#404040" transform="translate(0,0)"/>
<path d="" fill="#414141" transform="translate(0,0)"/>
<path d="" fill="#404040" transform="translate(0,0)"/>
<path d="" fill="#414141" transform="translate(0,0)"/>
<path d="" fill="#404040" transform="translate(0,0)"/>
<path d="" fill="#414141" transform="translate(0,0)"/>
<path d="" fill="#404040" transform="translate(0,0)"/>
<path d="" fill="#414141" transform="translate(0,0)"/>
<path d="" fill="#414141" transform="translate(0,0)"/>
<path d="" fill="#414141" transform="translate(0,0)"/>
<path d="" fill="#414141" transform="translate(0,0)"/>
<path d="" fill="#414141" transform="translate(0,0)"/>
<path d="" fill="#404040" transform="translate(0,0)"/>
<path d="" fill="#404040" transform="translate(0,0)"/>
<path d="" fill="#414141" transform="translate(0,0)"/>
<path d="" fill="#404040" transform="translate(0,0)"/>
<path d="" fill="#414141" transform="translate(0,0)"/>
<path d="" fill="#404040" transform="translate(0,0)"/>
<path d="" fill="#404040" transform="translate(0,0)"/>
<path d="" fill="#414141" transform="translate(0,0)"/>
<path d="" fill="#414141" transform="translate(0,0)"/>
<path d="" fill="#414141" transform="translate(0,0)"/>
<path d="" fill="#414141" transform="translate(0,0)"/>
<path d="" fill="#414141" transform="translate(0,0)"/>
<path d="" fill="#404040" transform="translate(0,0)"/>
<path d="" fill="#414141" transform="translate(0,0)"/>
<path d="" fill="#404040" transform="translate(0,0)"/>
<path d="" fill="#404040" transform="translate(0,0)"/>
<path d="" fill="#414141" transform="translate(0,0)"/>
<path d="" fill="#414141" transform="translate(0,0)"/>
<path d="" fill="#404040" transform="translate(0,0)"/>
<path d="" fill="#414141" transform="translate(0,0)"/>
<path d="" fill="#414141" transform="translate(0,0)"/>
<path d="" fill="#414141" transform="translate(0,0)"/>
<path d="" fill="#414141" transform="translate(0,0)"/>
<path d="" fill="#414141" transform="translate(0,0)"/>
<path d="" fill="#404040" transform="translate(0,0)"/>
<path d="" fill="#404040" transform="translate(0,0)"/>
<path d="" fill="#414141" transform="translate(0,0)"/>
<path d="" fill="#404040" transform="translate(0,0)"/>
<path d="" fill="#414141" transform="translate(0,0)"/>
<path d="" fill="#404040" transform="translate(0,0)"/>
<path d="" fill="#414141" transform="translate(0,0)"/>
<path d="" fill="#414141" transform="translate(0,0)"/>
<path d="" fill="#404040" transform="translate(0,0)"/>
<path d="" fill="#414141" transform="translate(0,0)"/>
<path d="" fill="#414141" transform="translate(0,0)"/>
<path d="" fill="#414141" transform="translate(0,0)"/>
<path d="" fill="#404040" transform="translate(0,0)"/>
<path d="" fill="#404040" transform="translate(0,0)"/>
<path d="" fill="#414141" transform="translate(0,0)"/>
<path d="" fill="#404040" transform="translate(0,0)"/>
<path d="" fill="#414141" transform="translate(0,0)"/>
<path d="" fill="#414141" transform="translate(0,0)"/>
<path d="" fill="#404040" transform="translate(0,0)"/>
<path d="" fill="#414141" transform="translate(0,0)"/>
<path d="" fill="#414141" transform="translate(0,0)"/>
<path d="" fill="#414141" transform="translate(0,0)"/>
<path d="" fill="#414141" transform="translate(0,0)"/>
<path d="" fill="#414141" transform="translate(0,0)"/>
<path d="" fill="#404040" transform="translate(0,0)"/>
<path d="" fill="#404040" transform="translate(0,0)"/>
<path d="" fill="#414141" transform="translate(0,0)"/>
<path d="" fill="#414141" transform="translate(0,0)"/>
<path d="" fill="#414141" transform="translate(0,0)"/>
<path d="" fill="#414141" transform="translate(0,0)"/>
<path d="" fill="#404040" transform="translate(0,0)"/>
<path d="" fill="#404040" transform="translate(0,0)"/>
<path d="" fill="#414141" transform="translate(0,0)"/>
<path d="" fill="#404040" transform="translate(0,0)"/>
<path d="" fill="#404040" transform="translate(0,0)"/>
<path d="" fill="#414141" transform="translate(0,0)"/>
<path d="" fill="#404040" transform="translate(0,0)"/>
<path d="" fill="#404040" transform="translate(0,0)"/>
<path d="" fill="#404040" transform="translate(0,0)"/>
<path d="" fill="#414141" transform="translate(0,0)"/>
<path d="" fill="#414141" transform="translate(0,0)"/>
<path d="" fill="#414141" transform="translate(0,0)"/>
<path d="" fill="#404040" transform="translate(0,0)"/>
<path d="" fill="#404040" transform="translate(0,0)"/>
<path d="" fill="#414141" transform="translate(0,0)"/>
<path d="" fill="#404040" transform="translate(0,0)"/>
<path d="" fill="#414141" transform="translate(0,0)"/>
<path d="" fill="#414141" transform="translate(0,0)"/>
<path d="" fill="#414141" transform="translate(0,0)"/>
<path d="" fill="#6456FF" transform="translate(0,0)"/>
<path d="" fill="#6356FE" transform="translate(0,0)"/>
<path d="" fill="#6456FE" transform="translate(0,0)"/>
<path d="" fill="#6457FF" transform="translate(0,0)"/>
<path d="" fill="#6457FF" transform="translate(0,0)"/>
<path d="" fill="#6456FE" transform="translate(0,0)"/>
<path d="" fill="#404040" transform="translate(0,0)"/>
<path d="" fill="#6356FF" transform="translate(0,0)"/>
<path d="" fill="#6456FF" transform="translate(0,0)"/>
<path d="" fill="#404040" transform="translate(0,0)"/>
<path d="" fill="#6456FF" transform="translate(0,0)"/>
<path d="" fill="#6356FF" transform="translate(0,0)"/>
<path d="" fill="#414141" transform="translate(0,0)"/>
<path d="" fill="#404040" transform="translate(0,0)"/>
<path d="" fill="#404040" transform="translate(0,0)"/>
<path d="" fill="#414141" transform="translate(0,0)"/>
<path d="" fill="#414141" transform="translate(0,0)"/>
<path d="" fill="#414141" transform="translate(0,0)"/>
<path d="" fill="#404040" transform="translate(0,0)"/>
<path d="" fill="#414141" transform="translate(0,0)"/>
<path d="" fill="#404040" transform="translate(0,0)"/>
<path d="" fill="#404040" transform="translate(0,0)"/>
<path d="" fill="#414141" transform="translate(0,0)"/>
<path d="" fill="#414141" transform="translate(0,0)"/>
<path d="" fill="#404040" transform="translate(0,0)"/>
<path d="" fill="#404040" transform="translate(0,0)"/>
<path d="" fill="#414141" transform="translate(0,0)"/>
<path d="" fill="#404040" transform="translate(0,0)"/>
<path d="" fill="#414141" transform="translate(0,0)"/>
<path d="" fill="#404040" transform="translate(0,0)"/>
<path d="" fill="#404040" transform="translate(0,0)"/>
<path d="" fill="#404040" transform="translate(0,0)"/>
<path d="" fill="#404040" transform="translate(0,0)"/>
<path d="" fill="#404040" transform="translate(0,0)"/>
<path d="" fill="#414141" transform="translate(0,0)"/>
<path d="" fill="#414141" transform="translate(0,0)"/>
<path d="" fill="#404040" transform="translate(0,0)"/>
<path d="" fill="#414141" transform="translate(0,0)"/>
<path d="" fill="#414141" transform="translate(0,0)"/>
<path d="" fill="#404040" transform="translate(0,0)"/>
<path d="" fill="#404040" transform="translate(0,0)"/>
<path d="" fill="#404040" transform="translate(0,0)"/>
<path d="" fill="#404040" transform="translate(0,0)"/>
<path d="" fill="#404040" transform="translate(0,0)"/>
<path d="" fill="#404040" transform="translate(0,0)"/>
<path d="" fill="#414141" transform="translate(0,0)"/>
<path d="" fill="#414141" transform="translate(0,0)"/>
<path d="" fill="#404040" transform="translate(0,0)"/>
<path d="" fill="#404040" transform="translate(0,0)"/>
<path d="" fill="#414141" transform="translate(0,0)"/>
<path d="" fill="#414141" transform="translate(0,0)"/>
<path d="" fill="#414141" transform="translate(0,0)"/>
<path d="" fill="#404040" transform="translate(0,0)"/>
<path d="" fill="#414141" transform="translate(0,0)"/>
<path d="" fill="#414141" transform="translate(0,0)"/>
<path d="" fill="#414141" transform="translate(0,0)"/>
<path d="" fill="#404040" transform="translate(0,0)"/>
<path d="" fill="#404040" transform="translate(0,0)"/>
<path d="" fill="#414141" transform="translate(0,0)"/>
<path d="" fill="#404040" transform="translate(0,0)"/>
<path d="" fill="#414141" transform="translate(0,0)"/>
<path d="" fill="#414141" transform="translate(0,0)"/>
<path d="" fill="#414141" transform="translate(0,0)"/>
<path d="" fill="#414141" transform="translate(0,0)"/>
<path d="" fill="#414141" transform="translate(0,0)"/>
<path d="" fill="#414141" transform="translate(0,0)"/>
<path d="" fill="#404040" transform="translate(0,0)"/>
<path d="" fill="#404040" transform="translate(0,0)"/>
<path d="" fill="#404040" transform="translate(0,0)"/>
<path d="" fill="#404040" transform="translate(0,0)"/>
<path d="" fill="#404040" transform="translate(0,0)"/>
<path d="" fill="#404040" transform="translate(0,0)"/>
<path d="" fill="#404040" transform="translate(0,0)"/>
<path d="" fill="#404040" transform="translate(0,0)"/>
<path d="" fill="#414141" transform="translate(0,0)"/>
<path d="" fill="#404040" transform="translate(0,0)"/>
<path d="" fill="#404040" transform="translate(0,0)"/>
<path d="" fill="#414141" transform="translate(0,0)"/>
<path d="" fill="#404040" transform="translate(0,0)"/>
<path d="" fill="#414141" transform="translate(0,0)"/>
<path d="" fill="#414141" transform="translate(0,0)"/>
<path d="" fill="#414141" transform="translate(0,0)"/>
<path d="" fill="#414141" transform="translate(0,0)"/>
<path d="" fill="#404040" transform="translate(0,0)"/>
<path d="" fill="#404040" transform="translate(0,0)"/>
<path d="" fill="#404040" transform="translate(0,0)"/>
<path d="" fill="#414141" transform="translate(0,0)"/>
<path d="" fill="#404040" transform="translate(0,0)"/>
<path d="" fill="#414141" transform="translate(0,0)"/>
<path d="" fill="#414141" transform="translate(0,0)"/>
<path d="" fill="#414141" transform="translate(0,0)"/>
<path d="" fill="#414141" transform="translate(0,0)"/>
<path d="" fill="#414141" transform="translate(0,0)"/>
<path d="" fill="#414141" transform="translate(0,0)"/>
<path d="" fill="#414141" transform="translate(0,0)"/>
<path d="" fill="#414141" transform="translate(0,0)"/>
<path d="" fill="#414141" transform="translate(0,0)"/>
<path d="" fill="#404040" transform="translate(0,0)"/>
<path d="" fill="#414141" transform="translate(0,0)"/>
<path d="" fill="#404040" transform="translate(0,0)"/>
<path d="" fill="#414141" transform="translate(0,0)"/>
<path d="" fill="#404040" transform="translate(0,0)"/>
<path d="" fill="#414141" transform="translate(0,0)"/>
<path d="" fill="#414141" transform="translate(0,0)"/>
<path d="" fill="#404040" transform="translate(0,0)"/>
<path d="" fill="#404040" transform="translate(0,0)"/>
<path d="" fill="#414141" transform="translate(0,0)"/>
<path d="" fill="#414141" transform="translate(0,0)"/>
<path d="" fill="#414141" transform="translate(0,0)"/>
<path d="" fill="#404040" transform="translate(0,0)"/>
<path d="" fill="#404040" transform="translate(0,0)"/>
<path d="" fill="#414141" transform="translate(0,0)"/>
<path d="" fill="#404040" transform="translate(0,0)"/>
<path d="" fill="#404040" transform="translate(0,0)"/>
<path d="" fill="#404040" transform="translate(0,0)"/>
<path d="" fill="#404040" transform="translate(0,0)"/>
<path d="" fill="#404040" transform="translate(0,0)"/>
<path d="" fill="#404040" transform="translate(0,0)"/>
<path d="" fill="#414141" transform="translate(0,0)"/>
<path d="" fill="#404040" transform="translate(0,0)"/>
<path d="" fill="#404040" transform="translate(0,0)"/>
<path d="" fill="#414141" transform="translate(0,0)"/>
<path d="" fill="#404040" transform="translate(0,0)"/>
<path d="" fill="#404040" transform="translate(0,0)"/>
<path d="" fill="#414141" transform="translate(0,0)"/>
<path d="" fill="#414141" transform="translate(0,0)"/>
<path d="" fill="#404040" transform="translate(0,0)"/>
<path d="" fill="#414141" transform="translate(0,0)"/>
<path d="" fill="#404040" transform="translate(0,0)"/>
<path d="" fill="#404040" transform="translate(0,0)"/>
<path d="" fill="#404040" transform="translate(0,0)"/>
<path d="" fill="#404040" transform="translate(0,0)"/>
<path d="" fill="#404040" transform="translate(0,0)"/>
<path d="" fill="#414141" transform="translate(0,0)"/>
<path d="" fill="#404040" transform="translate(0,0)"/>
<path d="" fill="#404040" transform="translate(0,0)"/>
<path d="" fill="#414141" transform="translate(0,0)"/>
<path d="" fill="#404040" transform="translate(0,0)"/>
<path d="" fill="#404040" transform="translate(0,0)"/>
<path d="" fill="#414141" transform="translate(0,0)"/>
<path d="" fill="#404040" transform="translate(0,0)"/>
<path d="" fill="#404040" transform="translate(0,0)"/>
<path d="" fill="#414141" transform="translate(0,0)"/>
<path d="" fill="#414141" transform="translate(0,0)"/>
<path d="" fill="#414141" transform="translate(0,0)"/>
<path d="" fill="#404040" transform="translate(0,0)"/>
<path d="" fill="#414141" transform="translate(0,0)"/>
<path d="" fill="#404040" transform="translate(0,0)"/>
<path d="" fill="#404040" transform="translate(0,0)"/>
<path d="" fill="#404040" transform="translate(0,0)"/>
<path d="" fill="#414141" transform="translate(0,0)"/>
<path d="" fill="#414141" transform="translate(0,0)"/>
<path d="" fill="#414141" transform="translate(0,0)"/>
<path d="" fill="#414141" transform="translate(0,0)"/>
<path d="" fill="#404040" transform="translate(0,0)"/>
<path d="" fill="#414141" transform="translate(0,0)"/>
<path d="" fill="#404040" transform="translate(0,0)"/>
<path d="" fill="#414141" transform="translate(0,0)"/>
<path d="" fill="#404040" transform="translate(0,0)"/>
</svg>
