<?xml version="1.0" encoding="UTF-8"?>
<svg version="1.1" xmlns="http://www.w3.org/2000/svg" width="499" height="499">
<path d="M0 0 C1.88198039 1.30174666 1.88198039 1.30174666 4.76953125 2.12890625 C4.76953125 2.78890625 4.76953125 3.44890625 4.76953125 4.12890625 C5.46175781 4.36738281 6.15398437 4.60585937 6.8671875 4.8515625 C10.29972728 6.36224959 13.19577824 8.36571189 16.20703125 10.56640625 C16.81321289 11.00525146 17.41939453 11.44409668 18.04394531 11.89624023 C27.59941479 18.86572074 36.82776482 26.11214067 45.5234375 34.13671875 C47.63379821 36.00851695 49.79310926 37.67111037 52.08203125 39.31640625 C55.6273603 41.88248111 58.05168654 44.71218719 60.76953125 48.12890625 C61.75953125 48.78890625 62.74953125 49.44890625 63.76953125 50.12890625 C63.76953125 50.78890625 63.76953125 51.44890625 63.76953125 52.12890625 C65.08953125 52.78890625 66.40953125 53.44890625 67.76953125 54.12890625 C67.76953125 54.78890625 67.76953125 55.44890625 67.76953125 56.12890625 C69.08953125 56.78890625 70.40953125 57.44890625 71.76953125 58.12890625 C71.76953125 58.78890625 71.76953125 59.44890625 71.76953125 60.12890625 C72.35347656 60.3815625 72.93742187 60.63421875 73.5390625 60.89453125 C78.39010225 63.57916971 82.06490078 68.13245324 83.89453125 73.31640625 C83.67619352 78.22900522 81.08531283 80.81312467 77.76953125 84.12890625 C77.02703125 85.45921875 77.02703125 85.45921875 76.26953125 86.81640625 C75.52703125 87.96109375 75.52703125 87.96109375 74.76953125 89.12890625 C73.77953125 89.12890625 72.78953125 89.12890625 71.76953125 89.12890625 C71.10953125 90.44890625 70.44953125 91.76890625 69.76953125 93.12890625 C69.10953125 93.12890625 68.44953125 93.12890625 67.76953125 93.12890625 C67.10953125 94.44890625 66.44953125 95.76890625 65.76953125 97.12890625 C65.10953125 97.12890625 64.44953125 97.12890625 63.76953125 97.12890625 C63.43953125 98.11890625 63.10953125 99.10890625 62.76953125 100.12890625 C62.10953125 100.12890625 61.44953125 100.12890625 60.76953125 100.12890625 C60.76953125 101.11890625 60.76953125 102.10890625 60.76953125 103.12890625 C58.79819139 104.50425964 56.79271203 105.83101669 54.76953125 107.12890625 C53.86203125 108.03640625 52.95453125 108.94390625 52.01953125 109.87890625 C51.27703125 110.62140625 50.53453125 111.36390625 49.76953125 112.12890625 C49.10953125 112.12890625 48.44953125 112.12890625 47.76953125 112.12890625 C47.76953125 112.78890625 47.76953125 113.44890625 47.76953125 114.12890625 C44.3254388 117.37959394 40.50083441 120.2150406 36.76953125 123.12890625 C35.78944092 123.89533447 35.78944092 123.89533447 34.78955078 124.67724609 C25.65029337 131.79843868 16.41266507 138.70015037 6.76953125 145.12890625 C5.9492041 145.67708008 5.9492041 145.67708008 5.11230469 146.23632812 C-8.24355099 155.11970418 -21.98554207 162.69024023 -36.54296875 169.44140625 C-37.62803711 169.94518799 -38.71310547 170.44896973 -39.83105469 170.96801758 C-49.38740558 175.33282325 -59.02013997 178.97003593 -69.16796875 181.69140625 C-70.34141846 182.00827393 -70.34141846 182.00827393 -71.53857422 182.33154297 C-73.08458377 182.74761689 -74.63111289 183.16176636 -76.17822266 183.57373047 C-77.86204781 184.02924063 -79.53781795 184.51442862 -81.2109375 185.0078125 C-122.50444556 196.65782733 -169.4655059 190.29744044 -208.23046875 173.12890625 C-209.77199825 172.45801808 -211.31367349 171.7874647 -212.85546875 171.1171875 C-233.82914183 161.93156009 -233.82914183 161.93156009 -235.23046875 159.12890625 C-236.56219539 158.78921074 -237.89592825 158.45737319 -239.23046875 158.12890625 C-259.33562393 147.80804951 -278.29838984 133.43350906 -295.29296875 118.66015625 C-298.21875301 116.13900173 -301.21172384 113.72497931 -304.23046875 111.31640625 C-307.07388363 109.00715891 -309.69412952 106.80675346 -311.98046875 103.94140625 C-314.35809863 100.9693689 -316.90684869 98.78005052 -319.875 96.42578125 C-320.32230469 95.9978125 -320.76960938 95.56984375 -321.23046875 95.12890625 C-321.23046875 94.46890625 -321.23046875 93.80890625 -321.23046875 93.12890625 C-322.55046875 92.46890625 -323.87046875 91.80890625 -325.23046875 91.12890625 C-325.23046875 90.46890625 -325.23046875 89.80890625 -325.23046875 89.12890625 C-326.18953125 88.72671875 -326.18953125 88.72671875 -327.16796875 88.31640625 C-329.23046875 87.12890625 -329.23046875 87.12890625 -330.23046875 84.12890625 C-330.89046875 84.12890625 -331.55046875 84.12890625 -332.23046875 84.12890625 C-335.5835742 80.67419155 -337.12937107 77.98159498 -337.23046875 73.12890625 C-335.91796875 70.44140625 -335.91796875 70.44140625 -334.23046875 68.12890625 C-333.57046875 67.13890625 -332.91046875 66.14890625 -332.23046875 65.12890625 C-331.57046875 65.12890625 -330.91046875 65.12890625 -330.23046875 65.12890625 C-329.82828125 64.16984375 -329.82828125 64.16984375 -329.41796875 63.19140625 C-328.23046875 61.12890625 -328.23046875 61.12890625 -325.23046875 60.12890625 C-324.02164779 58.12874159 -324.02164779 58.12874159 -323.23046875 56.12890625 C-322.57046875 56.12890625 -321.91046875 56.12890625 -321.23046875 56.12890625 C-320.57046875 54.80890625 -319.91046875 53.48890625 -319.23046875 52.12890625 C-318.57046875 52.12890625 -317.91046875 52.12890625 -317.23046875 52.12890625 C-316.73546875 50.64390625 -316.73546875 50.64390625 -316.23046875 49.12890625 C-315.57046875 49.12890625 -314.91046875 49.12890625 -314.23046875 49.12890625 C-314.23046875 48.13890625 -314.23046875 47.14890625 -314.23046875 46.12890625 C-312.1484375 44.12109375 -312.1484375 44.12109375 -309.41796875 42.00390625 C-308.52464844 41.30007812 -307.63132812 40.59625 -306.7109375 39.87109375 C-304.23046875 38.12890625 -304.23046875 38.12890625 -301.23046875 37.12890625 C-300.73546875 35.64390625 -300.73546875 35.64390625 -300.23046875 34.12890625 C-298.18279216 32.35050505 -296.13908874 30.69929276 -293.98046875 29.06640625 C-293.35148682 28.58252441 -292.72250488 28.09864258 -292.07446289 27.60009766 C-290.76741745 26.59538321 -289.45822444 25.59345681 -288.14697266 24.59423828 C-286.37743409 23.24127389 -284.61998336 21.87454722 -282.8671875 20.5 C-272.90336385 12.70735249 -262.59989278 5.49188022 -251.86328125 -1.20703125 C-250.1916047 -2.2636102 -248.53769179 -3.34927314 -246.91015625 -4.47265625 C-237.03733223 -11.17093878 -226.03285853 -15.88403035 -215.23046875 -20.87109375 C-214.24739746 -21.32508545 -213.26432617 -21.77907715 -212.25146484 -22.24682617 C-143.15683184 -53.92439753 -61.84055407 -43.39480563 0 0 Z M-199.23046875 6.12890625 C-199.23046875 6.78890625 -199.23046875 7.44890625 -199.23046875 8.12890625 C-199.80152344 8.3403125 -200.37257812 8.55171875 -200.9609375 8.76953125 C-214.16100432 16.6759396 -220.46148937 39.12773675 -224.23046875 53.12890625 C-224.60171875 54.45728516 -224.60171875 54.45728516 -224.98046875 55.8125 C-230.49009387 79.72580346 -224.318168 105.4165341 -212.390625 126.359375 C-207.51413803 134.06801391 -201.60952062 140.65780457 -195.23046875 147.12890625 C-194.51246094 147.85980469 -193.79445312 148.59070313 -193.0546875 149.34375 C-174.7609921 166.74170891 -148.82144889 174.85373531 -123.98608398 174.66967773 C-97.31076929 173.80216979 -72.59321467 162.38885474 -54.23046875 143.12890625 C-52.9104505 140.95650152 -52.9104505 140.95650152 -52.23046875 139.12890625 C-51.57046875 139.12890625 -50.91046875 139.12890625 -50.23046875 139.12890625 C-32.63064697 117.55030603 -25.05852516 90.66096161 -27.23046875 63.12890625 C-30.96416216 35.6259172 -45.20812054 11.08008571 -67.23046875 -5.87109375 C-108.68635393 -34.67663616 -164.08598537 -30.88496454 -199.23046875 6.12890625 Z M-39.23046875 -2.87109375 C-38.62953242 0.79294859 -37.07207108 2.85557228 -34.73046875 5.69140625 C-32.59840016 8.28221911 -31.29934583 9.922275 -30.23046875 13.12890625 C-29.57046875 13.12890625 -28.91046875 13.12890625 -28.23046875 13.12890625 C-27.97007812 13.98355469 -27.7096875 14.83820313 -27.44140625 15.71875 C-26.18671902 19.25211112 -24.61222379 22.38118879 -22.85546875 25.69140625 C-9.44677324 51.90908054 -9.00865473 83.04789192 -17.36328125 110.90625 C-18.51920357 114.06398481 -19.8047838 117.08402233 -21.23046875 120.12890625 C-21.76800781 121.29808594 -22.30554688 122.46726562 -22.859375 123.671875 C-26.32814884 131.00706021 -30.3759681 137.63702059 -35.23046875 144.12890625 C-36.21254293 145.50183111 -37.19203839 146.87660734 -38.16796875 148.25390625 C-38.84859375 149.20265625 -39.52921875 150.15140625 -40.23046875 151.12890625 C-39.90046875 151.78890625 -39.57046875 152.44890625 -39.23046875 153.12890625 C-27.06000365 147.16299199 -15.5208658 140.60516672 -4.23046875 133.12890625 C-3.23660156 132.47148437 -2.24273437 131.8140625 -1.21875 131.13671875 C8.24606237 124.77735462 17.30086237 118.04011161 26.08740234 110.77172852 C29.31142346 108.10694243 32.56029616 105.52505948 35.93359375 103.05078125 C39.17881749 100.63443263 41.95920765 98.0524817 44.76953125 95.12890625 C46.32618059 93.62423825 47.88648967 92.12335269 49.44921875 90.625 C51.18130212 88.93912312 52.91306455 87.25291647 54.64453125 85.56640625 C55.5365625 84.71626953 56.42859375 83.86613281 57.34765625 82.99023438 C58.18554688 82.16845703 59.0234375 81.34667969 59.88671875 80.5 C60.65612793 79.7567749 61.42553711 79.0135498 62.21826172 78.24780273 C63.96884591 76.29702553 63.96884591 76.29702553 63.76049805 74.12451172 C62.47285618 71.53146303 60.85849028 69.86369787 58.796875 67.828125 C57.57000977 66.60899414 57.57000977 66.60899414 56.31835938 65.36523438 C55.02575195 64.10356445 55.02575195 64.10356445 53.70703125 62.81640625 C52.4550293 61.57213867 52.4550293 61.57213867 51.17773438 60.30273438 C41.70931753 50.95239599 31.67614015 41.90928501 20.76953125 34.25390625 C17.76953125 32.12890625 17.76953125 32.12890625 16.48828125 30.79296875 C13.97100274 28.35578547 11.12254137 26.39793598 8.26953125 24.37890625 C7.6465918 23.93643555 7.02365234 23.49396484 6.38183594 23.03808594 C0.95958214 19.2133862 -4.57458278 15.59956355 -10.23046875 12.12890625 C-11.060625 11.61714844 -11.89078125 11.10539062 -12.74609375 10.578125 C-25.2572396 1.76504231 -25.2572396 1.76504231 -39.23046875 -2.87109375 Z M-215.23046875 -2.87109375 C-221.37420778 -0.42372518 -227.00448999 2.70762145 -232.73046875 6.00390625 C-233.64183594 6.52082031 -234.55320312 7.03773438 -235.4921875 7.5703125 C-240.6293756 10.51326152 -245.45123761 13.63912113 -250.23046875 17.12890625 C-251.89418771 18.13380276 -253.56077452 19.13396959 -255.23046875 20.12890625 C-257.39357443 21.60965292 -259.53719357 23.10323277 -261.66796875 24.62890625 C-262.27415039 25.06251465 -262.88033203 25.49612305 -263.50488281 25.94287109 C-269.68773435 30.40224081 -275.67585936 35.09547934 -281.63037109 39.85351562 C-283.133299 41.05145511 -284.64450362 42.2389897 -286.15625 43.42578125 C-287.02636719 44.1115625 -287.89648438 44.79734375 -288.79296875 45.50390625 C-289.90865234 46.38175781 -289.90865234 46.38175781 -291.046875 47.27734375 C-293.59080579 49.43445144 -295.89009218 51.75143437 -298.23046875 54.12890625 C-299.48539344 55.36359296 -300.74203633 56.59653471 -302 57.828125 C-303.34774517 59.15746194 -304.69539971 60.48689077 -306.04296875 61.81640625 C-307.08227539 62.83057617 -307.08227539 62.83057617 -308.14257812 63.86523438 C-308.79677734 64.51298828 -309.45097656 65.16074219 -310.125 65.828125 C-310.72159424 66.41424561 -311.31818848 67.00036621 -311.93286133 67.60424805 C-313.4465108 69.04906878 -313.4465108 69.04906878 -313.23046875 71.12890625 C-313.86984375 71.41765625 -314.50921875 71.70640625 -315.16796875 72.00390625 C-317.38252954 72.95714076 -317.38252954 72.95714076 -318.23046875 75.12890625 C-317.57046875 75.12890625 -316.91046875 75.12890625 -316.23046875 75.12890625 C-315.83408203 76.0120752 -315.83408203 76.0120752 -315.4296875 76.91308594 C-314.18677931 79.20963209 -312.88040394 80.73723791 -311.04296875 82.58203125 C-310.42679688 83.20078125 -309.810625 83.81953125 -309.17578125 84.45703125 C-308.21285156 85.40835938 -308.21285156 85.40835938 -307.23046875 86.37890625 C-306.58851563 87.02859375 -305.9465625 87.67828125 -305.28515625 88.34765625 C-304.66898438 88.96125 -304.0528125 89.57484375 -303.41796875 90.20703125 C-302.85464844 90.7680957 -302.29132813 91.32916016 -301.7109375 91.90722656 C-300.29327766 93.34106417 -300.29327766 93.34106417 -298.23046875 93.12890625 C-297.90046875 94.11890625 -297.57046875 95.10890625 -297.23046875 96.12890625 C-295.91772823 97.5768251 -295.91772823 97.5768251 -294.16796875 99.00390625 C-293.4615625 99.60460937 -292.75515625 100.2053125 -292.02734375 100.82421875 C-287.63463395 104.44390978 -283.21648348 108.03243363 -278.77905273 111.59716797 C-277.77080444 112.40951904 -277.77080444 112.40951904 -276.7421875 113.23828125 C-276.13850342 113.72264648 -275.53481934 114.20701172 -274.9128418 114.70605469 C-273.23046875 116.12890625 -273.23046875 116.12890625 -271.66064453 117.71777344 C-269.74281847 119.6100634 -267.54934024 120.76609122 -265.23046875 122.12890625 C-263.65719831 123.28100758 -262.0954404 124.4489278 -260.54296875 125.62890625 C-252.7825793 131.33538635 -244.48923905 136.18636618 -236.23046875 141.12890625 C-235.3384375 141.66902344 -234.44640625 142.20914063 -233.52734375 142.765625 C-226.96564075 146.66024124 -220.31966643 150.29322718 -213.23046875 153.12890625 C-212.90046875 152.46890625 -212.57046875 151.80890625 -212.23046875 151.12890625 C-212.89046875 151.12890625 -213.55046875 151.12890625 -214.23046875 151.12890625 C-214.64039063 150.24912109 -214.64039063 150.24912109 -215.05859375 149.3515625 C-216.19840849 147.18971388 -217.4531069 145.46739694 -218.98046875 143.56640625 C-222.66867637 138.72339576 -225.43867101 133.52445317 -228.23046875 128.12890625 C-229.00777344 126.68644531 -229.00777344 126.68644531 -229.80078125 125.21484375 C-243.68442173 98.77313651 -244.81667146 66.71881294 -236.04296875 38.44140625 C-233.55130195 31.42499483 -230.2672385 24.87863161 -226.8046875 18.296875 C-225.08213416 15.41998672 -225.08213416 15.41998672 -225.23046875 13.12890625 C-224.57046875 13.12890625 -223.91046875 13.12890625 -223.23046875 13.12890625 C-222.67359375 12.09765625 -222.11671875 11.06640625 -221.54296875 10.00390625 C-220.05229109 7.35500422 -218.44908963 5.13696801 -216.41796875 2.87890625 C-215.69609375 1.97140625 -214.97421875 1.06390625 -214.23046875 0.12890625 C-214.72546875 -1.35609375 -214.72546875 -1.35609375 -215.23046875 -2.87109375 Z " fill="#191919" transform="translate(376.23046875,174.87109375)"/>
<path d="M0 0 C1.94937081 1.4356114 3.77199109 2.94194909 5.58984375 4.5390625 C6.49734375 5.2196875 7.40484375 5.9003125 8.33984375 6.6015625 C16.94311464 14.00993465 20.92080839 24.06682422 21.9140625 35.16015625 C22.2668437 47.04523313 19.58914502 56.90658358 12.58984375 66.5390625 C11.95046875 67.4259375 11.31109375 68.3128125 10.65234375 69.2265625 C2.95323697 77.85889434 -7.42270602 82.80244209 -18.92578125 83.86328125 C-33.0009645 84.28321984 -43.77173903 80.83018017 -54.41015625 71.5390625 C-58.97519727 67.17374203 -62.01773712 62.3659322 -64.41015625 56.5390625 C-64.71050781 55.81203125 -65.01085937 55.085 -65.3203125 54.3359375 C-69.47555962 42.66259212 -68.4938135 29.74589236 -63.41015625 18.5390625 C-56.99673002 7.70162426 -48.51984427 -0.35948347 -36.41015625 -4.2109375 C-24.3003383 -7.2135088 -10.85632436 -6.5806569 0 0 Z M-40.41015625 15.5390625 C-40.41015625 16.1990625 -40.41015625 16.8590625 -40.41015625 17.5390625 C-42.39015625 18.5290625 -42.39015625 18.5290625 -44.41015625 19.5390625 C-44.41015625 20.1990625 -44.41015625 20.8590625 -44.41015625 21.5390625 C-45.07015625 21.5390625 -45.73015625 21.5390625 -46.41015625 21.5390625 C-51.24958277 30.08871603 -53.58776133 37.57158741 -50.91015625 47.2890625 C-48.96227915 52.84780021 -46.70552665 56.52382495 -42.41015625 60.5390625 C-41.75015625 60.5390625 -41.09015625 60.5390625 -40.41015625 60.5390625 C-40.41015625 61.1990625 -40.41015625 61.8590625 -40.41015625 62.5390625 C-32.28057562 67.05549618 -24.67786456 69.80024073 -15.4375 67.234375 C-9.83653422 65.3134272 -5.70566547 62.52774963 -1.41015625 58.5390625 C-1.41015625 57.8790625 -1.41015625 57.2190625 -1.41015625 56.5390625 C-0.75015625 56.5390625 -0.09015625 56.5390625 0.58984375 56.5390625 C4.65225553 49.36213502 7.56744147 42.38903344 5.88671875 34.05078125 C4.52807579 29.49324387 3.23643224 25.50894523 0.58984375 21.5390625 C-0.07015625 21.5390625 -0.73015625 21.5390625 -1.41015625 21.5390625 C-2.07015625 20.2190625 -2.73015625 18.8990625 -3.41015625 17.5390625 C-4.07015625 17.5390625 -4.73015625 17.5390625 -5.41015625 17.5390625 C-5.41015625 16.8790625 -5.41015625 16.2190625 -5.41015625 15.5390625 C-17.23676497 8.84475568 -28.59154412 7.65998775 -40.41015625 15.5390625 Z " fill="#161616" transform="translate(272.41015625,210.4609375)"/>
<path d="M0 0 C5.17494887 4.04854044 6.55880338 8.51238139 8.375 14.5625 C8.97108179 16.44841503 9.56878029 18.33381971 10.16796875 20.21875 C10.46880371 21.1778125 10.76963867 22.136875 11.07958984 23.125 C12.52397603 27.63669542 14.10480248 32.09785651 15.6875 36.5625 C16.26463819 38.21212932 16.84147199 39.86186516 17.41796875 41.51171875 C18.37879946 44.25242063 19.36075259 46.98095761 20.36328125 49.70703125 C20.73839844 50.75246094 21.11351562 51.79789062 21.5 52.875 C21.8196875 53.73867188 22.139375 54.60234375 22.46875 55.4921875 C23.12863757 58.60724501 22.73640594 60.92087573 22 64 C20.27569441 66.63183484 19.12909218 66.96429365 16.0625 67.8125 C12.76299922 68.01451025 11.72434467 67.73264337 9 66 C5.30809869 60.8515742 3.59100856 54.22073366 1.6875 48.25 C1.0846342 46.4006171 0.48043054 44.55166987 -0.125 42.703125 C-0.43179687 41.76404297 -0.73859375 40.82496094 -1.0546875 39.85742188 C-2.58882524 35.22014188 -4.1959053 30.60906926 -5.8125 26 C-6.24719604 24.75524902 -6.24719604 24.75524902 -6.69067383 23.48535156 C-7.7902113 20.35417976 -8.89363737 17.25491577 -10.171875 14.19140625 C-11.56468183 10.50572401 -11.43769604 7.93926438 -11 4 C-7.75032314 0.17685075 -4.94151119 -0.92653335 0 0 Z " fill="#1B1B1B" transform="translate(317,366)"/>
<path d="M0 0 C1.5 1.6875 1.5 1.6875 2 4 C1.48768891 9.75984041 -0.15232015 14.74423722 -2.125 20.125 C-2.76059167 21.89660618 -3.39465606 23.6687609 -4.02734375 25.44140625 C-4.35331543 26.35293457 -4.67928711 27.26446289 -5.01513672 28.20361328 C-6.63485506 32.80258549 -8.16016934 37.43219322 -9.6875 42.0625 C-12.01048273 49.085486 -14.38978412 56.07725355 -17 63 C-17.66 63 -18.32 63 -19 63 C-19 63.66 -19 64.32 -19 65 C-21.85324437 66.42662219 -23.83454549 66.31033868 -27 66 C-29.875 64.5 -29.875 64.5 -32 62 C-32.94046471 56.0437235 -31.38325033 51.66373665 -29.2109375 46.1328125 C-27.83142786 42.56388756 -26.62525254 38.94831983 -25.4375 35.3125 C-23.98611041 30.88219275 -22.45879211 26.50173816 -20.80541992 22.14428711 C-19.93038518 19.81466294 -19.08623865 17.47523675 -18.24609375 15.1328125 C-17.80040039 13.89917969 -17.80040039 13.89917969 -17.34570312 12.640625 C-16.7322964 10.94155432 -16.12302113 9.24098722 -15.51757812 7.5390625 C-15.22173828 6.724375 -14.92589844 5.9096875 -14.62109375 5.0703125 C-14.22555298 3.96840576 -14.22555298 3.96840576 -13.82202148 2.84423828 C-12.78415163 0.51573549 -11.65316318 -0.70970525 -9.3125 -1.75 C-5.81265481 -2.12836164 -3.25255133 -1.26488107 0 0 Z " fill="#131313" transform="translate(338,67)"/>
<path d="M0 0 C2.875 1.5 2.875 1.5 5 4 C5.5271224 10.14756501 4.4205917 14.5366198 2.125 20.1875 C1.48198454 21.84101671 0.84293533 23.49607916 0.20703125 25.15234375 C-0.14407715 26.06612793 -0.49518555 26.97991211 -0.85693359 27.92138672 C-2.15126222 31.40739355 -3.3606782 34.91886628 -4.55078125 38.44140625 C-4.76879395 39.08494553 -4.98680664 39.7284848 -5.21142578 40.39152527 C-6.29799971 43.60369441 -7.37650669 46.8182293 -8.44677734 50.03588867 C-12.53882855 62.11488429 -12.53882855 62.11488429 -16 67 C-19.53908481 68.07436503 -21.76159422 68.36817469 -25.3125 67.3125 C-27.47719891 65.62884529 -28.21270916 64.64816011 -29 62 C-28.50982154 56.24223207 -26.84587757 51.2508468 -24.875 45.875 C-24.23940833 44.10339382 -23.60534394 42.3312391 -22.97265625 40.55859375 C-22.64668457 39.64706543 -22.32071289 38.73553711 -21.98486328 37.79638672 C-20.36514494 33.19741451 -18.83983066 28.56780678 -17.3125 23.9375 C-14.98951727 16.914514 -12.61021588 9.92274645 -10 3 C-9.34 3 -8.68 3 -8 3 C-8 2.34 -8 1.68 -8 1 C-5.14675563 -0.42662219 -3.16545451 -0.31033868 0 0 Z " fill="#0C0C0C" transform="translate(188,366)"/>
<path d="M0 0 C3.58908528 5.08230252 5.32020513 11.50571013 7.1875 17.375 C9.19678539 23.58244766 11.25377069 29.76310794 13.453125 35.90625 C13.8653833 37.06463379 14.2776416 38.22301758 14.70239258 39.41650391 C15.51153093 41.68221924 16.32878672 43.94505581 17.1550293 46.20458984 C20.74943492 56.33335435 20.74943492 56.33335435 20 62 C17.9375 64.4375 17.9375 64.4375 15 66 C11.1875 66.25 11.1875 66.25 8 66 C7.67 65.01 7.34 64.02 7 63 C6.34 63 5.68 63 5 63 C1.21007813 52.35432515 -2.50322207 41.68264885 -6.1875 31 C-6.61530762 29.76032471 -7.04311523 28.52064941 -7.48388672 27.2434082 C-8.29539314 24.88787811 -9.10459577 22.53155265 -9.91113281 20.17431641 C-10.59017736 18.19473407 -11.27588251 16.21740867 -11.97167969 14.24365234 C-12.24786133 13.44910645 -12.52404297 12.65456055 -12.80859375 11.8359375 C-13.16328735 10.83119385 -13.16328735 10.83119385 -13.52514648 9.80615234 C-14.28068814 6.93237488 -13.92747144 4.78241432 -13 2 C-9.30826792 -2.86637411 -5.25184343 -2.3034401 0 0 Z " fill="#1B1B1B" transform="translate(173,67)"/>
<path d="M0 0 C3.65806032 0.70047964 4.65926301 1.65033925 6.9375 4.5625 C7.44543457 7.49098206 7.44543457 7.49098206 7.45507812 10.93579102 C7.46768677 12.22715469 7.48029541 13.51851837 7.49328613 14.84901428 C7.48612708 16.25481717 7.47792328 17.66061507 7.46875 19.06640625 C7.47144528 20.51082114 7.47532801 21.95523426 7.48034668 23.39964294 C7.48623828 26.42342442 7.47768918 29.4467326 7.45898438 32.47045898 C7.43617364 36.34685885 7.44933205 40.22215225 7.47327423 44.0985117 C7.48772447 47.07969003 7.48313035 50.0606057 7.47276306 53.04179192 C7.47009464 54.47114124 7.47336964 55.90051441 7.48268127 57.32983589 C7.49283426 59.32608715 7.47461617 61.32242205 7.45507812 63.31860352 C7.45189575 64.45459488 7.44871338 65.59058624 7.44543457 66.76100159 C6.9375 69.5625 6.9375 69.5625 5.12390137 71.42539978 C1.88547862 73.10963364 -0.4738919 73.01107601 -4.0625 72.5625 C-6.89468016 70.43394031 -7.9393018 69.24211182 -8.5771637 65.72340393 C-8.58336227 64.62817917 -8.58956085 63.53295441 -8.59594727 62.40454102 C-8.6117836 61.15967422 -8.62761993 59.91480743 -8.64393616 58.63221741 C-8.6400944 57.27694321 -8.6350552 55.92167195 -8.62890625 54.56640625 C-8.63414316 53.17162155 -8.64041989 51.7768404 -8.64768982 50.38206482 C-8.65809077 47.46083903 -8.65353826 44.54010043 -8.63891602 41.61889648 C-8.6217366 37.88151028 -8.64521149 34.1456627 -8.68040562 30.40844822 C-8.70240455 27.52839537 -8.70093225 24.64870922 -8.6926403 21.76859856 C-8.69182195 20.39112601 -8.69866335 19.01362622 -8.71341133 17.63623238 C-8.73089569 15.70750737 -8.71297237 13.77856052 -8.69360352 11.84985352 C-8.69264175 10.75383316 -8.69167999 9.65781281 -8.69068909 8.52857971 C-7.65920599 3.65829282 -4.87713549 0.8958004 0 0 Z " fill="#010101" transform="translate(250.0625,372.4375)"/>
<path d="M0 0 C2.85828804 2.14448936 3.8809345 3.33284633 4.5146637 6.88378906 C4.52396156 8.55779785 4.52396156 8.55779785 4.53344727 10.265625 C4.5492836 11.53374023 4.56511993 12.80185547 4.58143616 14.10839844 C4.57759483 15.48893604 4.57255587 16.86947075 4.56640625 18.25 C4.57164248 19.6696005 4.57791896 21.08919752 4.58518982 22.50878906 C4.59559022 25.48128656 4.59103796 28.45330522 4.57641602 31.42578125 C4.55922073 35.23275693 4.58273159 39.03822435 4.61790562 42.84503174 C4.63987828 45.77565487 4.63843886 48.70591691 4.6301403 51.63659668 C4.62932082 53.04001521 4.63618383 54.44346026 4.65091133 55.84680176 C4.6683509 57.80925979 4.65049882 59.77193532 4.63110352 61.734375 C4.62966087 63.40838379 4.62966087 63.40838379 4.62818909 65.11621094 C4 68 4 68 1.68711853 70.39550781 C-1 72 -1 72 -4.625 71.9375 C-9.05063255 70.70815762 -9.05063255 70.70815762 -11 68 C-11.38768005 65.23646545 -11.38768005 65.23646545 -11.40405273 61.84790039 C-11.41673691 60.57970963 -11.42942108 59.31151886 -11.44248962 58.00489807 C-11.44043811 56.61914914 -11.43745001 55.23340133 -11.43359375 53.84765625 C-11.43815466 52.42662811 -11.44345996 51.00560218 -11.44947815 49.58457947 C-11.45841418 46.60618124 -11.45598106 43.62805106 -11.44604492 40.6496582 C-11.4345584 36.83501634 -11.45475793 33.02130061 -11.48396206 29.20678043 C-11.50232023 26.27190789 -11.50203241 23.3372574 -11.49632454 20.40234184 C-11.49617125 18.99613585 -11.5022218 17.58991488 -11.51461601 16.1837635 C-11.52951262 14.21639208 -11.51622579 12.24886841 -11.50170898 10.28149414 C-11.50154282 9.16247208 -11.50137665 8.04345001 -11.50120544 6.89051819 C-10.36151077 0.31774802 -6.09983764 -0.87140538 0 0 Z " fill="#1B1B1B" transform="translate(253,54)"/>
<path d="M0 0 C3.875 0.75 3.875 0.75 6.375 2.875 C8.11395776 6.20800237 8.34853317 8.04065683 7.875 11.75 C6.875 14.125 6.875 14.125 5.875 15.75 C5.215 15.75 4.555 15.75 3.875 15.75 C3.6275 16.29785156 3.38 16.84570312 3.125 17.41015625 C1.61860569 20.2299381 -0.19035511 22.64136913 -2.125 25.1875 C-2.51872803 25.70755615 -2.91245605 26.2276123 -3.31811523 26.76342773 C-5.41881193 29.53224603 -7.53702157 32.28742751 -9.66015625 35.0390625 C-10.0775708 35.58006592 -10.49498535 36.12106934 -10.92504883 36.6784668 C-11.76598201 37.76691502 -12.60826621 38.85432079 -13.4519043 39.94067383 C-16.86782525 44.35770957 -20.08562967 48.89851279 -23.23828125 53.5078125 C-25.33824493 56.00342151 -27.17733838 57.36726175 -30.125 58.75 C-33.95049559 57.98490088 -36.78684266 56.94958373 -39.125 53.75 C-40 51.9375 -40 51.9375 -40.125 49.75 C-38.13642306 45.19822486 -35.5696184 41.5131833 -32.5 37.625 C-31.60354268 36.47965479 -30.70772294 35.33381029 -29.8125 34.1875 C-29.36261719 33.61386719 -28.91273438 33.04023437 -28.44921875 32.44921875 C-23.46624463 26.05513692 -18.66915266 19.51871707 -13.9375 12.9375 C-12.66684312 11.20820366 -11.39602413 9.47902643 -10.125 7.75 C-9.35736328 6.64011719 -9.35736328 6.64011719 -8.57421875 5.5078125 C-6.03968653 2.10566412 -4.3612227 0.31381492 0 0 Z " fill="#1A1A1A" transform="translate(405.125,94.25)"/>
<path d="M0 0 C6.90797434 2.36557227 11.38371246 11.32135082 15.3125 17.0859375 C17.27273805 19.91971447 19.31890005 22.6715715 21.39453125 25.421875 C22.51408203 26.92041016 22.51408203 26.92041016 23.65625 28.44921875 C25.45650528 30.84588664 27.30229501 33.20164623 29.1640625 35.55078125 C30.17868881 36.86174441 31.19301591 38.1729392 32.20703125 39.484375 C32.69655273 40.08596436 33.18607422 40.68755371 33.69042969 41.30737305 C37.21547545 45.9231139 37.7853599 48.94226987 37.14453125 54.734375 C34.89316865 57.61611913 33.32297106 57.70842012 29.70703125 58.234375 C25.06963837 57.58351284 24.09036998 56.34302744 21.14453125 52.734375 C20.52964844 51.98671875 19.91476563 51.2390625 19.28125 50.46875 C14.14453125 44.08645416 14.14453125 44.08645416 14.14453125 41.734375 C13.48453125 41.734375 12.82453125 41.734375 12.14453125 41.734375 C10.94287109 40.33251953 10.94287109 40.33251953 9.60546875 38.3671875 C9.11095215 37.65062988 8.61643555 36.93407227 8.10693359 36.19580078 C7.58309082 35.42478027 7.05924805 34.65375977 6.51953125 33.859375 C2.42269646 27.93049191 -1.74186938 22.17573795 -6.33203125 16.6171875 C-8.4576605 13.99012777 -9.78708014 12.25868771 -10.23046875 8.859375 C-9.49818556 2.7570151 -6.40147801 -0.42755697 0 0 Z " fill="#1A1A1A" transform="translate(95.85546875,94.265625)"/>
<path d="M0 0 C2.4375 1.5625 2.4375 1.5625 4 4 C4.58726286 7.45832572 4.68802199 9.80333318 2.90625 12.90234375 C2.03478769 14.10060442 1.13095183 15.27621828 0.19140625 16.421875 C-1.21334321 18.10798833 -1.21334321 18.10798833 -2 21 C-3.65091066 22.68227511 -5.32020589 24.346565 -7 26 C-8.6379301 28.01468074 -10.24082881 30.0582143 -11.8125 32.125 C-12.24336914 32.68977051 -12.67423828 33.25454102 -13.11816406 33.83642578 C-15.88399561 37.47691329 -18.57943523 41.16388888 -21.25 44.875 C-21.89453125 45.75542969 -22.5390625 46.63585937 -23.203125 47.54296875 C-24.3373498 49.09389788 -25.45447609 50.65761314 -26.546875 52.23828125 C-28.48217296 54.83428578 -29.84303203 56.6556107 -33.0078125 57.59765625 C-36.72845806 57.86537798 -38.67459049 57.27659808 -41.5 54.875 C-43.28456056 51.45459226 -43.44671204 49.82031857 -43 46 C-41.57139618 43.71950332 -40.21818242 41.84358718 -38.5 39.8125 C-37.57293264 38.66510045 -36.64716859 37.51664674 -35.72265625 36.3671875 C-35.26004395 35.79967773 -34.79743164 35.23216797 -34.32080078 34.64746094 C-32.44182297 32.30377475 -30.68823706 29.87792136 -28.9375 27.4375 C-24.69981553 21.56796526 -20.36987022 15.77167446 -16 10 C-15.32195312 9.10152344 -14.64390625 8.20304687 -13.9453125 7.27734375 C-13.32398437 6.46394531 -12.70265625 5.65054687 -12.0625 4.8125 C-11.24458984 3.73935547 -11.24458984 3.73935547 -10.41015625 2.64453125 C-7.46742472 -0.78729694 -4.29274732 -0.37006442 0 0 Z " fill="#232323" transform="translate(129,347)"/>
<path d="M0 0 C4.8176123 3.73364953 8.32046758 9.16526554 12 14 C13.21739527 15.57147428 14.43480463 17.14293769 15.65258789 18.71411133 C19.92654473 24.23866546 24.10836375 29.81769158 28.171875 35.5 C29.35127668 37.112857 30.56815486 38.69926751 31.828125 40.25 C34.30779817 43.30903606 35.85770027 45.27427136 36.625 49.1875 C35.80364618 52.88359221 34.90078201 54.53433529 32 57 C28.48321753 57.82058258 27.27067194 58.10220446 24 57 C17.62346739 51.98072132 13.14574439 44.16749535 8.51171875 37.5546875 C6.19658437 34.25805025 3.80150004 31.02834342 1.375 27.8125 C0.65183594 26.84570312 -0.07132812 25.87890625 -0.81640625 24.8828125 C-2.30125346 22.92249544 -3.81014909 20.980213 -5.33984375 19.0546875 C-11.50040423 11.10767274 -11.50040423 11.10767274 -11.75 7.0625 C-10.13096878 0.45145585 -6.56131561 -1.0359972 0 0 Z " fill="#1B1B1B" transform="translate(377,347)"/>
<path d="M0 0 C1.875 1.1875 1.875 1.1875 3 3 C3.5 6.375 3.5 6.375 3 10 C0.75 12.75 0.75 12.75 -2 15 C-2.721875 15.598125 -3.44375 16.19625 -4.1875 16.8125 C-6 18 -6 18 -8 18 C-8 18.66 -8 19.32 -8 20 C-9.87890625 21.5234375 -9.87890625 21.5234375 -12.5625 23.375 C-18.07002097 27.26726611 -23.31746885 31.40795399 -28.51977539 35.69873047 C-39.84114234 44.91696701 -39.84114234 44.91696701 -45.25 45.125 C-48.82314101 43.6632605 -50.15391517 42.39679609 -52 39 C-51.97289521 34.38134441 -51.47592189 32.51454744 -48.3046875 29.0859375 C-47.17724472 28.16267075 -46.03313248 27.25946474 -44.875 26.375 C-44.28549561 25.90280029 -43.69599121 25.43060059 -43.08862305 24.9440918 C-41.40785388 23.60785831 -39.70900772 22.29981611 -38 21 C-36.83791016 20.10087891 -36.83791016 20.10087891 -35.65234375 19.18359375 C-31.38034188 16 -31.38034188 16 -29 16 C-29 15.34 -29 14.68 -29 14 C-27.61099313 13.03641637 -26.21470375 12.08190814 -24.78662109 11.17724609 C-20.97401952 8.66503445 -17.49336025 5.67302877 -13.94726562 2.80273438 C-8.63208386 -1.44134901 -6.40523123 -2.66884634 0 0 Z " fill="#1E1E1E" transform="translate(472,136)"/>
<path d="M0 0 C3.59397505 0.99608297 5.64079325 2.37654535 8.56640625 4.6796875 C9.59765625 5.48277344 10.62890625 6.28585937 11.69140625 7.11328125 C12.83882474 8.02926785 13.98456621 8.94735788 15.12890625 9.8671875 C15.76699219 10.37910645 16.40507812 10.89102539 17.0625 11.41845703 C17.72378906 11.94938965 18.38507813 12.48032227 19.06640625 13.02734375 C19.73099854 13.56061279 20.39559082 14.09388184 21.08032227 14.64331055 C22.37865923 15.68852367 23.67357894 16.73799965 24.96459961 17.79223633 C27.6111607 19.9387215 30.12276353 21.86358181 33.0703125 23.59375 C33.74964844 24.01398438 34.42898438 24.43421875 35.12890625 24.8671875 C35.12890625 25.5271875 35.12890625 26.1871875 35.12890625 26.8671875 C36.00289063 27.27904297 36.00289063 27.27904297 36.89453125 27.69921875 C40.47239016 29.56946318 43.52851134 31.75663337 46.12890625 34.8671875 C46.89646465 38.91431362 46.78649586 40.79860439 44.62890625 44.3046875 C41.16156608 46.4717751 38.06017725 46.62412104 34.12890625 45.8671875 C31.25105453 44.27677655 28.93360057 42.1926193 26.50390625 39.9921875 C25.10970524 38.79345363 23.71251339 37.59819037 22.3125 36.40625 C21.26811768 35.5095459 21.26811768 35.5095459 20.20263672 34.59472656 C17.10742786 32.01623611 13.86455047 29.67723831 10.56640625 27.3671875 C8.95572266 26.23796875 8.95572266 26.23796875 7.3125 25.0859375 C5.60585868 23.89652367 3.89669845 22.71048925 2.17236328 21.546875 C0.45675803 20.36898392 -1.21155006 19.12283216 -2.87109375 17.8671875 C-2.87109375 17.2071875 -2.87109375 16.5471875 -2.87109375 15.8671875 C-3.48984375 15.5990625 -4.10859375 15.3309375 -4.74609375 15.0546875 C-6.87109375 13.8671875 -6.87109375 13.8671875 -8.87109375 10.8671875 C-9.37109375 7.9921875 -9.37109375 7.9921875 -8.87109375 4.8671875 C-4.34219708 -0.20086354 -4.34219708 -0.20086354 0 0 Z " fill="#212121" transform="translate(428.87109375,318.1328125)"/>
<path d="M0 0 C3.48836262 1.54136953 4.86157705 2.82780178 6.6875 6.1875 C6.62571755 10.59979654 6.21076985 12.60247263 3.23828125 15.92578125 C2.17517426 16.80399278 1.09447127 17.66120051 0 18.5 C-0.58088379 18.96801025 -1.16176758 19.43602051 -1.76025391 19.91821289 C-6.34777623 23.56695921 -11.10498476 26.98419534 -15.91845703 30.32714844 C-21.25677205 34.05610758 -26.28639062 38.1303481 -31.25146484 42.34155273 C-34.48797653 45.01767744 -36.93704954 47.03451222 -41.3125 47.1875 C-44.14963564 45.80192213 -46.08251704 44.41748296 -48.3125 42.1875 C-48.75 38.875 -48.75 38.875 -48.3125 35.1875 C-45.9375 32.25 -45.9375 32.25 -43.3125 30.1875 C-42.6525 30.1875 -41.9925 30.1875 -41.3125 30.1875 C-41.3125 29.5275 -41.3125 28.8675 -41.3125 28.1875 C-39.9925 27.8575 -38.6725 27.5275 -37.3125 27.1875 C-37.3125 26.5275 -37.3125 25.8675 -37.3125 25.1875 C-35.3984375 23.62890625 -35.3984375 23.62890625 -32.6875 21.75 C-28.07082732 18.48382307 -23.60913918 15.08721237 -19.1875 11.5625 C-4.86054515 0.2751252 -4.86054515 0.2751252 0 0 Z " fill="#272727" transform="translate(72.3125,317.8125)"/>
<path d="M0 0 C4.13669601 2.42219237 7.92991257 4.9117447 11.30078125 8.33984375 C14.51755201 11.51006211 17.98583502 14.08976131 21.625 16.75 C23.0464977 17.80995883 24.46706563 18.87116565 25.88671875 19.93359375 C27.85250284 21.40189551 29.81934255 22.86777934 31.79931641 24.31689453 C33.3593271 25.46335305 34.89918513 26.63709034 36.4375 27.8125 C37.30246094 28.45832031 38.16742188 29.10414063 39.05859375 29.76953125 C41.6782038 32.77918385 41.86514235 35.06665198 42 39 C40.1627428 42.38055325 38.93948477 43.67734867 35.29296875 44.9296875 C30.63068779 45.02923798 28.43849616 43.05481633 24.875 40.25 C24.26785156 39.79367188 23.66070312 39.33734375 23.03515625 38.8671875 C21.86505078 37.98514721 20.70157846 37.09421761 19.54589844 36.19335938 C18.2480125 35.19145374 16.91292508 34.23799893 15.5703125 33.296875 C15.05210938 32.86890625 14.53390625 32.4409375 14 32 C14 31.34 14 30.68 14 30 C13.29488281 29.7525 12.58976562 29.505 11.86328125 29.25 C8.63112557 27.83896341 6.03671098 26.0749274 3.1875 24 C2.21167969 23.29875 1.23585938 22.5975 0.23046875 21.875 C-0.50558594 21.25625 -1.24164063 20.6375 -2 20 C-2 19.34 -2 18.68 -2 18 C-3.32 17.67 -4.64 17.34 -6 17 C-6 16.34 -6 15.68 -6 15 C-6.598125 14.731875 -7.19625 14.46375 -7.8125 14.1875 C-10.14126747 12.92331195 -11.49243283 12.1859724 -13 10 C-13.51126266 5.98293626 -13.68398851 3.89626081 -11.1875 0.625 C-6.90185123 -2.5586248 -4.73043484 -2.01481484 0 0 Z " fill="#222222" transform="translate(37,136)"/>
<path d="M0 0 C3.65806032 0.70047964 4.65926301 1.65033925 6.9375 4.5625 C7.44543457 7.49098206 7.44543457 7.49098206 7.45507812 10.93579102 C7.46768677 12.22715469 7.48029541 13.51851837 7.49328613 14.84901428 C7.48612708 16.25481717 7.47792328 17.66061507 7.46875 19.06640625 C7.47144528 20.51082114 7.47532801 21.95523426 7.48034668 23.39964294 C7.48623828 26.42342442 7.47768918 29.4467326 7.45898438 32.47045898 C7.43617364 36.34685885 7.44933205 40.22215225 7.47327423 44.0985117 C7.48772447 47.07969003 7.48313035 50.0606057 7.47276306 53.04179192 C7.47009464 54.47114124 7.47336964 55.90051441 7.48268127 57.32983589 C7.49283426 59.32608715 7.47461617 61.32242205 7.45507812 63.31860352 C7.45189575 64.45459488 7.44871338 65.59058624 7.44543457 66.76100159 C6.9375 69.5625 6.9375 69.5625 5.12390137 71.42539978 C1.88547862 73.10963364 -0.4738919 73.01107601 -4.0625 72.5625 C-6.89468016 70.43394031 -7.9393018 69.24211182 -8.5771637 65.72340393 C-8.58336227 64.62817917 -8.58956085 63.53295441 -8.59594727 62.40454102 C-8.6117836 61.15967422 -8.62761993 59.91480743 -8.64393616 58.63221741 C-8.6400944 57.27694321 -8.6350552 55.92167195 -8.62890625 54.56640625 C-8.63414316 53.17162155 -8.64041989 51.7768404 -8.64768982 50.38206482 C-8.65809077 47.46083903 -8.65353826 44.54010043 -8.63891602 41.61889648 C-8.6217366 37.88151028 -8.64521149 34.1456627 -8.68040562 30.40844822 C-8.70240455 27.52839537 -8.70093225 24.64870922 -8.6926403 21.76859856 C-8.69182195 20.39112601 -8.69866335 19.01362622 -8.71341133 17.63623238 C-8.73089569 15.70750737 -8.71297237 13.77856052 -8.69360352 11.84985352 C-8.69264175 10.75383316 -8.69167999 9.65781281 -8.69068909 8.52857971 C-7.65920599 3.65829282 -4.87713549 0.8958004 0 0 Z M-4.0625 2.5625 C-4.5265625 3.5215625 -4.5265625 3.5215625 -5 4.5 C-6.0625 6.5625 -6.0625 6.5625 -7.0625 7.5625 C-7.16165795 9.45948849 -7.19049314 11.36018787 -7.19189453 13.25976562 C-7.19504669 14.47772827 -7.19819885 15.69569092 -7.20144653 16.95056152 C-7.19965675 18.28995805 -7.1976058 19.62935424 -7.1953125 20.96875 C-7.1959856 22.3325604 -7.19695567 23.69637068 -7.19821167 25.06018066 C-7.19968838 27.92180521 -7.19753497 30.7833986 -7.19287109 33.64501953 C-7.18717381 37.32068614 -7.19045296 40.99627974 -7.19644356 44.67194366 C-7.20004991 47.48912104 -7.19891025 50.30628098 -7.19631577 53.12345886 C-7.1956467 54.47910063 -7.19647421 55.83474396 -7.19879532 57.19038391 C-7.20132301 59.08200044 -7.19679014 60.97362249 -7.19189453 62.86523438 C-7.19109894 63.94365601 -7.19030334 65.02207764 -7.18948364 66.13317871 C-7.33688546 68.5111918 -7.33688546 68.5111918 -6.0625 69.5625 C-4.23134117 69.66101171 -2.39630067 69.69222629 -0.5625 69.6875 C0.93796875 69.69136719 0.93796875 69.69136719 2.46875 69.6953125 C4.88149622 69.84120382 4.88149622 69.84120382 5.9375 68.5625 C6.04725656 66.61514388 6.08661262 64.66378858 6.09863281 62.71337891 C6.10824036 61.46183014 6.1178479 60.21028137 6.12774658 58.92080688 C6.1325942 57.5435606 6.13687312 56.16631221 6.140625 54.7890625 C6.14637427 53.38520301 6.15213203 51.98134355 6.15789795 50.57748413 C6.16841719 47.63010287 6.17425366 44.68274896 6.17773438 41.73535156 C6.18321831 37.95661717 6.20723981 34.17824329 6.23570633 30.39962196 C6.25432185 27.49829043 6.25953773 24.59704586 6.26107025 21.69565964 C6.26410027 20.30257574 6.27214059 18.9094935 6.28525543 17.51646805 C6.30228978 15.56785439 6.29859465 13.61909273 6.29394531 11.67041016 C6.29941376 10.00614487 6.29941376 10.00614487 6.30499268 8.30825806 C6.14966895 5.56692263 6.14966895 5.56692263 4.64569092 3.69247437 C1.88166522 1.86406154 -0.85344473 2.38085536 -4.0625 2.5625 Z " fill="#515151" transform="translate(250.0625,372.4375)"/>
<path d="M0 0 C2.87638402 2.15592847 3.88755922 3.35172591 4.50793457 6.92848206 C4.51111694 8.06526901 4.51429932 9.20205597 4.51757812 10.37329102 C4.53018677 11.66465469 4.54279541 12.95601837 4.55578613 14.28651428 C4.54862708 15.69231717 4.54042328 17.09811507 4.53125 18.50390625 C4.53394528 19.94832114 4.53782801 21.39273426 4.54284668 22.83714294 C4.54873828 25.86092442 4.54018918 28.8842326 4.52148438 31.90795898 C4.49867364 35.78435885 4.51183205 39.65965225 4.53577423 43.5360117 C4.55022447 46.51719003 4.54563035 49.4981057 4.53526306 52.47929192 C4.53259464 53.90864124 4.53586964 55.33801441 4.54518127 56.76733589 C4.55533426 58.76358715 4.53711617 60.75992205 4.51757812 62.75610352 C4.51439575 63.89209488 4.51121338 65.02808624 4.50793457 66.19850159 C4 69 4 69 2.19030762 70.87071228 C-0.97921667 72.50486852 -3.491969 72.31891191 -7 72 C-7.99 71.34 -8.98 70.68 -10 70 C-9.505 69.01 -9.505 69.01 -9 68 C-5.37 68 -1.74 68 2 68 C2.04628728 59.82037612 2.08185072 51.64080673 2.10362434 43.46108437 C2.11407321 39.66313688 2.12825236 35.86527882 2.15087891 32.06738281 C2.17256821 28.40398654 2.18456031 24.74067643 2.18975449 21.07722092 C2.19345731 19.67773456 2.20068777 18.27825305 2.21146011 16.87880325 C2.22592225 14.92266669 2.22681647 12.96644391 2.22705078 11.01025391 C2.231492 9.8955069 2.23593323 8.78075989 2.24050903 7.63223267 C2.26860992 4.84205485 2.26860992 4.84205485 0 3 C-4.33643601 2.68462284 -6.32653229 2.55102153 -10 5 C-7.70638175 -0.07872613 -5.55185801 -0.5551858 0 0 Z " fill="#A8A8A8" transform="translate(253,373)"/>
<path d="M0 0 C4.67276753 1.60014626 7.30805381 5.89977329 10.14453125 9.734375 C10.82386719 10.6315625 11.50320312 11.52875 12.203125 12.453125 C17.14453125 19.21400277 17.14453125 19.21400277 17.14453125 22.734375 C13.55144091 21.53667822 12.72359872 20.2666961 10.45703125 17.296875 C9.83441406 16.49378906 9.21179688 15.69070312 8.5703125 14.86328125 C7.14453125 12.734375 7.14453125 12.734375 7.14453125 10.734375 C6.48453125 10.734375 5.82453125 10.734375 5.14453125 10.734375 C4.81453125 9.084375 4.48453125 7.434375 4.14453125 5.734375 C2.85361765 5.39813704 1.56177028 5.06548251 0.26953125 4.734375 C-0.80941406 4.4559375 -0.80941406 4.4559375 -1.91015625 4.171875 C-3.84836192 3.66123535 -3.84836192 3.66123535 -5.85546875 3.734375 C-7.35289994 5.23180619 -7.18749568 6.72261739 -7.41796875 8.796875 C-7.63453125 10.7459375 -7.63453125 10.7459375 -7.85546875 12.734375 C-8.51546875 12.404375 -9.17546875 12.074375 -9.85546875 11.734375 C-10.19156694 8.12131942 -10.0505792 6.10833669 -8.35546875 2.859375 C-5.58825145 0.50724029 -3.66403163 -0.24472196 0 0 Z " fill="#939393" transform="translate(95.85546875,94.265625)"/>
<path d="M0 0 C6.41410298 0.5030669 6.41410298 0.5030669 9.35229492 2.99511719 C12.49770286 5.37686822 14.27533343 5.59755666 18.17578125 5.828125 C19.33271484 5.90546875 20.48964844 5.9828125 21.68164062 6.0625 C23.47891602 6.1553125 23.47891602 6.1553125 25.3125 6.25 C27.1387793 6.36601562 27.1387793 6.36601562 29.00195312 6.484375 C32.00070376 6.6725319 34.99944322 6.84379707 38 7 C37.01 7.33 36.02 7.66 35 8 C35 8.66 35 9.32 35 10 C22.15431358 10.63961924 10.1846104 9.76350198 0 1 C0 0.67 0 0.34 0 0 Z " fill="#5A5A5A" transform="translate(222,284)"/>
<path d="M0 0 C1.62521995 0.29043855 3.25016079 0.58243892 4.875 0.875 C5.77992188 1.03742188 6.68484375 1.19984375 7.6171875 1.3671875 C9.47946469 1.71555806 11.34003893 2.07687111 13.18798828 2.49462891 C19.84409051 3.96027835 26.3225405 4.41729131 33.125 4.625 C34.176875 4.66367187 35.22875 4.70234375 36.3125 4.7421875 C38.87483756 4.83536341 41.43718779 4.92117382 44 5 C44 5.33 44 5.66 44 6 C35.585 6.495 35.585 6.495 27 7 C27 7.33 27 7.66 27 8 C19.91923749 8.40850553 13.80074041 6.90420731 7 5 C7 4.34 7 3.68 7 3 C4.69 2.34 2.38 1.68 0 1 C0 0.67 0 0.34 0 0 Z " fill="#888888" transform="translate(217,344)"/>
<path d="M0 0 C0.66 0.33 1.32 0.66 2 1 C1.66673731 6.37817036 1.33846856 9.68781144 -2 14 C-2.37749693 16.03169696 -2.56653012 18.04424911 -2.75390625 20.1015625 C-3.04995203 22.38534423 -3.79772142 24.0462973 -5 26 C-5.33 26.66 -5.66 27.32 -6 28 C-6.66 28 -7.32 28 -8 28 C-8.66 29.32 -9.32 30.64 -10 32 C-8.75795795 24.44614491 -6.57657569 17.52510669 -3.875 10.375 C-3.50246094 9.37082031 -3.12992188 8.36664063 -2.74609375 7.33203125 C-1.83736513 4.88545421 -0.92193566 2.44162391 0 0 Z " fill="#9E9E9E" transform="translate(178,369)"/>
<path d="M0 0 C1.13647829 3.81596765 0.63489227 5.41088206 -1 9.0625 C-3.35952616 15.08252394 -2.97480616 19.72733429 -2 26 C-2 26.99 -2 27.98 -2 29 C2.64586892 28.51515724 2.64586892 28.51515724 7 27 C6.67 27.99 6.34 28.98 6 30 C-0.29299363 31.21019108 -0.29299363 31.21019108 -3.3125 30.3125 C-5.47719891 28.62884529 -6.21270916 27.64816011 -7 25 C-6.49614293 19.20564364 -4.83896488 14.03748358 -2.9375 8.5625 C-2.65583984 7.73556641 -2.37417969 6.90863281 -2.08398438 6.05664062 C-1.39482208 4.03587662 -0.6981769 2.01766718 0 0 Z " fill="#9E9E9E" transform="translate(166,403)"/>
<path d="M0 0 C5.45991405 -0.36399427 5.45991405 -0.36399427 7.68367004 1.13471985 C9.57657902 3.81703025 9.32155314 5.77039088 9.2487793 9.03198242 C9.22853195 10.27304245 9.20828461 11.51410248 9.18742371 12.79277039 C9.1500141 14.1470122 9.11227126 15.50124485 9.07421875 16.85546875 C9.04618167 18.24121012 9.01949168 19.62697934 8.99409485 21.01277161 C8.92367116 24.65785014 8.83494925 28.30226262 8.74243164 31.94683838 C8.65123367 35.6668038 8.57731734 39.38710796 8.50195312 43.10742188 C8.35156292 50.40538993 8.18184339 57.70274074 8 65 C7.67 65 7.34 65 7 65 C6.98969254 64.24022858 6.97938507 63.48045715 6.96876526 62.69766235 C6.87088783 55.54616045 6.76838744 48.394747 6.66066074 41.24338722 C6.60543811 37.56658571 6.55201919 33.88977624 6.50268555 30.21289062 C6.45503221 26.66614134 6.40268909 23.11948974 6.34705925 19.5728569 C6.32664008 18.2180664 6.30792626 16.86324912 6.29092598 15.50841141 C6.26687261 13.61443211 6.23625617 11.72053957 6.20532227 9.82666016 C6.18977798 8.74744293 6.1742337 7.66822571 6.15821838 6.55630493 C6.16787807 4.00983443 6.16787807 4.00983443 5 2 C2.47266765 1.34444881 2.47266765 1.34444881 0 1 C0 0.67 0 0.34 0 0 Z " fill="#1D1D1D" transform="translate(247,375)"/>
<path d="M0 0 C0.99 0.33 1.98 0.66 3 1 C2.31292969 1.71285156 1.62585938 2.42570313 0.91796875 3.16015625 C-3.82555109 8.20226675 -7.64041366 12.41799601 -10 19 C-10.79521485 20.50000394 -11.63063889 21.97921685 -12.5 23.4375 C-13.10328125 24.45650391 -13.10328125 24.45650391 -13.71875 25.49609375 C-14.1415625 25.99238281 -14.564375 26.48867187 -15 27 C-15.99 27 -16.98 27 -18 27 C-17.34 25.02 -16.68 23.04 -16 21 C-15.34 21 -14.68 21 -14 21 C-13.90460938 20.43023437 -13.80921875 19.86046875 -13.7109375 19.2734375 C-12.84009106 16.48864283 -11.48677586 14.86384439 -9.625 12.625 C-6.8801977 9.22480613 -4.91876394 5.93346609 -3 2 C-2.01 1.34 -1.02 0.68 0 0 Z " fill="#696969" transform="translate(167,167)"/>
<path d="M0 0 C2.875 1.5 2.875 1.5 5 4 C5.77938473 9.9428086 4.6487551 13.70248979 2 19 C-0.36574234 15.4513865 -0.10865265 14.4235475 0.375 10.3125 C0.48585937 9.31863281 0.59671875 8.32476562 0.7109375 7.30078125 C0.80632812 6.54152344 0.90171875 5.78226562 1 5 C-3.39253773 3.43727811 -3.39253773 3.43727811 -8 3 C-8 2.34 -8 1.68 -8 1 C-5.14675563 -0.42662219 -3.16545451 -0.31033868 0 0 Z " fill="#777777" transform="translate(188,366)"/>
<path d="M0 0 C0.33 0 0.66 0 1 0 C0.98428955 0.80518066 0.9685791 1.61036133 0.95239258 2.43994141 C0.90048868 5.50030008 0.86328112 8.5604306 0.83520508 11.62109375 C0.81314739 13.56786238 0.77498082 15.51442765 0.73632812 17.4609375 C0.67515021 25.45485122 1.45044049 32.36842468 3.44799805 40.08740234 C3.97932415 42.89090541 3.96773046 44.36029759 3 47 C2.80664062 46.45730469 2.61328125 45.91460937 2.4140625 45.35546875 C2.15367187 44.64003906 1.89328125 43.92460937 1.625 43.1875 C1.36976563 42.47980469 1.11453125 41.77210938 0.8515625 41.04296875 C-0.0265769 38.75226641 -0.0265769 38.75226641 -2 36 C-2.15112305 32.89306641 -2.15112305 32.89306641 -2.01171875 29.1015625 C-1.98906448 28.42958832 -1.96641022 27.75761414 -1.94306946 27.0652771 C-1.89315786 25.64457354 -1.83820025 24.22403955 -1.77856445 22.80371094 C-1.68813669 20.64023278 -1.61320343 18.47665579 -1.54101562 16.3125 C-1.12184285 4.83848692 -1.12184285 4.83848692 0 0 Z " fill="#A7A7A7" transform="translate(150,232)"/>
<path d="M0 0 C3.71819473 2.72667613 4.84499731 4.27267969 5.8125 8.8125 C5.874375 9.864375 5.93625 10.91625 6 12 C4.05731159 9.08596738 2.53604696 6.14191424 1 3 C-4.01535052 3.32960216 -4.01535052 3.32960216 -8 6 C-8.24315656 8.66949409 -8.24315656 8.66949409 -8.125 11.625 C-8.10695313 12.62789063 -8.08890625 13.63078125 -8.0703125 14.6640625 C-8.04710937 15.43492187 -8.02390625 16.20578125 -8 17 C-10.87515405 14.12484595 -10.99024854 12.10239036 -11.375 8.0625 C-11.32585919 4.72706725 -11.1558934 4.183404 -8.875 1.5 C-5.46714413 -0.27801176 -3.78454468 -0.70960213 0 0 Z " fill="#A3A3A3" transform="translate(317,366)"/>
<path d="M0 0 C1.14126126 3.42378377 0.86542902 4.08408792 -0.328125 7.3515625 C-0.63363281 8.20363281 -0.93914062 9.05570313 -1.25390625 9.93359375 C-1.74697266 11.26583984 -1.74697266 11.26583984 -2.25 12.625 C-2.88084312 14.36695775 -3.51105551 16.10914404 -4.140625 17.8515625 C-4.45064453 18.70266602 -4.76066406 19.55376953 -5.08007812 20.43066406 C-6.45301498 24.26526795 -7.73436602 28.12885696 -9 32 C-9.33 32 -9.66 32 -10 32 C-10.37516177 25.21929837 -9.92497269 20.17494235 -7 14 C-6.5153125 13.54882812 -6.030625 13.09765625 -5.53125 12.6328125 C-3.45614807 10.42007626 -2.78738803 8.16993044 -1.8125 5.3125 C-1.29623047 3.82169922 -1.29623047 3.82169922 -0.76953125 2.30078125 C-0.51558594 1.54152344 -0.26164062 0.78226562 0 0 Z " fill="#989898" transform="translate(338,75)"/>
<path d="M0 0 C0.66 0.33 1.32 0.66 2 1 C1.01 3.31 0.02 5.62 -1 8 C-1.66 8 -2.32 8 -3 8 C-3.33 8.99 -3.66 9.98 -4 11 C-4.66 11 -5.32 11 -6 11 C-6.86013727 14.26276567 -6.86013727 14.26276567 -7 18 C-5.20954506 20.92860404 -5.20954506 20.92860404 -3 23 C-3.66 23.33 -4.32 23.66 -5 24 C-8.2533887 20.43176723 -9.89798919 17.89651883 -10 13 C-8.6875 10.3125 -8.6875 10.3125 -7 8 C-6.34 7.01 -5.68 6.02 -5 5 C-4.34 5 -3.68 5 -3 5 C-2.690625 4.360625 -2.38125 3.72125 -2.0625 3.0625 C-1 1 -1 1 0 0 Z " fill="#9B9B9B" transform="translate(49,235)"/>
<path d="M0 0 C0.33 0.66 0.66 1.32 1 2 C0.37351563 2.17015625 -0.25296875 2.3403125 -0.8984375 2.515625 C-2.12433594 2.87914062 -2.12433594 2.87914062 -3.375 3.25 C-4.18710938 3.48203125 -4.99921875 3.7140625 -5.8359375 3.953125 C-8.48835823 5.2362455 -8.86804091 6.35523577 -10 9 C-10.99 9.495 -10.99 9.495 -12 10 C-12.99 11.485 -12.99 11.485 -14 13 C-14.99 13 -15.98 13 -17 13 C-15.51082643 8.08572721 -12.55813338 4.59680874 -9 1 C-6.04335481 -0.4783226 -3.25770263 -0.06032783 0 0 Z " fill="#787878" transform="translate(129,347)"/>
<path d="M0 0 C3.36179774 1.44077046 5.59156268 3.24750021 8 6 C8 6.66 8 7.32 8 8 C9.32 8.66 10.64 9.32 12 10 C12 10.66 12 11.32 12 12 C13.32 12.66 14.64 13.32 16 14 C15.34 15.32 14.68 16.64 14 18 C13.59007812 17.4946875 13.18015625 16.989375 12.7578125 16.46875 C12.21898437 15.8190625 11.68015625 15.169375 11.125 14.5 C10.59132813 13.8503125 10.05765625 13.200625 9.5078125 12.53125 C9.01023437 12.0259375 8.51265625 11.520625 8 11 C7.34 11 6.68 11 6 11 C6 10.01 6 9.02 6 8 C4.68 7.34 3.36 6.68 2 6 C2 5.01 2 4.02 2 3 C1.34 2.67 0.68 2.34 0 2 C0 1.34 0 0.68 0 0 Z " fill="#545454" transform="translate(432,219)"/>
<path d="M0 0 C1.88671875 0.3203125 1.88671875 0.3203125 4 1 C7.747506 6.94431986 7.19689769 12.2446283 6 19 C4.9375 22.6875 4.9375 22.6875 4 25 C3 22 3 22 3.6875 18.6875 C4.6697668 12.30276582 1.96220356 5.99608983 0 0 Z " fill="#7E7E7E" transform="translate(274,234)"/>
<path d="M0 0 C3.62805874 3.4927315 6.76705926 7.09471524 9.8125 11.125 C10.60269531 12.15882813 11.39289063 13.19265625 12.20703125 14.2578125 C14 17 14 17 14 20 C12.2925002 18.71937515 10.62626404 17.38232443 9 16 C9 15.34 9 14.68 9 14 C8.34 14 7.68 14 7 14 C5.64721885 12.01310269 4.31431695 10.01254782 3 8 C2.34 7.67 1.68 7.34 1 7 C0.59270772 4.67843403 0.25561323 2.3431213 0 0 Z " fill="#818181" transform="translate(390,364)"/>
<path d="M0 0 C0.99 0.99 1.98 1.98 3 3 C-1.62 3 -6.24 3 -11 3 C-11 5.64 -11 8.28 -11 11 C-11.66 10.67 -12.32 10.34 -13 10 C-13.48915663 3.64096386 -13.48915663 3.64096386 -11.1875 0.625 C-6.946363 -2.52555892 -4.69191829 -1.95496596 0 0 Z " fill="#9C9C9C" transform="translate(37,136)"/>
<path d="M0 0 C0.99 0.495 0.99 0.495 2 1 C2 1.99 2 2.98 2 4 C2.64453125 4.23460937 3.2890625 4.46921875 3.953125 4.7109375 C6 6 6 6 6.609375 8.1640625 C6.65578125 8.97617187 6.7021875 9.78828125 6.75 10.625 C6.80671875 11.44226563 6.8634375 12.25953125 6.921875 13.1015625 C6.94765625 13.72804688 6.9734375 14.35453125 7 15 C9.64 15 12.28 15 15 15 C12 17 12 17 9.125 17.1875 C4.90379329 15.58344145 3.93564426 13.37368642 1.96875 9.43359375 C0.68849321 6.21746481 0.21996367 3.44609746 0 0 Z " fill="#808080" transform="translate(321,417)"/>
<path d="M0 0 C2.4375 0.8125 2.4375 0.8125 5 2 C5.33 2.99 5.66 3.98 6 5 C6.66 5 7.32 5 8 5 C8.33 6.65 8.66 8.3 9 10 C9.66 10 10.32 10 11 10 C12.6875 12.25 12.6875 12.25 14 15 C13.58203125 17.171875 13.58203125 17.171875 13 19 C11.39553069 16.91689914 9.79141482 14.83352773 8.1875 12.75 C7.50977539 11.87021484 7.50977539 11.87021484 6.81835938 10.97265625 C5.93893661 9.83004857 5.06112 8.68620256 4.18505859 7.54101562 C3.19404921 6.25233593 2.18683296 4.97614086 1.17578125 3.703125 C0 2 0 2 0 0 Z " fill="#858585" transform="translate(385,382)"/>
<path d="M0 0 C0.88300781 0.30035156 1.76601562 0.60070312 2.67578125 0.91015625 C10.56408477 3.4096724 16.8307022 4.53382734 25 3 C21.57007587 6.42992413 16.68912207 6.47611188 12 7 C7.99533997 6.94967214 5.39825331 6.26550221 2 4 C2 3.34 2 2.68 2 2 C1.34 2 0.68 2 0 2 C0 1.34 0 0.68 0 0 Z " fill="#7F7F7F" transform="translate(234,274)"/>
<path d="M0 0 C0.66 0.33 1.32 0.66 2 1 C0.49462862 3.70966849 -0.7868672 5.81194164 -3.125 7.875 C-5.66950241 10.75876939 -5.71087748 13.24140726 -6 17 C-7.5625 15.9375 -7.5625 15.9375 -9 14 C-9.1875 10.75 -9.1875 10.75 -8 7 C-5.55755951 4.35744358 -2.87584338 2.15524481 0 0 Z " fill="#7A7A7A" transform="translate(429,161)"/>
<path d="M0 0 C1.1673418 3.5020254 0.79056598 4.29616038 -0.43359375 7.66796875 C-0.75263672 8.56064453 -1.07167969 9.45332031 -1.40039062 10.37304688 C-1.74263672 11.30181641 -2.08488281 12.23058594 -2.4375 13.1875 C-2.77587891 14.12787109 -3.11425781 15.06824219 -3.46289062 16.03710938 C-4.30048809 18.36114742 -5.14645283 20.68178235 -6 23 C-6.66 22.67 -7.32 22.34 -8 22 C-6.12943633 10.50939457 -6.12943633 10.50939457 -4 6 C-3.34 5.67 -2.68 5.34 -2 5 C-1.27840576 3.35636866 -0.60648579 1.68949614 0 0 Z " fill="#919191" transform="translate(327,107)"/>
<path d="M0 0 C0.33 0.99 0.66 1.98 1 3 C0.34 3.66 -0.32 4.32 -1 5 C-1.99 5 -2.98 5 -4 5 C-4.66 6.32 -5.32 7.64 -6 9 C-6.66 9 -7.32 9 -8 9 C-8.66 10.32 -9.32 11.64 -10 13 C-10.66 13 -11.32 13 -12 13 C-12.33 13.99 -12.66 14.98 -13 16 C-13.66 15.67 -14.32 15.34 -15 15 C-14.1875 12.5625 -14.1875 12.5625 -13 10 C-12.01 9.67 -11.02 9.34 -10 9 C-9.67 8.01 -9.34 7.02 -9 6 C-8.34 6 -7.68 6 -7 6 C-6.34 4.68 -5.68 3.36 -5 2 C-4.01 2 -3.02 2 -2 2 C-1.34 1.34 -0.68 0.68 0 0 Z " fill="#888888" transform="translate(452,259)"/>
<path d="M0 0 C2.3125 -0.3125 2.3125 -0.3125 5 0 C6.03789581 1.64333504 7.03567924 3.31243867 8 5 C10.57099402 6.34689915 10.57099402 6.34689915 13 7 C13 7.66 13 8.32 13 9 C14.32 9.33 15.64 9.66 17 10 C17.33 11.32 17.66 12.64 18 14 C14.69291925 12.45463516 11.75273101 10.57205999 8.75 8.5 C7.85796875 7.8915625 6.9659375 7.283125 6.046875 6.65625 C5.37140625 6.1096875 4.6959375 5.563125 4 5 C4 4.34 4 3.68 4 3 C2.68 2.67 1.36 2.34 0 2 C0 1.34 0 0.68 0 0 Z " fill="#919191" transform="translate(31,151)"/>
<path d="M0 0 C2.18182027 1.20717493 4.36193257 2.41719106 6.5390625 3.6328125 C8.04882858 4.47157143 9.56343956 5.30176725 11.0859375 6.1171875 C14.27205181 7.85140162 15.94848556 8.92272834 18 12 C18 12.99 18 13.98 18 15 C13.79403525 13.01557657 10.38955781 10.36282291 6.75 7.5 C6.1003125 7.00113281 5.450625 6.50226563 4.78125 5.98828125 C3.14763436 4.70815807 1.56865759 3.35894401 0 2 C0 1.34 0 0.68 0 0 Z " fill="#9B9B9B" transform="translate(393,205)"/>
<path d="M0 0 C4.65726529 0.43936465 6.76402729 0.76402729 10 4 C12.64465002 4.86744521 15.27082405 5.41837234 18 6 C17.67 6.66 17.34 7.32 17 8 C12.69434479 8.54799248 10.24473007 8.7479888 6.46484375 6.4765625 C4.21391917 4.7286179 2.05060294 2.97940145 0 1 C0 0.67 0 0.34 0 0 Z " fill="#6F6F6F" transform="translate(454,356)"/>
<path d="M0 0 C0.66 0.99 1.32 1.98 2 3 C1.29875 3.680625 0.5975 4.36125 -0.125 5.0625 C-3.27934337 8.20780513 -6.13934304 11.5888386 -9 15 C-10.32 14.67 -11.64 14.34 -13 14 C-12.50628906 13.51789063 -12.01257813 13.03578125 -11.50390625 12.5390625 C-10.86324219 11.90742188 -10.22257812 11.27578125 -9.5625 10.625 C-8.92441406 9.99851562 -8.28632813 9.37203125 -7.62890625 8.7265625 C-5.92117824 7.08276939 -5.92117824 7.08276939 -5 5 C-4.34 5 -3.68 5 -3 5 C-2.690625 4.360625 -2.38125 3.72125 -2.0625 3.0625 C-1 1 -1 1 0 0 Z " fill="#8C8C8C" transform="translate(329,309)"/>
<path d="M0 0 C3.4375 1.3125 3.4375 1.3125 7 3 C7.33 3.99 7.66 4.98 8 6 C8.99 6.33 9.98 6.66 11 7 C12.06775224 8.96466413 13.06553465 10.96855359 14 13 C14.99 14.485 14.99 14.485 16 16 C13.13302508 14.71480435 11.02392288 13.42870746 9 11 C9 10.34 9 9.68 9 9 C7.68 8.34 6.36 7.68 5 7 C5 6.34 5 5.68 5 5 C4.360625 4.731875 3.72125 4.46375 3.0625 4.1875 C1 3 1 3 0 0 Z " fill="#9C9C9C" transform="translate(46,259)"/>
<path d="M0 0 C6.35051546 -0.36637589 6.35051546 -0.36637589 9.4375 1.375 C11 3 11 3 11 5 C12.32 4.67 13.64 4.34 15 4 C16.98 6.97 16.98 6.97 19 10 C15.52232236 9.34944137 13.04232004 7.94038351 10.0625 6.0625 C6.78299281 3.99950243 3.63669915 2.34668466 0 1 C0 0.67 0 0.34 0 0 Z " fill="#A1A1A1" transform="translate(337,171)"/>
<path d="M0 0 C-0.33 0.66 -0.66 1.32 -1 2 C-1.33 1.67 -1.66 1.34 -2 1 C-5.06481021 0.8386942 -7.05549278 1.01849759 -10 2 C-10.33 2.99 -10.66 3.98 -11 5 C-11.33 5.66 -11.66 6.32 -12 7 C-11.67953691 9.45393363 -11.67953691 9.45393363 -11.0625 12.125 C-10.86785156 13.03507812 -10.67320312 13.94515625 -10.47265625 14.8828125 C-10.31667969 15.58148438 -10.16070312 16.28015625 -10 17 C-12.76292836 14.23707164 -13.17837357 11.792122 -14 8 C-13.81184923 4.73872006 -13.60530839 2.79790651 -11.625 0.1875 C-7.45772961 -2.85781298 -4.58458753 -1.47052808 0 0 Z " fill="#B2B2B2" transform="translate(173,67)"/>
<path d="M0 0 C6.07314333 6.07314333 6.67118503 17.7960665 7 26 C5.31356802 22.73956483 4.16096294 19.48288882 3 16 C2.649375 15.29875 2.29875 14.5975 1.9375 13.875 C-0.34277758 9.31444485 0 5.03479836 0 0 Z " fill="#A2A2A2" transform="translate(356,206)"/>
<path d="M0 0 C2.39933779 3.59900668 3.67705785 7.19714758 5.125 11.25 C5.40214844 11.98863281 5.67929688 12.72726563 5.96484375 13.48828125 C7.6545669 18.2078528 8.30484489 21.98994047 8 27 C7.34 27.33 6.68 27.66 6 28 C6.061875 26.906875 6.12375 25.81375 6.1875 24.6875 C6.42966592 21.09280658 6.42966592 21.09280658 4.55859375 19.6328125 C2.35538283 17.32468678 2.30773411 15.31498743 1.875 12.1875 C1.72804687 11.17042969 1.58109375 10.15335938 1.4296875 9.10546875 C1.28789062 8.08066406 1.14609375 7.05585937 1 6 C0.67228173 3.99907225 0.34059853 1.99877556 0 0 Z " fill="#ACACAC" transform="translate(185,102)"/>
<path d="M0 0 C1.59190467 3.18380933 0.28749598 6.28076324 -0.4375 9.625 C-0.65889648 10.68460938 -0.65889648 10.68460938 -0.88476562 11.765625 C-1.25049493 13.51168749 -1.62447121 15.25601884 -2 17 C-2.99 17.33 -3.98 17.66 -5 18 C-5.73323796 20.01508358 -5.73323796 20.01508358 -6 22 C-7.32556135 19.3488773 -6.71439538 18.46745582 -5.8203125 15.68359375 C-5.41619141 14.41418945 -5.41619141 14.41418945 -5.00390625 13.11914062 C-4.71386719 12.23419922 -4.42382812 11.34925781 -4.125 10.4375 C-3.84269531 9.54869141 -3.56039063 8.65988281 -3.26953125 7.74414062 C-1.14547596 1.14547596 -1.14547596 1.14547596 0 0 Z " fill="#989898" transform="translate(316,94)"/>
<path d="M0 0 C1.26823485 3.65393537 0.75715321 6.49070026 0.0625 10.25 C-0.13214844 11.32765625 -0.32679688 12.4053125 -0.52734375 13.515625 C-0.76130859 14.74539062 -0.76130859 14.74539062 -1 16 C-1.99 16.33 -2.98 16.66 -4 17 C-5.20882096 19.00016466 -5.20882096 19.00016466 -6 21 C-4.78880323 13.65313537 -2.71328887 6.92810652 0 0 Z " fill="#8B8B8B" transform="translate(323,73)"/>
<path d="M0 0 C1.98 0.99 1.98 0.99 4 2 C4 3.32 4 4.64 4 6 C4.66 6.33 5.32 6.66 6 7 C6 10.63 6 14.26 6 18 C3.52621876 15.52621876 2.96861769 13.43825655 1.875 10.125 C1.52179688 9.07570313 1.16859375 8.02640625 0.8046875 6.9453125 C0 4 0 4 0 0 Z " fill="#808080" transform="translate(310,385)"/>
<path d="M0 0 C0.66 0 1.32 0 2 0 C2 0.66 2 1.32 2 2 C2.99 2 3.98 2 5 2 C5.33 2.66 5.66 3.32 6 4 C6.66 3.67 7.32 3.34 8 3 C11 6.75 11 6.75 11 9 C11.99 9.33 12.98 9.66 14 10 C13.01 10.495 13.01 10.495 12 11 C7.04628837 8.90567018 2.50608038 6.11583349 -1 2 C-0.67 1.34 -0.34 0.68 0 0 Z " fill="#888888" transform="translate(122,320)"/>
<path d="M0 0 C0.33 0 0.66 0 1 0 C1.3061597 6.73551339 1.04827747 14.90344506 -2 21 C-2.66 21 -3.32 21 -4 21 C-4.33 21.99 -4.66 22.98 -5 24 C-6.36605568 19.90183295 -4.95552417 17.0528772 -3.625 13.125 C-1.47345737 6.65395064 -1.47345737 6.65395064 0 0 Z " fill="#B3B3B3" transform="translate(347,266)"/>
<path d="M0 0 C1.12018319 3.36054957 0.90181274 4.01723271 -0.21484375 7.23046875 C-0.48876953 8.03291016 -0.76269531 8.83535156 -1.04492188 9.66210938 C-1.48674805 10.91217773 -1.48674805 10.91217773 -1.9375 12.1875 C-2.22818359 13.03248047 -2.51886719 13.87746094 -2.81835938 14.74804688 C-3.53757537 16.83495229 -4.2650343 18.91859994 -5 21 C-6.33750097 16.07066175 -6.84373327 11.80252108 -4.625 7.0625 C-4.08875 6.381875 -3.5525 5.70125 -3 5 C-2.34 5 -1.68 5 -1 5 C-0.67 3.35 -0.34 1.7 0 0 Z " fill="#8E8E8E" transform="translate(185,394)"/>
<path d="M0 0 C2.8580389 -0.23816991 5.19811145 -0.42242213 8 0 C10.5 2.125 10.5 2.125 12 5 C12.25 8.3125 12.25 8.3125 12 11 C11.01 11.495 11.01 11.495 10 12 C8.90396677 9.9540713 8.03339847 8.14194351 7.5 5.875 C7.10722935 3.77320517 7.10722935 3.77320517 5 2 C1.91652174 1.83318891 1.91652174 1.83318891 -1 2 C-0.67 1.34 -0.34 0.68 0 0 Z " fill="#A4A4A4" transform="translate(401,95)"/>
<path d="M0 0 C2.86724686 0.57344937 3.8614515 0.8614515 6 3 C6.33 3.66 6.66 4.32 7 5 C7.61875 5.0825 8.2375 5.165 8.875 5.25 C11 6 11 6 12.8125 8.9375 C13.204375 9.948125 13.59625 10.95875 14 12 C13.67 12.66 13.34 13.32 13 14 C10.83031809 11.85714108 8.66416525 9.71091768 6.5 7.5625 C5.87996094 6.95083984 5.25992187 6.33917969 4.62109375 5.70898438 C4.03457031 5.12568359 3.44804687 4.54238281 2.84375 3.94140625 C2.02680664 3.13231812 2.02680664 3.13231812 1.19335938 2.30688477 C0 1 0 1 0 0 Z " fill="#848484" transform="translate(420,228)"/>
<path d="M0 0 C8.10810811 -0.40540541 8.10810811 -0.40540541 12 3 C14.62509492 4.41938272 17.30797266 5.71279275 20 7 C16.59003489 8.13665504 16.13694152 7.91583208 12.98828125 6.56640625 C12.23095703 6.24736328 11.47363281 5.92832031 10.69335938 5.59960938 C9.90767578 5.25736328 9.12199219 4.91511719 8.3125 4.5625 C7.51521484 4.22412109 6.71792969 3.88574219 5.89648438 3.53710938 C3.92734393 2.6999299 1.96317916 1.8510647 0 1 C0 0.67 0 0.34 0 0 Z " fill="#969696" transform="translate(161,344)"/>
<path d="M0 0 C5.875 3.625 5.875 3.625 7 7 C8.65 7.33 10.3 7.66 12 8 C12 8.66 12 9.32 12 10 C11.01 10.33 10.02 10.66 9 11 C6.30078125 9.12890625 6.30078125 9.12890625 3.3125 6.5625 C2.31863281 5.71816406 1.32476562 4.87382812 0.30078125 4.00390625 C-0.45847656 3.34261719 -1.21773438 2.68132812 -2 2 C-1.34 1.34 -0.68 0.68 0 0 Z " fill="#717171" transform="translate(86,294)"/>
<path d="M0 0 C2.14413657 3.21620485 3.66081546 6.53136846 5.1875 10.0625 C5.47302734 10.69994141 5.75855469 11.33738281 6.05273438 11.99414062 C6.76427903 13.63709898 7.38897327 15.31706973 8 17 C7.67 17.66 7.34 18.32 7 19 C2.35939176 14.96962465 0.60135474 11.75511166 0.125 5.5625 C0.05677744 3.70912043 0.00609072 1.85462477 0 0 Z " fill="#9D9D9D" transform="translate(154,279)"/>
<path d="M0 0 C4.18358477 0.55848826 7.02629569 3.04446302 10.25 5.5625 C10.80429688 5.98724609 11.35859375 6.41199219 11.9296875 6.84960938 C13.29089411 7.89398341 14.64605833 8.94622464 16 10 C13 10 13 10 10.625 8.5625 C7.99526048 6.99717886 6.00211625 6.42887375 3 6 C2.87625 5.195625 2.7525 4.39125 2.625 3.5625 C2.315625 2.2940625 2.315625 2.2940625 2 1 C1.34 0.67 0.68 0.34 0 0 Z " fill="#A6A6A6" transform="translate(106,294)"/>
<path d="M0 0 C4.94151304 2.40016348 7.04331244 5.52273027 10 10 C9.67 10.66 9.34 11.32 9 12 C7.33333333 10.33333333 5.66666667 8.66666667 4 7 C3.236875 6.29875 2.47375 5.5975 1.6875 4.875 C0 3 0 3 0 0 Z " fill="#848484" transform="translate(212,272)"/>
<path d="M0 0 C-1.32 0.33 -2.64 0.66 -4 1 C-4 1.66 -4 2.32 -4 3 C-7.82942948 5.90108294 -11.27536912 6.53680089 -16 7 C-13.22708336 2.84062504 -9.36343645 0.85346316 -4.75 -0.8125 C-3 -1 -3 -1 0 0 Z " fill="#939393" transform="translate(238,208)"/>
<path d="M0 0 C0.99 0.33 1.98 0.66 3 1 C1.41792503 2.75115168 -0.16561229 4.50094278 -1.75 6.25 C-2.63171875 7.22453125 -3.5134375 8.1990625 -4.421875 9.203125 C-6.56498967 11.5280797 -8.74365438 13.78582907 -11 16 C-9.77784763 12.52156634 -8.56815239 10.56815239 -6 8 C-5.505 6.989375 -5.01 5.97875 -4.5 4.9375 C-3 2 -3 2 0 0 Z " fill="#E4E4E4" transform="translate(167,167)"/>
<path d="M0 0 C0.48396854 7.38052027 0.48396854 7.38052027 -1.5625 10 C-4.7985497 11.32761013 -7.53906866 11.19966912 -11 11 C-11 10.67 -11 10.34 -11 10 C-9.02 10 -7.04 10 -5 10 C-4.87882813 9.36191406 -4.75765625 8.72382813 -4.6328125 8.06640625 C-4.46523437 7.24011719 -4.29765625 6.41382813 -4.125 5.5625 C-3.96257812 4.73878906 -3.80015625 3.91507813 -3.6328125 3.06640625 C-3.42398438 2.38449219 -3.21515625 1.70257813 -3 1 C-1 0 -1 0 0 0 Z " fill="#888888" transform="translate(133,141)"/>
<path d="M0 0 C0.33 0 0.66 0 1 0 C1.28358209 7.37313433 1.28358209 7.37313433 -1 11 C-1.33 11.66 -1.66 12.32 -2 13 C-2.66 13 -3.32 13 -4 13 C-4.66 14.32 -5.32 15.64 -6 17 C-5.71890887 15.35232753 -5.42481474 13.70686855 -5.125 12.0625 C-4.96257812 11.14597656 -4.80015625 10.22945313 -4.6328125 9.28515625 C-4.42398438 8.53105469 -4.21515625 7.77695312 -4 7 C-3.34 6.67 -2.68 6.34 -2 6 C-1.27306096 4.02111039 -0.60183749 2.02045442 0 0 Z " fill="#676767" transform="translate(174,384)"/>
<path d="M0 0 C3.62181982 1.20727327 5.29709344 2.59418688 7 6 C7.66 6.33 8.32 6.66 9 7 C10.0409066 8.64142963 11.04504326 10.30712215 12 12 C11.34 12.66 10.68 13.32 10 14 C8.33041937 11.85637773 6.66423643 9.71026458 5 7.5625 C4.52304687 6.95083984 4.04609375 6.33917969 3.5546875 5.70898438 C0 1.11328125 0 1.11328125 0 0 Z " fill="#8C8C8C" transform="translate(368,360)"/>
<path d="M0 0 C4.13989637 1.76165803 4.13989637 1.76165803 6 4 C6.84500959 7.99652333 6.9871784 11.92273187 7 16 C4.53859635 13.53859635 3.69673014 11.21543707 2.375 8 C1.92898438 6.9275 1.48296875 5.855 1.0234375 4.75 C0 2 0 2 0 0 Z " fill="#989898" transform="translate(337,201)"/>
<path d="M0 0 C0.66 0.33 1.32 0.66 2 1 C-3.29114853 6.58510123 -6.3572299 8.11814191 -14 9 C-12.48099259 5.96198518 -10.01766132 5.38583509 -7 3.9375 C-3.25431146 2.339815 -3.25431146 2.339815 0 0 Z " fill="#9A9A9A" transform="translate(304,332)"/>
<path d="M0 0 C0 3.35406109 -0.41124116 3.889154 -2.375 6.4375 C-3.84426135 8.3937637 -5.05112278 10.1050857 -6.125 12.3125 C-7 14 -7 14 -10 16 C-10.99 15.67 -11.98 15.34 -13 15 C-12.31292969 14.25234375 -11.62585938 13.5046875 -10.91796875 12.734375 C-10.0077189 11.73966898 -9.09756787 10.74487252 -8.1875 9.75 C-7.73568359 9.25886719 -7.28386719 8.76773437 -6.81835938 8.26171875 C-4.39181973 5.60492352 -2.09650029 2.92534924 0 0 Z " fill="#E0E0E0" transform="translate(342,316)"/>
<path d="M0 0 C0.66 0 1.32 0 2 0 C4.04061541 7.17859349 5.37369729 13.52605426 5 21 C4.67 21 4.34 21 4 21 C4 18.36 4 15.72 4 13 C3.34 13 2.68 13 2 13 C1.34 8.71 0.68 4.42 0 0 Z " fill="#121212" transform="translate(347,224)"/>
<path d="M0 0 C0.33 0.66 0.66 1.32 1 2 C-1 5 -1 5 -3.5 5.9375 C-6.16016916 6.73553741 -6.16016916 6.73553741 -6.9375 9.0625 C-7.288125 9.701875 -7.63875 10.34125 -8 11 C-11.125 11.75 -11.125 11.75 -14 12 C-14 11.34 -14 10.68 -14 10 C-12.63966133 9.04776293 -11.27112602 8.10544801 -9.8671875 7.21875 C-6.45180442 4.9894623 -3.24360336 2.46974875 0 0 Z " fill="#979797" transform="translate(457,140)"/>
<path d="M0 0 C0.99 0 1.98 0 3 0 C2.67 2.31 2.34 4.62 2 7 C2.66 7 3.32 7 4 7 C4 7.66 4 8.32 4 9 C4.66 9.33 5.32 9.66 6 10 C0.125 9.125 0.125 9.125 -1 8 C-1.125 4.5 -1.125 4.5 -1 1 C-0.67 0.67 -0.34 0.34 0 0 Z " fill="#777777" transform="translate(25,352)"/>
<path d="M0 0 C1.65 0 3.3 0 5 0 C0.85989729 4.54075781 -3.82390176 7.71842138 -9 11 C-7.60628043 7.21704689 -6.71101272 4.82958193 -2.9375 3 C-0.83134399 2.15410058 -0.83134399 2.15410058 0 0 Z " fill="#A5A5A5" transform="translate(66,336)"/>
<path d="M0 0 C10.55808656 -0.3690205 10.55808656 -0.3690205 15 2 C14.34 2.66 13.68 3.32 13 4 C8.4029922 3.64638402 4.31900631 2.58012426 0 1 C0 0.67 0 0.34 0 0 Z " fill="#737373" transform="translate(181,352)"/>
<path d="M0 0 C2.66666667 1.33333333 5.33333333 2.66666667 8 4 C8.680625 4.309375 9.36125 4.61875 10.0625 4.9375 C12.09606201 6.05267917 13.44694668 7.29164135 15 9 C14.01 9.33 13.02 9.66 12 10 C9.3359375 8.41796875 9.3359375 8.41796875 6.375 6.1875 C5.39273437 5.45917969 4.41046875 4.73085938 3.3984375 3.98046875 C1 2 1 2 0 0 Z " fill="#909090" transform="translate(431,338)"/>
<path d="M0 0 C7.48291572 6.15034169 7.48291572 6.15034169 10 10 C7.8125 10.4375 7.8125 10.4375 5 10 C2.00515674 6.9889684 0 4.29788387 0 0 Z " fill="#777777" transform="translate(175,316)"/>
<path d="M0 0 C0.99 0.66 1.98 1.32 3 2 C-0.63 4.97 -4.26 7.94 -8 11 C-8 10.01 -8 9.02 -8 8 C-7 7 -6 6 -5 5 C-5 4.01 -5 3.02 -5 2 C-3.68 2.33 -2.36 2.66 -1 3 C-0.67 2.01 -0.34 1.02 0 0 Z " fill="#848484" transform="translate(412,294)"/>
<path d="M0 0 C0.99 0.66 1.98 1.32 3 2 C0.03 4.97 -2.94 7.94 -6 11 C-6.99 10.67 -7.98 10.34 -9 10 C-8.67 9.01 -8.34 8.02 -8 7 C-7.030625 6.525625 -6.06125 6.05125 -5.0625 5.5625 C-1.89788363 3.94789981 -1.12529972 3.26336918 0 0 Z " fill="#767676" transform="translate(76,227)"/>
<path d="M0 0 C5.23272633 1.63958758 10.15196636 3.38952035 15 6 C11.46627283 7.17790906 9.59454905 6.82375082 6 6 C5.01 5.34 4.02 4.68 3 4 C3 3.34 3 2.68 3 2 C2.01 1.67 1.02 1.34 0 1 C0 0.67 0 0.34 0 0 Z " fill="#8E8E8E" transform="translate(340,156)"/>
<path d="M0 0 C0 3 0 3 -1 4.625 C-4.13796443 6.78235055 -7.23442808 6.69134656 -11 7 C-11 6.34 -11 5.68 -11 5 C-9.02 4.67 -7.04 4.34 -5 4 C-5 3.34 -5 2.68 -5 2 C-3.35 1.34 -1.7 0.68 0 0 Z " fill="#494949" transform="translate(264,274)"/>
<path d="M0 0 C1.32 0.66 2.64 1.32 4 2 C3.32902328 6.19360449 1.1441606 9.40334352 -1 13 C-1.66 12.67 -2.32 12.34 -3 12 C-3 11.01 -3 10.02 -3 9 C-2.319375 8.38125 -1.63875 7.7625 -0.9375 7.125 C-0.298125 6.42375 0.34125 5.7225 1 5 C0.85974801 2.29294488 0.85974801 2.29294488 0 0 Z " fill="#959595" transform="translate(438,246)"/>
<path d="M0 0 C3.86606247 3.22171872 5.03577168 6.09120127 6 11 C5.625 13.4375 5.625 13.4375 5 15 C4.34 15 3.68 15 3 15 C2.86722656 14.16855469 2.73445313 13.33710938 2.59765625 12.48046875 C2.42105469 11.39378906 2.24445313 10.30710938 2.0625 9.1875 C1.88847656 8.10855469 1.71445312 7.02960938 1.53515625 5.91796875 C1.06128079 2.95066644 1.06128079 2.95066644 0 0 Z " fill="#909090" transform="translate(287,227)"/>
<path d="M0 0 C0.33 1.32 0.66 2.64 1 4 C-3.13904732 7.56417964 -5.5731583 9 -11 9 C-7.37 6.03 -3.74 3.06 0 0 Z " fill="#868686" transform="translate(95,194)"/>
<path d="M0 0 C2 3 2 3 1.8125 5.0625 C1 7 1 7 -2 9 C-4.33199388 9.07905064 -6.66832622 9.08798769 -9 9 C-9 8.34 -9 7.68 -9 7 C-6.69 7 -4.38 7 -2 7 C-1.34 4.69 -0.68 2.38 0 0 Z " fill="#2F2F2F" transform="translate(173,423)"/>
<path d="M0 0 C-2.18111842 1.69642544 -4.21881329 3.11195098 -6.6875 4.375 C-9.24654433 5.81813632 -9.24654433 5.81813632 -9.8125 8.6875 C-9.874375 9.450625 -9.93625 10.21375 -10 11 C-10.33 11 -10.66 11 -11 11 C-11.48076923 4.75 -11.48076923 4.75 -9.4375 1.5625 C-6.18129203 -0.5248128 -3.79004984 -0.2915423 0 0 Z " fill="#989898" transform="translate(377,347)"/>
<path d="M0 0 C1.32 0 2.64 0 4 0 C8 7.71428571 8 7.71428571 8 12 C6.66081194 10.37982158 5.3288031 8.75370657 4 7.125 C3.2575 6.22007812 2.515 5.31515625 1.75 4.3828125 C0 2 0 2 0 0 Z " fill="#9B9B9B" transform="translate(153,312)"/>
<path d="M0 0 C2.5 1.375 2.5 1.375 5 3 C5 3.66 5 4.32 5 5 C5.9590625 5.433125 5.9590625 5.433125 6.9375 5.875 C9 7 9 7 10 9 C9.34 9.66 8.68 10.32 8 11 C7.54625 10.34 7.0925 9.68 6.625 9 C6.08875 8.34 5.5525 7.68 5 7 C4.34 7 3.68 7 3 7 C0 2.61538462 0 2.61538462 0 0 Z " fill="#797979" transform="translate(78,270)"/>
<path d="M0 0 C0.33 0.99 0.66 1.98 1 3 C3.01508358 3.73323796 3.01508358 3.73323796 5 4 C4.67 4.66 4.34 5.32 4 6 C2.205625 5.2884375 2.205625 5.2884375 0.375 4.5625 C-3.06414238 3.26517227 -6.33895604 2.45763049 -10 2 C-6.5980513 -0.09350689 -3.94727588 -0.17942163 0 0 Z " fill="#8A8A8A" transform="translate(260,219)"/>
<path d="M0 0 C0.66 0.33 1.32 0.66 2 1 C0.40629329 2.36646148 -1.20032982 3.71787166 -2.8125 5.0625 C-4.15248047 6.19365234 -4.15248047 6.19365234 -5.51953125 7.34765625 C-6.74736328 8.16556641 -6.74736328 8.16556641 -8 9 C-8.99 8.67 -9.98 8.34 -11 8 C-9.1875 5.5 -9.1875 5.5 -7 3 C-6.01 3 -5.02 3 -4 3 C-1.82967524 1.56009377 -1.82967524 1.56009377 0 0 Z " fill="#9C9C9C" transform="translate(443,169)"/>
<path d="M0 0 C0.99 0.66 1.98 1.32 3 2 C2.67 2.66 2.34 3.32 2 4 C0.02 4 -1.96 4 -4 4 C-4 3.34 -4 2.68 -4 2 C-5.98 2.66 -7.96 3.32 -10 4 C-9.67 3.01 -9.34 2.02 -9 1 C-5.98131566 -0.50934217 -3.32702771 -0.17510672 0 0 Z " fill="#7A7A7A" transform="translate(253,54)"/>
<path d="M0 0 C0.99 0.33 1.98 0.66 3 1 C5.3406065 0.72230092 7.67624308 0.39460023 10 0 C6.267612 3.57011026 1.9050011 4.10913442 -3 5 C-3 4.01 -3 3.02 -3 2 C-2.01 1.34 -1.02 0.68 0 0 Z " fill="#848484" transform="translate(321,347)"/>
<path d="M0 0 C0.33 0.99 0.66 1.98 1 3 C-2.75 4.125 -2.75 4.125 -5 3 C-5.33 3.99 -5.66 4.98 -6 6 C-7.98 6 -9.96 6 -12 6 C-8.40461874 2.91824463 -4.933456 0 0 0 Z " fill="#6A6A6A" transform="translate(161,155)"/>
<path d="M0 0 C3.63 0 7.26 0 11 0 C10.67 1.32 10.34 2.64 10 4 C3.375 4.25 3.375 4.25 0 2 C0 1.34 0 0.68 0 0 Z " fill="#5F5F5F" transform="translate(243,441)"/>
<path d="M0 0 C2.125 0.9375 2.125 0.9375 4 2 C2.76115681 2.72767003 1.50831659 3.43154815 0.25 4.125 C-0.79414063 4.71667969 -0.79414063 4.71667969 -1.859375 5.3203125 C-4 6 -4 6 -6.265625 5.1171875 C-6.83796875 4.74851562 -7.4103125 4.37984375 -8 4 C-7.01 3.67 -6.02 3.34 -5 3 C-4.34 3.33 -3.68 3.66 -3 4 C-2.67 3.01 -2.34 2.02 -2 1 C-1.34 0.67 -0.68 0.34 0 0 Z " fill="#727272" transform="translate(346,337)"/>
<path d="M0 0 C5.44876003 1.72066106 10.71169451 3.84705349 16 6 C12.08263419 7.1700097 9.02040985 6.69584017 5 6 C5 5.01 5 4.02 5 3 C2.525 2.01 2.525 2.01 0 1 C0 0.67 0 0.34 0 0 Z " fill="#B9B9B9" transform="translate(201,337)"/>
<path d="M0 0 C6.14689273 0.36881356 8.69027374 1.90050429 13 6 C10 7 10 7 7.7734375 6.07421875 C6.58621094 5.38779297 6.58621094 5.38779297 5.375 4.6875 C4.57835937 4.23761719 3.78171875 3.78773438 2.9609375 3.32421875 C1 2 1 2 0 0 Z " fill="#9B9B9B" transform="translate(222,284)"/>
<path d="M0 0 C4.61513112 1.31860889 8.09897612 3.21355437 12 6 C10.02 6.99 10.02 6.99 8 8 C6.66372225 6.85760183 5.33104612 5.71098945 4 4.5625 C3.2575 3.92441406 2.515 3.28632813 1.75 2.62890625 C1.1725 2.09136719 0.595 1.55382812 0 1 C0 0.67 0 0.34 0 0 Z " fill="#959595" transform="translate(363,168)"/>
<path d="M0 0 C-1.63369858 3.26739717 -4.70894675 3.71704704 -8 5 C-9.32276056 5.37308631 -10.65232077 5.73046415 -12 6 C-9.40401988 0.00927665 -6.20086134 -0.23399477 0 0 Z " fill="#8C8C8C" transform="translate(162,171)"/>
<path d="M0 0 C3.9492568 0.55105909 7.34920174 1.38935371 11 3 C8 5 8 5 5.5 4.8125 C2.85337019 3.95234531 1.70973285 3.15966254 0 1 C0 0.67 0 0.34 0 0 Z " fill="#787878" transform="translate(312,145)"/>
<path d="M0 0 C0 3.41987028 -0.47254343 5.94508687 -2 9 C-3.97522846 10.04808041 -5.97481509 11.0520411 -8 12 C-6.59023295 8.96147295 -4.91129772 6.4060405 -2.875 3.75 C-2.06675781 2.69039063 -2.06675781 2.69039063 -1.2421875 1.609375 C-0.83226562 1.07828125 -0.42234375 0.5471875 0 0 Z " fill="#999999" transform="translate(387,113)"/>
<path d="M0 0 C0 2.70338587 -0.08560144 4.48911097 -1 7 C-2.62890625 8.484375 -2.62890625 8.484375 -4.5625 9.75 C-5.20316406 10.17796875 -5.84382813 10.6059375 -6.50390625 11.046875 C-7.24447266 11.51867187 -7.24447266 11.51867187 -8 12 C-6.49087042 7.01987239 -3.44338151 3.75740058 0 0 Z " fill="#A0A0A0" transform="translate(399,97)"/>
<path d="M0 0 C-1.43294498 0.84114171 -2.87154405 1.67265687 -4.3125 2.5 C-5.51326172 3.19609375 -5.51326172 3.19609375 -6.73828125 3.90625 C-9 5 -9 5 -12 5 C-12 4.01 -12 3.02 -12 2 C-3 -1 -3 -1 0 0 Z " fill="#838383" transform="translate(362,333)"/>
<path d="M0 0 C0 2 0 2 -1.4609375 3.5078125 C-2.09257812 4.04148437 -2.72421875 4.57515625 -3.375 5.125 C-4.00148438 5.66382813 -4.62796875 6.20265625 -5.2734375 6.7578125 C-7 8 -7 8 -9 8 C-7.38794515 3.02949753 -5.53380518 0 0 0 Z " fill="#909090" transform="translate(424,287)"/>
<path d="M0 0 C-1.78174788 2.30142435 -3.16304165 3.80034391 -6.046875 4.48828125 C-8.0246611 4.72323102 -10.01271872 4.86751458 -12 5 C-10.7410501 2.4821002 -9.60942883 2.07291536 -7.125 0.8125 C-6.42632812 0.44769531 -5.72765625 0.08289063 -5.0078125 -0.29296875 C-3 -1 -3 -1 0 0 Z " fill="#949494" transform="translate(149,162)"/>
<path d="M0 0 C0.66 0.33 1.32 0.66 2 1 C-2.4095064 6.75685558 -2.4095064 6.75685558 -5.125 7.875 C-6.7469338 7.98312892 -8.3744659 8 -10 8 C-6.7 5.36 -3.4 2.72 0 0 Z " fill="#A6A6A6" transform="translate(441,152)"/>
<path d="M0 0 C-1.01903073 2.77917472 -1.73056128 3.8397932 -4.3125 5.375 C-7.58985548 6.13717569 -9.05633745 5.5138836 -12 4 C-4.28571429 0 -4.28571429 0 0 0 Z " fill="#A4A4A4" transform="translate(381,147)"/>
<path d="M0 0 C0 2.62834278 -0.19789762 5.08186701 -0.5 7.6875 C-0.5928125 8.49574219 -0.685625 9.30398437 -0.78125 10.13671875 C-0.8534375 10.75160156 -0.925625 11.36648437 -1 12 C-1.99 12 -2.98 12 -4 12 C-4.33 12.99 -4.66 13.98 -5 15 C-4.4941952 10.04311292 -3.73403362 3.73403362 0 0 Z " fill="#A8A8A8" transform="translate(211,227)"/>
<path d="M0 0 C0.33 0.99 0.66 1.98 1 3 C2.155 3.33 3.31 3.66 4.5 4 C5.655 4.33 6.81 4.66 8 5 C8.33 5.99 8.66 6.98 9 8 C6.69 8 4.38 8 2 8 C0.23537317 4.91190305 0 3.76687864 0 0 Z " fill="#6B6B6B" transform="translate(179,125)"/>
<path d="M0 0 C5.37209302 -0.36627907 5.37209302 -0.36627907 8.25 1.3125 C10 3 10 3 12 6 C7.24518354 5.42365861 4.02951788 3.44931479 0 1 C0 0.67 0 0.34 0 0 Z " fill="#999999" transform="translate(145,336)"/>
<path d="M0 0 C0.763125 0.309375 1.52625 0.61875 2.3125 0.9375 C4.18789677 1.67893593 6.08684652 2.36228217 8 3 C8.33 4.65 8.66 6.3 9 8 C7.68 7.34 6.36 6.68 5 6 C5 5.34 5 4.68 5 4 C4.360625 3.71125 3.72125 3.4225 3.0625 3.125 C1 2 1 2 0 0 Z " fill="#868686" transform="translate(411,220)"/>
<path d="M0 0 C2.56269497 1.04109483 4.02610343 2.02610343 6 4 C6 4.99 6 5.98 6 7 C2.63408134 5.55746343 0.48952921 3.66735273 -2 1 C-1.34 0.67 -0.68 0.34 0 0 Z " fill="#6B6B6B" transform="translate(308,166)"/>
<path d="M0 0 C4.13333333 6.2 4.13333333 6.2 3.625 9.25 C3.41875 9.8275 3.2125 10.405 3 11 C3 10.34 3 9.68 3 9 C2.01 9 1.02 9 0 9 C-1.125 3.375 -1.125 3.375 0 0 Z " fill="#797979" transform="translate(181,91)"/>
<path d="M0 0 C4.75481646 0.57634139 7.97048212 2.55068521 12 5 C8.35839192 6.21386936 7.66834531 5.6674695 4.3125 4.0625 C3.10013672 3.49208984 3.10013672 3.49208984 1.86328125 2.91015625 C1.24839844 2.60980469 0.63351563 2.30945313 0 2 C0 1.34 0 0.68 0 0 Z " fill="#A0A0A0" transform="translate(142,318)"/>
<path d="M0 0 C3.93673644 1.31224548 6.22719294 2.91910327 9 6 C2.25 5.25 2.25 5.25 0 3 C0 2.01 0 1.02 0 0 Z " fill="#8E8E8E" transform="translate(124,306)"/>
<path d="M0 0 C1.46300982 0.93018526 2.92025579 1.86944027 4.375 2.8125 C5.18710937 3.33457031 5.99921875 3.85664063 6.8359375 4.39453125 C9 6 9 6 11 9 C6.02639643 7.72768281 3.32703078 5.91415386 0 2 C0 1.34 0 0.68 0 0 Z " fill="#A2A2A2" transform="translate(399,191)"/>
<path d="M0 0 C0.33 1.32 0.66 2.64 1 4 C0.360625 4.103125 -0.27875 4.20625 -0.9375 4.3125 C-1.618125 4.539375 -2.29875 4.76625 -3 5 C-3.33 5.99 -3.66 6.98 -4 8 C-5.65 8 -7.3 8 -9 8 C-6.14723863 5.06799526 -3.34920216 2.35684596 0 0 Z " fill="#929292" transform="translate(315,324)"/>
<path d="M0 0 C2 1.8125 2 1.8125 4 4 C4 4.99 4 5.98 4 7 C0.63279613 5.60667426 -0.9859524 4.0210714 -3 1 C-2.01 0.67 -1.02 0.34 0 0 Z " fill="#828282" transform="translate(80,288)"/>
<path d="M0 0 C0.48210937 0.42152344 0.96421875 0.84304688 1.4609375 1.27734375 C2.09257813 1.82519531 2.72421875 2.37304688 3.375 2.9375 C4.00148438 3.48277344 4.62796875 4.02804687 5.2734375 4.58984375 C6.95632334 6.06958624 6.95632334 6.06958624 9 7 C8.67 7.66 8.34 8.32 8 9 C5.525 8.01 5.525 8.01 3 7 C3 6.34 3 5.68 3 5 C2.34 4.67 1.68 4.34 1 4 C0.375 1.9375 0.375 1.9375 0 0 Z " fill="#A2A2A2" transform="translate(69,261)"/>
<path d="M0 0 C3.79588866 0.54226981 5.47211993 2.20127563 8 5 C7.67 5.99 7.34 6.98 7 8 C5.83035398 6.8572081 4.66435444 5.71068285 3.5 4.5625 C2.8503125 3.92441406 2.200625 3.28632813 1.53125 2.62890625 C0 1 0 1 0 0 Z " fill="#E5E5E5" transform="translate(329,167)"/>
<path d="M0 0 C0.66 0.33 1.32 0.66 2 1 C0.6062718 5.43458973 -1.60582235 7.87378374 -5 11 C-4.54917531 9.53932801 -4.08906463 8.08151968 -3.625 6.625 C-3.36976563 5.81289062 -3.11453125 5.00078125 -2.8515625 4.1640625 C-2 2 -2 2 0 0 Z " fill="#A6A6A6" transform="translate(387,135)"/>
<path d="M0 0 C0.33 0 0.66 0 1 0 C1.25 2.3125 1.25 2.3125 1 5 C-1.04424538 6.97610386 -2.1176825 8 -5 8 C-3.6299034 5.0490227 -2.06764583 2.51713405 0 0 Z " fill="#787878" transform="translate(111,360)"/>
<path d="M0 0 C2.31 0.33 4.62 0.66 7 1 C7.33 2.65 7.66 4.3 8 6 C4.63408134 4.55746343 2.48952921 2.66735273 0 0 Z " fill="#888888" transform="translate(454,356)"/>
<path d="M0 0 C2.00720923 0.28674418 4.0085944 0.61866701 6 1 C5.67 1.66 5.34 2.32 5 3 C4.01 3.33 3.02 3.66 2 4 C1.34 4.66 0.68 5.32 0 6 C-0.38218767 4.34385343 -0.71395102 2.67542976 -1 1 C-0.67 0.67 -0.34 0.34 0 0 Z " fill="#515151" transform="translate(338,326)"/>
<path d="M0 0 C5.57142857 5.14285714 5.57142857 5.14285714 6 9 C1.21518987 6.54625122 1.21518987 6.54625122 0.1875 3.9375 C0 2 0 2 0 0 Z " fill="#909090" transform="translate(281,218)"/>
<path d="M0 0 C6.4 -0.49230769 6.4 -0.49230769 9.4375 2 C10.2109375 2.99 10.2109375 2.99 11 4 C6.55129785 4.39253254 3.85756507 3.15305957 0 1 C0 0.67 0 0.34 0 0 Z " fill="#737373" transform="translate(337,171)"/>
<path d="M0 0 C1.32 0.33 2.64 0.66 4 1 C4 1.66 4 2.32 4 3 C4.66 3 5.32 3 6 3 C6.33 3.99 6.66 4.98 7 6 C6.34 6.66 5.68 7.32 5 8 C0 2.25 0 2.25 0 0 Z " fill="#7A7A7A" transform="translate(94,115)"/>
<path d="M0 0 C0.99 0.33 1.98 0.66 3 1 C3 1.66 3 2.32 3 3 C4.98 3 6.96 3 9 3 C9 3.66 9 4.32 9 5 C3.375 5.25 3.375 5.25 0 3 C0 2.01 0 1.02 0 0 Z " fill="#101010" transform="translate(399,398)"/>
<path d="M0 0 C1.37562854 1.28965176 2.70766393 2.62689293 4 4 C4 4.66 4 5.32 4 6 C4.99 6.33 5.98 6.66 7 7 C6.01 7.495 6.01 7.495 5 8 C0.34751773 5.84397163 0.34751773 5.84397163 -0.875 2.875 C-0.91625 2.25625 -0.9575 1.6375 -1 1 C-0.67 0.67 -0.34 0.34 0 0 Z " fill="#727272" transform="translate(129,323)"/>
<path d="M0 0 C0.66 0 1.32 0 2 0 C1.67 1.65 1.34 3.3 1 5 C-1.31 5.66 -3.62 6.32 -6 7 C-5.04882866 5.8274869 -4.08882991 4.66212985 -3.125 3.5 C-2.59132813 2.8503125 -2.05765625 2.200625 -1.5078125 1.53125 C-0.76144531 0.77328125 -0.76144531 0.77328125 0 0 Z " fill="#A4A4A4" transform="translate(271,267)"/>
<path d="M0 0 C0.66666667 2.66666667 1.33333333 5.33333333 2 8 C0.02 8.99 0.02 8.99 -2 10 C-2.6875 8.375 -2.6875 8.375 -3 6 C-1.5625 2.75 -1.5625 2.75 0 0 Z " fill="#7A7A7A" transform="translate(276,259)"/>
<path d="M0 0 C-0.24609375 1.859375 -0.24609375 1.859375 -1 4 C-2.84765625 5.265625 -2.84765625 5.265625 -5.0625 6.25 C-6.16271484 6.75273437 -6.16271484 6.75273437 -7.28515625 7.265625 C-8.13400391 7.62914062 -8.13400391 7.62914062 -9 8 C-7.70948419 4.12845257 -4.40863591 0 0 0 Z " fill="#BEBEBE" transform="translate(84,204)"/>
<path d="M0 0 C0.99 0.495 0.99 0.495 2 1 C2 1.99 2 2.98 2 4 C2.66 4 3.32 4 4 4 C4.66 5.98 5.32 7.96 6 10 C5.38125 9.525625 4.7625 9.05125 4.125 8.5625 C2.09294454 6.97582559 2.09294454 6.97582559 0 6 C0 4.02 0 2.04 0 0 Z " fill="#A4A4A4" transform="translate(344,184)"/>
<path d="M0 0 C0.66 0.33 1.32 0.66 2 1 C-0.625 5.875 -0.625 5.875 -4 7 C-4.66 6.34 -5.32 5.68 -6 5 C-4.02 3.35 -2.04 1.7 0 0 Z " fill="#878787" transform="translate(429,161)"/>
<path d="M0 0 C2 2 2 2 2 6 C1.34 6 0.68 6 0 6 C0 6.66 0 7.32 0 8 C-0.66 8 -1.32 8 -2 8 C-2 5.69 -2 3.38 -2 1 C-1.34 0.67 -0.68 0.34 0 0 Z " fill="#5A5A5A" transform="translate(338,69)"/>
<path d="M0 0 C0.33 0 0.66 0 1 0 C1.3125 2.3125 1.3125 2.3125 1 5 C-1.5 6.8125 -1.5 6.8125 -4 8 C-4 4.08147427 -2.54970541 2.85876061 0 0 Z " fill="#838383" transform="translate(99,376)"/>
<path d="M0 0 C2 1 2 1 3 3 C-2.625 5.125 -2.625 5.125 -6 4 C-4.02 2.68 -2.04 1.36 0 0 Z " fill="#828282" transform="translate(364,312)"/>
<path d="M0 0 C0.33 0.66 0.66 1.32 1 2 C0.00390625 3.9453125 0.00390625 3.9453125 -1.4375 6.125 C-1.91058594 6.84945313 -2.38367188 7.57390625 -2.87109375 8.3203125 C-3.24363281 8.87460937 -3.61617188 9.42890625 -4 10 C-4.93423645 6.98968256 -5.04449911 6.13349732 -4 3 C-3.34 3 -2.68 3 -2 3 C-1.34 2.01 -0.68 1.02 0 0 Z " fill="#9E9E9E" transform="translate(349,305)"/>
<path d="M0 0 C0.33 0.99 0.66 1.98 1 3 C-0.40445835 5.2636564 -2.1967913 7.0208685 -4 9 C-4.8125 7.3125 -4.8125 7.3125 -5 5 C-2.5625 2.25 -2.5625 2.25 0 0 Z " fill="#999999" transform="translate(286,272)"/>
<path d="M0 0 C0.66 0.66 1.32 1.32 2 2 C1.9765625 4.6015625 1.9765625 4.6015625 1.625 7.625 C1.51414063 8.62789062 1.40328125 9.63078125 1.2890625 10.6640625 C1.19367188 11.43492187 1.09828125 12.20578125 1 13 C0.67 13 0.34 13 0 13 C-1.28571429 4.57142857 -1.28571429 4.57142857 0 0 Z " fill="#1C1C1C" transform="translate(137,227)"/>
<path d="M0 0 C0.66 0.33 1.32 0.66 2 1 C0.35 2.98 -1.3 4.96 -3 7 C-4.32 6.34 -5.64 5.68 -7 5 C-4.69 3.35 -2.38 1.7 0 0 Z " fill="#A0A0A0" transform="translate(103,188)"/>
<path d="M0 0 C0.66 0.33 1.32 0.66 2 1 C1.67 3.64 1.34 6.28 1 9 C0.01 9 -0.98 9 -2 9 C-1.34 6.03 -0.68 3.06 0 0 Z " fill="#454545" transform="translate(190,122)"/>
<path d="M0 0 C3.4375 1.1875 3.4375 1.1875 4.4375 3.1875 C-2.08557692 3.55673077 -2.08557692 3.55673077 -4.5 1.6875 C-5.0259375 0.945 -5.0259375 0.945 -5.5625 0.1875 C-3.5625 -0.8125 -3.5625 -0.8125 0 0 Z " fill="#818181" transform="translate(157.5625,324.8125)"/>
<path d="M0 0 C0.99 0.33 1.98 0.66 3 1 C4.1875 3.5625 4.1875 3.5625 5 6 C4.34 6.66 3.68 7.32 3 8 C0 3.375 0 3.375 0 0 Z " fill="#818181" transform="translate(145,297)"/>
<path d="M0 0 C0 0.99 0 1.98 0 3 C-0.99 3.33 -1.98 3.66 -3 4 C-3.33 4.99 -3.66 5.98 -4 7 C-4.66 6.67 -5.32 6.34 -6 6 C-5.25 3.5625 -5.25 3.5625 -4 1 C-1.875 0.1875 -1.875 0.1875 0 0 Z " fill="#939393" transform="translate(443,268)"/>
<path d="M0 0 C0.66 0.33 1.32 0.66 2 1 C1.3125 3.4375 1.3125 3.4375 0 6 C-2.625 6.8125 -2.625 6.8125 -5 7 C-4.34 5.68 -3.68 4.36 -3 3 C-2.34 3 -1.68 3 -1 3 C-0.67 2.01 -0.34 1.02 0 0 Z " fill="#939393" transform="translate(60,224)"/>
<path d="M0 0 C1.4835001 0.42257276 2.96176424 0.86356322 4.4375 1.3125 C5.67306641 1.67794922 5.67306641 1.67794922 6.93359375 2.05078125 C7.61550781 2.36402344 8.29742187 2.67726562 9 3 C9.33 3.99 9.66 4.98 10 6 C6.40992874 4.66654496 3.20429093 3.1056769 0 1 C0 0.67 0 0.34 0 0 Z " fill="#9B9B9B" transform="translate(366,187)"/>
<path d="M0 0 C2.3125 0.1875 2.3125 0.1875 5 1 C6.8125 3.5625 6.8125 3.5625 8 6 C5.525 5.01 5.525 5.01 3 4 C3 3.34 3 2.68 3 2 C2.01 1.67 1.02 1.34 0 1 C0 0.67 0 0.34 0 0 Z " fill="#A6A6A6" transform="translate(423,332)"/>
<path d="M0 0 C2.4375 1.1875 2.4375 1.1875 3.4375 3.1875 C2.4475 3.5175 1.4575 3.8475 0.4375 4.1875 C-2.25 2.25 -2.25 2.25 -4.5625 0.1875 C-2.5625 -0.8125 -2.5625 -0.8125 0 0 Z " fill="#727272" transform="translate(138.5625,314.8125)"/>
<path d="M0 0 C2.97 0.495 2.97 0.495 6 1 C6 1.99 6 2.98 6 4 C3.69 3.67 1.38 3.34 -1 3 C-0.67 2.01 -0.34 1.02 0 0 Z " fill="#616161" transform="translate(236,289)"/>
<path d="M0 0 C0.66 1.32 1.32 2.64 2 4 C2.66 4 3.32 4 4 4 C4.33 4.99 4.66 5.98 5 7 C4.34 7.66 3.68 8.32 3 9 C0.70620251 5.55930376 0 4.27709699 0 0 Z " fill="#8B8B8B" transform="translate(208,263)"/>
<path d="M0 0 C2.46278801 2.46278801 2.99771255 4.70676982 4 8 C3.01 8 2.02 8 1 8 C0.34 7.34 -0.32 6.68 -1 6 C-0.34 6 0.32 6 1 6 C0.67 4.02 0.34 2.04 0 0 Z " fill="#8F8F8F" transform="translate(222,259)"/>
<path d="M0 0 C3.465 1.485 3.465 1.485 7 3 C6.67 3.66 6.34 4.32 6 5 C4.125 4.75 4.125 4.75 2 4 C0.75 1.9375 0.75 1.9375 0 0 Z " fill="#7D7D7D" transform="translate(46,259)"/>
<path d="M0 0 C3.36591866 1.44253657 5.51047079 3.33264727 8 6 C7.67 6.66 7.34 7.32 7 8 C4.525 7.01 4.525 7.01 2 6 C2 5.01 2 4.02 2 3 C1.34 2.67 0.68 2.34 0 2 C0 1.34 0 0.68 0 0 Z " fill="#9C9C9C" transform="translate(432,219)"/>
<path d="M0 0 C2.5 2.3125 2.5 2.3125 5 5 C5 5.99 5 6.98 5 8 C2 7 2 7 0 4 C0 2.68 0 1.36 0 0 Z " fill="#939393" transform="translate(120,125)"/>
<path d="M0 0 C2.5 2.3125 2.5 2.3125 5 5 C5 5.99 5 6.98 5 8 C2 7 2 7 0 4 C0 2.68 0 1.36 0 0 Z " fill="#909090" transform="translate(108,109)"/>
<path d="M0 0 C0.66 0 1.32 0 2 0 C3.4783226 2.95664519 3.06032783 5.74229737 3 9 C0.86928411 6.40608501 -0.53582673 4.36525621 -1 1 C-0.67 0.67 -0.34 0.34 0 0 Z " fill="#989898" transform="translate(130,349)"/>
<path d="M0 0 C3.36591866 1.44253657 5.51047079 3.33264727 8 6 C6.35 6 4.7 6 3 6 C2.01 4.02 1.02 2.04 0 0 Z " fill="#A8A8A8" transform="translate(445,330)"/>
<path d="M0 0 C1.98 1.65 3.96 3.3 6 5 C5.01 5.33 4.02 5.66 3 6 C0.8125 4.5625 0.8125 4.5625 -1 3 C-0.67 2.01 -0.34 1.02 0 0 Z " fill="#E0E0E0" transform="translate(164,326)"/>
<path d="M0 0 C0.66 0.33 1.32 0.66 2 1 C-0.3125 3.0625 -0.3125 3.0625 -3 5 C-3.99 4.67 -4.98 4.34 -6 4 C-3.94766315 1.7522025 -2.99332739 0.9977758 0 0 Z " fill="#646464" transform="translate(322,319)"/>
<path d="M0 0 C1.65 0 3.3 0 5 0 C5.66 1.32 6.32 2.64 7 4 C4.69 3.34 2.38 2.68 0 2 C0 1.34 0 0.68 0 0 Z " fill="#676767" transform="translate(31,151)"/>
</svg>
