<?xml version="1.0" encoding="UTF-8"?>
<svg version="1.1" xmlns="http://www.w3.org/2000/svg" width="512" height="512">
<path d="M0 0 C1.08995773 -0.00855011 1.08995773 -0.00855011 2.20193481 -0.01727295 C3.7364967 -0.02667019 5.27107829 -0.03323579 6.80566406 -0.03710938 C9.09218309 -0.0467045 11.37775794 -0.07773065 13.6640625 -0.109375 C27.22528846 -0.20709642 40.25986305 1.7263933 53.3203125 5.453125 C54.06087891 5.66364502 54.80144531 5.87416504 55.56445312 6.09106445 C86.09651348 15.13290117 114.25128788 34.66675143 133.2578125 60.203125 C133.85722656 60.99847656 134.45664062 61.79382812 135.07421875 62.61328125 C152.37435754 86.41548562 165.70467704 117.30125791 164.2578125 147.203125 C164.98742187 147.33460938 165.71703125 147.46609375 166.46875 147.6015625 C181.97902222 150.94691533 196.56241843 161.9266305 206.2578125 174.203125 C206.90621094 175.01523438 207.55460937 175.82734375 208.22265625 176.6640625 C224.16002065 197.52640899 228.62429034 221.07285161 225.98974609 246.82324219 C222.72384124 268.67293093 208.6913435 290.00774551 191.2578125 303.203125 C174.09198729 315.3187834 152.44505748 322.43488678 131.2578125 320.203125 C127.91386138 318.97296682 127.31865391 318.29438712 125.2578125 315.203125 C124.57556398 308.03951553 124.57556398 308.03951553 126.94677734 305.13256836 C129.69281376 302.83994996 131.16600983 302.59138262 134.6953125 302.296875 C135.74944336 302.19536133 136.80357422 302.09384766 137.88964844 301.98925781 C139.00114258 301.89483398 140.11263672 301.80041016 141.2578125 301.703125 C150.02031656 300.79477113 158.17973546 299.93984028 166.2578125 296.203125 C167.30453125 295.73261719 168.35125 295.26210938 169.4296875 294.77734375 C185.71043418 286.77073241 197.84285207 273.22426578 204.26171875 256.2109375 C210.57783633 237.13873932 210.06356232 218.04185988 201.4453125 199.765625 C198.57931042 194.43789318 195.15418687 189.81279445 191.2578125 185.203125 C190.78730469 184.58824219 190.31679688 183.97335938 189.83203125 183.33984375 C181.06070012 172.19654702 167.04842213 166.02668876 153.75390625 162.16015625 C151.16765282 161.16855674 149.94282199 160.37264202 148.2578125 158.203125 C147.37959479 155.56847188 147.05644948 153.67614453 146.86328125 150.94921875 C144.28625401 117.97584096 134.3078122 87.89565655 111.30078125 63.421875 C109.2578125 61.203125 109.2578125 61.203125 107.20703125 58.62109375 C90.6631177 38.09868396 61.33426298 25.56858175 36.2578125 20.203125 C34.69546875 19.86667969 34.69546875 19.86667969 33.1015625 19.5234375 C-1.55245213 13.38328442 -38.34160362 21.54793308 -67.3449707 41.27587891 C-73.83320447 45.8411903 -79.84539399 50.90490861 -85.7421875 56.203125 C-86.44472656 56.81027344 -87.14726562 57.41742188 -87.87109375 58.04296875 C-97.33545903 66.75650755 -104.51018851 78.56641798 -111.35473633 89.37597656 C-112.7421875 91.203125 -112.7421875 91.203125 -115.8046875 93.015625 C-120.8477814 93.25577233 -124.66529657 91.83746612 -129.4140625 90.23828125 C-142.0595204 86.30512827 -155.92226187 88.55699981 -167.7421875 94.203125 C-181.5296759 102.26634366 -190.17313559 112.98017007 -194.7421875 128.203125 C-195.05052757 129.82504388 -195.3435738 131.44998803 -195.6171875 133.078125 C-196.39720064 136.66490675 -197.49877084 138.94630967 -200.6015625 141.16796875 C-204.51964218 143.06266056 -208.76370787 143.95133544 -212.95703125 145.0625 C-232.81723136 151.04720426 -248.96233342 165.31609224 -258.81054688 183.36279297 C-268.66002067 202.81911726 -271.10057181 225.23233601 -264.47851562 246.13134766 C-257.34364777 266.20644336 -243.73654726 283.31538908 -224.7421875 293.203125 C-210.11954239 299.93595397 -195.93395662 302.0709463 -179.9296875 302.4140625 C-179.26128845 302.42839828 -178.5928894 302.44273407 -177.90423584 302.45750427 C-175.14601165 302.51493463 -172.38801393 302.57006523 -169.62939453 302.60449219 C-167.58316928 302.63206038 -165.53800337 302.67782409 -163.4921875 302.7265625 C-162.29078125 302.74638184 -161.089375 302.76620117 -159.8515625 302.78662109 C-156.49953619 303.23562839 -155.10079716 303.81994649 -152.7421875 306.203125 C-151.7793927 309.09150939 -151.61018232 310.93116236 -151.59501648 313.93405151 C-151.58786118 314.90699158 -151.58070587 315.87993164 -151.57333374 316.88235474 C-151.57064484 317.94839935 -151.56795593 319.01444397 -151.56518555 320.11279297 C-151.55861435 321.23661377 -151.55204315 322.36043457 -151.54527283 323.51831055 C-151.52553226 327.24397851 -151.51387689 330.96960619 -151.50390625 334.6953125 C-151.49983072 335.96609776 -151.4957552 337.23688301 -151.49155617 338.54617691 C-151.47284583 344.57591699 -151.45827906 350.60563261 -151.4499442 356.63539398 C-151.44016804 363.59255961 -151.41383539 370.5494074 -151.37344331 377.50646102 C-151.33964363 383.5351387 -151.32779929 389.563662 -151.32374001 395.59244156 C-151.31886015 398.15613082 -151.30720668 400.71981633 -151.28870201 403.28344345 C-151.26443553 406.86744468 -151.26525295 410.45061028 -151.2722168 414.03466797 C-151.25300171 415.6276622 -151.25300171 415.6276622 -151.23339844 417.25283813 C-151.26507587 421.71708132 -151.28983555 424.43305979 -153.58406067 428.33865356 C-157.21598963 431.4763875 -160.31911566 431.32248214 -164.94140625 431.30078125 C-166.14990234 431.29755859 -167.35839844 431.29433594 -168.60351562 431.29101562 C-169.86615234 431.28263672 -171.12878906 431.27425781 -172.4296875 431.265625 C-174.34104492 431.25885742 -174.34104492 431.25885742 -176.29101562 431.25195312 C-179.44145314 431.24015373 -182.59179699 431.22369097 -185.7421875 431.203125 C-185.92249512 431.79843018 -186.10280273 432.39373535 -186.28857422 433.00708008 C-189.53566163 443.29719 -195.12410573 450.12555899 -204.7421875 455.203125 C-213.80515451 459.54545402 -223.93027185 459.48241866 -233.36328125 456.2421875 C-242.5787939 452.21702105 -249.71388565 445.66452694 -253.921875 436.48828125 C-257.35635381 426.92080457 -257.63306885 417.15423297 -253.69921875 407.6953125 C-248.94692107 398.62134606 -242.7405339 391.79361764 -233.01953125 388.1953125 C-223.20423655 385.32443579 -213.04302622 385.24275899 -203.796875 389.984375 C-193.91422217 395.84632877 -188.9338074 402.03245536 -185.7421875 413.203125 C-180.1321875 413.203125 -174.5221875 413.203125 -168.7421875 413.203125 C-168.7421875 382.513125 -168.7421875 351.823125 -168.7421875 320.203125 C-177.6521875 320.203125 -186.5621875 320.203125 -195.7421875 320.203125 C-217.62689146 317.39360219 -237.25921846 310.1416932 -253.7421875 295.203125 C-254.57105469 294.45546875 -255.39992187 293.7078125 -256.25390625 292.9375 C-272.50612274 277.50660532 -284.52369725 254.98804526 -285.91918945 232.32910156 C-286.58401705 199.94060792 -279.57356796 174.09235943 -256.7421875 150.203125 C-246.48891145 140.24890283 -227.90429439 126.203125 -212.7421875 126.203125 C-212.60683594 125.48769531 -212.47148437 124.77226563 -212.33203125 124.03515625 C-209.21434782 109.60420239 -202.01987763 99.357913 -191.7421875 89.203125 C-190.86626953 88.31173828 -190.86626953 88.31173828 -189.97265625 87.40234375 C-176.90789913 75.13139465 -159.00353871 69.88692989 -141.453125 69.96875 C-134.77162418 70.39073953 -128.27594848 71.79404689 -121.7421875 73.203125 C-121.50371094 72.50316406 -121.26523438 71.80320312 -121.01953125 71.08203125 C-108.17897551 42.14169614 -73.26100839 19.90493003 -44.9296875 8.890625 C-30.85396226 3.69120598 -15.00879484 0.0943401 0 0 Z M-236.1796875 412.328125 C-238.88188505 417.3001685 -239.54423888 421.63382438 -238.7421875 427.203125 C-236.63331604 432.19091226 -233.45616386 436.47949421 -228.7421875 439.203125 C-222.78572829 441.30725207 -217.70866894 441.74563973 -211.78515625 439.38671875 C-207.38509439 436.83754333 -204.77766836 433.08581747 -202.3671875 428.703125 C-200.80808206 422.46670326 -201.72439424 417.82246417 -204.7421875 412.203125 C-208.31582124 408.0652333 -211.65936054 404.64491595 -217.22265625 403.84765625 C-225.70828651 403.4145965 -230.95118654 405.62491864 -236.1796875 412.328125 Z " fill="#000000" transform="translate(285.7421875,-0.203125)"/>
<path d="M0 0 C1.24809448 -0.01260864 2.49618896 -0.02521729 3.78210449 -0.03820801 C5.14054937 -0.03104816 6.49898909 -0.02284416 7.85742188 -0.01367188 C9.25460073 -0.01636757 10.65177775 -0.02025064 12.0489502 -0.02526855 C14.97438452 -0.03116013 17.89932966 -0.02261251 20.82470703 -0.00390625 C24.57098579 0.01888418 28.31611832 0.00575912 32.06235504 -0.01819611 C34.9466411 -0.03266392 37.83065626 -0.02804383 40.71495056 -0.01768494 C42.09602495 -0.01502031 43.47712408 -0.01827818 44.85816956 -0.02760315 C46.78955604 -0.03778276 48.72102898 -0.01951075 50.65234375 0 C51.75058472 0.00318237 52.84882568 0.00636475 53.98034668 0.00964355 C56.82617188 0.51757812 56.82617188 0.51757812 59.18365479 1.91339111 C61.76603744 6.00772134 61.35011037 9.95866562 61.28027344 14.70214844 C61.28085754 15.73661102 61.28144165 16.77107361 61.28204346 17.83688354 C61.27925629 21.25683116 61.24813325 24.67590772 61.21679688 28.09570312 C61.20933677 30.46652755 61.20364275 32.83735813 61.199646 35.20819092 C61.18437171 41.44890358 61.14507386 47.689244 61.10083008 53.92980957 C61.05991641 60.2975562 61.04164329 66.66536295 61.02148438 73.03320312 C60.97858181 85.52815836 60.91030833 98.02283729 60.82617188 110.51757812 C66.43617188 110.51757812 72.04617188 110.51757812 77.82617188 110.51757812 C78.19742188 109.19757813 78.56867188 107.87757813 78.95117188 106.51757812 C82.05021302 97.33576785 88.23716187 91.11413796 96.65820312 86.51757812 C105.54131621 82.62770966 115.79074375 82.70084482 124.97070312 85.38085938 C135.1447633 89.43099824 141.82858466 96.54647906 146.13867188 106.45507812 C149.93336534 116.87063843 149.28436379 126.66358152 144.63867188 136.76757812 C139.57767088 146.01194989 132.50708736 150.5871792 122.82617188 154.51757812 C113.15410004 156.99567106 103.70338287 156.02282935 94.82617188 151.51757812 C85.66324838 145.93888969 80.52007141 138.84210473 77.82617188 128.51757812 C76.63858276 128.5411438 76.63858276 128.5411438 75.42700195 128.56518555 C71.83096492 128.62764511 68.23504217 128.66660447 64.63867188 128.70507812 C63.39279297 128.73021484 62.14691406 128.75535156 60.86328125 128.78125 C59.66123047 128.79091797 58.45917969 128.80058594 57.22070312 128.81054688 C55.56325073 128.83411255 55.56325073 128.83411255 53.87231445 128.8581543 C50.41035252 128.47108714 48.5973925 127.59622161 45.82617188 125.51757812 C43.74202346 122.3913555 43.57718569 121.71829678 43.58566284 118.17060852 C43.58291351 117.28299835 43.58016418 116.39538818 43.57733154 115.48088074 C43.58452209 114.50983902 43.59171265 113.5387973 43.59912109 112.53833008 C43.59882904 111.51376709 43.59853699 110.4892041 43.59823608 109.43359375 C43.59963144 106.04093001 43.61520248 102.64848483 43.63085938 99.25585938 C43.63458877 96.90602234 43.63743609 94.55618375 43.63943481 92.2063446 C43.64707705 86.0167106 43.66673067 79.82717022 43.68884277 73.63757324 C43.70928846 67.32349921 43.7184338 61.00941008 43.72851562 54.6953125 C43.74997595 42.30269321 43.78411906 29.91014345 43.82617188 17.51757812 C43.23592728 17.52423996 42.64568268 17.53090179 42.03755188 17.5377655 C35.88942924 17.60418115 29.74140866 17.64940462 23.59301758 17.68237305 C21.29903015 17.6974512 19.00507151 17.71791682 16.71118164 17.74389648 C13.41219983 17.7803217 10.11359948 17.79731444 6.81445312 17.81054688 C5.27825066 17.83377266 5.27825066 17.83377266 3.71101379 17.85746765 C-5.27219443 17.85958663 -5.27219443 17.85958663 -9.17382812 14.51757812 C-10.73854045 11.38815347 -10.8708477 7.90675589 -10.17382812 4.51757812 C-7.06617864 0.54567793 -4.96043592 0.01437386 0 0 Z M95.82617188 110.14257812 C93.69999504 115.1922481 92.7201751 120.19326781 94.50976562 125.57226562 C96.71352639 130.41871046 99.24555384 133.63348529 103.82617188 136.51757812 C109.74510482 138.71575084 114.87749164 139.04645755 120.78320312 136.70507812 C125.50866842 133.95834495 128.72029617 129.50116632 130.82617188 124.51757812 C131.86259288 118.10622957 130.53456501 112.8101392 126.82617188 107.51757812 C121.48633228 102.44473051 116.99246951 100.94180922 109.72070312 101.06835938 C103.77024937 101.9918441 99.41110667 105.43735121 95.82617188 110.14257812 Z " fill="#000000" transform="translate(334.173828125,302.482421875)"/>
<path d="M0 0 C1.83726906 -0.0237545 1.83726906 -0.0237545 3.71165466 -0.04798889 C5.03149857 -0.04302902 6.35134247 -0.03806915 7.71118164 -0.03295898 C9.08354616 -0.03819604 10.45590707 -0.04447283 11.82826233 -0.05174255 C14.70241246 -0.06214294 17.5760674 -0.05759187 20.45019531 -0.04296875 C24.12705676 -0.02578953 27.80235421 -0.04926407 31.4790411 -0.08445835 C34.31277247 -0.10645912 37.1461312 -0.10498455 39.97992134 -0.09669304 C41.99234725 -0.0954779 44.00475014 -0.11538995 46.01707458 -0.13563538 C47.85907188 -0.11683571 47.85907188 -0.11683571 49.73828125 -0.09765625 C51.35566444 -0.09621361 51.35566444 -0.09621361 53.00572205 -0.09474182 C57.26388505 0.81879155 58.52139454 1.86711186 60.93383789 5.53344727 C61.65502395 9.82341309 61.56464306 14.06135288 61.50146484 18.40185547 C61.50219498 19.70956406 61.50292511 21.01727264 61.50367737 22.36460876 C61.50511016 25.94305613 61.47574403 29.52066306 61.44080758 33.09891534 C61.40952051 36.84114317 61.40661152 40.58339093 61.40068054 44.32572937 C61.3851489 51.40894185 61.34413 58.49176782 61.29393309 65.57481021 C61.23801819 73.64001427 61.21054779 81.70523693 61.18545592 89.77058661 C61.13321323 106.35843298 61.04528461 122.94589078 60.93383789 139.53344727 C61.87171143 139.67065186 62.80958496 139.80785645 63.77587891 139.94921875 C71.2235499 141.32705228 77.79789122 147.56069288 82.46118164 153.32641602 C88.74858615 162.74918404 89.46118899 173.63370416 87.34399414 184.58422852 C84.40183878 194.16996049 77.48907513 201.53775112 68.95336914 206.59594727 C60.13365865 210.69020358 49.74132102 211.07278014 40.36743164 208.58813477 C29.20264116 204.1445761 23.64618179 197.46315587 18.05883789 187.03344727 C15.15658611 178.3788282 15.49399645 166.05397584 19.47680664 157.80688477 C23.99780305 150.7526759 30.03964894 143.81633048 37.93383789 140.53344727 C39.91383789 140.20344727 41.89383789 139.87344727 43.93383789 139.53344727 C43.93383789 99.27344727 43.93383789 59.01344727 43.93383789 17.53344727 C28.09383789 17.53344727 12.25383789 17.53344727 -4.06616211 17.53344727 C-10.10064487 13.91275761 -10.10064487 13.91275761 -11.06616211 10.53344727 C-10.92130871 7.05696561 -10.53836781 5.14053448 -8.39060974 2.37928772 C-5.41579742 0.01699362 -3.77135815 0.02169645 0 0 Z M39.18383789 160.84594727 C35.06323777 165.76777519 33.33200224 169.84114 33.59008789 176.22875977 C34.30022865 180.98993075 36.0824131 184.83771046 39.65258789 188.10766602 C45.22157939 192.22541608 50.07760865 193.18026134 56.93383789 192.53344727 C62.97103068 190.3275499 66.71751183 186.79833028 69.74633789 181.15844727 C71.53693419 175.69241645 71.66221661 171.65677721 69.30883789 166.40844727 C66.67061654 161.59812141 63.34337412 158.83088985 58.49633789 156.22094727 C51.03255864 154.21846991 45.04459971 155.91757937 39.18383789 160.84594727 Z " fill="#000000" transform="translate(160.066162109375,302.466552734375)"/>
<path d="M0 0 C1.87225502 -0.01902626 1.87225502 -0.01902626 3.78233337 -0.03843689 C5.1459876 -0.03638536 6.5096407 -0.03339727 7.87329102 -0.02954102 C9.27189895 -0.03410202 10.67050463 -0.03940736 12.06910706 -0.04542542 C15.0004283 -0.0543611 17.93147718 -0.05192875 20.86279297 -0.04199219 C24.61690631 -0.03050581 28.37007857 -0.05070505 32.12406826 -0.07990932 C35.01261861 -0.09826868 37.90094337 -0.09797944 40.78953743 -0.0922718 C42.17341494 -0.09211853 43.55730768 -0.09816796 44.94112968 -0.11056328 C46.87736725 -0.12546205 48.81375953 -0.11217192 50.75 -0.09765625 C51.85125717 -0.09749008 52.95251434 -0.09732391 54.08714294 -0.09715271 C57.69006031 0.53589459 58.6775851 1.57111732 60.93969727 4.40405273 C61.43188858 7.00458908 61.43188858 7.00458908 61.42071533 10.01019287 C61.42621399 11.15160233 61.43171265 12.29301178 61.43737793 13.4690094 C61.42299683 14.716978 61.40861572 15.96494659 61.39379883 17.25073242 C61.39438293 18.56804855 61.39496704 19.88536469 61.39556885 21.24259949 C61.39671652 24.85197008 61.3731993 28.46080895 61.34527302 32.07005596 C61.32026788 35.84300224 61.31791808 39.6159607 61.31317139 43.38897705 C61.30073895 50.53236201 61.26791389 57.6755021 61.22777343 64.81877923 C61.18306392 72.95169352 61.16107077 81.0846195 61.14099169 89.21762609 C61.09918135 105.94657832 61.02882429 122.67528428 60.93969727 139.40405273 C61.88280762 139.54649414 62.82591797 139.68893555 63.79760742 139.83569336 C72.34777167 141.3822965 79.02956982 148.62076155 83.93969727 155.40405273 C88.99675248 163.43836017 89.19297407 173.20824371 87.93969727 182.40405273 C84.8788075 193.80712159 79.0317839 200.57574376 68.93969727 206.40405273 C60.60575319 210.86866563 50.11893024 210.62203558 40.96704102 208.81811523 C31.99976276 205.72006981 24.72005999 198.53332929 19.87719727 190.52124023 C15.76126537 181.22609403 15.35692229 170.28677332 18.37719727 160.59155273 C21.97255445 152.06687191 29.28508371 144.00316669 37.93969727 140.40405273 C39.91969727 140.07405273 41.89969727 139.74405273 43.93969727 139.40405273 C43.93969727 99.14405273 43.93969727 58.88405273 43.93969727 17.40405273 C28.09969727 17.40405273 12.25969727 17.40405273 -4.06030273 17.40405273 C-9.06030273 14.40405273 -9.06030273 14.40405273 -10.49780273 11.52905273 C-11.14313462 7.94387561 -10.8399799 6.53967441 -9.06030273 3.40405273 C-6.47031734 -0.08139358 -4.20472784 0.02064414 0 0 Z M38.06469727 162.34155273 C34.49502494 167.48608049 33.395559 171.0920488 33.93969727 177.40405273 C36.04286066 183.82423572 39.08306355 187.52127142 44.68969727 191.21655273 C50.40800641 193.30593492 55.5752954 193.2991777 61.18969727 190.84155273 C66.23437128 188.02217404 69.13575755 183.81587189 70.93969727 178.40405273 C71.5069385 172.67709793 71.18350813 168.3256968 67.93969727 163.40405273 C63.63332655 158.26033215 59.17341271 155.81561652 52.50219727 154.96655273 C46.64342932 155.68605055 41.99297189 157.87025191 38.06469727 162.34155273 Z " fill="#000000" transform="translate(247.060302734375,302.595947265625)"/>
<path d="M0 0 C18.48657307 6.32620371 39.01936769 19.52905153 50 36 C50.53644149 39.06618661 50.53697051 41.93317873 50 45 C47.5416201 47.96451693 45.89551399 48.78109658 42.1875 49.6875 C36.66577468 48.49653964 33.20874991 44.34576913 29.42578125 40.328125 C12.18853547 22.09224785 -11.43066677 13.19786202 -36.11303711 11.94580078 C-39.89323662 11.66420095 -41.68546343 11.29719991 -44.48046875 8.65625 C-46.48674259 5.14913892 -46.57874431 2.97886712 -46 -1 C-36.70015423 -12.77980464 -11.76828771 -3.70267358 0 0 Z " fill="#000000" transform="translate(333,49)"/>
<path d="M0 0 C4.48560696 0.80100124 5.6174235 2.13556529 8.5 5.625 C9.70651939 8.23971297 10.46166177 10.90548215 11.1875 13.6875 C11.39463623 14.44264893 11.60177246 15.19779785 11.81518555 15.97583008 C14.66182887 26.6193582 16.85533862 37.56829018 15.5 48.625 C13.5 52 13.5 52 10.5 53.625 C6.77123418 54.41505533 3.66865823 54.36097896 0.34765625 52.26953125 C-2.5533247 48.11738726 -2.53844625 43.70704763 -3 38.75 C-3.88316814 30.6579798 -5.10056775 23.28475612 -7.73046875 15.5625 C-8.63537285 12.10824679 -8.76037666 9.18208113 -8.5 5.625 C-5.90783917 1.93313458 -4.45850936 0.79616239 0 0 Z " fill="#000000" transform="translate(391.5,108.375)"/>
</svg>
