<?xml version="1.0" encoding="UTF-8"?>
<svg version="1.1" xmlns="http://www.w3.org/2000/svg" width="225" height="225">
<path d="M0 0 C2.93351257 0.02914896 5.86523012 0.02052508 8.79882812 0.00756836 C27.09540868 0.02578973 27.09540868 0.02578973 35.67382812 3.46655273 C36.3818457 3.74732666 37.08986328 4.02810059 37.81933594 4.31738281 C39.81481388 5.17316705 41.7420321 6.10098981 43.67382812 7.09155273 C44.35388916 7.43927734 45.0339502 7.78700195 45.73461914 8.14526367 C62.40293098 16.96839085 73.50015899 31.65008869 79.54882812 49.40405273 C80.91748531 54.94346998 80.95193188 60.47818138 80.98632812 66.15405273 C80.9947876 67.49101196 80.9947876 67.49101196 81.00341797 68.85498047 C80.94251503 74.40076091 80.13917552 79.12604836 78.67382812 84.46655273 C78.33454228 86.92473369 78.33454228 86.92473369 78.36132812 89.09155273 C78.33619141 90.13182617 78.33619141 90.13182617 78.31054688 91.19311523 C79.38297446 97.90443628 84.36674019 103.39363894 88.29882812 108.71655273 C89.47973685 110.32503185 90.65948314 111.93436525 91.83789062 113.54467773 C92.35818848 114.25011719 92.87848633 114.95555664 93.41455078 115.68237305 C96.28129934 119.74406332 96.28632561 123.61691508 95.67382812 128.46655273 C93.60623564 131.93715441 91.5643838 134.24380667 87.67382812 135.46655273 C85.34065764 135.49411973 83.00697106 135.4963606 80.67382812 135.46655273 C80.69703125 136.51456055 80.72023437 137.56256836 80.74414062 138.64233398 C80.76290116 140.02123311 80.78110106 141.40013994 80.79882812 142.77905273 C80.81558594 143.4693457 80.83234375 144.15963867 80.84960938 144.87084961 C80.88600606 148.63790669 80.81761676 150.25086978 78.67382812 153.46655273 C78.92883043 155.8097406 79.27424041 158.14364826 79.67382812 160.46655273 C80.38135816 169.81605672 80.44851069 177.72355731 74.67382812 185.46655273 C70.34176416 190.19333779 65.98134481 193.2308722 59.43945312 193.69702148 C58.27929688 193.6828418 57.11914062 193.66866211 55.92382812 193.65405273 C54.06757813 193.6347168 54.06757813 193.6347168 52.17382812 193.61499023 C49.35044824 193.49524868 46.7058163 193.22615798 43.92382812 192.77905273 C37.63208396 191.96910806 31.92624991 193.81477676 26.86132812 197.52905273 C21.47831223 204.75767408 19.05120566 211.94696733 17.44726562 220.77905273 C16.67382812 223.46655273 16.67382812 223.46655273 13.67382812 225.46655273 C10.05310372 225.92468521 8.26134189 225.83318305 5.13867188 223.88452148 C4.30464844 223.1484668 3.470625 222.41241211 2.61132812 221.65405273 C1.66128906 220.83291992 0.71125 220.01178711 -0.26757812 219.16577148 C-1.01418701 218.50520752 -1.01418701 218.50520752 -1.77587891 217.83129883 C-4.42331865 215.50071801 -7.12959085 213.23985879 -9.82617188 210.96655273 C-10.93035666 210.02907407 -12.03452346 209.09157423 -13.13867188 208.15405273 C-16.00845391 205.72577563 -18.91056575 203.33972051 -21.82617188 200.96655273 C-26.42501145 197.22331122 -30.95673312 193.40795837 -35.47265625 189.56567383 C-39.88702225 185.81715455 -44.37040898 182.15974067 -48.88867188 178.53686523 C-50.09523438 177.51206055 -50.09523438 177.51206055 -51.32617188 176.46655273 C-52.67195313 175.46688477 -52.67195313 175.46688477 -54.04492188 174.44702148 C-57.53065059 169.89289304 -57.4035542 165.25259639 -57.82617188 159.65405273 C-59.51369319 142.45569717 -64.2363171 128.25112583 -73.38867188 113.46655273 C-83.83587987 96.38358533 -86.51428739 76.00755037 -81.82617188 56.52905273 C-74.83137538 34.56977873 -61.9870975 18.55937967 -41.51367188 7.65405273 C-28.12325222 0.78064341 -14.77345293 -0.16020305 0 0 Z M-53.32617188 32.46655273 C-53.96425781 33.08143555 -54.60234375 33.69631836 -55.25976562 34.32983398 C-66.87406625 46.40974132 -70.83825341 62.35650016 -70.74829102 78.62255859 C-70.39448824 91.61582039 -65.7786975 101.9911243 -58.81835938 112.81030273 C-50.84645362 125.33162067 -45.78944407 140.4914138 -45.16210938 155.35327148 C-44.76468397 163.15872515 -44.76468397 163.15872515 -40.69726562 169.53686523 C-37.96154734 171.98553813 -35.03685361 174.14304968 -32.03369141 176.25073242 C-29.52898163 178.03418319 -27.18716327 179.99848038 -24.82617188 181.96655273 C-23.93929687 182.68842773 -23.05242187 183.41030273 -22.13867188 184.15405273 C-19.00817119 186.72801997 -15.91459581 189.34241354 -12.82617188 191.96655273 C-3.5945769 200.52293136 -3.5945769 200.52293136 6.67382812 207.46655273 C7.38345703 205.87327148 7.38345703 205.87327148 8.10742188 204.24780273 C12.07655751 195.66018413 15.73264361 189.05479369 23.67382812 183.46655273 C21.16602657 181.79468503 19.29049277 180.85451136 16.51367188 179.84545898 C15.72025391 179.54961914 14.92683594 179.2537793 14.109375 178.94897461 C12.44183072 178.33489067 10.77254212 177.72552317 9.1015625 177.12084961 C8.30943359 176.8237207 7.51730469 176.5265918 6.70117188 176.22045898 C5.97663818 175.95563721 5.25210449 175.69081543 4.50561523 175.41796875 C2.67382813 174.46655273 2.67382813 174.46655273 0.67382812 171.46655273 C0.73632812 168.40405273 0.73632812 168.40405273 1.67382812 165.46655273 C3.6184082 164.07861328 3.6184082 164.07861328 6.67382812 163.46655273 C10.08553591 164.1930866 13.25736151 165.46203577 16.49804688 166.73608398 C17.44065872 167.09167892 18.38327057 167.44727386 19.35444641 167.81364441 C22.36301893 168.95301323 25.36193634 170.11575856 28.36132812 171.27905273 C30.39264855 172.05206458 32.42454397 172.82356726 34.45703125 173.59350586 C48.93309106 179.0961842 48.93309106 179.0961842 51.67382812 180.46655273 C54.73303387 180.88726865 57.62060272 180.9516939 60.67382812 180.46655273 C63.42952259 178.28496128 65.10971559 176.5947778 66.67382812 173.46655273 C67.10645341 167.30918824 66.70892471 162.30049627 64.67382812 156.46655273 C64.91438833 153.45955012 65.27514086 151.21228778 66.69921875 148.54858398 C67.7566512 146.28962008 67.95213048 144.75703597 68.01757812 142.27905273 C68.04722656 141.49788086 68.076875 140.71670898 68.10742188 139.91186523 C68.14029297 138.70143555 68.14029297 138.70143555 68.17382812 137.46655273 C68.21739865 135.86213229 68.26920566 134.25790993 68.33007812 132.65405273 C68.34876953 131.94635742 68.36746094 131.23866211 68.38671875 130.50952148 C68.72079877 128.13232626 69.42246226 126.50860464 70.67382812 124.46655273 C72.97012807 123.31840276 74.75080899 123.15885465 77.29882812 122.90405273 C78.11609375 122.82026367 78.93335938 122.73647461 79.77539062 122.65014648 C80.401875 122.58956055 81.02835938 122.52897461 81.67382812 122.46655273 C77.69504524 116.10533755 73.62628143 109.88072893 69.15429688 103.85327148 C64.9646154 97.09893011 65.17972219 90.16879229 65.67382812 82.46655273 C66.28143294 80.11714743 66.9451234 77.78126186 67.67382812 75.46655273 C69.97156809 62.29143823 67.37077039 49.2620758 60.07226562 37.99389648 C58.36279907 35.71851063 56.57192526 33.58655684 54.67382812 31.46655273 C54.06667969 30.7665918 53.45953125 30.06663086 52.83398438 29.34545898 C47.86730288 23.97250498 42.38371607 20.36039066 35.67382812 17.46655273 C34.91505371 17.12237305 34.1562793 16.77819336 33.37451172 16.42358398 C24.23713496 12.7835303 15.27796787 12.85660802 5.59326172 12.94506836 C2.81063147 12.96646199 0.03059757 12.94521023 -2.75195312 12.91967773 C-22.99130343 12.88777047 -38.71485237 17.90535783 -53.32617188 32.46655273 Z " fill="#000000" transform="translate(106.326171875,-0.466552734375)"/>
<path d="M0 0 C2.77971464 2.77971464 4 4.01144966 4 8 C4.969375 8.0825 5.93875 8.165 6.9375 8.25 C11.04130789 8.79327396 14.34209099 10.45154756 17.984375 12.35546875 C18.64953125 12.56816406 19.3146875 12.78085937 20 13 C20.99 12.34 21.98 11.68 23 11 C26.5625 11.1875 26.5625 11.1875 30 12 C32.17975966 15.26963949 32.36904422 16.21729678 32 20 C31.40832031 20.88171875 31.40832031 20.88171875 30.8046875 21.78125 C29.68188874 24.12117874 29.68188874 24.12117874 31.1171875 26.91015625 C31.69726562 27.95042969 32.27734375 28.99070312 32.875 30.0625 C36 35.7309417 36 35.7309417 36 39 C36.763125 38.9175 37.52625 38.835 38.3125 38.75 C41 39 41 39 42.8125 40.6875 C44.25345562 43.49357148 44.62124435 44.89377825 44 48 C41.6875 50.3125 41.6875 50.3125 39 52 C38.01 52 37.02 52 36 52 C35.9175 52.969375 35.835 53.93875 35.75 54.9375 C35.20672604 59.04130789 33.54845244 62.34209099 31.64453125 65.984375 C31.43183594 66.64953125 31.21914062 67.3146875 31 68 C31.99 69.485 31.99 69.485 33 71 C32.8125 74.5625 32.8125 74.5625 32 78 C28.73036051 80.17975966 27.78270322 80.36904422 24 80 C23.38125 79.5875 22.7625 79.175 22.125 78.75 C21.073125 78.37875 21.073125 78.37875 20 78 C18.28976235 78.9208972 16.58370968 79.85677209 14.94921875 80.90625 C11.78640292 82.68097632 8.53323734 83.25616056 5 84 C5.061875 84.763125 5.12375 85.52625 5.1875 86.3125 C5 89 5 89 3.875 90.8125 C1.05536176 92.59827089 -0.73458202 92.53312947 -4 92 C-6.375 89.6875 -6.375 89.6875 -8 87 C-8 86.01 -8 85.02 -8 84 C-8.969375 83.9175 -9.93875 83.835 -10.9375 83.75 C-15.04130789 83.20672604 -18.34209099 81.54845244 -21.984375 79.64453125 C-22.64953125 79.43183594 -23.3146875 79.21914062 -24 79 C-25.485 79.99 -25.485 79.99 -27 81 C-30.5625 80.8125 -30.5625 80.8125 -34 80 C-36 77 -36 77 -35.625 74.0625 C-35.41875 73.051875 -35.2125 72.04125 -35 71 C-35 67.13815855 -35.16856094 66.25998809 -36.9375 63.125 C-38.72341203 59.75511653 -39.61664289 56.83357106 -40 53 C-40.763125 53.0825 -41.52625 53.165 -42.3125 53.25 C-45 53 -45 53 -46.875 51.375 C-48.41486282 48.12417849 -48.08340005 46.39465348 -47 43 C-43.9 40 -43.9 40 -41 40 C-40.18667257 37.89615302 -39.37436583 35.79191143 -38.5625 33.6875 C-37.88380859 31.92986328 -37.88380859 31.92986328 -37.19140625 30.13671875 C-36.42015245 28.10617185 -35.68687358 26.06062074 -35 24 C-35.66 23.01 -36.32 22.02 -37 21 C-37.4375 18.5625 -37.4375 18.5625 -37 16 C-34.8125 13.625 -34.8125 13.625 -32 12 C-29.4375 12.25 -29.4375 12.25 -27 13 C-23.13815855 13 -22.25998809 12.83143906 -19.125 11.0625 C-15.75511653 9.27658797 -12.83357106 8.38335711 -9 8 C-9.0825 7.236875 -9.165 6.47375 -9.25 5.6875 C-9 3 -9 3 -7.3125 1.1875 C-4.50642852 -0.25345562 -3.10622175 -0.62124435 0 0 Z M-22 29 C-27.15507916 35.95303593 -28.8422586 43.06909572 -27.625 51.640625 C-25.86343323 58.8190096 -22.10976075 64.00239438 -16.15234375 68.34765625 C-9.30096294 72.27277996 -1.40525848 72.87777898 6.1875 71 C12.83784006 68.66339403 17.93050692 64.37152556 21.4375 58.25 C24.1879357 51.90189617 24.86788566 44.97692668 22.9375 38.3125 C19.78202279 30.43789393 15.46826856 25.35573013 7.63671875 21.9140625 C-3.13999625 18.17813463 -14.11657021 20.55346808 -22 29 Z " fill="#000000" transform="translate(110,30)"/>
<path d="M0 0 C4.06575732 2.78278501 6.44877969 6.51242408 7.7578125 11.203125 C8.38171409 17.5461245 7.38821225 21.91613508 3.7578125 27.203125 C-1.09959356 31.81766076 -5.2320759 33.68339959 -11.86328125 33.51953125 C-17.1033033 32.8225825 -20.96930882 30.50950049 -24.6171875 26.765625 C-27.82492816 21.70726473 -29.1412835 17.23039819 -28.2421875 11.203125 C-26.10990641 4.85238512 -22.84351758 1.14978991 -16.9296875 -2.046875 C-10.52091461 -3.83536976 -5.71802328 -3.18415414 0 0 Z M-14.1796875 11.265625 C-15.74173112 14.11405748 -14.99139774 16.13817403 -14.2421875 19.203125 C-10.16517825 20.32750193 -10.16517825 20.32750193 -6.3046875 19.140625 C-4.74264388 16.29219252 -5.49297726 14.26807597 -6.2421875 11.203125 C-10.31919675 10.07874807 -10.31919675 10.07874807 -14.1796875 11.265625 Z " fill="#000000" transform="translate(118.2421875,60.796875)"/>
</svg>
