<?xml version="1.0" encoding="UTF-8"?>
<svg version="1.1" xmlns="http://www.w3.org/2000/svg" width="225" height="225">
<path d="M0 0 C74.25 0 148.5 0 225 0 C225 74.25 225 148.5 225 225 C150.75 225 76.5 225 0 225 C0 150.75 0 76.5 0 0 Z " fill="#FEFEFE" transform="translate(0,0)"/>
<path d="M0 0 C2.66232165 0.79095428 4.81960568 1.79326621 7.24316406 3.14428711 C8.13648437 3.63147217 9.02980469 4.11865723 9.95019531 4.62060547 C10.90796875 5.14533447 11.86574219 5.67006348 12.85253906 6.21069336 C28.89911868 14.79144217 45.74697771 21.49036664 63.10253906 26.93334961 C65.60253906 27.77319336 65.60253906 27.77319336 66.60253906 28.77319336 C66.72157944 30.19577663 66.77260462 31.62414067 66.79541016 33.05151367 C66.81147308 33.96467346 66.82753601 34.87783325 66.84408569 35.81866455 C66.88899333 40.08914421 66.92978574 44.35946421 66.95263672 48.63012695 C66.96897628 50.85647189 66.99596237 53.08276946 67.03466797 55.30883789 C67.58331807 87.05898075 59.65887022 113.14608491 37.60253906 136.77319336 C28.72079865 145.03707357 18.58667712 151.65988771 7.60253906 156.77319336 C6.81878906 157.20631836 6.03503906 157.63944336 5.22753906 158.08569336 C-3.83071352 160.45809285 -11.92603286 156.28547035 -19.65136719 151.83959961 C-24.52471325 148.86326074 -28.97279393 145.36864019 -33.39746094 141.77319336 C-34.10257813 141.23307617 -34.80769531 140.69295898 -35.53417969 140.13647461 C-53.76520475 125.45550717 -65.12665141 101.5598071 -68.39746094 78.77319336 C-69.02017623 71.29226126 -69.01695443 63.79523736 -68.97387695 56.29321289 C-68.95978228 52.85460699 -68.99448758 49.41861143 -69.03222656 45.98022461 C-69.03317588 43.78881769 -69.03132905 41.59740736 -69.02636719 39.40600586 C-69.0396254 38.38113068 -69.05288361 37.35625549 -69.06654358 36.30032349 C-69.03201626 33.69436408 -68.95995022 31.31779305 -68.39746094 28.77319336 C-64.94665705 25.67505008 -60.76250629 24.85397678 -56.33496094 23.58569336 C-41.32169777 19.06740942 -13.74645086 -1.30045345 0 0 Z " fill="#FCFCFC" transform="translate(113.3974609375,33.226806640625)"/>
<path d="M0 0 C2.66232165 0.79095428 4.81960568 1.79326621 7.24316406 3.14428711 C8.13648437 3.63147217 9.02980469 4.11865723 9.95019531 4.62060547 C10.90796875 5.14533447 11.86574219 5.67006348 12.85253906 6.21069336 C28.89911868 14.79144217 45.74697771 21.49036664 63.10253906 26.93334961 C65.60253906 27.77319336 65.60253906 27.77319336 66.60253906 28.77319336 C66.72157944 30.19577663 66.77260462 31.62414067 66.79541016 33.05151367 C66.81147308 33.96467346 66.82753601 34.87783325 66.84408569 35.81866455 C66.88899333 40.08914421 66.92978574 44.35946421 66.95263672 48.63012695 C66.96897628 50.85647189 66.99596237 53.08276946 67.03466797 55.30883789 C67.58331807 87.05898075 59.65887022 113.14608491 37.60253906 136.77319336 C28.72079865 145.03707357 18.58667712 151.65988771 7.60253906 156.77319336 C6.81878906 157.20631836 6.03503906 157.63944336 5.22753906 158.08569336 C-3.83071352 160.45809285 -11.92603286 156.28547035 -19.65136719 151.83959961 C-24.52471325 148.86326074 -28.97279393 145.36864019 -33.39746094 141.77319336 C-34.10257813 141.23307617 -34.80769531 140.69295898 -35.53417969 140.13647461 C-53.76520475 125.45550717 -65.12665141 101.5598071 -68.39746094 78.77319336 C-69.02017623 71.29226126 -69.01695443 63.79523736 -68.97387695 56.29321289 C-68.95978228 52.85460699 -68.99448758 49.41861143 -69.03222656 45.98022461 C-69.03317588 43.78881769 -69.03132905 41.59740736 -69.02636719 39.40600586 C-69.0396254 38.38113068 -69.05288361 37.35625549 -69.06654358 36.30032349 C-69.03201626 33.69436408 -68.95995022 31.31779305 -68.39746094 28.77319336 C-64.94665705 25.67505008 -60.76250629 24.85397678 -56.33496094 23.58569336 C-41.32169777 19.06740942 -13.74645086 -1.30045345 0 0 Z M-19.47607422 16.11303711 C-24.52455335 18.98197059 -29.8681527 21.05063267 -35.27246094 23.14819336 C-36.25722412 23.5392627 -37.2419873 23.93033203 -38.2565918 24.33325195 C-46.20718184 27.43968224 -54.28504661 30.12732811 -62.39746094 32.77319336 C-62.47265396 38.46164184 -62.52654591 44.14978943 -62.56225586 49.83862305 C-62.57717134 51.7664088 -62.59751099 53.69416169 -62.6237793 55.62182617 C-62.98483421 82.83545568 -57.20281646 108.10573751 -37.88891602 128.29003906 C-36.40552646 129.79906457 -34.90637756 131.28973711 -33.39746094 132.77319336 C-32.63433594 133.5350293 -31.87121094 134.29686523 -31.08496094 135.08178711 C-23.47288728 142.26008451 -12.31970192 150.5370789 -1.89746094 152.39819336 C12.7342418 151.75596213 27.73197286 137.26769899 37.14160156 127.50756836 C48.00311138 115.43922411 55.02549051 100.5334568 58.60253906 84.77319336 C58.7700769 84.05719971 58.93761475 83.34120605 59.11022949 82.60351562 C60.44416884 76.52527967 60.87178513 70.81947841 60.79785156 64.60913086 C60.79360672 63.23200424 60.79360672 63.23200424 60.78927612 61.82705688 C60.77820305 58.933962 60.75312374 56.0411925 60.72753906 53.14819336 C60.71749258 51.17033329 60.70836967 49.1924683 60.70019531 47.21459961 C60.67830611 42.40067477 60.64386738 37.58698896 60.60253906 32.77319336 C59.9196582 32.54768799 59.23677734 32.32218262 58.53320312 32.08984375 C46.84428311 28.20430577 35.20812725 24.29521072 23.97753906 19.21069336 C23.16631592 18.85209229 22.35509277 18.49349121 21.51928711 18.12402344 C17.6280349 16.35613708 14.0632663 14.48532542 10.55175781 12.04272461 C-1.50159076 3.97450216 -7.9852098 9.05904029 -19.47607422 16.11303711 Z " fill="#050505" transform="translate(113.3974609375,33.226806640625)"/>
<path d="M0 0 C3.52918496 2.55302742 4.75520504 4.222416 6.0625 8.375 C5.91224152 17.08999205 -1.39141981 22.83073391 -7.18359375 28.58203125 C-8.07611343 29.47742111 -8.96863312 30.37281097 -9.88819885 31.29533386 C-11.76995376 33.17912398 -13.65441484 35.05961732 -15.54418945 36.93530273 C-17.9596966 39.33366994 -20.36141633 41.74532444 -22.7593832 44.16121387 C-25.06016262 46.47546154 -27.37236468 48.77822671 -29.68359375 51.08203125 C-30.54206406 51.94657425 -31.40053436 52.81111725 -32.28501892 53.70185852 C-33.09258133 54.49996445 -33.90014374 55.29807037 -34.73217773 56.12036133 C-35.43737045 56.82316727 -36.14256317 57.52597321 -36.86912537 58.25007629 C-39.95428533 60.78368126 -42.93317447 61.78663489 -46.8125 62.5625 C-50.29597239 61.94776958 -51.06941586 61.3249565 -53.609375 59.01953125 C-54.66282104 58.06566528 -54.66282104 58.06566528 -55.73754883 57.0925293 C-56.48415771 56.40199463 -57.2307666 55.71145996 -58 55 C-58.76530029 54.30108643 -59.53060059 53.60217285 -60.3190918 52.88208008 C-62.72217447 50.65963181 -65.0819025 48.39764034 -67.4375 46.125 C-68.25154297 45.37347656 -69.06558594 44.62195313 -69.90429688 43.84765625 C-74.40952543 39.46642481 -76.92845047 36.37170324 -77.30810547 29.98974609 C-76.73231941 26.27131788 -74.70683537 24.51798639 -72 22 C-68.69373732 20.34686866 -65.54568386 20.23842706 -62 21 C-58.26379774 23.4118022 -55.30787495 26.58363773 -52.3046875 29.8359375 C-50.94179 31.29471723 -49.4772006 32.65709037 -48 34 C-44.63619853 33.7344326 -42.97565068 32.33790068 -40.671875 29.98071289 C-40.04442383 29.34657974 -39.41697266 28.71244659 -38.77050781 28.05909729 C-38.10374023 27.37057175 -37.43697266 26.6820462 -36.75 25.97265625 C-36.05487305 25.26854111 -35.35974609 24.56442596 -34.64355469 23.838974 C-32.42177695 21.5871575 -30.21014219 19.32573365 -28 17.0625 C-25.78902782 14.80370353 -23.57588689 12.54721418 -21.35644531 10.29673767 C-19.9756367 8.89617436 -18.59978767 7.49070016 -17.22949219 6.07984924 C-16.60204102 5.44256393 -15.97458984 4.80527863 -15.328125 4.14868164 C-14.7805957 3.58766251 -14.23306641 3.02664337 -13.66894531 2.44862366 C-9.38528203 -1.2695425 -5.40214549 -1.63993702 0 0 Z " fill="#090909" transform="translate(148,82)"/>
<path d="M0 0 C0.99 0.99 0.99 0.99 2 2 C1.75559561 6.35186279 0.11444476 8.39345298 -2.88964844 11.4230957 C-3.71430603 12.26358963 -4.53896362 13.10408356 -5.38861084 13.970047 C-6.28646301 14.8629393 -7.18431519 15.7558316 -8.109375 16.67578125 C-9.02833557 17.6009404 -9.94729614 18.52609955 -10.894104 19.47929382 C-12.83784602 21.43342991 -14.78887155 23.37991716 -16.74511719 25.3215332 C-19.25007401 27.80928397 -21.7340829 30.31683377 -24.21279526 32.83070087 C-26.58323356 35.22838427 -28.97215716 37.60730306 -31.359375 39.98828125 C-32.24913025 40.89129471 -33.1388855 41.79430817 -34.05560303 42.72468567 C-34.89286926 43.54941879 -35.7301355 44.37415192 -36.59277344 45.22387695 C-37.69078278 46.32044365 -37.69078278 46.32044365 -38.81097412 47.43916321 C-41.46615832 49.33238395 -42.80473966 49.47184719 -46 49 C-48.49536133 47.15161133 -48.49536133 47.15161133 -51.08203125 44.58203125 C-52.01337891 43.65712891 -52.94472656 42.73222656 -53.90429688 41.77929688 C-54.38116943 41.29195068 -54.85804199 40.80460449 -55.34936523 40.30249023 C-56.80798815 38.81709467 -58.29135796 37.36025826 -59.77929688 35.90429688 C-60.70419922 34.97294922 -61.62910156 34.04160156 -62.58203125 33.08203125 C-63.42999268 32.22843018 -64.2779541 31.3748291 -65.15161133 30.49536133 C-67 28 -67 28 -67.40112305 25.30737305 C-67 23 -67 23 -65 21 C-60.94918571 21.27299593 -59.07022672 22.46797715 -56.37109375 25.4140625 C-55.72849609 26.09210938 -55.08589844 26.77015625 -54.42382812 27.46875 C-53.09392207 28.91242383 -51.76581025 30.35775246 -50.43945312 31.8046875 C-49.79814453 32.48015625 -49.15683594 33.155625 -48.49609375 33.8515625 C-47.92044678 34.47885254 -47.3447998 35.10614258 -46.75170898 35.75244141 C-45.09952303 37.22233265 -45.09952303 37.22233265 -43.1204834 36.79161072 C-40.51855319 35.82026813 -39.2480226 34.57733377 -37.32055664 32.58178711 C-36.61625015 31.86111557 -35.91194366 31.14044403 -35.18629456 30.39793396 C-34.05960609 29.22449181 -34.05960609 29.22449181 -32.91015625 28.02734375 C-31.30559564 26.38972201 -29.70076979 24.75236012 -28.09570312 23.11523438 C-25.57203089 20.5231486 -23.05253911 17.9271942 -20.53833008 15.32592773 C-18.11053052 12.8198044 -15.6676516 10.32917656 -13.22265625 7.83984375 C-12.47355484 7.05552475 -11.72445343 6.27120575 -10.95265198 5.46311951 C-10.24519333 4.74560013 -9.53773468 4.02808075 -8.80883789 3.28881836 C-8.19246964 2.65229843 -7.57610138 2.0157785 -6.9410553 1.35997009 C-4.44597006 -0.38817243 -2.98558428 -0.41345202 0 0 Z " fill="#F8F8F8" transform="translate(145,88)"/>
<path d="M0 0 C0.33 1.65 0.66 3.3 1 5 C-4.90148454 7.74844552 -10.79416842 10.02989474 -17 12 C-17.33 16.29 -17.66 20.58 -18 25 C-19.32 25.33 -20.64 25.66 -22 26 C-24.92793181 23.07206819 -24.40647784 19.98163289 -24.4375 16.0625 C-24.47037109 15.33353516 -24.50324219 14.60457031 -24.53710938 13.85351562 C-24.55859375 11.72265625 -24.55859375 11.72265625 -24 8 C-21.91015625 6.1640625 -21.91015625 6.1640625 -19 5 C-17.88625 4.54238281 -16.7725 4.08476563 -15.625 3.61328125 C-14.42875 3.18402344 -13.2325 2.75476563 -12 2.3125 C-10.80375 1.87550781 -9.6075 1.43851562 -8.375 0.98828125 C-5.34546506 0.10116049 -3.12042785 -0.21866635 0 0 Z " fill="#050505" transform="translate(82,64)"/>
<path d="M0 0 C1.32 0.33 2.64 0.66 4 1 C4.765625 2.6171875 4.765625 2.6171875 5 5 C3.67078292 7.24991332 2.37916111 9.11132008 0.75 11.125 C0.30052002 11.69178467 -0.14895996 12.25856934 -0.61206055 12.8425293 C-5.13279951 18.39889727 -10.0582432 23.9566847 -16 28 C-18.82421875 28.26171875 -18.82421875 28.26171875 -21 28 C-21.7265625 26.24609375 -21.7265625 26.24609375 -22 24 C-20.5234375 22.03515625 -20.5234375 22.03515625 -18.375 20.0625 C-17.68148437 19.41410156 -16.98796875 18.76570313 -16.2734375 18.09765625 C-15.52320313 17.40542969 -14.77296875 16.71320313 -14 16 C-10.46030377 12.57773446 -7.27973644 9.01818097 -4.1875 5.1875 C-3.39730469 4.21167969 -2.60710937 3.23585937 -1.79296875 2.23046875 C-1.20128906 1.49441406 -0.60960937 0.75835937 0 0 Z " fill="#0C0C0C" transform="translate(149,140)"/>
<path d="M0 0 C2.125 0.375 2.125 0.375 4 1 C4.625 2.875 4.625 2.875 5 5 C4.34 5.66 3.68 6.32 3 7 C0.875 6.625 0.875 6.625 -1 6 C-1.625 4.125 -1.625 4.125 -2 2 C-1.34 1.34 -0.68 0.68 0 0 Z " fill="#131313" transform="translate(121,167)"/>
<path d="M0 0 C1.65 0.33 3.3 0.66 5 1 C4.67 2.65 4.34 4.3 4 6 C2.35 5.67 0.7 5.34 -1 5 C-0.67 3.35 -0.34 1.7 0 0 Z " fill="#070707" transform="translate(87,60)"/>
</svg>
