<?xml version="1.0" standalone="no"?>
<!DOCTYPE svg PUBLIC "-//W3C//DTD SVG 20010904//EN"
 "http://www.w3.org/TR/2001/REC-SVG-20010904/DTD/svg10.dtd">
<svg version="1.0" xmlns="http://www.w3.org/2000/svg"
 width="512.000000pt" height="512.000000pt" viewBox="0 0 512.000000 512.000000"
 preserveAspectRatio="xMidYMid meet">

<g transform="translate(0.000000,512.000000) scale(0.100000,-0.100000)"
fill="#000000" stroke="none">
<path d="M480 4227 c-49 -16 -133 -102 -148 -153 -17 -60 -17 -2968 0 -3028
16 -55 99 -138 154 -154 60 -18 4088 -18 4148 0 55 16 138 99 154 154 17 60
17 2968 0 3028 -16 55 -99 138 -154 154 -57 16 -4101 16 -4154 -1z m723 -284
c-31 -95 -53 -145 -70 -160 -24 -23 -26 -23 -339 -23 l-314 0 0 135 c0 131 1
137 25 160 l24 25 360 0 360 0 -46 -137z m971 115 c16 -16 38 -64 66 -153 53
-162 80 -217 125 -251 73 -55 23 -53 1193 -54 l1082 0 0 -1255 0 -1256 -25
-24 -24 -25 -2031 0 -2031 0 -24 25 -25 24 0 1255 0 1255 338 3 337 3 47 27
c71 43 93 79 149 248 36 109 58 162 75 178 25 22 26 22 374 22 348 0 349 0
374 -22z m2441 -3 c24 -23 25 -29 25 -160 l0 -135 -1074 0 -1075 0 -24 23
c-17 15 -39 65 -70 160 l-46 137 1120 0 1120 0 24 -25z"/>
<path d="M1385 3735 c-16 -15 -25 -36 -25 -55 0 -19 9 -40 25 -55 l24 -25 391
0 391 0 24 25 c16 15 25 36 25 55 0 19 -9 40 -25 55 l-24 25 -391 0 -391 0
-24 -25z"/>
<path d="M2850 3134 c-352 -107 -633 -160 -905 -170 -180 -6 -241 -19 -302
-64 -136 -100 -166 -461 -51 -627 33 -49 112 -98 171 -108 27 -5 37 -11 33
-21 -15 -40 -28 -201 -23 -294 10 -177 44 -247 142 -295 68 -34 121 -31 212
10 102 45 163 127 163 219 0 17 -9 62 -19 100 -11 39 -22 84 -26 100 l-6 29
47 -42 c59 -51 110 -57 143 -15 30 38 26 71 -13 110 -19 19 -30 34 -25 34 28
0 227 -49 392 -96 103 -30 204 -54 223 -54 72 0 145 57 163 129 19 68 34 412
27 601 -12 344 -26 407 -102 459 -54 37 -110 36 -244 -5z m172 -179 c15 -111
20 -512 9 -670 -7 -88 -15 -163 -20 -168 -4 -4 -84 15 -177 42 -348 101 -609
147 -884 158 -193 7 -212 13 -243 81 -18 40 -21 65 -21 162 1 200 33 240 188
240 120 0 292 16 446 41 122 20 484 109 605 148 83 27 89 25 97 -34z m-991
-801 l36 -6 7 -77 c8 -85 18 -140 42 -223 24 -81 15 -104 -52 -135 -65 -29
-96 -23 -116 24 -17 40 -16 284 1 361 15 66 15 67 82 56z"/>
<path d="M3478 2990 c-53 -28 -102 -59 -108 -69 -26 -49 0 -103 56 -117 20 -5
50 5 126 42 55 27 106 58 114 69 35 49 -4 126 -63 124 -15 0 -72 -22 -125 -49z"/>
<path d="M3385 2615 c-16 -15 -25 -36 -25 -55 0 -19 9 -40 25 -55 23 -24 31
-25 135 -25 104 0 112 1 135 25 16 15 25 36 25 55 0 19 -9 40 -25 55 -23 24
-31 25 -135 25 -104 0 -112 -1 -135 -25z"/>
<path d="M3385 2295 c-26 -25 -32 -63 -15 -96 13 -24 200 -119 235 -119 54 0
92 70 65 121 -13 24 -200 119 -235 119 -14 0 -37 -11 -50 -25z"/>
<path d="M3705 3975 c-16 -15 -25 -36 -25 -55 0 -19 9 -40 25 -55 21 -22 33
-25 95 -25 62 0 74 3 95 25 16 15 25 36 25 55 0 19 -9 40 -25 55 -21 22 -33
25 -95 25 -62 0 -74 -3 -95 -25z"/>
<path d="M4025 3975 c-16 -15 -25 -36 -25 -55 0 -19 9 -40 25 -55 21 -22 33
-25 95 -25 62 0 74 3 95 25 16 15 25 36 25 55 0 19 -9 40 -25 55 -21 22 -33
25 -95 25 -62 0 -74 -3 -95 -25z"/>
<path d="M4345 3975 c-16 -15 -25 -36 -25 -55 0 -19 9 -40 25 -55 21 -22 33
-25 95 -25 62 0 74 3 95 25 16 15 25 36 25 55 0 19 -9 40 -25 55 -21 22 -33
25 -95 25 -62 0 -74 -3 -95 -25z"/>
</g>
</svg>
