<?xml version="1.0" standalone="no"?>
<!DOCTYPE svg PUBLIC "-//W3C//DTD SVG 20010904//EN"
 "http://www.w3.org/TR/2001/REC-SVG-20010904/DTD/svg10.dtd">
<svg version="1.0" xmlns="http://www.w3.org/2000/svg"
 width="512.000000pt" height="512.000000pt" viewBox="0 0 512.000000 512.000000"
 preserveAspectRatio="xMidYMid meet">

<g transform="translate(0.000000,512.000000) scale(0.100000,-0.100000)"
fill="#000000" stroke="none">
<path d="M3749 4892 l-136 -38 -242 -173 c-133 -95 -248 -170 -254 -168 -7 3
-102 82 -212 177 -110 94 -218 181 -240 193 -55 29 -155 30 -210 0 -22 -12
-535 -448 -1140 -970 -1002 -864 -1102 -953 -1127 -1002 l-28 -55 0 -1244 c0
-948 3 -1254 12 -1286 16 -55 99 -138 154 -154 32 -9 542 -12 2236 -12 2476 0
2252 -8 2331 80 26 29 49 67 56 92 9 32 11 355 9 1293 l-3 1250 -23 42 c-15
30 -91 102 -256 244 l-233 202 -197 735 c-125 465 -204 746 -217 764 -11 15
-33 35 -48 42 -54 29 -91 27 -232 -12z m360 -900 c112 -419 201 -765 198 -768
-9 -9 -140 -45 -145 -40 -4 5 -412 1523 -412 1536 0 10 107 39 135 37 17 -2
43 -92 224 -765z m-1523 751 c19 -7 387 -319 392 -332 1 -5 -105 -85 -237
-180 l-240 -171 -263 -70 c-330 -88 -373 -106 -458 -187 -165 -155 -206 -384
-102 -577 43 -80 129 -161 217 -203 68 -32 88 -37 173 -41 70 -3 115 0 161 12
36 9 67 13 71 9 4 -5 39 -132 79 -283 40 -151 81 -288 91 -305 114 -186 396
-142 440 69 13 62 18 37 -72 374 -38 145 -68 265 -65 268 2 2 303 -25 669 -61
l666 -64 118 30 c145 37 174 49 205 83 l24 26 140 -120 c77 -66 140 -124 140
-129 0 -11 -1511 -1221 -1525 -1221 -6 0 -124 91 -263 202 -138 112 -268 211
-287 220 -46 24 -154 24 -200 0 -19 -9 -149 -109 -289 -221 -202 -162 -257
-201 -271 -195 -22 11 -1519 1207 -1520 1214 0 3 55 53 123 111 193 166 559
481 712 614 661 571 1294 1113 1310 1123 23 13 37 15 61 5z m1212 -826 c106
-397 192 -727 192 -733 0 -8 -15 -10 -42 -7 -24 2 -290 28 -591 57 -301 30
-549 55 -551 57 -1 2 -42 152 -90 333 -83 311 -87 329 -69 341 10 7 225 162
478 343 253 182 465 331 470 331 6 1 97 -324 203 -722z m-1233 -345 c46 -171
74 -296 69 -301 -20 -18 -479 -132 -534 -133 -118 -2 -231 68 -288 176 -23 44
-27 63 -27 141 0 78 4 97 27 140 31 59 87 115 143 144 60 30 519 150 526 137
3 -6 41 -143 84 -304z m122 -765 c66 -250 72 -280 61 -305 -19 -39 -61 -57
-99 -42 -16 7 -34 20 -38 29 -10 17 -151 540 -151 557 0 11 104 42 134 40 16
-1 30 -42 93 -279z m-908 -1247 c0 -6 -1436 -1154 -1450 -1158 -5 -2 -9 434
-9 1162 l0 1166 729 -582 c402 -321 730 -585 730 -588z m3016 -1158 c-4 -5
-1454 1149 -1454 1158 0 3 327 266 727 586 l727 580 3 -1160 c1 -637 0 -1161
-3 -1164z m-1181 733 l1019 -815 -2072 0 -2072 0 1018 815 c915 733 1021 815
1053 815 31 0 138 -82 1054 -815z"/>
<path d="M4383 4718 c-72 -73 -134 -143 -138 -155 -7 -26 17 -78 40 -87 51
-19 68 -9 208 132 148 149 156 165 116 216 -15 20 -29 26 -57 26 -34 0 -47
-10 -169 -132z"/>
<path d="M4620 4214 c-92 -25 -172 -52 -182 -62 -45 -47 -12 -132 51 -132 48
0 350 86 371 105 31 28 27 88 -6 114 -15 12 -36 21 -48 20 -11 0 -95 -20 -186
-45z"/>
<path d="M4529 3690 c-9 -5 -22 -23 -29 -40 -16 -39 1 -84 38 -99 46 -19 323
-91 348 -91 53 0 90 71 64 119 -12 24 -37 33 -215 81 -157 42 -180 45 -206 30z"/>
</g>
</svg>
