<?xml version="1.0" standalone="no"?>
<!DOCTYPE svg PUBLIC "-//W3C//DTD SVG 20010904//EN"
 "http://www.w3.org/TR/2001/REC-SVG-20010904/DTD/svg10.dtd">
<svg version="1.0" xmlns="http://www.w3.org/2000/svg"
 width="512.000000pt" height="512.000000pt" viewBox="0 0 512.000000 512.000000"
 preserveAspectRatio="xMidYMid meet">

<g transform="translate(0.000000,512.000000) scale(0.100000,-0.100000)"
fill="#000000" stroke="none">
<path d="M3059 5026 c-111 -40 -191 -133 -206 -241 l-6 -45 -847 0 c-744 0
-853 -2 -901 -16 -109 -32 -202 -112 -255 -219 l-29 -60 -3 -222 -3 -223 -193
0 c-243 0 -276 -8 -356 -88 -91 -92 -90 -85 -90 -572 0 -486 -1 -481 89 -571
82 -82 111 -89 353 -89 l198 0 0 -1133 c0 -1096 1 -1136 19 -1190 38 -111 109
-188 221 -241 l65 -31 1086 0 1085 0 76 38 c88 43 152 107 195 195 l28 57 3
667 3 667 39 11 c22 5 59 15 83 21 54 14 87 44 87 80 0 15 -25 120 -55 233
-30 112 -55 209 -55 214 0 18 169 35 269 28 131 -9 261 -38 261 -58 0 -7 9
-31 21 -55 23 -48 77 -83 128 -83 60 0 158 39 190 75 48 55 47 79 -8 282 l-49
181 49 51 c72 75 95 166 65 265 -28 91 -108 166 -200 187 l-52 11 -43 167
c-55 209 -67 232 -127 262 l-48 23 -70 -19 c-94 -23 -120 -38 -146 -81 -20
-31 -22 -45 -17 -98 l6 -63 -47 -45 c-26 -24 -66 -59 -89 -76 -45 -35 -173
-112 -185 -112 -5 0 -7 136 -6 303 l3 302 275 5 275 5 53 30 c64 35 96 71 131
145 l26 55 0 425 0 425 -24 53 c-32 71 -115 147 -183 167 -70 21 -1032 22
-1089 1z m1056 -160 c19 -8 44 -30 55 -48 19 -32 20 -49 20 -444 0 -401 -1
-412 -21 -438 -39 -50 -44 -51 -391 -56 l-327 -5 -66 -65 -65 -64 0 40 c0 66
-31 87 -138 94 -61 3 -96 11 -116 23 -54 36 -56 51 -56 479 0 375 1 395 20
426 11 18 34 41 52 52 32 19 52 20 516 20 397 0 489 -3 517 -14z m-2354 -353
c30 -37 76 -81 103 -98 l49 -30 276 -3 c179 -2 289 1 313 8 49 14 89 49 144
126 l46 64 79 0 79 0 0 -303 c0 -353 4 -376 76 -457 56 -61 108 -90 180 -97
l54 -6 0 -99 c0 -97 1 -100 29 -129 49 -49 74 -39 173 65 l67 71 1 -290 0
-290 -243 -64 c-133 -35 -259 -73 -279 -84 -21 -11 -50 -38 -64 -59 -47 -67
-44 -105 27 -368 60 -225 64 -235 103 -276 53 -55 108 -71 186 -54 30 7 63 13
73 14 14 1 38 -41 108 -189 l89 -189 0 -508 0 -508 -115 0 -115 0 0 318 c0
174 -5 351 -10 392 -32 246 -257 429 -528 430 l-43 0 40 53 c79 104 132 251
150 410 23 202 -29 360 -163 493 -111 111 -240 164 -399 164 -256 0 -479 -177
-543 -430 -21 -84 -14 -253 15 -364 25 -93 86 -224 131 -281 l32 -40 -77 -7
c-157 -15 -258 -59 -356 -157 -67 -68 -110 -141 -128 -222 -6 -25 -11 -197
-11 -401 l0 -358 -170 0 -170 0 0 960 c0 908 1 960 18 960 9 0 71 -57 137
-127 106 -111 124 -126 153 -126 20 0 42 8 57 23 24 22 25 30 25 127 l0 103
35 0 c89 0 199 73 249 165 20 39 21 52 24 474 3 508 4 500 -87 592 -84 84
-107 89 -383 89 l-228 0 0 195 c0 150 3 204 15 231 28 67 79 117 144 140 26
10 111 13 307 14 l271 0 54 -67z m714 47 c-17 -19 -31 -20 -265 -20 -232 0
-249 1 -271 20 -24 19 -24 19 265 20 288 0 289 0 271 -20z m-1040 -734 c19 -8
44 -30 55 -48 19 -32 20 -49 20 -436 0 -445 0 -444 -63 -482 -25 -15 -50 -20
-110 -20 -73 0 -80 -2 -108 -29 -22 -22 -29 -39 -29 -68 l-1 -38 -52 57 c-29
31 -62 61 -74 67 -14 7 -128 11 -333 11 -344 0 -353 1 -390 63 -19 30 -20 53
-20 436 0 387 1 405 20 436 40 65 33 65 568 65 398 0 489 -3 517 -14z m2843
-969 c84 -314 153 -575 152 -578 0 -5 -50 -20 -50 -15 0 0 -69 260 -154 576
-111 412 -151 577 -143 582 37 24 40 16 195 -565z m-209 -50 c52 -193 96 -358
99 -366 4 -11 -1 -13 -19 -8 -75 20 -255 30 -357 18 -59 -6 -116 -14 -128 -17
-19 -5 -24 11 -83 231 -34 130 -61 238 -59 240 2 2 38 16 80 33 96 37 215 106
293 171 33 27 65 50 70 50 6 1 52 -158 104 -352z m385 119 c18 -38 20 -64 7
-85 -9 -14 -14 -2 -37 92 -9 38 10 34 30 -7z m-2092 -78 c59 -12 153 -72 196
-124 44 -52 79 -128 90 -191 9 -51 8 -53 -13 -53 -40 0 -179 40 -242 69 -34
16 -98 54 -143 85 -46 31 -93 56 -105 56 -13 0 -82 -36 -155 -80 -73 -44 -134
-80 -136 -80 -2 0 3 20 10 45 32 105 109 196 208 246 92 46 170 54 290 27z
m1065 -224 c34 -126 60 -230 59 -231 -1 -1 -85 -25 -188 -52 -158 -43 -218
-53 -218 -36 0 2 -25 96 -55 209 -59 218 -61 231 -44 242 17 10 363 103 374
100 5 -2 38 -106 72 -232z m-1204 -164 c102 -63 209 -105 326 -127 50 -10 91
-23 91 -29 0 -24 -44 -143 -73 -198 -68 -128 -167 -196 -297 -204 -153 -9
-266 67 -345 233 -53 109 -76 203 -54 216 8 4 68 41 134 82 66 41 124 75 128
76 5 1 45 -22 90 -49z m1357 -408 c24 -89 41 -164 39 -166 -2 -3 -16 -7 -30
-11 -24 -6 -28 0 -104 159 -43 91 -77 167 -74 169 2 2 29 10 59 18 37 10 57
11 61 4 3 -5 25 -83 49 -173z m-755 -341 c78 -31 164 -116 190 -186 17 -44 19
-89 23 -407 l4 -358 -101 0 -101 0 0 218 c0 176 -3 222 -15 239 -31 44 -111
37 -134 -13 -7 -16 -11 -100 -11 -234 l0 -210 -430 0 -430 0 0 220 0 221 -25
24 c-33 33 -70 32 -106 -4 l-29 -29 0 -216 0 -216 -95 0 -95 0 0 355 c0 333 1
358 21 409 35 96 143 184 253 206 22 4 262 8 531 7 l490 -2 60 -24z m605
-1198 c0 -64 -6 -99 -19 -128 -23 -51 -98 -118 -149 -133 -29 -9 -308 -12
-1068 -12 l-1029 0 -50 24 c-104 49 -145 119 -145 251 l0 85 1230 0 1230 0 0
-87z"/>
<path d="M3212 4630 c-30 -28 -30 -90 -1 -116 20 -18 43 -19 385 -22 l365 -3
29 30 c37 36 39 73 5 106 l-24 25 -369 0 c-357 0 -369 -1 -390 -20z"/>
<path d="M3210 4240 c-26 -26 -26 -80 -1 -111 l19 -24 372 0 372 0 24 28 c31
36 31 71 -1 102 l-24 25 -371 0 c-357 0 -371 -1 -390 -20z"/>
<path d="M862 3715 c-11 -13 -38 -60 -61 -104 -23 -44 -49 -82 -59 -85 -9 -2
-53 -10 -97 -17 -96 -14 -133 -31 -141 -64 -10 -42 3 -67 79 -150 l74 -80 -15
-108 c-17 -123 -11 -148 42 -167 28 -10 41 -6 134 40 l103 50 87 -44 c96 -48
114 -53 153 -43 47 12 55 44 38 166 l-15 108 78 83 c61 64 78 89 78 112 0 63
-25 79 -150 98 -41 6 -83 14 -93 17 -10 2 -36 41 -58 86 -54 107 -72 127 -120
127 -28 0 -42 -6 -57 -25z m88 -276 c22 -42 66 -69 115 -69 14 0 25 -3 25 -6
0 -4 -16 -25 -36 -47 -36 -39 -36 -41 -30 -99 3 -33 2 -58 -2 -56 -88 39 -100
41 -144 23 -24 -9 -48 -19 -55 -22 -8 -3 -10 12 -6 55 5 57 4 60 -32 101 -21
23 -36 43 -34 45 2 1 27 7 54 12 45 8 53 14 80 56 17 26 33 48 37 48 4 0 17
-18 28 -41z"/>
<path d="M1965 475 c-16 -15 -25 -36 -25 -55 0 -19 9 -40 25 -55 24 -25 24
-25 235 -25 211 0 211 0 235 25 16 15 25 36 25 55 0 19 -9 40 -25 55 -24 25
-24 25 -235 25 -211 0 -211 0 -235 -25z"/>
<path d="M4582 3405 c-30 -22 -102 -148 -102 -180 0 -54 70 -92 120 -65 27 14
100 147 100 181 0 36 -39 79 -72 79 -13 0 -33 -7 -46 -15z"/>
<path d="M4770 3070 c-37 -11 -72 -28 -82 -40 -35 -43 -14 -111 37 -124 36 -9
182 32 206 57 26 29 25 78 -4 105 -28 27 -68 27 -157 2z"/>
<path d="M4655 2725 c-27 -26 -33 -71 -12 -98 19 -25 149 -97 175 -97 35 0 58
16 72 50 21 50 1 80 -84 128 -85 48 -117 52 -151 17z"/>
</g>
</svg>
