<svg version="1.1" id="Layer_1" xmlns="http://www.w3.org/2000/svg" xmlns:xlink="http://www.w3.org/1999/xlink" x="0px" y="0px"
	 width="100%" viewBox="0 0 512 512" enable-background="new 0 0 512 512" xml:space="preserve">
<path fill="#000000" opacity="1.000000" stroke="none" 
	d="
M1.000000,198.000000 
	C1.000000,137.645767 1.000000,77.291542 1.282055,16.294310 
	C4.562707,8.980830 10.396466,5.103835 16.000000,1.000000 
	C49.020893,1.000000 82.041786,1.000000 115.834541,1.156291 
	C122.911560,3.920245 128.217346,7.533209 131.293381,14.029864 
	C133.642944,18.992210 134.335358,24.169289 134.340927,29.470282 
	C134.393768,79.783180 134.375290,130.096146 134.364288,180.409103 
	C134.363235,185.219620 134.239822,189.984100 133.502731,194.800507 
	C131.537476,207.642380 121.964249,216.329773 108.975266,216.386383 
	C100.145676,216.424850 91.311333,216.560440 82.487900,216.324310 
	C78.040840,216.205292 75.945793,217.577652 76.314697,222.298111 
	C76.599411,225.941055 76.615349,229.644302 76.311966,233.284164 
	C75.915421,238.041702 77.621414,239.836761 82.538986,239.713074 
	C93.860565,239.428268 105.199783,239.401550 116.521324,239.687134 
	C127.224968,239.957123 137.598328,239.596649 147.572311,234.682693 
	C151.412750,232.790558 154.198837,230.879669 155.974457,226.975830 
	C160.624115,216.753265 167.861313,208.375107 177.013550,202.171158 
	C195.727127,189.485916 216.275864,186.996155 237.752121,193.766022 
	C241.489716,194.944229 243.191147,193.821518 245.175064,191.313156 
	C261.223907,171.021835 282.608459,162.906235 307.756958,165.885330 
	C339.745941,169.674744 363.921783,196.907257 365.310791,229.378067 
	C365.454926,232.747482 366.738342,234.558762 369.810974,235.639954 
	C375.513947,237.646744 380.628540,240.724197 385.062286,244.852478 
	C387.276306,246.914017 389.839050,247.669235 392.813110,247.642090 
	C400.476044,247.572128 408.144684,247.456284 415.801758,247.678665 
	C420.107574,247.803741 421.708191,246.234695 421.682312,241.873825 
	C421.545746,218.883942 421.552216,195.892456 421.683350,172.902496 
	C421.706909,168.768723 420.206238,167.278183 416.117828,167.353180 
	C406.625031,167.527344 397.126617,167.398651 387.630463,167.384293 
	C379.640686,167.372208 379.640686,167.366943 379.622040,159.628799 
	C379.595856,148.756638 379.596100,148.773773 390.366791,148.610779 
	C392.307861,148.581406 394.837524,149.273697 395.831787,147.148682 
	C397.427185,143.738739 397.123566,139.867996 396.133606,136.412567 
	C395.337463,133.633636 392.239349,134.550308 389.995605,134.415787 
	C383.205505,134.008713 376.404419,134.993118 369.596832,133.634735 
	C354.390900,130.600586 346.749329,121.755981 346.672760,105.950607 
	C346.546844,79.961754 346.587372,53.971672 346.675812,27.982506 
	C346.697571,21.587742 348.174408,15.512354 351.890472,10.105280 
	C354.730408,5.972965 359.409851,4.169230 363.000000,1.000000 
	C407.354218,1.000000 451.708466,1.000000 496.796875,1.207489 
	C504.794556,4.518478 509.603271,10.058517 513.000000,17.000000 
	C513.000000,49.687561 513.000000,82.375122 512.900574,115.862701 
	C508.652679,126.722305 501.449982,132.697495 490.404175,133.951675 
	C483.414062,134.745361 476.434448,134.274734 469.452911,134.356476 
	C465.908905,134.397980 464.094971,135.625809 464.356171,139.348068 
	C464.472565,141.006714 464.416626,142.680588 464.379181,144.346191 
	C464.313812,147.252502 465.713257,148.399902 468.601044,148.683289 
	C472.409943,149.057037 477.597870,146.578583 479.682983,150.324951 
	C481.404266,153.417679 480.237518,158.117950 480.349213,162.105927 
	C480.353882,162.272369 480.327057,162.441223 480.345612,162.605499 
	C480.772095,166.382919 478.915253,167.492218 475.354553,167.435745 
	C465.690857,167.282455 456.023132,167.381393 446.356995,167.386276 
	C439.586243,167.389694 439.382904,167.579651 439.380157,174.473663 
	C439.368622,203.305466 439.308624,232.137558 439.437775,260.968781 
	C439.455994,265.037933 438.220947,266.579193 434.041626,266.467651 
	C425.215210,266.232117 416.377472,266.365509 407.545349,266.448395 
	C405.835724,266.464417 403.836395,265.734161 402.345612,267.784729 
	C402.989716,269.899963 403.964172,272.061584 404.268555,274.313751 
	C404.922211,279.150055 407.221832,280.897461 412.271454,280.751282 
	C424.926819,280.384918 437.604584,280.826752 450.263580,280.529419 
	C455.110229,280.415558 456.511383,281.993988 456.466827,286.778076 
	C456.252716,309.774841 456.372681,332.774719 456.376373,355.773499 
	C456.377625,363.606171 456.381531,363.544006 464.035309,363.633911 
	C480.356476,363.825653 496.684235,363.132538 513.000000,364.000000 
	C513.000000,413.589508 513.000000,463.178986 513.000000,513.000000 
	C468.979370,513.000000 424.958344,513.000000 380.351501,512.543762 
	C379.722076,464.105042 379.713226,416.122437 379.572296,368.140228 
	C379.560303,364.063263 381.586639,363.582336 384.851685,363.597809 
	C400.512848,363.671906 416.175110,363.552216 431.835815,363.664978 
	C435.690552,363.692719 437.708588,362.688629 437.675293,358.350281 
	C437.537109,340.357208 437.562927,322.362183 437.661072,304.368591 
	C437.681152,300.687378 436.187836,299.296844 432.593353,299.356323 
	C425.264496,299.477631 417.925873,299.562103 410.603882,299.303711 
	C407.028198,299.177490 405.408478,300.750854 404.686584,303.907349 
	C402.999207,311.285248 399.912201,317.999542 395.449524,324.139221 
	C384.281708,339.503571 369.308746,348.212097 350.296082,348.291534 
	C288.317322,348.550476 226.336823,348.360016 164.357056,348.417847 
	C158.462509,348.423340 152.735550,347.610321 147.260971,345.613678 
	C123.972939,337.120392 110.990196,320.265503 107.737305,295.877899 
	C107.271591,292.386414 105.848351,291.214905 102.645058,291.374878 
	C101.149452,291.449524 99.635872,291.496796 98.149269,291.356689 
	C93.820648,290.948700 92.277031,292.816620 92.309082,297.158325 
	C92.457863,317.317322 92.476509,337.479034 92.287636,357.637360 
	C92.244377,362.254944 93.860771,363.755035 98.400230,363.693207 
	C113.059326,363.493439 127.724922,363.484375 142.384048,363.687469 
	C150.224548,363.796112 156.818176,366.805481 161.651581,373.341370 
	C166.023804,379.253662 167.342697,385.964203 167.358688,393.051544 
	C167.406845,414.377838 167.419907,435.704468 167.338272,457.030548 
	C167.324570,460.612000 168.169022,462.583008 172.306808,462.690125 
	C183.378159,462.976776 183.407791,463.120209 183.362732,474.303619 
	C183.336578,480.794830 183.943039,487.409943 182.905579,493.746796 
	C181.405289,502.910706 174.928406,508.739594 167.000000,513.000000 
	C117.312439,513.000000 67.624878,513.000000 17.242432,512.754395 
	C9.045274,509.190552 3.913265,503.640045 1.000000,496.000000 
	C1.000000,484.979095 1.000000,473.958221 1.393910,462.584656 
	C3.939600,462.360992 6.090883,462.590576 8.243249,462.601257 
	C16.618729,462.642792 16.624254,462.616943 16.626635,454.471069 
	C16.633101,432.325623 16.550877,410.179749 16.669304,388.034912 
	C16.740637,374.696381 27.997269,363.649353 41.230068,363.621857 
	C50.054901,363.603516 58.879829,363.630066 67.704666,363.612213 
	C74.498024,363.598480 74.616623,363.481628 74.619682,356.515472 
	C74.631104,330.540375 74.710899,304.564758 74.548729,278.590668 
	C74.521088,274.164154 75.669182,272.313477 80.396965,272.542542 
	C87.539948,272.888672 94.712181,272.632019 101.871979,272.629791 
	C109.691635,272.627380 115.443329,266.411774 115.379837,257.374847 
	C113.448524,257.374847 111.493172,257.375305 109.537811,257.374756 
	C94.052666,257.370575 78.566322,257.259918 63.083183,257.434143 
	C59.041607,257.479614 57.460560,256.280396 57.556953,252.072311 
	C57.785690,242.087219 57.470661,232.089813 57.690666,222.104324 
	C57.787579,217.705765 56.112267,216.219223 51.820965,216.331696 
	C43.334885,216.554123 34.838928,216.415451 26.347105,216.399368 
	C13.810309,216.375641 5.157161,210.083252 1.000000,198.000000 
M174.903931,231.301773 
	C172.016006,235.430573 170.264603,240.098969 168.710495,244.823044 
	C167.803589,247.579849 166.609879,249.254929 163.334854,249.681961 
	C157.235886,250.477188 151.452972,252.473557 145.949860,255.406052 
	C131.052200,263.344635 122.430702,284.243195 127.424797,300.402435 
	C133.333237,319.520142 148.895523,330.497711 168.959808,330.559906 
	C224.777252,330.733032 280.595581,330.624390 336.413574,330.610748 
	C342.056732,330.609344 347.657379,330.433594 353.308319,329.729919 
	C379.185547,326.507721 395.641357,297.338654 384.318146,273.757721 
	C377.286041,259.113159 365.021667,251.319412 349.016632,249.459900 
	C345.748993,249.080261 344.830811,248.117798 345.448547,244.739746 
	C346.825256,237.211304 347.377319,229.633133 345.588043,222.003693 
	C339.213074,194.820786 311.451477,178.023102 285.920654,185.489578 
	C271.252197,189.779358 260.541229,198.696503 254.077118,212.775696 
	C249.495834,222.754013 250.284027,221.457993 241.787689,216.295227 
	C234.206116,211.688293 226.119629,208.674835 217.416016,208.511871 
	C199.486465,208.176163 185.520172,216.073547 174.903931,231.301773 
M98.500198,381.370636 
	C81.340286,381.371765 64.180161,381.321930 47.020550,381.394409 
	C37.769386,381.433502 35.381996,383.875122 35.378841,392.881042 
	C35.371433,414.039368 35.495777,435.198883 35.288273,456.355164 
	C35.240875,461.187927 36.819126,462.727814 41.636024,462.704193 
	C75.122047,462.539856 108.609245,462.621399 142.096054,462.602325 
	C148.341614,462.598785 148.614944,462.324249 148.621490,456.093445 
	C148.643555,435.101715 148.637054,414.109955 148.630600,393.118225 
	C148.627991,384.628113 145.511703,381.435150 136.985367,381.393066 
	C124.490578,381.331421 111.995285,381.372955 98.500198,381.370636 
M439.499756,82.620842 
	C455.987885,82.620506 472.476044,82.630219 488.964172,82.614792 
	C495.401367,82.608772 495.613434,82.387108 495.618958,75.759232 
	C495.631775,60.436886 495.638611,45.114498 495.613251,29.792189 
	C495.599518,21.497734 492.476593,18.418165 484.105988,18.412113 
	C468.450562,18.400793 452.795105,18.423721 437.139679,18.424763 
	C416.820892,18.426113 396.502014,18.378170 376.183411,18.438259 
	C368.353882,18.461412 365.397949,21.380093 365.386719,28.806370 
	C365.363098,44.461781 365.370209,60.117260 365.382416,75.772697 
	C365.387573,82.400192 365.583252,82.609627 372.047363,82.613846 
	C394.198151,82.628304 416.348938,82.620323 439.499756,82.620842 
M57.500286,51.395584 
	C46.674816,51.396713 35.849293,51.378372 25.023890,51.406509 
	C18.861069,51.422523 18.384930,51.884022 18.380777,57.879318 
	C18.364975,80.696022 18.483713,103.513664 18.288889,126.328712 
	C18.248032,131.113419 19.731014,132.745834 24.593119,132.715027 
	C52.904697,132.535522 81.218651,132.528000 109.530083,132.718307 
	C114.534851,132.751938 115.740059,130.848526 115.703682,126.211990 
	C115.524712,103.396667 115.631340,80.579185 115.612877,57.762478 
	C115.607964,51.688976 115.299255,51.395416 108.963516,51.389450 
	C92.142464,51.373611 75.321373,51.391308 57.500286,51.395584 
M43.500175,150.409698 
	C37.336903,150.410355 31.173557,150.392700 25.010374,150.416763 
	C18.702477,150.441376 18.390673,150.737961 18.379253,156.815643 
	C18.360474,166.810089 18.358421,176.804626 18.380358,186.799072 
	C18.399004,195.294312 21.603527,198.550858 30.105591,198.603424 
	C39.433434,198.661087 48.761887,198.621307 58.090076,198.620422 
	C73.581528,198.618973 89.073471,198.687210 104.564209,198.580673 
	C112.197357,198.528183 115.608231,195.044342 115.619095,187.745407 
	C115.633972,177.750931 115.629112,167.756409 115.617920,157.761932 
	C115.609726,150.442429 115.570297,150.406784 108.464897,150.406296 
	C87.143326,150.404785 65.821754,150.408432 43.500175,150.409698 
M402.943970,495.608643 
	C431.589935,495.612274 460.235931,495.622833 488.881897,495.614197 
	C495.269287,495.612274 495.607117,495.264435 495.616882,488.766327 
	C495.634857,476.775024 495.554230,464.783112 495.657623,452.792694 
	C495.687317,449.349182 494.622742,447.392365 490.883759,447.395447 
	C461.571716,447.419586 432.259674,447.415009 402.947632,447.393707 
	C399.893494,447.391510 398.333130,448.617004 398.348328,451.851776 
	C398.410126,465.008606 398.393188,478.165924 398.371918,491.322968 
	C398.367767,493.880371 399.295013,495.503265 402.943970,495.608643 
M398.367859,390.599426 
	C398.367920,401.591553 398.531067,412.587250 398.289642,423.574097 
	C398.189880,428.114471 399.708435,429.723602 404.317413,429.699036 
	C432.796204,429.547089 461.276459,429.563690 489.755554,429.681793 
	C494.061737,429.699646 495.728607,428.159698 495.672180,423.843323 
	C495.515381,411.853973 495.633698,399.861176 495.615326,387.869812 
	C495.605774,381.647522 495.353607,381.380463 489.090576,381.377625 
	C461.610260,381.365082 434.129974,381.377472 406.649658,381.385071 
	C398.404053,381.387360 398.404053,381.393677 398.367859,390.599426 
M89.500145,480.404327 
	C88.166908,480.403503 86.833664,480.401886 85.500427,480.402008 
	C65.001846,480.403931 44.502625,480.492279 24.005188,480.340149 
	C19.568302,480.307251 18.036097,481.992126 18.350191,486.273804 
	C18.813318,492.587036 22.154003,495.602295 29.449354,495.606781 
	C71.113129,495.632446 112.776917,495.620239 154.440704,495.617615 
	C155.440247,495.617554 156.450806,495.666626 157.437469,495.543060 
	C162.738190,494.879181 166.140717,490.166168 165.592117,484.242950 
	C165.055435,478.448273 160.509583,480.506836 157.494980,480.486206 
	C135.164246,480.333099 112.831963,480.404358 89.500145,480.404327 
M372.722290,101.400803 
	C365.852539,101.465057 364.794647,102.433159 365.417999,108.085258 
	C365.974182,113.127838 369.124237,115.598793 375.324768,115.602760 
	C412.115845,115.626297 448.906921,115.611572 485.697998,115.608376 
	C486.363831,115.608315 487.033356,115.634140 487.694855,115.576065 
	C492.463501,115.157539 495.643402,111.123711 495.615906,105.795258 
	C495.585571,99.910088 491.191681,101.450424 488.039032,101.444366 
	C449.916290,101.371094 411.793365,101.400917 372.722290,101.400803 
M87.500183,18.418610 
	C68.706032,18.423494 49.911884,18.425838 31.117739,18.437654 
	C29.455568,18.438698 27.767212,18.325514 26.136164,18.568464 
	C21.104118,19.318010 18.123926,23.559055 18.376354,29.079359 
	C18.651066,35.086929 23.176332,33.554008 26.496330,33.565842 
	C53.938824,33.663666 81.381813,33.630627 108.824646,33.621574 
	C115.199402,33.619469 116.048294,32.685780 115.603333,26.390604 
	C115.276344,21.764305 111.796028,18.593683 106.461685,18.455803 
	C100.478165,18.301142 94.487587,18.418989 87.500183,18.418610 
M440.111450,134.406418 
	C433.149445,134.413452 426.185333,134.524139 419.226257,134.385132 
	C415.577728,134.312225 413.999115,135.767319 414.354156,139.411148 
	C414.482147,140.724854 414.468475,142.068985 414.359589,143.386017 
	C414.040680,147.243958 415.760437,148.760406 419.607605,148.667267 
	C426.399811,148.502823 433.199371,148.582794 439.995026,148.646820 
	C443.097870,148.676041 446.109192,148.326355 445.511414,144.296936 
	C444.975830,140.686646 448.453369,134.940811 440.111450,134.406418 
z"/>
<path fill="#000000" opacity="1.000000" stroke="none" 
	d="
M49.949455,167.244598 
	C51.205437,165.397522 52.803406,165.665344 54.256687,165.658508 
	C62.752872,165.618530 71.251137,165.739883 79.744835,165.588852 
	C83.181091,165.527740 84.469894,166.775009 84.399094,170.244293 
	C84.075539,186.098495 86.344376,183.063324 71.703278,183.382248 
	C65.875336,183.509201 60.038303,183.262695 54.212582,183.432434 
	C50.704224,183.534637 49.424397,182.072357 49.605820,178.691986 
	C49.801979,175.037003 49.749249,171.368652 49.949455,167.244598 
z"/>
<path fill="#000000" opacity="1.000000" stroke="none" 
	d="
M412.674255,476.830078 
	C412.536987,462.620483 412.536987,462.617462 426.009552,462.623962 
	C431.814575,462.626770 437.620148,462.696564 443.424377,462.633148 
	C446.073456,462.604187 447.534546,463.568756 447.340637,466.387695 
	C447.329315,466.552338 447.355286,466.719177 447.353119,466.884857 
	C447.139709,483.247803 449.568054,480.047272 434.744324,480.368561 
	C428.942200,480.494324 423.134369,480.406372 417.329834,480.348083 
	C415.198853,480.326691 412.773712,480.559479 412.674255,476.830078 
z"/>
<path fill="#000000" opacity="1.000000" stroke="none" 
	d="
M480.226013,465.222382 
	C480.313782,466.363861 480.353424,467.028687 480.361450,467.693878 
	C480.527771,481.456390 479.537079,482.288452 465.850677,480.333252 
	C463.917450,480.057068 462.702362,479.430664 462.701019,477.327515 
	C462.698578,473.501404 462.669769,469.674927 462.715912,465.849396 
	C462.729889,464.692902 462.820007,463.150848 464.232605,463.057495 
	C469.447449,462.712677 474.737274,461.519562 479.817078,463.836060 
	C480.027069,463.931854 480.052032,464.433380 480.226013,465.222382 
z"/>
<path fill="#000000" opacity="1.000000" stroke="none" 
	d="
M445.640778,409.867706 
	C445.592743,396.624237 445.592743,396.622559 458.489929,396.628418 
	C464.294983,396.631073 470.101807,396.730713 475.904327,396.613129 
	C479.000641,396.550385 480.442322,397.614685 480.388306,400.903381 
	C480.116089,417.477295 482.504059,414.011902 467.753693,414.372345 
	C461.786530,414.518158 455.811768,414.326630 449.842041,414.405731 
	C446.972565,414.443726 445.418610,413.388489 445.640778,409.867706 
z"/>
<path fill="#000000" opacity="1.000000" stroke="none" 
	d="
M412.629700,404.040863 
	C412.725189,396.667023 412.726807,396.556366 419.469208,396.654205 
	C433.343536,396.855469 430.992767,394.551453 431.447418,408.465027 
	C431.594971,412.981049 430.179565,415.035034 425.547058,414.421295 
	C424.564728,414.291138 423.549805,414.415100 422.549988,414.407532 
	C411.221710,414.321686 412.784302,415.332031 412.629700,404.040863 
z"/>
</svg>