<?xml version="1.0" encoding="UTF-8"?>
<svg version="1.1" xmlns="http://www.w3.org/2000/svg" width="550" height="400">
<path d="M0 0 C181.5 0 363 0 550 0 C550 132 550 264 550 400 C368.5 400 187 400 0 400 C0 268 0 136 0 0 Z " fill="#FEFEFE" transform="translate(0,0)"/>
<path d="M0 0 C9.12745893 7.5254418 17.25649455 15.12758249 23.6484375 25.18359375 C23.6484375 25.84359375 23.6484375 26.50359375 23.6484375 27.18359375 C24.4835083 26.94237793 24.4835083 26.94237793 25.33544922 26.69628906 C48.94998047 21.46190912 78.79254988 28.81816225 98.89428711 41.4296875 C102.20283277 43.60565426 105.43702368 45.86747002 108.6484375 48.18359375 C109.28587891 48.62453369 109.92332031 49.06547363 110.58007812 49.51977539 C113.5146841 51.55926547 116.03674504 53.46700229 118.2734375 56.24609375 C120.44756496 59.17559554 120.44756496 59.17559554 122.9375 60.91796875 C142.01179662 76.85902356 152.45526504 105.15302667 154.6484375 129.18359375 C156.59590159 159.88578848 149.04447198 190.50543878 128.6484375 214.18359375 C128.01550781 214.94800781 127.38257813 215.71242188 126.73046875 216.5 C123.22048546 220.6613204 123.22048546 220.6613204 121.6484375 222.18359375 C120.9884375 222.18359375 120.3284375 222.18359375 119.6484375 222.18359375 C119.6484375 222.84359375 119.6484375 223.50359375 119.6484375 224.18359375 C118.9884375 224.18359375 118.3284375 224.18359375 117.6484375 224.18359375 C117.39118896 224.78574707 117.13394043 225.38790039 116.86889648 226.00830078 C115.52442995 228.40461941 114.35412123 229.42023517 112.12109375 230.98828125 C111.41734619 231.48634277 110.71359863 231.9844043 109.98852539 232.49755859 C109.23692139 233.0127002 108.48531738 233.5278418 107.7109375 234.05859375 C106.5496936 234.86031006 106.5496936 234.86031006 105.36499023 235.67822266 C80.19475991 252.86777626 53.40701118 256.52322554 23.53125 256.37890625 C21.48038848 256.37595917 19.42952544 256.37392283 17.37866211 256.37280273 C9.84356403 256.36239242 2.30849834 256.33447012 -5.2265625 256.30859375 C-22.0978125 256.26734375 -38.9690625 256.22609375 -56.3515625 256.18359375 C-56.3515625 218.56359375 -56.3515625 180.94359375 -56.3515625 142.18359375 C-125.9815625 142.18359375 -195.6115625 142.18359375 -267.3515625 142.18359375 C-261.01704261 108.39948766 -247.25263649 84.9443302 -218.890625 65.49609375 C-200.88081298 54.00810735 -181.25094291 50.95532382 -160.3515625 51.18359375 C-160.20460938 50.6009375 -160.05765625 50.01828125 -159.90625 49.41796875 C-156.81622755 38.12340393 -151.35385251 28.50294323 -144.3515625 19.18359375 C-143.206875 17.63671875 -143.206875 17.63671875 -142.0390625 16.05859375 C-141.4821875 15.43984375 -140.9253125 14.82109375 -140.3515625 14.18359375 C-139.6915625 14.18359375 -139.0315625 14.18359375 -138.3515625 14.18359375 C-138.08472656 13.59191406 -137.81789062 13.00023437 -137.54296875 12.390625 C-131.96113012 2.05049771 -119.39519415 -4.68232926 -109.3515625 -9.81640625 C-108.66191406 -10.18636719 -107.97226563 -10.55632813 -107.26171875 -10.9375 C-73.64568522 -28.60482233 -29.74349655 -22.91053113 0 0 Z " fill="#7DB700" transform="translate(324.3515625,67.81640625)"/>
<path d="M0 0 C0 53.79 0 107.58 0 163 C-69.63 163 -139.26 163 -211 163 C-204.66548011 129.21589391 -190.90107399 105.76073645 -162.5390625 86.3125 C-144.52925048 74.8245136 -124.89938041 71.77173007 -104 72 C-103.85304688 71.41734375 -103.70609375 70.8346875 -103.5546875 70.234375 C-100.46466505 58.93981018 -95.00229001 49.31934948 -88 40 C-86.8553125 38.453125 -86.8553125 38.453125 -85.6875 36.875 C-85.130625 36.25625 -84.57375 35.6375 -84 35 C-83.34 35 -82.68 35 -82 35 C-81.73316406 34.40832031 -81.46632812 33.81664062 -81.19140625 33.20703125 C-75.60956762 22.86690396 -63.04363165 16.13407699 -53 11 C-52.31035156 10.63003906 -51.62070313 10.26007812 -50.91015625 9.87890625 C-34.40793553 1.20595998 -18.57916924 0 0 0 Z " fill="#F04F20" transform="translate(268,47)"/>
<path d="M0 0 C69.63 0 139.26 0 211 0 C211 37.62 211 75.24 211 114 C181.90365356 114.12049101 181.90365356 114.12049101 167.43622398 114.1507616 C159.64053172 114.16732647 151.84493671 114.18829028 144.04931641 114.22631836 C137.87298936 114.25643268 131.69673602 114.27562465 125.52033758 114.28226548 C122.25678591 114.28614092 118.99349137 114.2967317 115.72999573 114.31719017 C99.0528913 114.41750222 83.21102225 114.17176668 67.375 108.3125 C66.67898682 108.06048828 65.98297363 107.80847656 65.26586914 107.54882812 C54.97846247 103.66104325 45.4866615 97.98901535 37 91 C36.40960938 90.53078125 35.81921875 90.0615625 35.2109375 89.578125 C18.4330863 75.83063459 6.76581434 54.9695831 2 34 C1.77570312 33.08734375 1.55140625 32.1746875 1.3203125 31.234375 C-0.86855831 20.73978891 0 11.02433484 0 0 Z " fill="#00A1EC" transform="translate(57,210)"/>
<path d="M0 0 C64.35 0 128.7 0 195 0 C195 26.2010637 186.21410253 52.015812 169 72 C168.05060547 73.14662109 168.05060547 73.14662109 167.08203125 74.31640625 C163.57204796 78.47772665 163.57204796 78.47772665 162 80 C161.34 80 160.68 80 160 80 C160 80.66 160 81.32 160 82 C159.34 82 158.68 82 158 82 C157.74275146 82.60215332 157.48550293 83.20430664 157.22045898 83.82470703 C155.87599245 86.22102566 154.70568373 87.23664142 152.47265625 88.8046875 C151.76890869 89.30274902 151.06516113 89.80081055 150.34008789 90.31396484 C149.58848389 90.82910645 148.83687988 91.34424805 148.0625 91.875 C147.2883374 92.40947754 146.5141748 92.94395508 145.71655273 93.49462891 C120.54603366 110.68437971 93.75798353 114.33818226 63.8828125 114.1953125 C61.57111738 114.19157534 59.25942067 114.1887317 56.94772339 114.18673706 C50.90785228 114.17915592 44.86807967 114.15955572 38.82824707 114.1373291 C32.64723034 114.11675084 26.46619747 114.10770989 20.28515625 114.09765625 C8.19006125 114.0763039 -3.90496114 114.04223576 -16 114 C-10.7545035 72.62620729 -10.7545035 72.62620729 -7.9375 53.375 C-7.43088748 49.88041091 -6.92635393 46.38552265 -6.421875 42.890625 C-6.3003154 42.0504483 -6.1787558 41.21027161 -6.05351257 40.34463501 C-5.26973334 34.91486431 -4.50769014 29.48249927 -3.765625 24.046875 C-3.6719313 23.36102325 -3.57823761 22.67517151 -3.48170471 21.96853638 C-3.05261511 18.8211158 -2.62693617 15.67326795 -2.20483398 12.52490234 C-2.05860596 11.4467627 -1.91237793 10.36862305 -1.76171875 9.2578125 C-1.63756592 8.3311377 -1.51341309 7.40446289 -1.38549805 6.44970703 C-1 4 -1 4 0 0 Z " fill="#FEB700" transform="translate(284,210)"/>
<path d="M0 0 C7.29672442 0 13.05239605 0.03494999 20 1 C23.59949984 1.29604236 27.20349708 1.50854139 30.80859375 1.72436523 C31.86361084 1.78957367 32.91862793 1.8547821 34.00561523 1.92196655 C36.28841446 2.06274511 38.57128486 2.20237325 40.85421753 2.34097099 C44.49093481 2.561839 48.12744362 2.78589565 51.76391602 3.01075745 C60.80886438 3.5694059 69.85413694 4.12272989 78.89941406 4.67602539 C86.52977991 5.14295536 94.16000619 5.61206261 101.79006958 6.08390999 C105.32989269 6.30196508 108.86989253 6.51695829 112.40991211 6.73179626 C125.13395798 7.51280704 137.83606086 8.43625873 150.53637695 9.5388031 C160.01489713 10.35577043 169.50874131 10.97700902 179 11.625 C180.96225037 11.76026034 182.92448999 11.89567665 184.88671875 12.03125 C189.59102501 12.35594896 194.29546777 12.67859234 199 13 C199 13.33 199 13.66 199 14 C138.61 14 78.22 14 16 14 C15.34 19.61 14.68 25.22 14 31 C13.48046158 35.10312626 12.955134 39.20446741 12.4140625 43.3046875 C12.27223038 44.38487656 12.13039825 45.46506561 11.98426819 46.57798767 C11.53276287 50.01053614 11.0791106 53.44279529 10.625 56.875 C10.39256088 58.63630753 10.39256088 58.63630753 10.15542603 60.43319702 C8.15547358 75.57277895 6.07675269 90.69199772 3.77734375 105.7890625 C2.70816751 112.8417378 1.82461173 119.91484918 1 127 C0.67 127 0.34 127 0 127 C0 85.09 0 43.18 0 0 Z " fill="#61830F" transform="translate(268,196)"/>
<path d="M0 0 C69.3 0 138.6 0 210 0 C210 4.62 210 9.24 210 14 C200.38325547 14.18011818 190.94147646 13.55352529 181.3671875 12.77484131 C167.98671449 11.6892381 154.62728745 10.69352146 141.20605469 10.29125977 C136.84684369 10.15560138 132.61608389 9.85470121 128.2890625 9.26318359 C122.88273665 8.64159451 117.43104494 8.43885772 112 8.125 C102.96060372 7.58853692 93.92628514 7.01518207 84.8984375 6.30859375 C84.12731628 6.24827469 83.35619507 6.18795563 82.56170654 6.12580872 C80.97301683 6.0012925 79.38433282 5.87670361 77.7956543 5.75204468 C51.89029378 3.72357526 25.94743067 2.36526811 0 1 C0 0.67 0 0.34 0 0 Z " fill="#1276A4" transform="translate(58,210)"/>
<path d="M0 0 C0.33 0 0.66 0 1 0 C1 53.46 1 106.92 1 162 C-3.62 162 -8.24 162 -13 162 C-13.09939315 154.74430001 -12.72738476 147.66000807 -12.0625 140.4375 C-11.44195569 133.43833743 -10.88721797 126.45640378 -10.5625 119.4375 C-10.24846917 113.15010566 -9.500457 106.98213202 -8.625 100.75 C-6.60262281 86.11366168 -5.5593363 71.40223815 -4.43554688 56.67626953 C-3.9411648 50.20915922 -3.43157763 43.74326186 -2.921875 37.27734375 C-1.94294254 24.85194936 -0.96973842 12.42611511 0 0 Z " fill="#A34724" transform="translate(267,48)"/>
<path d="M0 0 C5.28 0 10.56 0 16 0 C14.35920208 14.31230663 12.51455526 28.59358837 10.625 42.875 C10.39256088 44.63630753 10.39256088 44.63630753 10.15542603 46.43319702 C8.15547358 61.57277895 6.07675269 76.69199772 3.77734375 91.7890625 C2.70816751 98.8417378 1.82461173 105.91484918 1 113 C0.67 113 0.34 113 0 113 C0 75.71 0 38.42 0 0 Z " fill="#A7831B" transform="translate(268,210)"/>
<path d="M0 0 C69.3 0 138.6 0 210 0 C210 4.62 210 9.24 210 14 C209.67 14 209.34 14 209 14 C209 9.71 209 5.42 209 1 C184.25 1 159.5 1 134 1 C134 2.98 134 4.96 134 7 C129.85418113 7.02886751 125.70838784 7.04675327 121.5625 7.0625 C120.37849609 7.07087891 119.19449219 7.07925781 117.97460938 7.08789062 C116.84990234 7.09111328 115.72519531 7.09433594 114.56640625 7.09765625 C113.00321655 7.10551147 113.00321655 7.10551147 111.40844727 7.11352539 C109 7 109 7 108 6 C106.31816052 5.76712992 104.6287584 5.58735834 102.9375 5.4375 C102.01839844 5.35371094 101.09929687 5.26992187 100.15234375 5.18359375 C99.44207031 5.12300781 98.73179687 5.06242188 98 5 C98 4.01 98 3.02 98 2 C97.39333496 2.07001221 96.78666992 2.14002441 96.16162109 2.2121582 C85.33443278 3.29411173 74.49540368 3.19515641 63.625 3.1875 C62.57973145 3.1882251 61.53446289 3.1889502 60.45751953 3.18969727 C40.25589309 3.18815774 20.15263747 2.35698275 0 1 C0 0.67 0 0.34 0 0 Z " fill="#257094" transform="translate(58,210)"/>
<path d="M0 0 C1.14275391 0.13148438 1.14275391 0.13148438 2.30859375 0.265625 C4.65688552 0.77028389 6.4704315 1.58721022 8.5625 2.75 C8.8925 1.76 9.2225 0.77 9.5625 -0.25 C13.5225 -0.25 17.4825 -0.25 21.5625 -0.25 C21.5625 0.74 21.5625 1.73 21.5625 2.75 C18.5925 2.75 15.6225 2.75 12.5625 2.75 C12.5625 4.73 12.5625 6.71 12.5625 8.75 C15.2025 8.75 17.8425 8.75 20.5625 8.75 C20.5625 9.74 20.5625 10.73 20.5625 11.75 C17.9225 11.75 15.2825 11.75 12.5625 11.75 C12.5625 14.39 12.5625 17.03 12.5625 19.75 C15.5325 19.75 18.5025 19.75 21.5625 19.75 C21.5625 20.41 21.5625 21.07 21.5625 21.75 C17.2725 21.75 12.9825 21.75 8.5625 21.75 C8.2325 20.76 7.9025 19.77 7.5625 18.75 C7.088125 19.245 6.61375 19.74 6.125 20.25 C2.35305848 22.45796577 -1.16619653 22.47235279 -5.4375 21.75 C-8.46965675 19.55168636 -9.25404398 18.30036806 -10.4375 14.75 C-10.78297151 9.39519163 -10.90112011 6.1115957 -7.4375 1.75 C-4.16689407 -0.43040395 -3.67375511 -0.47083539 0 0 Z " fill="#F4F4F4" transform="translate(440.4375,343.25)"/>
<path d="M0 0 C2.92003722 2.20783302 3.78387242 3.7531101 4.40625 7.34375 C4.66400598 11.62249924 4.51693568 15.02645242 1.9375 18.5625 C-1.59491611 21.49365379 -3.42865831 22.08019898 -8 22 C-13.31535914 20.09449389 -13.31535914 20.09449389 -15.1484375 17.1640625 C-16.98264394 12.50282229 -16.68900457 7.61916074 -14.75 3.0625 C-10.61295851 -1.8132989 -5.82486094 -1.60317274 0 0 Z " fill="#F4F4F4" transform="translate(193,344)"/>
<path d="M0 0 C3.5386994 1.65139305 4.81070153 2.71605229 7 6 C7.77535388 10.74190108 7.88952968 15.53193308 5.125 19.625 C1.29339034 22.53702335 -0.97941279 22.75209312 -5.6875 22.46484375 C-8 22 -8 22 -10.5625 20.1875 C-13.2911366 16.03522691 -13.53883398 11.84005258 -13 7 C-10.12786235 0.70865086 -6.75531577 -0.58235481 0 0 Z " fill="#F6F6F6" transform="translate(287,343)"/>
<path d="M0 0 C3.05396642 1.28945249 4.53977809 2.30966714 6.375 5.0625 C7.32318025 9.51894715 7.12440681 13.58428319 6 18 C3.80092022 20.88629221 2.37359142 21.76984386 -1.19140625 22.3671875 C-5.09901135 22.58606489 -7.27756417 22.52376597 -10.5 20.1875 C-13.50520177 15.80491408 -13.67718945 11.14663985 -13 6 C-9.39669759 0.23471614 -6.65938858 -0.45148397 0 0 Z " fill="#F4F4F4" transform="translate(151,343)"/>
<path d="M0 0 C11.41176471 0 11.41176471 0 16 4 C17.99848655 7.99697311 17.62484166 12.66359886 17 17 C14.6875 20.1875 14.6875 20.1875 11 22 C7.37 22 3.74 22 0 22 C0 14.74 0 7.48 0 0 Z " fill="#292929" transform="translate(321,343)"/>
<path d="M0 0 C64.35 0 128.7 0 195 0 C195 6.12321914 194.85617989 11.11376326 194 17 C193.67 17 193.34 17 193 17 C192.97298592 14.89590361 192.95359777 12.79170822 192.9375 10.6875 C192.92589844 9.51574219 192.91429687 8.34398437 192.90234375 7.13671875 C193 4 193 4 194 1 C130.64 1 67.28 1 2 1 C1.67 5.29 1.34 9.58 1 14 C0.34 14 -0.32 14 -1 14 C-1.03738281 14.86496094 -1.07476562 15.72992188 -1.11328125 16.62109375 C-1.58219252 25.60396256 -2.44069153 34.50448749 -3.5 43.4375 C-3.63059814 44.55761475 -3.76119629 45.67772949 -3.89575195 46.83178711 C-4.02296631 47.8760083 -4.15018066 48.92022949 -4.28125 49.99609375 C-4.39533203 50.93638428 -4.50941406 51.8766748 -4.62695312 52.84545898 C-5 55 -5 55 -6 56 C-6.397493 58.34723966 -6.74368723 60.70328548 -7.0625 63.0625 C-7.23910156 64.35285156 -7.41570312 65.64320313 -7.59765625 66.97265625 C-7.73042969 67.97167969 -7.86320312 68.97070312 -8 70 C-8.33 70 -8.66 70 -9 70 C-8.52392865 57.09263702 -6.8256692 44.4252771 -4.98876953 31.65039062 C-4.49507572 28.21574158 -4.01049099 24.77989704 -3.52734375 21.34375 C-3.21666531 19.150968 -2.90548605 16.95825689 -2.59375 14.765625 C-2.44893188 13.74277405 -2.30411377 12.7199231 -2.15490723 11.66607666 C-1.94964417 10.24243805 -1.94964417 10.24243805 -1.74023438 8.79003906 C-1.62111694 7.95893616 -1.50199951 7.12783325 -1.37927246 6.27154541 C-1.02676432 4.16029732 -0.51914129 2.07656515 0 0 Z " fill="#E9BC1C" transform="translate(284,210)"/>
<path d="M0 0 C0.33 0 0.66 0 1 0 C0.88637738 1.4800841 0.75877092 2.95910074 0.625 4.4375 C0.55539063 5.26121094 0.48578125 6.08492187 0.4140625 6.93359375 C0.27742188 7.61550781 0.14078125 8.29742187 0 9 C-0.99 9.495 -0.99 9.495 -2 10 C-2.65772428 13.02934491 -2.65772428 13.02934491 -3 16 C-3.66 16 -4.32 16 -5 16 C-4.938125 17.03125 -4.87625 18.0625 -4.8125 19.125 C-5.01407947 23.29097561 -6.10114421 25.3605264 -8 29 C-8 30.65 -8 32.3 -8 34 C88.03 34.495 88.03 34.495 186 35 C186 35.33 186 35.66 186 36 C120.99 36 55.98 36 -11 36 C-8.52958126 22.82443337 -6.25498734 11.61640506 0 0 Z " fill="#BF6048" transform="translate(68,174)"/>
<path d="M0 0 C0.33 0 0.66 0 1 0 C1 33 1 66 1 100 C-28.09634644 100.12049101 -28.09634644 100.12049101 -42.56377602 100.1507616 C-50.35946828 100.16732647 -58.15506329 100.18829028 -65.95068359 100.22631836 C-72.12701064 100.25643268 -78.30326398 100.27562465 -84.47966242 100.28226548 C-87.74321409 100.28614092 -91.00650863 100.2967317 -94.27000427 100.31719017 C-128.71345101 100.524366 -128.71345101 100.524366 -137 95 C-136.0821875 95.0721875 -135.164375 95.144375 -134.21875 95.21875 C-127.79463129 95.70460772 -121.44256782 96.12885136 -115 96 C-115 96.99 -115 97.98 -115 99 C-77.05 99 -39.1 99 0 99 C0 66.33 0 33.66 0 0 Z " fill="#2D9FCC" transform="translate(267,224)"/>
<path d="M0 0 C1.65 0 3.3 0 5 0 C10.55580866 11.52164009 10.55580866 11.52164009 11 17 C11.66 17 12.32 17 13 17 C13.18755859 15.92298828 13.18755859 15.92298828 13.37890625 14.82421875 C13.99952976 12.00213825 14.86326301 9.49201188 15.9375 6.8125 C16.27652344 5.95269531 16.61554688 5.09289062 16.96484375 4.20703125 C18 2 18 2 20 0 C21.32 0 22.64 0 24 0 C24 7.26 24 14.52 24 22 C23.01 22 22.02 22 21 22 C20.67 16.72 20.34 11.44 20 6 C18.18813622 10.88514031 18.18813622 10.88514031 16.41113281 15.78295898 C15.703125 17.62109375 15.703125 17.62109375 14 21 C12.68 21.33 11.36 21.66 10 22 C8.02 16.72 6.04 11.44 4 6 C3.67 11.28 3.34 16.56 3 22 C2.01 22 1.02 22 0 22 C0 14.74 0 7.48 0 0 Z " fill="#252525" transform="translate(63,343)"/>
<path d="M0 0 C-11.70433496 6.63604776 -29.15995618 4.25727688 -42.1171875 4.1953125 C-44.42888262 4.19157534 -46.74057933 4.1887317 -49.05227661 4.18673706 C-55.09214772 4.17915592 -61.13192033 4.15955572 -67.17175293 4.1373291 C-73.35276966 4.11675084 -79.53380253 4.10770989 -85.71484375 4.09765625 C-97.80993875 4.0763039 -109.90496114 4.04223576 -122 4 C-122 3.67 -122 3.34 -122 3 C-104.84 3 -87.68 3 -70 3 C-70 2.34 -70 1.68 -70 1 C-61.75906927 0.86905959 -53.51813067 0.7386309 -45.27718163 0.60884857 C-41.45024598 0.54856426 -37.62331325 0.48810623 -33.79638672 0.42724609 C-30.10056823 0.36847746 -26.40474269 0.31017183 -22.7089119 0.25218201 C-21.30157843 0.23001971 -19.89424755 0.20769292 -18.4869194 0.18519592 C-16.51000404 0.15362233 -14.53307835 0.12269727 -12.55615234 0.09179688 C-10.87070816 0.06514954 -10.87070816 0.06514954 -9.1512146 0.03796387 C-6.10044593 0.00121011 -3.05095484 -0.00675777 0 0 Z " fill="#F8C339" transform="translate(390,320)"/>
<path d="M0 0 C5.83235772 0.11497479 5.83235772 0.11497479 8.1875 2.1875 C9.125 5.0625 9.125 5.0625 9.1875 8.1875 C7.75 10.5625 7.75 10.5625 6.1875 12.1875 C7.1775 13.8271875 7.1775 13.8271875 8.1875 15.5 C9.77214929 18.12457538 10.1875 19.0131378 10.1875 22.1875 C9.1975 22.1875 8.2075 22.1875 7.1875 22.1875 C6.94515625 21.62160156 6.7028125 21.05570312 6.453125 20.47265625 C6.11796875 19.73917969 5.7828125 19.00570313 5.4375 18.25 C5.11265625 17.51910156 4.7878125 16.78820312 4.453125 16.03515625 C3.16127317 13.71109666 3.16127317 13.71109666 -0.8125 13.1875 C-0.8125 16.1575 -0.8125 19.1275 -0.8125 22.1875 C-2.1325 22.1875 -3.4525 22.1875 -4.8125 22.1875 C-4.84137814 18.70835059 -4.85925687 15.22923169 -4.875 11.75 C-4.88337891 10.75677734 -4.89175781 9.76355469 -4.90039062 8.74023438 C-4.90361328 7.79599609 -4.90683594 6.85175781 -4.91015625 5.87890625 C-4.91539307 5.00435791 -4.92062988 4.12980957 -4.92602539 3.22875977 C-4.72193668 -0.44088691 -3.85388467 0.18953531 0 0 Z " fill="#2C2C2C" transform="translate(124.8125,342.8125)"/>
<path d="M0 0 C8.32067802 0 14.05197287 0.05486432 21.625 2.375 C22.41261719 2.59671875 23.20023437 2.8184375 24.01171875 3.046875 C29.7078352 4.7078352 29.7078352 4.7078352 32 7 C29.03 7 26.06 7 23 7 C23 6.34 23 5.68 23 5 C22.01 5.495 22.01 5.495 21 6 C19.00039988 6.039992 16.99952758 6.04346799 15 6 C15.33 5.34 15.66 4.68 16 4 C11.38 3.01 6.76 2.02 2 1 C1.67 49.51 1.34 98.02 1 148 C0.67 148 0.34 148 0 148 C0 99.16 0 50.32 0 0 Z " fill="#94A712" transform="translate(268,48)"/>
<path d="M0 0 C9 0 9 0 11.5625 1.125 C13.63717157 3.83109336 13.41519209 5.67846329 13 9 C12.01 10.485 12.01 10.485 11 12 C11.495 12.9075 11.99 13.815 12.5 14.75 C14 18 14 18 14 22 C13.01 21.67 12.02 21.34 11 21 C10.54625 19.845 10.0925 18.69 9.625 17.5 C9.08875 16.345 8.5525 15.19 8 14 C5.42267086 12.94832473 5.42267086 12.94832473 3 13 C3 15.97 3 18.94 3 22 C2.01 22 1.02 22 0 22 C0 14.74 0 7.48 0 0 Z " fill="#151515" transform="translate(384,343)"/>
<path d="M0 0 C14.70898092 0.39447704 29.31629009 1.38584536 43.96563721 2.70516968 C53.84266562 3.59284457 63.69568414 4.3652817 73.61010742 4.70898438 C74.72156128 4.74862305 74.72156128 4.74862305 75.85546875 4.7890625 C76.77815552 4.81540771 76.77815552 4.81540771 77.71948242 4.84228516 C79.70737822 4.97976302 81.68755595 5.22099616 83.66333008 5.47973633 C88.27801682 6.07332909 92.88559623 6.32013061 97.53125 6.53515625 C98.40777222 6.57813339 99.28429443 6.62111053 100.18737793 6.66539001 C102.95812313 6.80059696 105.72904751 6.93161733 108.5 7.0625 C110.39063847 7.15401908 112.28126364 7.24581327 114.171875 7.33789062 C118.78110242 7.56177402 123.39049518 7.78190566 128 8 C128 8.33 128 8.66 128 9 C105.56312567 9.20428587 83.06248848 9.14928231 60.75390625 6.5390625 C40.89483951 4.22448596 20.96954839 3.50880465 1 3 C0.67 2.01 0.34 1.02 0 0 Z " fill="#0B99DF" transform="translate(104,213)"/>
<path d="M0 0 C2.92003722 2.20783302 3.78387242 3.7531101 4.40625 7.34375 C4.66400598 11.62249924 4.51693568 15.02645242 1.9375 18.5625 C-1.59491611 21.49365379 -3.42865831 22.08019898 -8 22 C-13.31535914 20.09449389 -13.31535914 20.09449389 -15.1484375 17.1640625 C-16.98264394 12.50282229 -16.68900457 7.61916074 -14.75 3.0625 C-10.61295851 -1.8132989 -5.82486094 -1.60317274 0 0 Z M-12 3.5 C-13.41958241 7.04895603 -13.64050999 10.27473499 -13 14 C-11.71735902 17.18775608 -11.71735902 17.18775608 -9 19 C-6.12497052 19.10973395 -3.85172554 18.61787387 -1 18 C1.53044493 13.38565925 1.21579803 8.99065483 0 4 C-1.99685749 1.57855488 -1.99685749 1.57855488 -5.9375 1.625 C-8.74610518 1.71675117 -9.70639626 1.77979719 -12 3.5 Z " fill="#1D1D1D" transform="translate(193,344)"/>
<path d="M0 0 C3.5386994 1.65139305 4.81070153 2.71605229 7 6 C7.77535388 10.74190108 7.88952968 15.53193308 5.125 19.625 C1.29339034 22.53702335 -0.97941279 22.75209312 -5.6875 22.46484375 C-8 22 -8 22 -10.5625 20.1875 C-13.2911366 16.03522691 -13.53883398 11.84005258 -13 7 C-10.12786235 0.70865086 -6.75531577 -0.58235481 0 0 Z M-9 4.5 C-10.41855265 8.04638162 -10.64744839 11.27717177 -10 15 C-8.65021698 18.16821233 -8.65021698 18.16821233 -6 20 C-2.39969811 20.3309316 -2.39969811 20.3309316 1 19 C3.60709028 16.14061067 3.96996262 14.28535512 4.375 10.4375 C4.17112398 7.09666982 4.17112398 7.09666982 3 4.5625 C0.28929176 2.44475919 -1.7485779 2.42638694 -5.125 2.625 C-7.15362431 2.89050182 -7.15362431 2.89050182 -9 4.5 Z " fill="#191919" transform="translate(287,343)"/>
<path d="M0 0 C7 0 7 0 9.4375 1.5 C11.6077527 4.97240433 11.89291241 8.07894985 11 12 C8.875 15 8.875 15 6 17 C4.02 17 2.04 17 0 17 C0 11.39 0 5.78 0 0 Z " fill="#F2F2F2" transform="translate(324,346)"/>
<path d="M0 0 C3.05396642 1.28945249 4.53977809 2.30966714 6.375 5.0625 C7.32318025 9.51894715 7.12440681 13.58428319 6 18 C3.80092022 20.88629221 2.37359142 21.76984386 -1.19140625 22.3671875 C-5.09901135 22.58606489 -7.27756417 22.52376597 -10.5 20.1875 C-13.50520177 15.80491408 -13.67718945 11.14663985 -13 6 C-9.39669759 0.23471614 -6.65938858 -0.45148397 0 0 Z M-9 4.5 C-10.89548576 9.23871441 -10.62129673 13.34320871 -8.875 18 C-7.11077002 20.28563702 -7.11077002 20.28563702 -4.0625 20.5 C-0.76247618 19.9612206 0.65504133 19.34495867 3 17 C4.43852922 12.68441233 4.75077023 8.83000244 3 4.5625 C0.28929176 2.44475919 -1.7485779 2.42638694 -5.125 2.625 C-7.15362431 2.89050182 -7.15362431 2.89050182 -9 4.5 Z " fill="#1B1B1B" transform="translate(151,343)"/>
<path d="M0 0 C0.33 0 0.66 0 1 0 C1.04934926 5.65998046 1.08569529 11.31983636 1.10986328 16.97998047 C1.11993582 18.90643494 1.13359443 20.83287408 1.15087891 22.75927734 C1.17507241 25.52445252 1.18647036 28.289426 1.1953125 31.0546875 C1.20563507 31.9193161 1.21595764 32.7839447 1.22659302 33.67477417 C1.22699106 35.78453521 1.12265243 37.89380718 1 40 C0.34 40.66 -0.32 41.32 -1 42 C-2.30278549 50.33612416 -2.31856569 58.77954808 -2.51757812 67.20117188 C-2.55173828 68.27560547 -2.58589844 69.35003906 -2.62109375 70.45703125 C-2.6461499 71.42616455 -2.67120605 72.39529785 -2.69702148 73.39379883 C-3.00457259 76.03933312 -3.65569804 77.7231915 -5 80 C-5.33 80 -5.66 80 -6 80 C-5.56234148 63.20938796 -4.21854232 46.57673934 -2.56777954 29.87304688 C-1.91759163 23.25398923 -1.35499759 16.62862676 -0.8125 10 C-0.7287915 8.9790625 -0.64508301 7.958125 -0.55883789 6.90625 C-0.37111575 4.60427941 -0.18466806 2.30221728 0 0 Z " fill="#B1411F" transform="translate(266,64)"/>
<path d="M0 0 C0 0.99 0 1.98 0 3 C0.71027344 2.98839844 1.42054688 2.97679687 2.15234375 2.96484375 C3.07144531 2.95582031 3.99054688 2.94679687 4.9375 2.9375 C6.31228516 2.92009766 6.31228516 2.92009766 7.71484375 2.90234375 C10 3 10 3 11 4 C12.77869726 4.15764405 14.56318476 4.25100677 16.34765625 4.31640625 C17.42724609 4.35830078 18.50683594 4.40019531 19.61914062 4.44335938 C21.32360352 4.50233398 21.32360352 4.50233398 23.0625 4.5625 C24.20267578 4.60568359 25.34285156 4.64886719 26.51757812 4.69335938 C29.34492195 4.79982839 32.17235738 4.90184207 35 5 C35.495 5.99 35.495 5.99 36 7 C9.25367023 6.59117483 -17.35586929 4.2209864 -44 2 C-44 1.67 -44 1.34 -44 1 C-39.66251439 0.85505736 -35.32495146 0.71277017 -30.98730469 0.57275391 C-29.51722974 0.5249492 -28.04717664 0.47646726 -26.57714844 0.42724609 C-17.71621021 0.13107558 -8.86725678 -0.07655186 0 0 Z " fill="#0A7BB0" transform="translate(156,212)"/>
<path d="M0 0 C0.99 0 1.98 0 3 0 C3.06058594 1.20398438 3.12117188 2.40796875 3.18359375 3.6484375 C3.26799732 5.22397077 3.35264541 6.79949096 3.4375 8.375 C3.47681641 9.1690625 3.51613281 9.963125 3.55664062 10.78125 C3.68893404 15.02601221 3.68893404 15.02601221 5 19 C6.99954746 19.04254356 9.00041636 19.04080783 11 19 C13.11925604 16.88074396 12.41831017 12.3803907 12.5625 9.4375 C12.60568359 8.63119141 12.64886719 7.82488281 12.69335938 6.99414062 C12.79975262 4.99631195 12.90040888 2.9981793 13 1 C14.32 0.67 15.64 0.34 17 0 C17.13548815 2.73083902 17.23429855 5.45491807 17.3125 8.1875 C17.35439453 8.95642578 17.39628906 9.72535156 17.43945312 10.51757812 C17.53052422 14.76149116 17.37487417 16.49316488 14.76953125 20.015625 C11.94806062 22.03721467 10.77818044 22.66190561 7.375 22.5625 C6.61960937 22.56378906 5.86421875 22.56507813 5.0859375 22.56640625 C3 22 3 22 1.23828125 20.54296875 C-0.64884331 16.66751737 -0.31685747 12.99557851 -0.1875 8.75 C-0.17396484 7.90953125 -0.16042969 7.0690625 -0.14648438 6.203125 C-0.11123464 4.13514062 -0.0574302 2.06748729 0 0 Z " fill="#151515" transform="translate(299,343)"/>
<path d="M0 0 C0.83486938 0.13957123 1.66973877 0.27914246 2.52990723 0.42294312 C16.18548125 2.43247056 29.81502713 2.35198846 43.59375 2.4140625 C46.23890144 2.43280474 48.88403716 2.45228832 51.5291748 2.4727478 C57.73702785 2.51916277 63.9448979 2.55608468 70.15283346 2.58942068 C77.23172134 2.62790897 84.31052137 2.67724717 91.38933468 2.72740483 C105.9261552 2.83016868 120.46303872 2.91960599 135 3 C135 3.33 135 3.66 135 4 C118.72708625 4.04679726 102.45419445 4.08202662 86.18122959 4.10362434 C78.62478442 4.11392073 71.06838116 4.12794962 63.51196289 4.15087891 C56.9229579 4.17086307 50.33398326 4.18372833 43.7449488 4.18817699 C40.25867988 4.19077589 36.77249779 4.19685 33.28625679 4.21146011 C29.38686669 4.2276679 25.4875602 4.22797647 21.58813477 4.22705078 C19.86938141 4.23783661 19.86938141 4.23783661 18.11590576 4.24884033 C11.75749539 4.23254154 6.15107777 3.63301786 0 2 C0 1.34 0 0.68 0 0 Z " fill="#DDFEFE" transform="translate(133,321)"/>
<path d="M0 0 C0.66 0 1.32 0 2 0 C0.22418192 14.62713312 -1.67037531 29.23826356 -3.60687256 43.84487915 C-3.86537491 45.79624882 -4.12308821 47.7477232 -4.37994385 49.6993103 C-6.0661061 62.49888966 -7.92134776 75.25811975 -10 88 C-10.33 88 -10.66 88 -11 88 C-11.18781626 82.60549954 -11.21459736 77.42827467 -10.125 72.125 C-9.05412336 66.86729316 -8.57353625 61.65008138 -8.125 56.3125 C-6.99974709 43.33920314 -4.69432542 30.59583786 -2.43188477 17.7824707 C-2.24940186 16.72503662 -2.06691895 15.66760254 -1.87890625 14.578125 C-1.71205322 13.62196289 -1.5452002 12.66580078 -1.37329102 11.68066406 C-0.87240049 8.083687 -0.93159332 4.62555409 -1 1 C-0.67 0.67 -0.34 0.34 0 0 Z " fill="#BB8503" transform="translate(282,211)"/>
<path d="M0 0 C3.96 0 7.92 0 12 0 C12 0.99 12 1.98 12 3 C9.03 3 6.06 3 3 3 C3 4.98 3 6.96 3 9 C5.64 9 8.28 9 11 9 C11 9.99 11 10.98 11 12 C8.36 12 5.72 12 3 12 C3 14.64 3 17.28 3 20 C5.97 20 8.94 20 12 20 C12 20.66 12 21.32 12 22 C8.04 22 4.08 22 0 22 C0 14.74 0 7.48 0 0 Z " fill="#232323" transform="translate(450,343)"/>
<path d="M0 0 C3.96 0 7.92 0 12 0 C12 0.99 12 1.98 12 3 C9.03 3 6.06 3 3 3 C3 4.98 3 6.96 3 9 C5.64 9 8.28 9 11 9 C11 9.99 11 10.98 11 12 C8.36 12 5.72 12 3 12 C3 14.64 3 17.28 3 20 C5.97 20 8.94 20 12 20 C12 20.66 12 21.32 12 22 C8.04 22 4.08 22 0 22 C0 14.74 0 7.48 0 0 Z " fill="#292929" transform="translate(367,343)"/>
<path d="M0 0 C0.33 0 0.66 0 1 0 C0.4176069 12.97688875 -0.50451998 25.89860994 -1.67456055 38.83544922 C-1.9384894 41.76096704 -2.19515814 44.68706129 -2.45117188 47.61328125 C-3.3831897 58.11749073 -4.47576947 68.56386377 -6 79 C-6.33 79 -6.66 79 -7 79 C-7.14268648 71.94494643 -6.91049676 64.92011841 -6.5625 57.875 C-6.52326416 57.02123779 -6.48402832 56.16747559 -6.44360352 55.2878418 C-6.11947661 49.11947661 -6.11947661 49.11947661 -5 48 C-4.79484401 46.40801213 -4.65196722 44.80792773 -4.53515625 43.20703125 C-4.45837646 42.19382813 -4.38159668 41.180625 -4.30249023 40.13671875 C-4.22329346 39.03972656 -4.14409668 37.94273438 -4.0625 36.8125 C-3.88889462 34.53769356 -3.71439658 32.2629551 -3.5390625 29.98828125 C-3.45043945 28.82893066 -3.36181641 27.66958008 -3.27050781 26.47509766 C-2.8557884 21.1473755 -2.40631926 15.82320941 -1.9375 10.5 C-1.85830322 9.55745361 -1.77910645 8.61490723 -1.69750977 7.64379883 C-1.58234009 6.35058716 -1.58234009 6.35058716 -1.46484375 5.03125 C-1.36610962 3.89526367 -1.36610962 3.89526367 -1.26538086 2.73632812 C-1 1 -1 1 0 0 Z " fill="#DF5128" transform="translate(264,80)"/>
<path d="M0 0 C1.828125 0.02734375 1.828125 0.02734375 4 1 C5.12666239 3.56463939 5.97668335 5.89480072 6.75 8.5625 C6.97042969 9.27341797 7.19085938 9.98433594 7.41796875 10.71679688 C7.96025164 12.4733219 8.48209014 14.23613485 9 16 C11.59537622 12.10693566 12.58068778 8.07978296 13.90234375 3.6171875 C14.26457031 2.75351562 14.62679688 1.88984375 15 1 C15.99 0.67 16.98 0.34 18 0 C17.40583798 5.02454406 16.37365257 9.5554237 14.75 14.375 C14.35296875 15.59960938 13.9559375 16.82421875 13.546875 18.0859375 C12 21 12 21 9.328125 21.9140625 C8.55984375 21.94242187 7.7915625 21.97078125 7 22 C6.01658385 19.27229834 5.03814947 16.54297895 4.0625 13.8125 C3.78470703 13.04357422 3.50691406 12.27464844 3.22070312 11.48242188 C1.86499768 7.67664634 0.63433732 4.0067636 0 0 Z " fill="#131313" transform="translate(400,343)"/>
<path d="M0 0 C0.99 0.66 1.98 1.32 3 2 C3 2.99 3 3.98 3 5 C2.01 4.67 1.02 4.34 0 4 C-3.54178598 3.74996036 -3.54178598 3.74996036 -7 4 C-9.25075045 5.83111848 -9.25075045 5.83111848 -9.265625 8.53125 C-9.26046875 9.5109375 -9.2553125 10.490625 -9.25 11.5 C-9.25773437 12.96953125 -9.25773437 12.96953125 -9.265625 14.46875 C-9.25075045 17.16888152 -9.25075045 17.16888152 -7 19 C-3.46681687 19.23042499 -0.38598829 19.04184255 3 18 C2.34 19.32 1.68 20.64 1 22 C-7.85883347 22.76077768 -7.85883347 22.76077768 -11.625 20.25 C-13.76844388 15.18367811 -13.9775426 10.40260183 -13 5 C-10.07099461 -0.0093237 -5.45898001 -0.72099736 0 0 Z " fill="#181818" transform="translate(114,343)"/>
<path d="M0 0 C0.66 0.33 1.32 0.66 2 1 C1.67 1.99 1.34 2.98 1 4 C-1.31 3.67 -3.62 3.34 -6 3 C-6.12213894 5.34148231 -6.12213894 5.34148231 -5 8 C-3.12604038 9.25461348 -3.12604038 9.25461348 -0.9375 10.375 C1.2421875 11.60546875 1.2421875 11.60546875 3 13 C3.6875 16.6875 3.6875 16.6875 3 20 C-0.20380017 22.13586678 -1.01939967 22.23132175 -4.6875 22.125 C-5.49574219 22.10695313 -6.30398438 22.08890625 -7.13671875 22.0703125 C-7.75160156 22.04710937 -8.36648438 22.02390625 -9 22 C-9.33 20.68 -9.66 19.36 -10 18 C-6.97265625 18.390625 -6.97265625 18.390625 -3.9453125 18.78125 C-1.99501656 19.0372485 -1.99501656 19.0372485 0 19 C0.04510361 16.62102997 0.04510361 16.62102997 -1 14 C-3.22330252 12.33935144 -5.49952076 11.25023962 -8 10 C-9 9 -9 9 -9.25 5.5625 C-9.1675 4.386875 -9.085 3.21125 -9 2 C-5.54337669 -0.30441554 -4.05142119 -0.25860135 0 0 Z " fill="#171717" transform="translate(359,343)"/>
<path d="M0 0 C0.66 0.33 1.32 0.66 2 1 C2 1.99 2 2.98 2 4 C-0.64 4 -3.28 4 -6 4 C-5.80698728 5.93398669 -5.80698728 5.93398669 -5 8 C-3.14775093 9.3408517 -3.14775093 9.3408517 -0.9375 10.375 C1.2421875 11.640625 1.2421875 11.640625 3 13 C3.6875 16.125 3.6875 16.125 3 19 C1.75 20.66796875 1.75 20.66796875 0 22 C-2.26171875 22.29296875 -2.26171875 22.29296875 -4.6875 22.1875 C-5.49574219 22.16042969 -6.30398438 22.13335937 -7.13671875 22.10546875 C-7.75160156 22.07066406 -8.36648438 22.03585937 -9 22 C-9.33 20.68 -9.66 19.36 -10 18 C-6.97265625 18.390625 -6.97265625 18.390625 -3.9453125 18.78125 C-1.99501656 19.0372485 -1.99501656 19.0372485 0 19 C-0.03093173 16.58414426 -0.03093173 16.58414426 -1 14 C-2.96466413 12.93224776 -4.96855359 11.93446535 -7 11 C-8.9375 9.125 -8.9375 9.125 -10 7 C-9.875 4.375 -9.875 4.375 -9 2 C-5.54337669 -0.30441554 -4.05142119 -0.25860135 0 0 Z " fill="#1B1B1B" transform="translate(475,343)"/>
<path d="M0 0 C0.66 0.33 1.32 0.66 2 1 C2 1.99 2 2.98 2 4 C-0.64 4 -3.28 4 -6 4 C-5.80698728 5.93398669 -5.80698728 5.93398669 -5 8 C-3.14775093 9.3408517 -3.14775093 9.3408517 -0.9375 10.375 C1.2421875 11.640625 1.2421875 11.640625 3 13 C3.6875 16.125 3.6875 16.125 3 19 C1.75 20.66796875 1.75 20.66796875 0 22 C-2.26171875 22.29296875 -2.26171875 22.29296875 -4.6875 22.1875 C-5.49574219 22.16042969 -6.30398437 22.13335937 -7.13671875 22.10546875 C-7.75160156 22.07066406 -8.36648437 22.03585937 -9 22 C-9.33 20.68 -9.66 19.36 -10 18 C-6.97265625 18.390625 -6.97265625 18.390625 -3.9453125 18.78125 C-1.99501656 19.0372485 -1.99501656 19.0372485 0 19 C-0.03093173 16.58414426 -0.03093173 16.58414426 -1 14 C-2.96466413 12.93224776 -4.96855359 11.93446535 -7 11 C-8.9375 9.125 -8.9375 9.125 -10 7 C-9.875 4.375 -9.875 4.375 -9 2 C-5.54337669 -0.30441554 -4.05142119 -0.25860135 0 0 Z " fill="#1B1B1B" transform="translate(171,343)"/>
<path d="M0 0 C0.66 0 1.32 0 2 0 C3.2380014 3.57644848 2.74926071 6.33694766 2 10 C1.34 10 0.68 10 0 10 C-0.03738281 10.86496094 -0.07476562 11.72992188 -0.11328125 12.62109375 C-0.58219252 21.60396256 -1.44069153 30.50448749 -2.5 39.4375 C-2.63059814 40.55761475 -2.76119629 41.67772949 -2.89575195 42.83178711 C-3.02296631 43.8760083 -3.15018066 44.92022949 -3.28125 45.99609375 C-3.39533203 46.93638428 -3.50941406 47.8766748 -3.62695312 48.84545898 C-4 51 -4 51 -5 52 C-5.397493 54.34723966 -5.74368723 56.70328548 -6.0625 59.0625 C-6.23910156 60.35285156 -6.41570312 61.64320313 -6.59765625 62.97265625 C-6.73042969 63.97167969 -6.86320312 64.97070312 -7 66 C-7.33 66 -7.66 66 -8 66 C-7.48878456 51.8621567 -5.4610965 37.98700347 -3.4375 24 C-3.10424644 21.66414393 -2.77155994 19.32820689 -2.43945312 16.9921875 C-1.63283038 11.32717582 -0.81923935 5.66320017 0 0 Z " fill="#F2B313" transform="translate(283,214)"/>
<path d="M0 0 C0.80824219 0.11085938 1.61648438 0.22171875 2.44921875 0.3359375 C3.37154297 0.47902344 3.37154297 0.47902344 4.3125 0.625 C4.6425 1.945 4.9725 3.265 5.3125 4.625 C4.3225 4.295 3.3325 3.965 2.3125 3.625 C-1.22937831 3.29161404 -1.22937831 3.29161404 -4.6875 3.625 C-6.78490836 6.77111253 -6.94078219 7.53688078 -6.875 11.125 C-6.86855469 11.8984375 -6.86210937 12.671875 -6.85546875 13.46875 C-6.7605565 15.80848849 -6.7605565 15.80848849 -5.6875 18.625 C-0.10919984 18.74969099 -0.10919984 18.74969099 5.3125 17.625 C5.3125 18.615 5.3125 19.605 5.3125 20.625 C1.86218739 22.35015631 -1.91466304 22.12177924 -5.6875 21.625 C-8.71965675 19.42668636 -9.50404398 18.17536806 -10.6875 14.625 C-11.03297151 9.27019163 -11.15112011 5.9865957 -7.6875 1.625 C-4.33422361 -0.61051759 -3.78006343 -0.54783528 0 0 Z " fill="#181818" transform="translate(440.6875,343.375)"/>
<path d="M0 0 C3.63 0 7.26 0 11 0 C11 0.99 11 1.98 11 3 C8.36 3 5.72 3 3 3 C3 5.31 3 7.62 3 10 C5.64 10 8.28 10 11 10 C11 10.99 11 11.98 11 13 C8.36 13 5.72 13 3 13 C3 15.97 3 18.94 3 22 C2.01 22 1.02 22 0 22 C0 14.74 0 7.48 0 0 Z " fill="#202020" transform="translate(202,343)"/>
<path d="M0 0 C0.99 0.66 1.98 1.32 3 2 C3 2.66 3 3.32 3 4 C2.37351562 3.97679687 1.74703125 3.95359375 1.1015625 3.9296875 C0.28429687 3.91164063 -0.53296875 3.89359375 -1.375 3.875 C-2.59316406 3.84019531 -2.59316406 3.84019531 -3.8359375 3.8046875 C-6.21342243 3.78629949 -6.21342243 3.78629949 -8 6 C-8.31923475 8.33560151 -8.31923475 8.33560151 -8.25 10.9375 C-8.25515625 11.81277344 -8.2603125 12.68804687 -8.265625 13.58984375 C-8.15833837 16.26105634 -8.15833837 16.26105634 -6 19 C-2.58410104 19.29071481 -0.26157733 19.08719244 3 18 C2.67 19.32 2.34 20.64 2 22 C-6.85883347 22.76077768 -6.85883347 22.76077768 -10.625 20.25 C-12.76704473 15.18698519 -12.98434424 10.398979 -12 5 C-9.25277183 0.44637523 -5.13010578 -0.79801645 0 0 Z " fill="#2E2E2E" transform="translate(254,343)"/>
<path d="M0 0 C12.87 0.66 25.74 1.32 39 2 C39 2.33 39 2.66 39 3 C26.63051353 3.14420386 14.34858538 2.71511973 2 2 C2 3.98 2 5.96 2 8 C3.65 8 5.3 8 7 8 C6.67 8.66 6.34 9.32 6 10 C4.68 10 3.36 10 2 10 C2.66 19.24 3.32 28.48 4 38 C-1.77792257 26.44415487 -0.15272635 12.52356091 0 0 Z " fill="#189CD7" transform="translate(57,210)"/>
<path d="M0 0 C5.61 0 11.22 0 17 0 C17 0.99 17 1.98 17 3 C14.69 3 12.38 3 10 3 C10 9.27 10 15.54 10 22 C9.01 22 8.02 22 7 22 C7 15.73 7 9.46 7 3 C4.69 3 2.38 3 0 3 C0 2.01 0 1.02 0 0 Z " fill="#222222" transform="translate(215,343)"/>
<path d="M0 0 C1.66790986 0.07053964 3.3385533 0.08424537 5.0078125 0.0625 C5.99523437 0.05476562 6.98265625 0.04703125 8 0.0390625 C10.05989952 0.01331376 12.11979548 -0.01272117 14.1796875 -0.0390625 C20.21729239 -0.08598689 26.01322513 0.20342289 32 1 C32 1.66 32 2.32 32 3 C18.28177787 3.276 4.68240431 2.40904202 -9 1.5 C-11.23955303 1.35499997 -13.47913625 1.21046542 -15.71875 1.06640625 C-21.14619253 0.71629498 -26.57323617 0.36047064 -32 0 C-32 -0.33 -32 -0.66 -32 -1 C-8.4427334 -2.81424447 -8.4427334 -2.81424447 0 0 Z " fill="#7CAF0F" transform="translate(352,200)"/>
<path d="M0 0 C1.32 0.33 2.64 0.66 4 1 C4 7.27 4 13.54 4 20 C6.64 20 9.28 20 12 20 C12 20.66 12 21.32 12 22 C8.04 22 4.08 22 0 22 C0 14.74 0 7.48 0 0 Z " fill="#444444" transform="translate(261,343)"/>
<path d="M0 0 C5.54891451 0.30892017 11.1054408 0.43974796 16.66015625 0.60546875 C18.34818359 0.66154297 18.34818359 0.66154297 20.0703125 0.71875 C21.59809326 0.76418945 21.59809326 0.76418945 23.15673828 0.81054688 C25.85511268 0.99034582 28.36563858 1.40317609 31 2 C31 2.66 31 3.32 31 4 C13.89450569 4.27639039 -3.01871107 2.95864811 -20 1 C-20 0.67 -20 0.34 -20 0 C-17.98011288 -0.19743258 -15.95901122 -0.3824556 -13.9375 -0.5625 C-12.24947266 -0.71912109 -12.24947266 -0.71912109 -10.52734375 -0.87890625 C-6.85222296 -1.00507319 -3.63986384 -0.52311611 0 0 Z " fill="#7BAE10" transform="translate(289,195)"/>
<path d="M0 0 C1.32 0 2.64 0 4 0 C4 2.64 4 5.28 4 8 C-3.95575409 8.14268634 -11.76620042 7.71791325 -19.6875 7 C-20.78255859 6.90460938 -21.87761719 6.80921875 -23.00585938 6.7109375 C-25.67097457 6.47817635 -28.33563186 6.2411367 -31 6 C-31 5.67 -31 5.34 -31 5 C-12.17995444 4.81548975 -12.17995444 4.81548975 -3 6 C-3 5.34 -3 4.68 -3 4 C-2.01 4 -1.02 4 0 4 C0 2.68 0 1.36 0 0 Z " fill="#0D7BAB" transform="translate(263,216)"/>
<path d="M0 0 C0.33 0 0.66 0 1 0 C0.88637738 1.4800841 0.75877092 2.95910074 0.625 4.4375 C0.55539063 5.26121094 0.48578125 6.08492187 0.4140625 6.93359375 C0.27742188 7.61550781 0.14078125 8.29742187 0 9 C-0.99 9.495 -0.99 9.495 -2 10 C-2.65772428 13.02934491 -2.65772428 13.02934491 -3 16 C-3.66 16 -4.32 16 -5 16 C-4.938125 17.03125 -4.87625 18.0625 -4.8125 19.125 C-5.01460421 23.30182032 -6.12891321 25.33578836 -8 29 C-8.25196823 32.25100364 -8.25196823 32.25100364 -8 35 C-8.66 35 -9.32 35 -10 35 C-10.26234082 29.34093375 -9.37512586 24.61496294 -7.8125 19.1875 C-7.59053955 18.39939941 -7.3685791 17.61129883 -7.13989258 16.79931641 C-5.39719585 10.84413272 -3.16342272 5.35762657 0 0 Z " fill="#DF5D38" transform="translate(68,174)"/>
<path d="M0 0 C4.39656173 -0.02465504 8.7930872 -0.04283842 13.18969727 -0.05493164 C14.68644918 -0.05997121 16.18319616 -0.06680287 17.67993164 -0.07543945 C19.82699807 -0.08752159 21.97399962 -0.09323191 24.12109375 -0.09765625 C26.06133423 -0.10551147 26.06133423 -0.10551147 28.04077148 -0.11352539 C31 0 31 0 32 1 C35.29684855 1.28609016 38.59381125 1.44890147 41.8984375 1.62109375 C45 2 45 2 48 4 C31.94957372 3.47100685 15.99152724 2.47188896 0 1 C0 0.67 0 0.34 0 0 Z " fill="#7CAD10" transform="translate(384,203)"/>
<path d="M0 0 C7.36182997 -0.525845 13.51486674 0.40545703 20.5625 2.375 C21.36026855 2.59631592 22.15803711 2.81763184 22.97998047 3.0456543 C28.72708717 4.72708717 28.72708717 4.72708717 31 7 C28.03 7 25.06 7 22 7 C22 6.34 22 5.68 22 5 C21.01 5.495 21.01 5.495 20 6 C18.00039988 6.039992 15.99952758 6.04346799 14 6 C14.33 5.34 14.66 4.68 15 4 C10.38 3.01 5.76 2.02 1 1 C1 3.64 1 6.28 1 9 C0.67 9 0.34 9 0 9 C0 6.03 0 3.06 0 0 Z " fill="#86B41A" transform="translate(269,48)"/>
<path d="M0 0 C2.31 0 4.62 0 7 0 C5.68 0.33 4.36 0.66 3 1 C3 3.64 3 6.28 3 9 C3.66 9.33 4.32 9.66 5 10 C4.67 10.33 4.34 10.66 4 11 C3.76712992 12.68183948 3.58735834 14.3712416 3.4375 16.0625 C3.31181641 17.44115234 3.31181641 17.44115234 3.18359375 18.84765625 C3.12300781 19.55792969 3.06242187 20.26820313 3 21 C2.01 21 1.02 21 0 21 C0 14.07 0 7.14 0 0 Z " fill="#030303" transform="translate(384,344)"/>
<path d="M0 0 C3.125 -0.1875 3.125 -0.1875 6 0 C5.34 0.66 4.68 1.32 4 2 C3.54367188 2.45761719 3.08734375 2.91523437 2.6171875 3.38671875 C1.46082551 4.5402876 0.29870256 5.68809309 -0.8671875 6.83203125 C-5.47181056 11.37394544 -9.80831626 16.0747716 -14 21 C-14.33 20.34 -14.66 19.68 -15 19 C-7.08591593 7.7867444 -7.08591593 7.7867444 -2 3 C-1.34 2.01 -0.68 1.02 0 0 Z " fill="#FDE6E0" transform="translate(194,67)"/>
<path d="M0 0 C0.99 0 1.98 0 3 0 C3 5.61 3 11.22 3 17 C1.68 17.33 0.36 17.66 -1 18 C-1.02684312 15.18743719 -1.04676188 12.37512759 -1.0625 9.5625 C-1.07087891 8.76005859 -1.07925781 7.95761719 -1.08789062 7.13085938 C-1.0965143 5.08704779 -1.0522815 3.04316098 -1 1 C-0.67 0.67 -0.34 0.34 0 0 Z " fill="#404040" transform="translate(313,343)"/>
<path d="M0 0 C0.33 0 0.66 0 1 0 C1.01981934 0.58265625 1.03963867 1.1653125 1.06005859 1.765625 C1.49343048 13.94792422 2.21954381 25.93438427 4 38 C3.67 37.34 3.34 36.68 3 36 C2.34 36 1.68 36 1 36 C0.93941406 35.08476562 0.87882812 34.16953125 0.81640625 33.2265625 C0.73261719 32.03804687 0.64882813 30.84953125 0.5625 29.625 C0.48128906 28.44164062 0.40007813 27.25828125 0.31640625 26.0390625 C0.18915064 23.08481099 0.18915064 23.08481099 -1 21 C-1.09540346 19.49064528 -1.13073487 17.97720917 -1.1328125 16.46484375 C-1.13410156 15.57345703 -1.13539062 14.68207031 -1.13671875 13.76367188 C-1.13285156 12.83103516 -1.12898438 11.89839844 -1.125 10.9375 C-1.12886719 10.00099609 -1.13273437 9.06449219 -1.13671875 8.09960938 C-1.13542969 7.20951172 -1.13414063 6.31941406 -1.1328125 5.40234375 C-1.13168457 4.58241943 -1.13055664 3.76249512 -1.12939453 2.91772461 C-1 1 -1 1 0 0 Z " fill="#DDFDFF" transform="translate(56,210)"/>
<path d="M0 0 C0.66 0 1.32 0 2 0 C1.54363464 1.396478 1.08480512 2.7921508 0.625 4.1875 C0.24214844 5.35345703 0.24214844 5.35345703 -0.1484375 6.54296875 C-1.01991102 9.05744968 -2.0116485 11.52912126 -3 14 C-9.6 14.33 -16.2 14.66 -23 15 C-23 14.01 -23 13.02 -23 12 C-21.80761719 11.96261719 -20.61523438 11.92523438 -19.38671875 11.88671875 C-17.820281 11.82105968 -16.25387616 11.75461232 -14.6875 11.6875 C-13.90181641 11.66494141 -13.11613281 11.64238281 -12.30664062 11.61914062 C-11.54931641 11.58369141 -10.79199219 11.54824219 -10.01171875 11.51171875 C-9.31522217 11.48553467 -8.61872559 11.45935059 -7.90112305 11.43237305 C-5.43967329 10.87256471 -4.53401212 9.97917415 -3 8 C-2.2730774 4.89160979 -2.2730774 4.89160979 -2 2 C-1.34 2 -0.68 2 0 2 C0 1.34 0 0.68 0 0 Z " fill="#FEE4D0" transform="translate(167,105)"/>
<path d="M0 0 C0.99 0 1.98 0 3 0 C3 7.26 3 14.52 3 22 C2.01 22 1.02 22 0 22 C0 14.74 0 7.48 0 0 Z " fill="#191919" transform="translate(422,343)"/>
<path d="M0 0 C0.99 0 1.98 0 3 0 C3 7.26 3 14.52 3 22 C2.01 22 1.02 22 0 22 C0 14.74 0 7.48 0 0 Z " fill="#040404" transform="translate(93,343)"/>
<path d="M0 0 C0.99 0 1.98 0 3 0 C3 6.93 3 13.86 3 21 C2.01 21 1.02 21 0 21 C0 14.07 0 7.14 0 0 Z " fill="#020202" transform="translate(84,344)"/>
<path d="M0 0 C0.99 0 1.98 0 3 0 C3 6.93 3 13.86 3 21 C2.01 21 1.02 21 0 21 C0 14.07 0 7.14 0 0 Z " fill="#020202" transform="translate(63,344)"/>
<path d="M0 0 C2.64 0 5.28 0 8 0 C8 0.33 8 0.66 8 1 C6.02 1 4.04 1 2 1 C2 6.94 2 12.88 2 19 C4.31 19 6.62 19 9 19 C9 19.66 9 20.32 9 21 C6.03 21 3.06 21 0 21 C0 14.07 0 7.14 0 0 Z " fill="#020202" transform="translate(322,344)"/>
<path d="M0 0 C7.9909291 0.18782098 7.9909291 0.18782098 11.5625 3.0625 C13.49058302 7.00249574 13.29513021 9.64682942 13 14 C12.01 14 11.02 14 10 14 C9.9484375 13.38511719 9.896875 12.77023437 9.84375 12.13671875 C9.4789194 9.53730069 9.06611612 7.40515796 8 5 C5.3379552 3.23979079 3.16061444 2.76466478 0 2 C0 1.34 0 0.68 0 0 Z " fill="#1F1F1F" transform="translate(184,343)"/>
<path d="M0 0 C0.99 0.66 1.98 1.32 3 2 C3 2.99 3 3.98 3 5 C2.01 4.67 1.02 4.34 0 4 C-3.54178598 3.74996036 -3.54178598 3.74996036 -7 4 C-9.29575603 6.29575603 -9.32339599 7.00842525 -9.625 10.125 C-9.74875 11.40375 -9.8725 12.6825 -10 14 C-10.33 14 -10.66 14 -11 14 C-11 12.02 -11 10.04 -11 8 C-11.66 8 -12.32 8 -13 8 C-12.68151851 5.02750614 -11.96374181 3.96160897 -9.875 1.75 C-6.28872692 -0.43294883 -4.13387309 -0.45931923 0 0 Z " fill="#232323" transform="translate(114,343)"/>
<path d="M0 0 C0.33 0 0.66 0 1 0 C1 1.98 1 3.96 1 6 C0.01 6.33 -0.98 6.66 -2 7 C-2.12375 7.928125 -2.2475 8.85625 -2.375 9.8125 C-3 13 -3 13 -5 16 C-5.66 16 -6.32 16 -7 16 C-6.938125 17.1446875 -6.938125 17.1446875 -6.875 18.3125 C-7 21 -7 21 -9 24 C-9.99 24 -10.98 24 -12 24 C-12.33 24.99 -12.66 25.98 -13 27 C-13.66 26.67 -14.32 26.34 -15 26 C-14.41992188 25.12859375 -13.83984375 24.2571875 -13.2421875 23.359375 C-8.2575317 15.78782709 -3.8421578 8.22673787 0 0 Z " fill="#FEF2B9" transform="translate(469,254)"/>
<path d="M0 0 C0 1.65 0 3.3 0 5 C-0.99 4.67 -1.98 4.34 -3 4 C-3.31453125 4.5053125 -3.6290625 5.010625 -3.953125 5.53125 C-4.59507813 6.50578125 -4.59507813 6.50578125 -5.25 7.5 C-5.66765625 8.1496875 -6.0853125 8.799375 -6.515625 9.46875 C-7.00546875 9.9740625 -7.4953125 10.479375 -8 11 C-9.32 11 -10.64 11 -12 11 C-12 11.99 -12 12.98 -12 14 C-12.66 14 -13.32 14 -14 14 C-14 14.66 -14 15.32 -14 16 C-15.65 16.33 -17.3 16.66 -19 17 C-15.30037391 12.2727 -11.28827892 8.38466458 -6.6875 4.5625 C-6.14770508 4.11342285 -5.60791016 3.6643457 -5.05175781 3.20166016 C-1.13930677 0 -1.13930677 0 0 0 Z " fill="#DF5E39" transform="translate(101,137)"/>
<path d="M0 0 C0.33 0 0.66 0 1 0 C1.125 2.875 1.125 2.875 1 6 C-1 8 -1 8 -3.52197266 8.22705078 C-4.5588623 8.21657715 -5.59575195 8.20610352 -6.6640625 8.1953125 C-7.78554687 8.18886719 -8.90703125 8.18242188 -10.0625 8.17578125 C-11.238125 8.15902344 -12.41375 8.14226562 -13.625 8.125 C-15.40003906 8.11146484 -15.40003906 8.11146484 -17.2109375 8.09765625 C-20.14082523 8.07402812 -23.0703134 8.04108514 -26 8 C-26 7.67 -26 7.34 -26 7 C-18.02509872 5.67084979 -10.05813281 5.91198641 -2 6 C-1.34 4.02 -0.68 2.04 0 0 Z " fill="#D75E3A" transform="translate(166,113)"/>
<path d="M0 0 C0 0.66 0 1.32 0 2 C1.32 2.33 2.64 2.66 4 3 C3.05125 3.103125 2.1025 3.20625 1.125 3.3125 C-2.29107501 3.68539295 -2.29107501 3.68539295 -4 7 C-4.66613335 9.27538323 -4.66613335 9.27538323 -5.125 11.6875 C-5.29257812 12.49574219 -5.46015625 13.30398438 -5.6328125 14.13671875 C-5.75398438 14.75160156 -5.87515625 15.36648438 -6 16 C-6.66 15.67 -7.32 15.34 -8 15 C-8.44070796 6.33274336 -8.44070796 6.33274336 -5 2 C-2 0 -2 0 0 0 Z " fill="#1D1D1D" transform="translate(282,343)"/>
<path d="M0 0 C2.31 0 4.62 0 7 0 C7.625 2.375 7.625 2.375 8 5 C6 7 6 7 2.875 7.125 C1.451875 7.063125 1.451875 7.063125 0 7 C0 4.69 0 2.38 0 0 Z " fill="#E5E5E5" transform="translate(123,346)"/>
<path d="M0 0 C1.65 0 3.3 0 5 0 C5.81917642 1.72601379 6.63006016 3.4559647 7.4375 5.1875 C8.11619141 6.63189453 8.11619141 6.63189453 8.80859375 8.10546875 C9.90381422 10.76631586 10.54954796 13.16784755 11 16 C10.01 16.33 9.02 16.66 8 17 C7.1605118 14.89828133 6.32860344 12.79353375 5.5 10.6875 C4.80390625 8.92986328 4.80390625 8.92986328 4.09375 7.13671875 C3 4 3 4 3 1 C2.01 0.67 1.02 0.34 0 0 Z " fill="#282828" transform="translate(63,343)"/>
<path d="M0 0 C0.33 0 0.66 0 1 0 C1.13277344 0.71027344 1.26554688 1.42054688 1.40234375 2.15234375 C1.57894531 3.07144531 1.75554687 3.99054688 1.9375 4.9375 C2.19853516 6.31228516 2.19853516 6.31228516 2.46484375 7.71484375 C2.77714988 9.95289844 2.77714988 9.95289844 4 11 C7.36629251 11.14636054 9.78419562 11.07193479 13 10 C12.67 11.32 12.34 12.64 12 14 C3.08647937 14.7654741 3.08647937 14.7654741 -0.75 12.0625 C-2.54899147 7.65497089 -1.42355753 4.41495206 0 0 Z " fill="#2A2A2A" transform="translate(244,351)"/>
<path d="M0 0 C0.33 0 0.66 0 1 0 C1.33 4.62 1.66 9.24 2 14 C2.33 14 2.66 14 3 14 C3.08096803 15.45742463 3.13917774 16.91612807 3.1875 18.375 C3.22230469 19.18710938 3.25710938 19.99921875 3.29296875 20.8359375 C3.19628906 21.55007812 3.09960938 22.26421875 3 23 C2.01 23.66 1.02 24.32 0 25 C-1 24 -1 24 -1.02172852 21.68334961 C-0.97459717 20.68311768 -0.92746582 19.68288574 -0.87890625 18.65234375 C-0.83056641 17.57275391 -0.78222656 16.49316406 -0.73242188 15.38085938 C-0.67634766 14.24455078 -0.62027344 13.10824219 -0.5625 11.9375 C-0.51029297 10.79732422 -0.45808594 9.65714844 -0.40429688 8.48242188 C-0.27415067 5.65469977 -0.13917121 2.82729 0 0 Z " fill="#AC441F" transform="translate(259,144)"/>
<path d="M0 0 C3.96 0 7.92 0 12 0 C12 0.99 12 1.98 12 3 C8.7 3 5.4 3 2 3 C2 5.31 2 7.62 2 10 C1.34 10 0.68 10 0 10 C0 6.7 0 3.4 0 0 Z " fill="#202020" transform="translate(367,343)"/>
<path d="M0 0 C4.95 0 9.9 0 15 0 C14.01 1.485 14.01 1.485 13 3 C12.67 3.99 12.34 4.98 12 6 C11.67 5.34 11.34 4.68 11 4 C7.37 4 3.74 4 0 4 C0 2.68 0 1.36 0 0 Z " fill="#AA830F" transform="translate(269,210)"/>
<path d="M0 0 C1.99954746 -0.04254356 4.00041636 -0.04080783 6 0 C7 1 7 1 7.0625 3.5625 C7.041875 4.366875 7.02125 5.17125 7 6 C4.69 6.33 2.38 6.66 0 7 C0 4.69 0 2.38 0 0 Z " fill="#F9F9F9" transform="translate(387,346)"/>
<path d="M0 0 C1.85546875 0.12890625 1.85546875 0.12890625 4 1 C5.30078125 3.65234375 5.30078125 3.65234375 6.3125 6.9375 C6.65925781 8.01902344 7.00601562 9.10054688 7.36328125 10.21484375 C8 13 8 13 7 15 C3.63389189 12.75592792 3.21711616 11.72741802 1.8125 8.0625 C1.46832031 7.18722656 1.12414062 6.31195313 0.76953125 5.41015625 C0 3 0 3 0 0 Z " fill="#191919" transform="translate(400,343)"/>
<path d="M0 0 C0.80824219 0.11085938 1.61648438 0.22171875 2.44921875 0.3359375 C3.37154297 0.47902344 3.37154297 0.47902344 4.3125 0.625 C4.6425 1.945 4.9725 3.265 5.3125 4.625 C4.3225 4.295 3.3325 3.965 2.3125 3.625 C-2.45043983 3.08846242 -2.45043983 3.08846242 -6.5 5.125 C-7.0878125 5.8675 -7.0878125 5.8675 -7.6875 6.625 C-8.3475 6.625 -9.0075 6.625 -9.6875 6.625 C-7.81276965 1.14501899 -5.88925257 -0.85351487 0 0 Z " fill="#1F1F1F" transform="translate(440.6875,343.375)"/>
<path d="M0 0 C0.33 0 0.66 0 1 0 C0.67 5.61 0.34 11.22 0 17 C-1.32 16.67 -2.64 16.34 -4 16 C-3.67 15.67 -3.34 15.34 -3 15 C-3.00909546 12.24862398 -3.13305113 9.5101384 -3.2578125 6.76171875 C-2.96136597 3.58614754 -2.16662706 2.29183415 0 0 Z " fill="#E75129" transform="translate(254,192)"/>
<path d="M0 0 C1.24546405 2.49092811 0.7767578 3.41080733 0 6 C0.66 6.33 1.32 6.66 2 7 C-0.97 6.505 -0.97 6.505 -4 6 C-4.226875 6.639375 -4.45375 7.27875 -4.6875 7.9375 C-6 10 -6 10 -8.625 10.75 C-9.40875 10.8325 -10.1925 10.915 -11 11 C-7.6189962 6.86378916 -4.33409466 3.18683431 0 0 Z " fill="#E15B2F" transform="translate(197,70)"/>
<path d="M0 0 C0.66 0 1.32 0 2 0 C1.80743982 9.17286652 1.80743982 9.17286652 -1.5625 12.625 C-2.366875 13.07875 -3.17125 13.5325 -4 14 C-4.66 13.01 -5.32 12.02 -6 11 C-5.01 10.34 -4.02 9.68 -3 9 C-1.99194445 6.82102508 -1.99194445 6.82102508 -1.3125 4.375 C-1.06113281 3.55773437 -0.80976563 2.74046875 -0.55078125 1.8984375 C-0.36902344 1.27195312 -0.18726563 0.64546875 0 0 Z " fill="#1C1C1C" transform="translate(156,351)"/>
<path d="M0 0 C0.99 0 1.98 0 3 0 C3.21914062 0.53109375 3.43828125 1.0621875 3.6640625 1.609375 C5.44723558 5.58164674 6.46767984 7.64511989 10.1875 10.125 C13 12 13 12 13.875 15.25 C13.91625 16.1575 13.9575 17.065 14 18 C7.69105147 13.58373603 3.94748979 7.53239427 0 1 C0 0.67 0 0.34 0 0 Z " fill="#20A1DC" transform="translate(71,273)"/>
<path d="M0 0 C2.09782787 2.09782787 2.6509396 3.3799207 3.625 6.125 C4.01558594 7.21167969 4.01558594 7.21167969 4.4140625 8.3203125 C4.70410156 9.15175781 4.70410156 9.15175781 5 10 C5.33 9.34 5.66 8.68 6 8 C6.66 8 7.32 8 8 8 C7.67 11.63 7.34 15.26 7 19 C4.39350532 16.39350532 3.55975019 13.46865679 2.375 10.0625 C2.03082031 9.11213867 2.03082031 9.11213867 1.6796875 8.14257812 C0.67198284 5.29041404 0 3.04816693 0 0 Z " fill="#1C9ED8" transform="translate(61,248)"/>
<path d="M0 0 C1.875 0.3125 1.875 0.3125 4 1 C4.66 1.99 5.32 2.98 6 4 C8.21932277 4.50776044 8.21932277 4.50776044 10.7890625 4.51171875 C11.73007812 4.54716797 12.67109375 4.58261719 13.640625 4.61914062 C14.62546875 4.64169922 15.6103125 4.66425781 16.625 4.6875 C18.11386719 4.73874023 18.11386719 4.73874023 19.6328125 4.79101562 C22.08842906 4.87365657 24.54368141 4.94275127 27 5 C27 5.33 27 5.66 27 6 C19.41 6.33 11.82 6.66 4 7 C2.02 3.535 2.02 3.535 0 0 Z " fill="#E4F7BE" transform="translate(344,88)"/>
<path d="M0 0 C0.66 0 1.32 0 2 0 C1.67 0.99 1.34 1.98 1 3 C0.34 3 -0.32 3 -1 3 C-1.99 5.97 -2.98 8.94 -4 12 C-3.01 12.33 -2.02 12.66 -1 13 C-2.423125 12.9690625 -2.423125 12.9690625 -3.875 12.9375 C-6.90666283 12.77448174 -6.90666283 12.77448174 -9 14 C-7.65686815 10.21908383 -5.97035316 7.34348084 -3.5 4.1875 C-2.8915625 3.39730469 -2.283125 2.60710937 -1.65625 1.79296875 C-0.83640625 0.90544922 -0.83640625 0.90544922 0 0 Z " fill="#DB623C" transform="translate(184,82)"/>
<path d="M0 0 C1.28970458 2.57940917 1.26710399 4.12863207 1 7 C-0.375 9.8125 -0.375 9.8125 -2 12 C-2.66 12 -3.32 12 -4 12 C-4.33 12.99 -4.66 13.98 -5 15 C-5.66 15 -6.32 15 -7 15 C-5.67231025 9.20644472 -3.33455096 4.9000081 0 0 Z " fill="#E65F3C" transform="translate(174,96)"/>
<path d="M0 0 C1.65 0 3.3 0 5 0 C5 0.66 5 1.32 5 2 C5.721875 1.95875 6.44375 1.9175 7.1875 1.875 C10 2 10 2 12.5625 3.0625 C15.2634526 4.10132792 16.33827144 3.98582539 19 3 C18.67 3.66 18.34 4.32 18 5 C17.34 5 16.68 5 16 5 C16 5.99 16 6.98 16 8 C12.34061828 6.56835889 8.76011932 5.01065704 5.1875 3.375 C4.21167969 2.92898437 3.23585938 2.48296875 2.23046875 2.0234375 C1.49441406 1.68570313 0.75835937 1.34796875 0 1 C0 0.67 0 0.34 0 0 Z " fill="#ECF8CD" transform="translate(298,53)"/>
<path d="M0 0 C0 0.99 0 1.98 0 3 C-2 5 -2 5 -4.625 5.125 C-5.40875 5.08375 -6.1925 5.0425 -7 5 C-7 5.66 -7 6.32 -7 7 C-7.66 7 -8.32 7 -9 7 C-9 7.66 -9 8.32 -9 9 C-10.98 9 -12.96 9 -15 9 C-10.50898372 4.95808535 -5.41015011 2.56325559 0 0 Z " fill="#DE5F3E" transform="translate(116,128)"/>
<path d="M0 0 C0 0.66 0 1.32 0 2 C-1.32064453 2.29003906 -1.32064453 2.29003906 -2.66796875 2.5859375 C-4.41013672 2.97652344 -4.41013672 2.97652344 -6.1875 3.375 C-7.33605469 3.63023438 -8.48460937 3.88546875 -9.66796875 4.1484375 C-12.94558768 4.89176478 -12.94558768 4.89176478 -15.67578125 6.1640625 C-18.28530314 7.10261323 -19.43988367 6.94819123 -22 6 C-19.75083381 5.18512829 -17.50073022 4.37303082 -15.25 3.5625 C-14.61578125 3.33240234 -13.9815625 3.10230469 -13.328125 2.86523438 C-8.62309819 1.17436536 -5.00247512 0 0 0 Z " fill="#DA603F" transform="translate(140,121)"/>
<path d="M0 0 C0.66 0.33 1.32 0.66 2 1 C1.42655063 3.86724686 1.1385485 4.8614515 -1 7 C-3.1640625 7.1953125 -3.1640625 7.1953125 -5.625 7.125 C-6.44226563 7.10695313 -7.25953125 7.08890625 -8.1015625 7.0703125 C-8.72804688 7.04710937 -9.35453125 7.02390625 -10 7 C-10.33 5.68 -10.66 4.36 -11 3 C-8.98177083 3.29296875 -6.96354167 3.5859375 -4.9453125 3.87890625 C-2.91859333 4.1684297 -2.91859333 4.1684297 -1 3 C-0.67 2.01 -0.34 1.02 0 0 Z " fill="#0D0D0D" transform="translate(476,358)"/>
<path d="M0 0 C0.66 0.33 1.32 0.66 2 1 C1.42655063 3.86724686 1.1385485 4.8614515 -1 7 C-3.1640625 7.1953125 -3.1640625 7.1953125 -5.625 7.125 C-6.44226563 7.10695313 -7.25953125 7.08890625 -8.1015625 7.0703125 C-8.72804687 7.04710937 -9.35453125 7.02390625 -10 7 C-10.33 5.68 -10.66 4.36 -11 3 C-8.98177083 3.29296875 -6.96354167 3.5859375 -4.9453125 3.87890625 C-2.91859333 4.1684297 -2.91859333 4.1684297 -1 3 C-0.67 2.01 -0.34 1.02 0 0 Z " fill="#0D0D0D" transform="translate(172,358)"/>
<path d="M0 0 C1.46366342 0.39753821 2.9208935 0.81881384 4.375 1.25 C5.18710938 1.48203125 5.99921875 1.7140625 6.8359375 1.953125 C9.48835823 3.2362455 9.86804091 4.35523577 11 7 C11.66 7.33 12.32 7.66 13 8 C13 8.66 13 9.32 13 10 C7.65978754 8.49806525 3.86352256 4.82517494 0 1 C0 0.67 0 0.34 0 0 Z " fill="#27A5DF" transform="translate(91,297)"/>
<path d="M0 0 C2.96404505 2.80804268 5.44499019 5.18315774 7 9 C4.69 9 2.38 9 0 9 C-1.125 3.375 -1.125 3.375 0 0 Z " fill="#80B80B" transform="translate(451,134)"/>
<path d="M0 0 C7.34312796 0.60189573 7.34312796 0.60189573 10.0625 2.25 C11.40469845 4.75543711 10.7875684 6.3509063 10 9 C9.46375 8.21625 8.9275 7.4325 8.375 6.625 C5.69757158 3.66573701 3.81566975 2.95391744 0 2 C0 1.34 0 0.68 0 0 Z " fill="#0D0D0D" transform="translate(146,343)"/>
<path d="M0 0 C1 2 1 2 0.4375 3.8125 C-1.66112135 7.00605423 -3.85152429 8.796067 -7 11 C-9.375 10.8125 -9.375 10.8125 -11 10 C-10.195625 9.38125 -9.39125 8.7625 -8.5625 8.125 C-5.96125481 6.25835959 -5.96125481 6.25835959 -5 4 C-4.34 4 -3.68 4 -3 4 C-3 3.34 -3 2.68 -3 2 C-2.01 1.34 -1.02 0.68 0 0 Z " fill="#FEF6CF" transform="translate(447,288)"/>
<path d="M0 0 C1.32 0 2.64 0 4 0 C4 0.66 4 1.32 4 2 C5.3303125 2.433125 5.3303125 2.433125 6.6875 2.875 C9.50382424 3.83148748 12.25083156 4.86798946 15 6 C15 7.65 15 9.3 15 11 C14.50371094 10.61328125 14.00742187 10.2265625 13.49609375 9.828125 C9.15116853 6.49729049 4.81370839 3.60742538 0 1 C0 0.67 0 0.34 0 0 Z " fill="#E9F8C7" transform="translate(314,61)"/>
<path d="M0 0 C0.66 0.33 1.32 0.66 2 1 C0.71426358 3.57147284 -0.21354542 3.63147834 -2.875 4.5625 C-3.57367188 4.81128906 -4.27234375 5.06007813 -4.9921875 5.31640625 C-6.65929413 5.88400092 -8.32929135 6.44309712 -10 7 C-10 7.66 -10 8.32 -10 9 C-11.98 9.33 -13.96 9.66 -16 10 C-12.96086531 6.63052458 -9.93142307 4.69577825 -5.875 2.6875 C-4.29332031 1.88892578 -4.29332031 1.88892578 -2.6796875 1.07421875 C-1.79539063 0.71972656 -0.91109375 0.36523438 0 0 Z " fill="#E06141" transform="translate(223,54)"/>
<path d="M0 0 C0.66 0 1.32 0 2 0 C1.49202991 4.3177458 0.80317221 8.03302114 -1 12 C-1.99 12 -2.98 12 -4 12 C-3.52494322 10.18641846 -3.04483958 8.37415821 -2.5625 6.5625 C-2.29566406 5.55316406 -2.02882813 4.54382813 -1.75390625 3.50390625 C-1 1 -1 1 0 0 Z " fill="#1D1D1D" transform="translate(416,343)"/>
<path d="M0 0 C6.44070471 -0.10655578 12.62641289 0.03794912 19 1 C19 1.33 19 1.66 19 2 C12.42150508 2.95494281 6.58183362 2.8931507 0 2 C0 1.34 0 0.68 0 0 Z " fill="#5F8A05" transform="translate(269,196)"/>
<path d="M0 0 C1.875 1.25 1.875 1.25 3.875 3.25 C2.225 3.25 0.575 3.25 -1.125 3.25 C-1.125 3.91 -1.125 4.57 -1.125 5.25 C-2.445 5.58 -3.765 5.91 -5.125 6.25 C-5.455 4.6 -5.785 2.95 -6.125 1.25 C-2.69883966 -0.95253165 -2.69883966 -0.95253165 0 0 Z " fill="#ED562C" transform="translate(86.125,153.75)"/>
<path d="M0 0 C1.32 0 2.64 0 4 0 C4 0.66 4 1.32 4 2 C6.97 2.495 6.97 2.495 10 3 C10 3.66 10 4.32 10 5 C10.99 5 11.98 5 13 5 C13.33 6.32 13.66 7.64 14 9 C14.66 9 15.32 9 16 9 C15.67 9.66 15.34 10.32 15 11 C4.44191344 3.70159453 4.44191344 3.70159453 0 0 Z " fill="#E8F6C4" transform="translate(422,109)"/>
<path d="M0 0 C5.94 1.98 11.88 3.96 18 6 C18 6.33 18 6.66 18 7 C16.20759337 6.88610125 14.41605165 6.75852313 12.625 6.625 C11.12839844 6.52058594 11.12839844 6.52058594 9.6015625 6.4140625 C7 6 7 6 5 4 C3.35008418 3.29289322 1.68437744 2.62056011 0 2 C0 1.34 0 0.68 0 0 Z " fill="#CFF8FE" transform="translate(115,314)"/>
<path d="M0 0 C-1.3255581 3.62276315 -2.94346955 6.63505348 -5.125 9.8125 C-5.66382813 10.60269531 -6.20265625 11.39289063 -6.7578125 12.20703125 C-7.37269531 13.09455078 -7.37269531 13.09455078 -8 14 C-9.24546405 11.50907189 -8.7767578 10.58919267 -8 8 C-7.34 8 -6.68 8 -6 8 C-5.896875 7.05125 -5.79375 6.1025 -5.6875 5.125 C-4.89960329 1.54365133 -3.89650761 0 0 0 Z " fill="#EFBE29" transform="translate(463,266)"/>
<path d="M0 0 C0.33 0.66 0.66 1.32 1 2 C-0.32 2.33 -1.64 2.66 -3 3 C-3.33 4.65 -3.66 6.3 -4 8 C-6.62187494 6.95125002 -7.79371361 6.35068687 -9.25 3.875 C-9.4975 3.25625 -9.745 2.6375 -10 2 C-9.278125 2.04125 -8.55625 2.0825 -7.8125 2.125 C-4.79270631 1.99078695 -2.73064271 1.24829381 0 0 Z " fill="#14A3E6" transform="translate(95,289)"/>
<path d="M0 0 C3.3989732 3.2990034 6.52978744 6.71936769 9.5703125 10.3515625 C10.98125352 11.9783852 12.45964664 13.49610471 14 15 C9.55844984 13.60363343 7.25340206 11.5249864 4.1875 8.0625 C3.39730469 7.18722656 2.60710937 6.31195313 1.79296875 5.41015625 C0 3 0 3 0 0 Z " fill="#CDF5FC" transform="translate(77,283)"/>
<path d="M0 0 C0.99 0.495 0.99 0.495 2 1 C2 1.99 2 2.98 2 4 C5.3 4 8.6 4 12 4 C12 4.66 12 5.32 12 6 C8.04 6 4.08 6 0 6 C0 4.02 0 2.04 0 0 Z " fill="#020202" transform="translate(367,359)"/>
<path d="M0 0 C0.33 3.63 0.66 7.26 1 11 C0.01 11.33 -0.98 11.66 -2 12 C-3.28317892 8.15046324 -3.06643637 5.05261865 -3 1 C-1 0 -1 0 0 0 Z " fill="#0C0C0C" transform="translate(433,349)"/>
<path d="M0 0 C8.19256018 -0.63019694 8.19256018 -0.63019694 11.5625 2 C12.036875 2.66 12.51125 3.32 13 4 C12.01 5.32 11.02 6.64 10 8 C9.67 6.68 9.34 5.36 9 4 C8.071875 3.896875 7.14375 3.79375 6.1875 3.6875 C2.85034764 2.96772204 2.16813468 2.42857128 0 0 Z " fill="#2F2F2F" transform="translate(384,343)"/>
<path d="M0 0 C-3.38168431 3.68006822 -6.42521756 5.9785845 -11 8 C-11 7.34 -11 6.68 -11 6 C-10.34 6 -9.68 6 -9 6 C-8.896875 5.38125 -8.79375 4.7625 -8.6875 4.125 C-7.25616829 -0.29911619 -4.03097181 -0.21789037 0 0 Z " fill="#F2BA26" transform="translate(437,297)"/>
<path d="M0 0 C3 1 3 1 4.1328125 2.56640625 C6.5660728 7.46166615 7.61019337 11.54270714 8 17 C5.83424381 13.75136571 4.37647589 10.39377143 2.875 6.8125 C2.59785156 6.15830078 2.32070313 5.50410156 2.03515625 4.83007812 C1.35402955 3.22120988 0.67664597 1.61075785 0 0 Z " fill="#EEFBCD" transform="translate(465,153)"/>
<path d="M0 0 C0.99 0.33 1.98 0.66 3 1 C2.06409496 2.1055189 1.12620142 3.20935453 0.1875 4.3125 C-0.33457031 4.92738281 -0.85664062 5.54226562 -1.39453125 6.17578125 C-2.87172469 7.85424679 -4.40039131 9.43882034 -6 11 C-6.375 8.875 -6.375 8.875 -6 6 C-4.20659643 3.76086748 -2.16547337 1.87545461 0 0 Z " fill="#FEEADB" transform="translate(82,150)"/>
<path d="M0 0 C0.99 0.33 1.98 0.66 3 1 C1 3 -1 5 -3 7 C-3.23075082 8.34747084 -3.41153063 9.70377565 -3.5625 11.0625 C-3.706875 12.361875 -3.85125 13.66125 -4 15 C-4.33 15 -4.66 15 -5 15 C-5.56540084 5.38818565 -5.56540084 5.38818565 -2 1 C-1.34 0.67 -0.68 0.34 0 0 Z " fill="#2D2D2D" transform="translate(182,344)"/>
<path d="M0 0 C7.45937249 0.61142397 7.45937249 0.61142397 10 2.4375 C11 4 11 4 11 6 C7.08406554 5.21681311 3.63593365 3.60820142 0 2 C0 1.34 0 0.68 0 0 Z " fill="#0D0D0D" transform="translate(282,343)"/>
<path d="M0 0 C2.35082212 2.89642841 3.83519406 5.65356331 5.1875 9.125 C5.53167969 9.99382812 5.87585938 10.86265625 6.23046875 11.7578125 C7 14 7 14 7 16 C6.34 16 5.68 16 5 16 C4.26367539 14.29306569 3.52848724 12.5856264 2.80078125 10.875 C2.14919903 9.34934407 1.48299618 7.82993872 0.8125 6.3125 C0 4 0 4 0 0 Z " fill="#90B834" transform="translate(466,156)"/>
<path d="M0 0 C0.33 0 0.66 0 1 0 C1.06058594 0.61488281 1.12117187 1.22976563 1.18359375 1.86328125 C1.26738281 2.67152344 1.35117188 3.47976563 1.4375 4.3125 C1.51871094 5.11300781 1.59992188 5.91351563 1.68359375 6.73828125 C1.95265693 9.16087179 1.95265693 9.16087179 3 12 C1.68 12 0.36 12 -1 12 C-1.02698189 10.37509046 -1.04638757 8.75005367 -1.0625 7.125 C-1.07410156 6.22007812 -1.08570313 5.31515625 -1.09765625 4.3828125 C-1 2 -1 2 0 0 Z " fill="#0A0A0A" transform="translate(179,349)"/>
<path d="M0 0 C2.9375 0.25 2.9375 0.25 4.9375 1.25 C4.6075 2.24 4.2775 3.23 3.9375 4.25 C0.6375 3.92 -2.6625 3.59 -6.0625 3.25 C-3.0625 0.25 -3.0625 0.25 0 0 Z " fill="#232323" transform="translate(356.0625,342.75)"/>
<path d="M0 0 C1.32 0.33 2.64 0.66 4 1 C0.7 3.97 -2.6 6.94 -6 10 C-6.33 9.01 -6.66 8.02 -7 7 C-6.34 7 -5.68 7 -5 7 C-4.67 6.01 -4.34 5.02 -4 4 C-3.34 4 -2.68 4 -2 4 C-2 3.34 -2 2.68 -2 2 C-1.34 2 -0.68 2 0 2 C0 1.34 0 0.68 0 0 Z " fill="#FEE7D3" transform="translate(92,140)"/>
<path d="M0 0 C4.67105792 1.55701931 8.08705685 4.08447373 12 7 C11.34 7.66 10.68 8.32 10 9 C5.49115974 6.68116787 3.06093224 3.93548431 0 0 Z " fill="#88B12A" transform="translate(422,110)"/>
<path d="M0 0 C1 3 1 3 0.0625 5.1875 C-0.4634375 6.0846875 -0.4634375 6.0846875 -1 7 C-1.99 7 -2.98 7 -4 7 C-4.33 5.02 -4.66 3.04 -5 1 C-3.35 0.67 -1.7 0.34 0 0 Z " fill="#0C0C0C" transform="translate(77,358)"/>
<path d="M0 0 C5.75 0.75 5.75 0.75 8 3 C7 6 7 6 5 8 C4.938125 7.38125 4.87625 6.7625 4.8125 6.125 C4.171081 3.72238859 4.171081 3.72238859 1.4375 2.75 C0.633125 2.5025 -0.17125 2.255 -1 2 C-0.67 1.34 -0.34 0.68 0 0 Z " fill="#151515" transform="translate(470,353)"/>
<path d="M0 0 C5.75 0.75 5.75 0.75 8 3 C7 6 7 6 5 8 C4.938125 7.38125 4.87625 6.7625 4.8125 6.125 C4.171081 3.72238859 4.171081 3.72238859 1.4375 2.75 C0.633125 2.5025 -0.17125 2.255 -1 2 C-0.67 1.34 -0.34 0.68 0 0 Z " fill="#151515" transform="translate(166,353)"/>
<path d="M0 0 C0.33 0 0.66 0 1 0 C1.05398987 2.27057377 1.09278742 4.54151288 1.125 6.8125 C1.14820313 8.07707031 1.17140625 9.34164062 1.1953125 10.64453125 C1 14 1 14 -1 17 C-2.87978657 14.26822383 -3.01655381 13.11615725 -2.5390625 9.765625 C-2.23742187 8.60546875 -1.93578125 7.4453125 -1.625 6.25 C-1.18027344 4.49429688 -1.18027344 4.49429688 -0.7265625 2.703125 C-0.48679687 1.81109375 -0.24703125 0.9190625 0 0 Z " fill="#FCF5BB" transform="translate(477,227)"/>
<path d="M0 0 C0.66 0.33 1.32 0.66 2 1 C0.54744301 4.82946843 -1.42895561 6.12050295 -5 8 C-5.33 7.01 -5.66 6.02 -6 5 C-4.02 3.35 -2.04 1.7 0 0 Z " fill="#232323" transform="translate(336,357)"/>
<path d="M0 0 C1.32 0 2.64 0 4 0 C4 3.3 4 6.6 4 10 C0.48283697 6.48283697 0.45323837 4.80432667 0 0 Z " fill="#191919" transform="translate(290,349)"/>
<path d="M0 0 C2.96175123 0.61277612 4.38058783 1.25372522 7 3 C4.525 4.485 4.525 4.485 2 6 C1.01 5.01 0.02 4.02 -1 3 C-0.67 2.01 -0.34 1.02 0 0 Z " fill="#FBB71C" transform="translate(435,291)"/>
<path d="M0 0 C0.33 0 0.66 0 1 0 C1.66 5.28 2.32 10.56 3 16 C2.67 15.34 2.34 14.68 2 14 C1.34 14 0.68 14 0 14 C0 9.38 0 4.76 0 0 Z " fill="#C2F1FD" transform="translate(57,232)"/>
<path d="M0 0 C3.63 0.33 7.26 0.66 11 1 C11 1.66 11 2.32 11 3 C7.04 3 3.08 3 -1 3 C-0.67 2.01 -0.34 1.02 0 0 Z " fill="#020202" transform="translate(451,362)"/>
<path d="M0 0 C3 1 3 1 4.1875 2.875 C5 5 5 5 5 8 C4.01 8 3.02 8 2 8 C0.23537317 4.91190305 0 3.76687864 0 0 Z " fill="#161616" transform="translate(130,357)"/>
<path d="M0 0 C1.65 0 3.3 0 5 0 C4.67 2.31 4.34 4.62 4 7 C2.35 6.01 0.7 5.02 -1 4 C-0.67 2.68 -0.34 1.36 0 0 Z " fill="#E7E7E7" transform="translate(469,346)"/>
<path d="M0 0 C1.65 0 3.3 0 5 0 C4.67 2.31 4.34 4.62 4 7 C2.35 6.01 0.7 5.02 -1 4 C-0.67 2.68 -0.34 1.36 0 0 Z " fill="#E7E7E7" transform="translate(165,346)"/>
<path d="M0 0 C2.12966005 2.12966005 2.47624662 3.04068204 3.1875 5.875 C3.36667969 6.55304688 3.54585938 7.23109375 3.73046875 7.9296875 C4.02970718 10.22818556 3.69377386 11.80550964 3 14 C0.81005752 10.71508627 0.64722661 9.16904361 0.375 5.3125 C0.30023438 4.31863281 0.22546875 3.32476562 0.1484375 2.30078125 C0.09945313 1.54152344 0.05046875 0.78226563 0 0 Z " fill="#8AB635" transform="translate(473,174)"/>
<path d="M0 0 C7.625 0.875 7.625 0.875 11 2 C10.67 2.99 10.34 3.98 10 5 C7.625 5.1875 7.625 5.1875 5 5 C4.34 4.01 3.68 3.02 3 2 C2.01 1.34 1.02 0.68 0 0 Z " fill="#87B51F" transform="translate(389,97)"/>
<path d="M0 0 C1.32 0.33 2.64 0.66 4 1 C-3.0547046 5.07877462 -3.0547046 5.07877462 -7 4.75 C-7.66 4.5025 -8.32 4.255 -9 4 C-8.67 3.34 -8.34 2.68 -8 2 C-5.36 2 -2.72 2 0 2 C0 1.34 0 0.68 0 0 Z " fill="#E4531F" transform="translate(244,49)"/>
<path d="M0 0 C0.66 0.33 1.32 0.66 2 1 C1.75 3.875 1.75 3.875 1 7 C-1.0625 8.375 -1.0625 8.375 -3 9 C-2.30058404 5.85262818 -1.23921302 2.97411124 0 0 Z " fill="#111111" transform="translate(132,346)"/>
<path d="M0 0 C0.66 0 1.32 0 2 0 C2 2 2 2 0.5625 3.5625 C-3.13603446 5.63728762 -6.81945139 5.74094891 -11 6 C-8.90464017 3.90464017 -7.68072225 3.38841733 -4.9375 2.4375 C-2.23198802 1.60255667 -2.23198802 1.60255667 0 0 Z " fill="#FEF4C4" transform="translate(417,310)"/>
<path d="M0 0 C-0.66 1.32 -1.32 2.64 -2 4 C-3.32 3.67 -4.64 3.34 -6 3 C-6 2.01 -6 1.02 -6 0 C-3.50907189 -1.24546405 -2.58919267 -0.7767578 0 0 Z " fill="#EA5216" transform="translate(93,152)"/>
<path d="M0 0 C-4.455 2.97 -4.455 2.97 -9 6 C-9.33 5.01 -9.66 4.02 -10 3 C-6.86618053 -0.60389239 -4.59270471 -1.53090157 0 0 Z " fill="#FEEBDA" transform="translate(106,134)"/>
<path d="M0 0 C1.41623216 -0.05447047 2.83308191 -0.09300508 4.25 -0.125 C5.03890625 -0.14820313 5.8278125 -0.17140625 6.640625 -0.1953125 C9.20731941 0.0171622 10.7916067 0.71345895 13 2 C12.67 2.66 12.34 3.32 12 4 C6.06 2.515 6.06 2.515 0 1 C0 0.67 0 0.34 0 0 Z " fill="#E8F5C8" transform="translate(284,49)"/>
<path d="M0 0 C3.3 0.33 6.6 0.66 10 1 C10 1.66 10 2.32 10 3 C6.37 3 2.74 3 -1 3 C-0.67 2.01 -0.34 1.02 0 0 Z " fill="#010101" transform="translate(263,362)"/>
<path d="M0 0 C0.66 0 1.32 0 2 0 C2 2.64 2 5.28 2 8 C1.01 8 0.02 8 -1 8 C-1.04241723 5.66705225 -1.04092937 3.33297433 -1 1 C-0.67 0.67 -0.34 0.34 0 0 Z " fill="#0F0F0F" transform="translate(195,349)"/>
<path d="M0 0 C-0.33 0.99 -0.66 1.98 -1 3 C-0.01 3.33 0.98 3.66 2 4 C1.01 4.495 1.01 4.495 0 5 C-2.35981813 4.06421005 -4.69631264 3.06652192 -7 2 C-6 0 -6 0 -4.0625 -0.6875 C-2 -1 -2 -1 0 0 Z " fill="#20A2DD" transform="translate(119,311)"/>
<path d="M0 0 C3.28465896 2.79196011 5.01321958 6.23196817 7 10 C7 10.66 7 11.32 7 12 C4 11 4 11 2.83203125 9.00390625 C2.49558594 8.19824219 2.15914063 7.39257812 1.8125 6.5625 C1.46832031 5.75941406 1.12414062 4.95632812 0.76953125 4.12890625 C0 2 0 2 0 0 Z " fill="#8FB63B" transform="translate(459,144)"/>
<path d="M0 0 C0.33 0.99 0.66 1.98 1 3 C0 4 0 4 -1.84765625 4.09765625 C-3.8984375 4.06510417 -5.94921875 4.03255208 -8 4 C-8.33 3.34 -8.66 2.68 -9 2 C-6.03 1.34 -3.06 0.68 0 0 Z " fill="#0E0E0E" transform="translate(256,361)"/>
<path d="M0 0 C0.99 0 1.98 0 3 0 C2.34 1.65 1.68 3.3 1 5 C0.01 5 -0.98 5 -2 5 C-2.33 5.99 -2.66 6.98 -3 8 C-3.66 7.67 -4.32 7.34 -5 7 C-4.24172908 5.82512964 -3.46792245 4.66027408 -2.6875 3.5 C-2.25824219 2.8503125 -1.82898438 2.200625 -1.38671875 1.53125 C-0.70029297 0.77328125 -0.70029297 0.77328125 0 0 Z " fill="#FDF8D7" transform="translate(459,273)"/>
<path d="M0 0 C5.75 1.75 5.75 1.75 8 4 C6.02 4.66 4.04 5.32 2 6 C1.34 4.02 0.68 2.04 0 0 Z " fill="#88B421" transform="translate(411,104)"/>
<path d="M0 0 C0.66 0 1.32 0 2 0 C2.33 2.97 2.66 5.94 3 9 C2.01 9 1.02 9 0 9 C0 6.03 0 3.06 0 0 Z " fill="#070707" transform="translate(101,351)"/>
<path d="M0 0 C1.32 0.33 2.64 0.66 4 1 C4.33 2.65 4.66 4.3 5 6 C3.68 5.67 2.36 5.34 1 5 C0.67 3.35 0.34 1.7 0 0 Z " fill="#2D2D2D" transform="translate(400,343)"/>
<path d="M0 0 C0 0.66 0 1.32 0 2 C1.32 2.33 2.64 2.66 4 3 C3.05125 3.12375 2.1025 3.2475 1.125 3.375 C-2.08667191 3.71687177 -2.08667191 3.71687177 -4 6 C-4.66 5.67 -5.32 5.34 -6 5 C-4.87312259 1.61936778 -3.78825335 0 0 0 Z " fill="#323232" transform="translate(282,343)"/>
<path d="M0 0 C0.33 0.66 0.66 1.32 1 2 C0.67 2.99 0.34 3.98 0 5 C-0.66 5 -1.32 5 -2 5 C-2 5.66 -2 6.32 -2 7 C-3.65 7.33 -5.3 7.66 -7 8 C-6.02133662 6.85373678 -5.04205413 5.70800212 -4.0625 4.5625 C-3.51722656 3.92441406 -2.97195312 3.28632813 -2.41015625 2.62890625 C-1.63204305 1.73008851 -0.84063472 0.84063472 0 0 Z " fill="#E46046" transform="translate(89,146)"/>
<path d="M0 0 C2.97 0.99 5.94 1.98 9 3 C9 3.33 9 3.66 9 4 C6.36 4 3.72 4 1 4 C0.67 2.68 0.34 1.36 0 0 Z " fill="#101010" transform="translate(349,361)"/>
<path d="M0 0 C3.01962385 1.20784954 5.45378681 2.99940392 8 5 C1.47692308 4.38461538 1.47692308 4.38461538 -0.9375 2.4375 C-1.288125 1.963125 -1.63875 1.48875 -2 1 C-1.34 0.67 -0.68 0.34 0 0 Z " fill="#333333" transform="translate(181,361)"/>
<path d="M0 0 C1.2077558 3.62326739 0.54311128 4.64146369 -1 8 C-1.99 8 -2.98 8 -4 8 C-3.40138258 5.64828869 -2.73075648 3.3140622 -2 1 C-1.34 0.67 -0.68 0.34 0 0 Z " fill="#1B1B1B" transform="translate(80,351)"/>
<path d="M0 0 C1.41687119 4.25061356 0.19320039 6.71851625 -1 11 C-1.33 11 -1.66 11 -2 11 C-2.05399736 9.54207116 -2.09279177 8.08357288 -2.125 6.625 C-2.15980469 5.40683594 -2.15980469 5.40683594 -2.1953125 4.1640625 C-2 2 -2 2 0 0 Z " fill="#010101" transform="translate(244,348)"/>
<path d="M0 0 C2.97246802 2.54782974 4.41535288 5.45340883 6 9 C6 9.66 6 10.32 6 11 C5.01 10.67 4.02 10.34 3 10 C2.67 8.02 2.34 6.04 2 4 C1.34 4 0.68 4 0 4 C0 2.68 0 1.36 0 0 Z " fill="#C6F6FD" transform="translate(66,265)"/>
<path d="M0 0 C0.66 0 1.32 0 2 0 C2 3 2 3 -0.375 5.625 C-3 8 -3 8 -5 9 C-3.7580393 5.56072421 -2.44259716 2.74792181 0 0 Z " fill="#FDDFD5" transform="translate(184,79)"/>
<path d="M0 0 C2.475 0.99 2.475 0.99 5 2 C5 2.99 5 3.98 5 5 C0.545 4.01 0.545 4.01 -4 3 C-2.68 2.67 -1.36 2.34 0 2 C0 1.34 0 0.68 0 0 Z " fill="#484848" transform="translate(112,343)"/>
<path d="M0 0 C-2 2 -2 2 -4.1640625 2.1953125 C-5.38222656 2.16050781 -5.38222656 2.16050781 -6.625 2.125 C-7.44226563 2.10695313 -8.25953125 2.08890625 -9.1015625 2.0703125 C-9.72804688 2.04710937 -10.35453125 2.02390625 -11 2 C-7.00042393 -0.06874624 -4.43559483 -1.37656391 0 0 Z " fill="#FEF6C3" transform="translate(401,319)"/>
<path d="M0 0 C0.66 0.33 1.32 0.66 2 1 C0.875 2.9375 0.875 2.9375 -1 5 C-4.1875 5.75 -4.1875 5.75 -7 6 C-4.74259377 3.66475218 -2.7194239 1.81294927 0 0 Z " fill="#FEF2B9" transform="translate(430,302)"/>
<path d="M0 0 C0 0.66 0 1.32 0 2 C-6.0546875 2.1953125 -6.0546875 2.1953125 -8 2 C-8.66 1.34 -9.32 0.68 -10 0 C-6.42355152 -1.2380014 -3.66305234 -0.74926071 0 0 Z " fill="#81B212" transform="translate(320,197)"/>
<path d="M0 0 C0.33 0 0.66 0 1 0 C1 2.64 1 5.28 1 8 C-0.32 8.33 -1.64 8.66 -3 9 C-2.01 6.03 -1.02 3.06 0 0 Z " fill="#DD6742" transform="translate(64,182)"/>
<path d="M0 0 C-3.28463659 2.18975773 -6.20696275 2.99806563 -10 4 C-10 3.34 -10 2.68 -10 2 C-6.37626474 -0.79545292 -4.37834956 -1.37605272 0 0 Z " fill="#FDE8E0" transform="translate(226,53)"/>
<path d="M0 0 C2.64 0.33 5.28 0.66 8 1 C8 1.66 8 2.32 8 3 C5.36 3 2.72 3 0 3 C0 2.01 0 1.02 0 0 Z " fill="#050505" transform="translate(143,362)"/>
<path d="M0 0 C1.125 3.75 1.125 3.75 0 6 C-1.65 6 -3.3 6 -5 6 C-3.35 4.02 -1.7 2.04 0 0 Z " fill="#FDF0C2" transform="translate(453,281)"/>
<path d="M0 0 C2.5 2.3125 2.5 2.3125 5 5 C5 5.99 5 6.98 5 8 C4.01 7.67 3.02 7.34 2 7 C0.8125 3.4375 0.8125 3.4375 0 0 Z " fill="#8CB626" transform="translate(336,79)"/>
<path d="M0 0 C0.99 0.33 1.98 0.66 3 1 C3.33 2.65 3.66 4.3 4 6 C3.01 6.33 2.02 6.66 1 7 C0.67 4.69 0.34 2.38 0 0 Z " fill="#1D1D1D" transform="translate(70,353)"/>
<path d="M0 0 C2.97 0.495 2.97 0.495 6 1 C6.33 1.99 6.66 2.98 7 4 C4.36 3.34 1.72 2.68 -1 2 C-0.67 1.34 -0.34 0.68 0 0 Z " fill="#0D0D0D" transform="translate(250,343)"/>
<path d="M0 0 C3.3 0 6.6 0 10 0 C9.67 0.99 9.34 1.98 9 3 C5.26512223 2.5020163 3.18762365 2.12508244 0 0 Z " fill="#24A1DD" transform="translate(121,316)"/>
<path d="M0 0 C1.70884005 1.62339805 3.37446717 3.29319053 5 5 C5 5.66 5 6.32 5 7 C3.68 7 2.36 7 1 7 C0.67 4.69 0.34 2.38 0 0 Z " fill="#8CB92C" transform="translate(453,136)"/>
</svg>
