<?xml version="1.0" encoding="UTF-8"?>
<svg version="1.1" xmlns="http://www.w3.org/2000/svg" width="1200" height="1200">
<path d="M0 0 C1.43676199 0.1794088 2.87361434 0.35809516 4.31054688 0.53613281 C73.01474685 9.13531979 139.03386877 29.09965971 201 60 C202.0297998 60.51288574 203.05959961 61.02577148 204.12060547 61.55419922 C243.41932336 81.25574362 280.2980658 105.77524691 314 134 C314.75676025 134.62938477 314.75676025 134.62938477 315.52880859 135.27148438 C323.0571868 141.53560714 330.36754315 147.99079033 337.54248047 154.65576172 C338.94599244 155.95019001 340.36529883 157.22742854 341.78515625 158.50390625 C348.13647937 164.2262125 354.25716539 170.15250185 360.3125 176.1875 C361.06547363 176.93588135 361.81844727 177.6842627 362.59423828 178.45532227 C366.69414407 182.5665688 370.62271248 186.76768441 374.41186523 191.16674805 C376.67135871 193.7749781 379.02293458 196.28738472 381.375 198.8125 C386.49000206 204.35659827 391.28724722 210.10905902 396 216 C396.91076019 217.11905814 397.82225476 218.23751888 398.734375 219.35546875 C424.32457923 250.84383488 446.17534909 285.07929882 465 321 C465.49064941 321.93602051 465.98129883 322.87204102 466.48681641 323.83642578 C488.7436485 366.62020937 504.76032766 412.16497601 516 459 C516.27440918 460.13808105 516.54881836 461.27616211 516.83154297 462.44873047 C521.699097 482.96951949 524.9468918 503.75297666 527.69146729 524.65124512 C527.88676696 526.13799532 528.08435416 527.62444835 528.28509521 529.11047363 C534.23711328 573.31886005 533.79660399 621.80790206 528 666 C527.82050118 667.4352858 527.64181873 668.87067389 527.46386719 670.30615234 C518.652634 740.70018601 497.62932619 807.58240628 466 871 C465.52062988 871.96276855 465.04125977 872.92553711 464.54736328 873.91748047 C445.52146568 911.85280456 421.2304552 947.47605877 394 980 C393.58572754 980.49918945 393.17145508 980.99837891 392.74462891 981.51269531 C386.32081624 989.25171287 379.66844512 996.72421222 372.79223633 1004.06420898 C371.43236323 1005.53300531 370.08551975 1007.01387813 368.74487305 1008.50024414 C361.38021419 1016.63976741 353.7104919 1024.44325047 345.93774414 1032.19262695 C343.80172643 1034.32324634 341.67115882 1036.45921223 339.54101562 1038.59570312 C338.15917493 1039.9768835 336.77702433 1041.35775389 335.39453125 1042.73828125 C334.77036819 1043.36446854 334.14620514 1043.99065582 333.50312805 1044.63581848 C329.72928279 1048.38998685 325.84050415 1051.95867225 321.80627441 1055.43183899 C319.03197645 1057.84041316 316.36692768 1060.36213819 313.6875 1062.875 C307.98541755 1068.17297189 302.08614272 1073.14577089 296 1078 C294.88208806 1078.9092663 293.7649394 1079.8194716 292.6484375 1080.73046875 C257.79514186 1109.06362237 219.57205663 1133.34183898 179.16015625 1152.94433594 C176.7855718 1154.10479064 174.42463062 1155.2909755 172.0625 1156.4765625 C149.64121782 1167.60570129 126.26733527 1176.4079589 102.5625 1184.375 C101.8688736 1184.6100827 101.17524719 1184.84516541 100.46060181 1185.08737183 C96.20659746 1186.52187123 91.93304403 1187.87405594 87.63977242 1189.18592334 C85.85113585 1189.7375191 84.065754 1190.29976101 82.28349113 1190.87161565 C64.60306216 1196.48833294 48.40694709 1198.01259745 29.93164062 1197.90576172 C27.12269741 1197.91143538 24.31383291 1197.9275084 21.50492859 1197.94293213 C14.73641944 1197.97370156 7.96846026 1197.96749805 1.1999315 1197.94704364 C-4.31175963 1197.93109163 -9.823299 1197.92915194 -15.33500671 1197.93671036 C-16.12605658 1197.93778299 -16.91710644 1197.93885562 -17.73212752 1197.93996076 C-19.34023166 1197.94219933 -20.94833576 1197.94446883 -22.55643982 1197.94676889 C-37.55812904 1197.96662505 -52.55951652 1197.94394502 -67.56115621 1197.90616633 C-80.37181352 1197.8749014 -93.18202647 1197.88033654 -105.99267578 1197.91259766 C-120.94872585 1197.9502451 -135.90451295 1197.96470343 -150.86060381 1197.94331181 C-152.46206693 1197.94108248 -154.06353009 1197.93888188 -155.66499329 1197.93671036 C-156.45249296 1197.93563043 -157.23999263 1197.9345505 -158.05135593 1197.93343785 C-163.54233391 1197.92744951 -169.03314199 1197.93747365 -174.52409363 1197.95406723 C-181.23606634 1197.9739092 -187.94746788 1197.96795721 -194.65937698 1197.93110202 C-198.06981304 1197.91297891 -201.47853898 1197.90892423 -204.88907814 1197.92864609 C-223.00358177 1198.02362997 -238.75855234 1195.55193644 -256 1190 C-257.75065487 1189.4542256 -259.50167631 1188.90962503 -261.25313568 1188.36643791 C-265.56753778 1187.02075281 -269.84813614 1185.58497409 -274.125 1184.125 C-275.6761874 1183.60001405 -277.22737556 1183.07503037 -278.77856445 1182.55004883 C-283.19179343 1181.05076505 -287.59692636 1179.52880558 -292 1178 C-293.12680176 1177.61086426 -294.25360352 1177.22172852 -295.41455078 1176.82080078 C-359.22188578 1154.56005881 -419.66608452 1118.44402826 -470.89453125 1074.6328125 C-473.84420349 1072.11661783 -476.85470418 1069.68107031 -479.875 1067.25 C-483.55156323 1064.25979951 -486.96057575 1061.17244417 -490.24194336 1057.75708008 C-491.88642581 1056.1135111 -493.58098461 1054.62477396 -495.359375 1053.12890625 C-501.08738763 1048.14951168 -506.40012455 1042.74917481 -511.75463867 1037.37573242 C-513.55862085 1035.56639067 -515.36788665 1033.76245681 -517.17773438 1031.95898438 C-522.99957534 1026.14049908 -528.67646025 1020.28397711 -534 1014 C-535.45445517 1012.39231627 -536.91220895 1010.78760285 -538.375 1009.1875 C-543.10513275 1003.93801145 -547.58548951 998.51631394 -552 993 C-552.40943848 992.49017578 -552.81887695 991.98035156 -553.24072266 991.45507812 C-566.74254948 974.60743779 -579.28508894 957.1346418 -591 939 C-591.53447754 938.17338867 -592.06895508 937.34677734 -592.61962891 936.49511719 C-618.69391696 895.89590275 -639.01642793 852.40179125 -654.8125 806.875 C-655.19514008 805.78467972 -655.19514008 805.78467972 -655.58551025 804.67233276 C-657.51288082 799.15113594 -659.27272184 793.58664042 -661 788 C-661.48950418 786.43816331 -661.48950418 786.43816331 -661.98889732 784.84477437 C-667.86274218 765.76450432 -670.16867815 748.57614985 -670.03515625 728.52514648 C-670.04164988 725.72046895 -670.06002169 722.91589386 -670.07763672 720.11126709 C-670.11271958 713.36764416 -670.10575094 706.62474389 -670.08233559 699.8810957 C-670.06407238 694.38810476 -670.06190137 688.89531265 -670.07052612 683.40229988 C-670.07175199 682.61265814 -670.07297785 681.82301641 -670.07424086 681.00944613 C-670.07679933 679.40400531 -670.07939306 677.79856454 -670.08202159 676.19312382 C-670.1046898 661.23230232 -670.07883299 646.27187662 -670.03561866 631.3111201 C-669.99988245 618.54518777 -670.00610754 605.77983789 -670.04296875 593.01391602 C-670.08602664 578.09550714 -670.10250117 563.17744271 -670.07807064 548.25898033 C-670.07552294 546.66061506 -670.07300796 545.06224973 -670.07052612 543.46388435 C-670.06929192 542.67798677 -670.06805771 541.89208918 -670.06678611 541.08237652 C-670.05995231 535.61177689 -670.07137585 530.1414005 -670.09036255 524.67083549 C-670.11307552 517.98130477 -670.10616406 511.29252212 -670.0641166 504.60307436 C-670.04345119 501.20625096 -670.03870791 497.81166124 -670.06130981 494.41470528 C-670.17940359 474.83715298 -666.96476447 458.54696101 -661 440 C-660.44815393 438.21374703 -659.89881557 436.42671597 -659.35282898 434.63866329 C-658.07555043 430.46408771 -656.71132768 426.32274052 -655.3125 422.1875 C-655.06432526 421.44850464 -654.81615051 420.70950928 -654.56045532 419.94812012 C-642.67034606 384.66724203 -627.5315685 350.30121208 -609 318 C-608.50886719 317.13358887 -608.01773438 316.26717773 -607.51171875 315.37451172 C-591.80016414 287.7321222 -573.7456101 261.20772467 -553.43994141 236.73974609 C-551.4205368 234.29988899 -549.43129039 231.83580436 -547.4375 229.375 C-532.68908593 211.39442888 -532.68908593 211.39442888 -525.68397522 204.68492126 C-523.96671758 202.96669888 -522.39496268 201.17780182 -520.81811523 199.33032227 C-516.96365918 194.89861813 -512.88027192 190.73587085 -508.72265625 186.58984375 C-507.95247665 185.81870743 -507.18229706 185.04757111 -506.38877869 184.25306702 C-504.77058627 182.63419847 -503.15114788 181.01657449 -501.53051758 179.40014648 C-499.06932768 176.94431282 -496.61352191 174.48318635 -494.15820312 172.02148438 C-492.57584133 170.43978347 -490.99316933 168.85839283 -489.41015625 167.27734375 C-488.68594986 166.55111313 -487.96174347 165.82488251 -487.21559143 165.0766449 C-483.18487562 161.06414352 -479.06282483 157.21849791 -474.74920654 153.51109314 C-472.16674487 151.28017299 -469.68465525 148.95102153 -467.1875 146.625 C-461.64340173 141.50999794 -455.89094098 136.71275278 -450 132 C-448.88094186 131.08923981 -447.76248112 130.17774524 -446.64453125 129.265625 C-415.15616512 103.67542077 -380.92070118 81.82465091 -345 63 C-344.06397949 62.50935059 -343.12795898 62.01870117 -342.16357422 61.51318359 C-278.75289028 28.52589665 -208.9026444 8.25160086 -138 0 C-136.82695313 -0.14953125 -135.65390625 -0.2990625 -134.4453125 -0.453125 C-90.82626693 -5.89378015 -43.56688328 -5.69077278 0 0 Z " fill="#6D429C" transform="translate(669,3)"/>
<path d="M0 0 C1.43676199 0.1794088 2.87361434 0.35809516 4.31054688 0.53613281 C73.01474685 9.13531979 139.03386877 29.09965971 201 60 C202.0297998 60.51288574 203.05959961 61.02577148 204.12060547 61.55419922 C243.41932336 81.25574362 280.2980658 105.77524691 314 134 C314.75676025 134.62938477 314.75676025 134.62938477 315.52880859 135.27148438 C323.0571868 141.53560714 330.36754315 147.99079033 337.54248047 154.65576172 C338.94599244 155.95019001 340.36529883 157.22742854 341.78515625 158.50390625 C348.13647937 164.2262125 354.25716539 170.15250185 360.3125 176.1875 C361.06547363 176.93588135 361.81844727 177.6842627 362.59423828 178.45532227 C366.69414407 182.5665688 370.62271248 186.76768441 374.41186523 191.16674805 C376.67135871 193.7749781 379.02293458 196.28738472 381.375 198.8125 C386.49000206 204.35659827 391.28724722 210.10905902 396 216 C396.91076019 217.11905814 397.82225476 218.23751888 398.734375 219.35546875 C424.32457923 250.84383488 446.17534909 285.07929882 465 321 C465.49064941 321.93602051 465.98129883 322.87204102 466.48681641 323.83642578 C488.7436485 366.62020937 504.76032766 412.16497601 516 459 C516.27440918 460.13808105 516.54881836 461.27616211 516.83154297 462.44873047 C521.699097 482.96951949 524.9468918 503.75297666 527.69146729 524.65124512 C527.88676696 526.13799532 528.08435416 527.62444835 528.28509521 529.11047363 C534.23711328 573.31886005 533.79660399 621.80790206 528 666 C527.82050118 667.4352858 527.64181873 668.87067389 527.46386719 670.30615234 C518.652634 740.70018601 497.62932619 807.58240628 466 871 C465.52062988 871.96276855 465.04125977 872.92553711 464.54736328 873.91748047 C445.52146568 911.85280456 421.2304552 947.47605877 394 980 C393.58572754 980.49918945 393.17145508 980.99837891 392.74462891 981.51269531 C386.227523 989.36410687 379.461092 996.93275062 372.49511719 1004.38720703 C370.98552259 1006.01561688 369.49417818 1007.65897152 368.0078125 1009.30859375 C367.523125 1009.84476318 367.0384375 1010.38093262 366.5390625 1010.93334961 C365.21392388 1012.40148058 363.89200118 1013.87251245 362.5703125 1015.34375 C359.85420766 1018.15066686 357.04007497 1020.55375892 354 1023 C355.55500981 1019.18315774 358.03595495 1016.80804268 361 1014 C359.41149752 1010.09127814 356.73528631 1007.45964286 353.78758049 1004.54427814 C353.24836997 1004.00305953 352.70915945 1003.46184092 352.15360922 1002.90422174 C350.33612365 1001.08242715 348.51155989 999.26788989 346.6869812 997.45320129 C345.37313976 996.13920387 344.0597392 994.8247655 342.74674332 993.50992316 C339.13004302 989.89068476 335.50712489 986.27772631 331.88319802 982.66572583 C327.97909762 978.77229555 324.08076768 974.87309537 320.1817627 970.9745636 C313.42311763 964.21828317 306.6608712 957.46562465 299.89623642 950.71534157 C290.11515122 940.95491027 280.34004592 931.1885079 270.56650068 921.42052718 C254.70965933 905.57294657 238.84873154 889.72946193 222.98486328 873.88891602 C222.0253839 872.93084421 221.06590461 871.97277231 220.10642542 871.01470032 C219.63102319 870.53999569 219.15562096 870.06529106 218.6658126 869.57620144 C216.26052276 867.17444055 213.85523526 864.77267731 211.44995117 862.37091064 C210.97297116 861.89462909 210.49599114 861.41834753 210.00455718 860.9276332 C198.92015973 849.85942346 187.83704893 838.78992575 176.75439453 827.7199707 C176.2795478 827.24567009 175.80470108 826.77136948 175.31546505 826.28269612 C159.03226304 810.01818781 142.75112538 793.75161401 126.47113907 777.4838869 C116.71534378 767.73569986 106.95747156 757.98959995 97.19694282 748.2461523 C90.51606775 741.57680833 83.83685843 734.90579943 77.15898 728.23345498 C73.30010191 724.37792237 69.44036696 720.52325691 65.57846451 716.67075348 C62.04952268 713.15038541 58.52283363 709.62777739 54.99798585 706.10331019 C53.71629591 704.82259323 52.43374073 703.54274152 51.15027677 702.26380239 C49.41813914 700.53754197 47.68904414 698.80829277 45.96073723 697.07819843 C45.196322 696.31858126 45.196322 696.31858126 44.41646403 695.54361829 C41 692.11413681 41 692.11413681 41 691 C64.76 691 88.52 691 113 691 C113 678.46 113 665.92 113 653 C66.47 653 19.94 653 -28 653 C-28 614.06 -28 575.12 -28 535 C12.59 535 53.18 535 95 535 C95 523.12 95 511.24 95 499 C54.41 499 13.82 499 -28 499 C-28 461.38 -28 423.76 -28 385 C15.56 385 59.12 385 104 385 C104 373.12 104 361.24 104 349 C46.91 349 -10.18 349 -69 349 C-69 425.56 -69 502.12 -69 581 C-72.465 578.03 -72.465 578.03 -76 575 C-77.28615805 574.03325996 -78.58810389 573.08643196 -79.91685486 572.17912292 C-80.95364679 571.45926287 -80.95364679 571.45926287 -82.01138401 570.72486019 C-82.74360141 570.21648396 -83.47581881 569.70810774 -84.23022461 569.18432617 C-95.62264798 561.10192304 -106.41204379 552.36644332 -116.9375 543.1875 C-117.88982891 542.35790394 -118.84215782 541.52830788 -119.82334518 540.67357254 C-144.87301775 518.4886091 -159.6020385 497.53378371 -161.96899432 463.80998343 C-162.91281845 448.00469035 -162.72559641 432.24868534 -162.0625 416.4375 C-162.02842466 415.60542762 -161.99434932 414.77335525 -161.95924139 413.91606855 C-161.05169806 392.19262344 -159.31096605 370.61949337 -157 349 C-170.53 349 -184.06 349 -198 349 C-198 382.99 -198 416.98 -198 452 C-202.27014796 448.33987318 -206.27521621 444.84960391 -210.2185812 440.90446663 C-210.69771437 440.42648731 -211.17684754 439.94850798 -211.67049989 439.45604444 C-213.26060451 437.86856724 -214.84714429 436.27757683 -216.43370056 434.68655396 C-217.59034803 433.53034298 -218.7472154 432.37435196 -219.90428263 431.21856105 C-223.0717539 428.05331935 -226.23610949 424.88497895 -229.39995348 421.71611214 C-232.81659004 418.29514915 -236.2361243 414.8770848 -239.65530396 411.45866394 C-245.57509631 405.53939543 -251.49305786 399.61830164 -257.40977287 393.69595718 C-265.96430818 385.133288 -274.52160995 376.57338795 -283.07958514 368.01415692 C-296.96492629 354.12662823 -310.84803372 340.23686876 -324.72973633 326.34570312 C-338.21293833 312.85331934 -351.69719228 299.3619883 -365.18286133 285.87207031 C-366.01439403 285.04027489 -366.84592673 284.20847946 -367.70265739 283.35147811 C-371.87430162 279.17852883 -376.04596652 275.00560022 -380.21764171 270.83268189 C-414.81496774 236.2249925 -449.40866873 201.61368125 -484 167 C-487.63303084 168.69586126 -489.94549046 170.73800488 -492.75 173.625 C-493.54921875 174.44226563 -494.3484375 175.25953125 -495.171875 176.1015625 C-495.77515625 176.72804687 -496.3784375 177.35453125 -497 178 C-497.66 177.67 -498.32 177.34 -499 177 C-496.17097124 174.14153993 -493.33599221 171.28905016 -490.5 168.4375 C-489.31277344 167.23770508 -489.31277344 167.23770508 -488.1015625 166.01367188 C-483.80029449 161.69477572 -479.43252215 157.53401084 -474.80908203 153.56176758 C-472.20582638 151.31439559 -469.70405206 148.96908905 -467.1875 146.625 C-461.64340173 141.50999794 -455.89094098 136.71275278 -450 132 C-448.88094186 131.08923981 -447.76248112 130.17774524 -446.64453125 129.265625 C-415.15616512 103.67542077 -380.92070118 81.82465091 -345 63 C-344.06397949 62.50935059 -343.12795898 62.01870117 -342.16357422 61.51318359 C-278.75289028 28.52589665 -208.9026444 8.25160086 -138 0 C-136.24042969 -0.22429687 -136.24042969 -0.22429687 -134.4453125 -0.453125 C-90.82626693 -5.89378015 -43.56688328 -5.69077278 0 0 Z " fill="#5C2D91" transform="translate(669,3)"/>
<path d="M0 0 C17.16 0 34.32 0 52 0 C56.29924785 6.14178265 60.48540263 12.21463727 64.4375 18.5625 C65.48236038 20.22831172 66.5279731 21.89365172 67.57421875 23.55859375 C68.1264209 24.43757324 68.67862305 25.31655273 69.24755859 26.22216797 C72.39110451 31.20506926 75.57125552 36.16450691 78.75 41.125 C79.42329346 42.17606934 80.09658691 43.22713867 80.7902832 44.31005859 C82.16892448 46.46186894 83.54775054 48.61356091 84.92675781 50.76513672 C93.87549532 64.72778061 102.81426629 78.6965641 111.71142578 92.69213867 C116.1278038 99.63653392 120.56130415 106.56985227 125 113.5 C130.01222668 121.32560296 135.014376 129.15742141 140 137 C147.64015259 149.01698353 155.31946045 161.00880356 163 173 C171.25409264 185.88665276 179.50135689 198.77738408 187.71142578 211.69213867 C192.12780417 218.63653451 196.56146908 225.56974619 201 232.5 C203.66722134 236.66631187 206.33388244 240.83298171 209 245 C209.61407715 245.95970703 210.2281543 246.91941406 210.86083984 247.90820312 C219.35969006 261.19956899 227.7311269 274.56435357 236 288 C235.92912957 286.868008 235.85825914 285.73601601 235.78524113 284.56972122 C234.93789285 270.08411722 234.86450935 255.63464769 234.88647461 241.12792969 C234.88675731 238.48461811 234.88664092 235.84130929 234.8860321 233.19799805 C234.8855124 227.54962432 234.88860069 221.90126232 234.89426994 216.25289154 C234.90246091 208.08669477 234.90500787 199.92050356 234.90625793 191.75430313 C234.90843664 178.49928483 234.91506439 165.24427274 234.92456055 151.98925781 C234.93376543 139.12727896 234.94083115 126.2653018 234.94506836 113.40332031 C234.94533108 112.60805997 234.94559381 111.81279962 234.94586449 110.99344048 C234.9471697 107.00312208 234.94843337 103.01280367 234.94967639 99.02248526 C234.96001215 66.01498546 234.97787675 33.00749401 235 0 C248.2 0 261.4 0 275 0 C275 112.86 275 225.72 275 342 C258.83 342 242.66 342 226 342 C215.32596194 330.90737221 215.32596194 330.90737221 213.62890625 325.703125 C210.96485023 318.53910137 207.12551458 312.63014308 202.875 306.3125 C201.52331053 304.20784408 200.17686441 302.09981055 198.8359375 299.98828125 C195.41675327 294.64165742 191.96645785 289.31606149 188.5 284 C182.93012841 275.45773667 177.43111605 266.87129173 171.94140625 258.27734375 C167.82194117 251.8332669 163.67736329 245.40667936 159.5 239 C153.93015504 230.45771908 148.43111625 221.87129204 142.94140625 213.27734375 C138.82194117 206.8332669 134.67736329 200.40667936 130.5 194 C124.93015504 185.45771908 119.43111625 176.87129204 113.94140625 168.27734375 C109.82194117 161.8332669 105.67736329 155.40667936 101.5 149 C95.93015504 140.45771908 90.43111625 131.87129204 84.94140625 123.27734375 C80.82193872 116.83326306 76.67700609 110.40691481 72.5 104 C67.51694593 96.34918703 62.55961963 88.68215023 57.625 81 C56.97080078 79.98550781 56.31660156 78.97101563 55.64257812 77.92578125 C42.8069649 57.90693493 42.8069649 57.90693493 40 48 C39.34 48 38.68 48 38 48 C38.14174086 48.69398958 38.28348171 49.38797916 38.42951775 50.10299873 C40.69306393 63.08805356 40.26474919 76.15634302 40.22705078 89.29248047 C40.22536821 92.05313221 40.22671675 94.81378059 40.22793579 97.57443237 C40.22897917 103.49466652 40.22276015 109.41485622 40.21146011 115.33507919 C40.19513335 123.89448285 40.1899898 132.45386525 40.18748413 141.01328279 C40.18311823 154.90388687 40.16983925 168.79446732 40.15087891 182.68505859 C40.13249141 196.17008344 40.11834899 209.65510185 40.10986328 223.14013672 C40.10907511 224.38915767 40.10907511 224.38915767 40.10827102 225.66341136 C40.10566074 229.84116239 40.10313338 234.01891347 40.10064721 238.19666457 C40.07994914 272.79779391 40.04419939 307.39889318 40 342 C26.8 342 13.6 342 0 342 C0 229.14 0 116.28 0 0 Z " fill="#FEFDFE" transform="translate(236,352)"/>
<path d="M0 0 C57.09 0 114.18 0 173 0 C173 11.88 173 23.76 173 36 C129.44 36 85.88 36 41 36 C41 73.62 41 111.24 41 150 C81.59 150 122.18 150 164 150 C164 161.88 164 173.76 164 186 C123.41 186 82.82 186 41 186 C41 224.94 41 263.88 41 304 C87.53 304 134.06 304 182 304 C182 316.54 182 329.08 182 342 C121.94 342 61.88 342 0 342 C0 229.14 0 116.28 0 0 Z " fill="#FEFDFE" transform="translate(600,352)"/>
<path d="M0 0 C78.54 0 157.08 0 238 0 C238 11.88 238 23.76 238 36 C205.33 36 172.66 36 139 36 C139 136.98 139 237.96 139 342 C125.8 342 112.6 342 99 342 C99 241.02 99 140.04 99 36 C66.33 36 33.66 36 0 36 C0 24.12 0 12.24 0 0 Z " fill="#FDFDFE" transform="translate(812,352)"/>
<path d="M0 0 C0.33 0 0.66 0 1 0 C1.06469482 0.87696533 1.12938965 1.75393066 1.19604492 2.6574707 C6.8340005 77.35433275 23.98131828 149.23570316 131 340 C131.74636719 340.92941406 132.49273437 341.85882812 133.26171875 342.81640625 C145.20953721 357.55276402 157.65570241 371.83834763 171.18359375 385.1484375 C173 387 173 387 175.0625 389.625 C177.34330943 392.42083092 179.920368 394.57733434 182.66015625 396.9140625 C185.38124631 399.33987568 187.94289261 401.90461519 190.5 404.5 C194.83735421 408.88373121 199.29899038 413.01101937 204 417 C205.03856606 417.90141637 206.07624957 418.80385009 207.11328125 419.70703125 C215.209922 426.73775022 223.48818444 433.47899844 232 440 C232.91555664 440.70310303 232.91555664 440.70310303 233.84960938 441.42041016 C259.54943454 461.09475818 286.5688031 478.5300143 315 494 C315.9801709 494.53334961 316.9603418 495.06669922 317.97021484 495.61621094 C343.76730089 509.5504034 370.40569759 521.12687728 398 531 C399.18078125 531.4237793 400.3615625 531.84755859 401.578125 532.28417969 C434.61275907 544.01399926 468.44726054 552.22820593 503 558 C504.86591797 558.31275879 504.86591797 558.31275879 506.76953125 558.63183594 C526.40928599 561.84197226 546.1721817 563.48231514 566 565 C566 565.33 566 565.66 566 566 C549.89041607 566.16485083 533.78111322 566.28760156 517.67088509 566.3626852 C510.1875267 566.39850282 502.70469772 566.44716727 495.22167969 566.52807617 C488.68561093 566.59871154 482.14992611 566.6432077 475.61348617 566.65861946 C472.16479372 566.66760294 468.7171978 566.68809883 465.26886368 566.7401104 C446.69954907 566.98847605 430.66100251 564.7524143 413 559 C411.25124487 558.4530754 409.5018675 557.90813474 407.75175476 557.36557007 C403.43528849 556.02127629 399.15333206 554.58547529 394.875 553.125 C393.3238126 552.60001405 391.77262444 552.07503037 390.22143555 551.55004883 C385.80820657 550.05076505 381.40307364 548.52880558 377 547 C375.30979736 546.41629639 375.30979736 546.41629639 373.58544922 545.82080078 C309.77811422 523.56005881 249.33391548 487.44402826 198.10546875 443.6328125 C195.15579651 441.11661783 192.14529582 438.68107031 189.125 436.25 C185.44843677 433.25979951 182.03942425 430.17244417 178.75805664 426.75708008 C177.11357419 425.1135111 175.41901539 423.62477396 173.640625 422.12890625 C167.91261237 417.14951168 162.59987545 411.74917481 157.24536133 406.37573242 C155.44137915 404.56639067 153.63211335 402.76245681 151.82226562 400.95898438 C146.00042466 395.14049908 140.32353975 389.28397711 135 383 C133.54554483 381.39231627 132.08779105 379.78760285 130.625 378.1875 C125.89486725 372.93801145 121.41451049 367.51631394 117 362 C116.59056152 361.49017578 116.18112305 360.98035156 115.75927734 360.45507812 C102.25745052 343.60743779 89.71491106 326.1346418 78 308 C77.46552246 307.17338867 76.93104492 306.34677734 76.38037109 305.49511719 C50.30608304 264.89590275 29.98357207 221.40179125 14.1875 175.875 C13.80485992 174.78467972 13.80485992 174.78467972 13.41448975 173.67233276 C11.48710206 168.15108688 9.73211375 162.58513353 8 157 C7.67231377 155.96534827 7.34462753 154.93069654 7.00701141 153.86469173 C1.14591338 135.04722939 -1.15570198 118.12895496 -0.8111515 98.31318712 C-0.75975691 94.83412923 -0.75633662 91.35495879 -0.74694824 87.87557983 C-0.72247569 81.3417969 -0.65738588 74.80913649 -0.57615232 68.27583921 C-0.48547678 60.81474495 -0.44243813 53.35358544 -0.40258884 45.89207387 C-0.31986239 30.59407477 -0.17995224 15.2971843 0 0 Z " fill="#FEFEFE" transform="translate(0,634)"/>
<path d="M0 0 C1.61551758 -0.02416992 1.61551758 -0.02416992 3.26367188 -0.04882812 C16.66152375 -0.05694312 28.55648204 4.17719115 38.4375 13.4375 C43.20060868 18.53291859 46.65380002 24.04861688 49.6875 30.3125 C50.12320313 31.20582031 50.55890625 32.09914063 51.0078125 33.01953125 C57.56243176 49.77277139 55.28907759 72.02641817 48.2265625 88.2578125 C41.05190708 102.49786463 30.10919411 111.88165244 15.1171875 116.921875 C9.30767852 118.61656178 3.76995292 118.7922049 -2.25 118.75 C-3.25740234 118.76998047 -4.26480469 118.78996094 -5.30273438 118.81054688 C-19.06037817 118.80169952 -31.40556827 112.5829744 -41.4375 103.33984375 C-55.96649888 87.63036372 -57.05381113 68.66237353 -56.48730469 48.44482422 C-55.79540368 36.04665386 -49.37827828 24.56486391 -41.3125 15.3125 C-28.88861403 4.68071428 -16.13313965 -0.04775944 0 0 Z " fill="#F0EFF0" transform="translate(568.3125,816.6875)"/>
<path d="M0 0 C1.01006104 0.01208496 2.02012207 0.02416992 3.06079102 0.03662109 C16.53547235 0.39501916 25.97919484 4.38964469 35.25 14.125 C47.77549291 29.05813914 46.625 43.85664583 46.625 63.5 C20.555 63.5 -5.515 63.5 -32.375 63.5 C-29.86139631 76.68168126 -29.86139631 76.68168126 -24.6796875 88.109375 C-23.375 90.5 -23.375 90.5 -22.375 93.5 C-20.55471443 94.5904124 -20.55471443 94.5904124 -18.375 95.5 C-16.14104143 96.78282773 -13.91390654 98.07632782 -11.69140625 99.37890625 C-2.45229545 103.85044892 11.10782573 102.30054343 20.73046875 99.5625 C25.04362922 97.97926161 29.07928916 95.96663447 33.12890625 93.8046875 C35.625 92.5 35.625 92.5 38.625 91.5 C38.625 96.78 38.625 102.06 38.625 107.5 C22.52853154 117.15788107 3.90840076 120.30973885 -14.68408203 117.1015625 C-21.80191438 115.24302731 -27.93124639 111.35770358 -33.375 106.5 C-34.674375 105.3553125 -34.674375 105.3553125 -36 104.1875 C-46.65277451 92.13304463 -51.76374882 77.0811145 -51.625 61.125 C-51.63273438 60.24328125 -51.64046875 59.3615625 -51.6484375 58.453125 C-51.59983847 41.88085537 -46.08834008 25.75965639 -34.63671875 13.56640625 C-24.70968071 4.49662539 -13.3705933 -0.25659044 0 0 Z " fill="#F0EFF0" transform="translate(772.375,817.5)"/>
<path d="M0 0 C1 1 1 1 1.11352539 2.76586914 C1.10567017 3.88916626 1.10567017 3.88916626 1.09765625 5.03515625 C1.09282227 6.24848633 1.09282227 6.24848633 1.08789062 7.48632812 C1.07532227 8.7615332 1.07532227 8.7615332 1.0625 10.0625 C1.05798828 10.91650391 1.05347656 11.77050781 1.04882812 12.65039062 C1.03700373 14.76695663 1.01906769 16.88348685 1 19 C-0.216875 18.5875 -1.43375 18.175 -2.6875 17.75 C-24.51309346 10.48633181 -44.24969423 6.98350518 -65.6875 17.6875 C-80.52877275 26.30710382 -90.59166911 40.46875917 -95 57 C-96.08776614 63.9185126 -96.21776193 70.75433917 -96.25 77.75 C-96.270625 78.8534375 -96.29125 79.956875 -96.3125 81.09375 C-96.39016377 97.63613389 -90.98951139 112.83593231 -79.3828125 124.81640625 C-67.75911175 135.46828939 -56.30763199 139.17856908 -40.875 139.1875 C-39.78445313 139.19974609 -38.69390625 139.21199219 -37.5703125 139.22460938 C-27.52128965 139.24263992 -18.87714122 137.64351892 -9.5625 133.9375 C-8.18890824 133.40467417 -6.81521438 132.87211144 -5.44140625 132.33984375 C-4.30574219 131.89769531 -3.17007813 131.45554687 -2 131 C-1.01 130.67 -0.02 130.34 1 130 C1 135.61 1 141.22 1 147 C-13.30930171 154.39155982 -26.31857407 156.49256138 -42.3125 156.5625 C-43.03902771 156.57108032 -43.76555542 156.57966064 -44.51409912 156.58850098 C-63.45705444 156.74550007 -80.94405109 150.58077588 -94.84814453 137.48779297 C-103.29481476 128.9949503 -109.1771137 118.28594741 -113 107 C-113.391875 105.89269531 -113.78375 104.78539062 -114.1875 103.64453125 C-121.13833903 80.74055124 -118.09518869 55.61719055 -107.22680664 34.51318359 C-103.87125024 28.39757488 -99.7216284 23.12806894 -95 18 C-94.46117187 17.36964844 -93.92234375 16.73929688 -93.3671875 16.08984375 C-85.24969095 7.13612268 -73.31770289 0.81747915 -62 -3 C-60.60007812 -3.47759766 -60.60007812 -3.47759766 -59.171875 -3.96484375 C-40.72677225 -9.20383236 -17.63518644 -7.1343749 0 0 Z " fill="#EFEFF0" transform="translate(489,779)"/>
<path d="M0 0 C0.67417969 0.38800781 1.34835937 0.77601563 2.04296875 1.17578125 C9.70192448 6.63680266 14.0592944 18.16105174 16 27 C17.32577019 42.2515768 16.97927604 57.3017257 7.625 70.0703125 C5.01392795 73.17096056 2.34335418 75.70362521 -1 78 C-1.58652344 78.41378906 -2.17304687 78.82757812 -2.77734375 79.25390625 C-8.11519128 82.28749485 -13.50554653 82.3830471 -19.5 82.4375 C-20.2950293 82.44765137 -21.09005859 82.45780273 -21.90917969 82.46826172 C-31.99645785 82.32083546 -39.75816487 79.02321369 -47 72 C-57.45438358 59.68705934 -59.16865367 44.49819454 -58 29 C-56.10991634 18.42633197 -51.28942772 8.97065513 -43 2 C-29.61613718 -6.92985301 -14.2798677 -8.28365576 0 0 Z " fill="#6D439C" transform="translate(588,838)"/>
<path d="M0 0 C0.76699219 0.00515625 1.53398438 0.0103125 2.32421875 0.015625 C7.93913879 0.09456939 7.93913879 0.09456939 10.25 1.25 C10.25 7.19 10.25 13.13 10.25 19.25 C8.27 18.59 6.29 17.93 4.25 17.25 C-3.0789637 16.3764096 -9.5418335 16.5215906 -15.82421875 20.65625 C-23.68632438 27.16282018 -28.00631654 37.14319536 -29.2250061 47.15054321 C-29.47636115 51.44949403 -29.46991314 55.74599258 -29.45703125 60.05078125 C-29.47018054 61.62405789 -29.48549452 63.19731776 -29.50285339 64.77055359 C-29.54233958 68.86564218 -29.55287001 72.96028557 -29.55688477 77.05554199 C-29.56628571 81.25265705 -29.6037418 85.4495179 -29.63867188 89.64648438 C-29.70287642 97.84770534 -29.7338198 106.04854358 -29.75 114.25 C-36.02 114.25 -42.29 114.25 -48.75 114.25 C-48.75 76.96 -48.75 39.67 -48.75 1.25 C-42.48 1.25 -36.21 1.25 -29.75 1.25 C-29.42 7.52 -29.09 13.79 -28.75 20.25 C-27.5125 17.9915625 -27.5125 17.9915625 -26.25 15.6875 C-20.09589177 5.44032921 -12.05220784 -0.33076385 0 0 Z " fill="#EFEFF0" transform="translate(699.75,818.75)"/>
<path d="M0 0 C0 3 0 3 -1.21484375 4.4375 C-1.78332031 4.953125 -2.35179687 5.46875 -2.9375 6 C-6.84250907 9.74067001 -10.18219525 13.79609628 -13.56640625 18.0078125 C-15.6149227 20.52653417 -17.71145853 22.99028906 -19.84008789 25.44116211 C-27.43335341 34.22590579 -34.23526125 43.57030877 -41 53 C-41.88872803 54.2372583 -41.88872803 54.2372583 -42.79541016 55.49951172 C-75.93218478 101.80405631 -102.17070025 152.29893405 -121 206 C-121.37431152 207.04800781 -121.74862305 208.09601563 -122.13427734 209.17578125 C-140.62907548 261.14384114 -150.78502672 315.99158132 -154 371 C-154.33 371 -154.66 371 -155 371 C-155.18758321 359.24505141 -155.32861036 347.49047412 -155.41449738 335.73431873 C-155.45577521 330.2719569 -155.51150363 324.81063844 -155.60351562 319.34887695 C-155.99461889 295.48684467 -156.23556501 273.49446564 -148.01873779 250.82339478 C-146.80306897 247.45421279 -145.7619494 244.04781753 -144.7250824 240.62046814 C-143.6535544 237.12048927 -142.4853146 233.65459643 -141.3125 230.1875 C-141.06432526 229.44850464 -140.81615051 228.70950928 -140.56045532 227.94812012 C-128.67034606 192.66724203 -113.5315685 158.30121208 -95 126 C-94.50886719 125.13358887 -94.01773438 124.26717773 -93.51171875 123.37451172 C-77.80016414 95.7321222 -59.7456101 69.20772467 -39.43994141 44.73974609 C-37.4205368 42.29988899 -35.43129039 39.83580436 -33.4375 37.375 C-18.80786662 19.53924071 -18.80786662 19.53924071 -11.58984375 12.5859375 C-9.11106021 10.11324433 -6.8539299 7.45552558 -4.578125 4.796875 C-3.11118731 3.12659942 -1.59043707 1.55211328 0 0 Z " fill="#FEFEFE" transform="translate(155,195)"/>
<path d="M0 0 C0.66 0.33 1.32 0.66 2 1 C-3.80914943 6.91628538 -9.67466109 12.64010756 -16 18 C-16.92039062 18.79792969 -17.84078125 19.59585937 -18.7890625 20.41796875 C-26.80993886 27.33739122 -35.14077152 33.79921797 -43.59985352 40.171875 C-45.38116482 41.52865041 -47.15071166 42.90090069 -48.91381836 44.28125 C-56.89293171 50.52445912 -65.11219113 56.28947798 -73.5625 61.875 C-74.21541016 62.30820557 -74.86832031 62.74141113 -75.54101562 63.18774414 C-97.78242458 77.93323521 -120.81993078 91.29305831 -144.83984375 102.94433594 C-147.2144282 104.10479064 -149.57536938 105.2909755 -151.9375 106.4765625 C-174.35878218 117.60570129 -197.73266473 126.4079589 -221.4375 134.375 C-222.1311264 134.6100827 -222.82475281 134.84516541 -223.53939819 135.08737183 C-227.85720303 136.54338549 -232.19658942 137.90140928 -236.55786133 139.22103882 C-239.12121086 140.03866224 -241.63136984 140.96266767 -244.15625 141.8918457 C-265.76714817 149.30060265 -288.28912973 147.80708108 -310.82366943 147.48065186 C-316.38225441 147.40799532 -321.94107328 147.37685341 -327.5 147.34179688 C-338.33393399 147.26756671 -349.16684934 147.14870088 -360 147 C-360 146.67 -360 146.34 -360 146 C-358.63911255 145.90295776 -358.63911255 145.90295776 -357.25073242 145.80395508 C-282.22638692 140.32583772 -210.05025358 123.14920976 -19 16 C-18.00097656 15.195625 -17.00195312 14.39125 -15.97265625 13.5625 C-10.54557024 9.15531905 -5.21951619 4.65120211 0 0 Z " fill="#FDFDFE" transform="translate(993,1053)"/>
<path d="M0 0 C6.6223396 3.43245807 10.98978866 8.44225822 14.1328125 15.10546875 C16.54174308 22.82055722 15.96076448 31.07504045 12.2578125 38.2109375 C8.71942018 44.16968846 3.95748793 48.4663162 -2.6953125 50.7265625 C-9.97372166 51.9963569 -18.56073915 52.51710828 -25.05859375 48.5625 C-31.90589386 43.04620855 -37.03061199 36.78612179 -38.140625 27.921875 C-38.49041278 20.15927686 -36.53555792 13.72634571 -31.4921875 7.79296875 C-22.49909651 -1.71023454 -12.59463905 -4.80763104 0 0 Z " fill="#FDFDFD" transform="translate(149.8671875,646.89453125)"/>
<path d="M0 0 C6.18512495 4.68207308 9.21774318 11.3553477 11.06640625 18.75 C11.06640625 21.72 11.06640625 24.69 11.06640625 27.75 C-8.73359375 27.75 -28.53359375 27.75 -48.93359375 27.75 C-48.93359375 18.15616561 -45.13785072 10.26405853 -38.56640625 3.2109375 C-27.1294441 -7.02213389 -12.84813578 -8.30586555 0 0 Z " fill="#6E439C" transform="translate(789.93359375,838.25)"/>
<path d="M0 0 C4.44016929 3.80585939 8.60442137 7.47661069 12.71484375 11.58203125 C13.21544815 12.08167892 13.71605255 12.5813266 14.23182678 13.09611511 C15.27402363 14.13763881 16.31498848 15.18039671 17.35473633 16.22436523 C18.95474662 17.82980515 20.5601231 19.42974308 22.16601562 21.02929688 C23.18261306 22.04655391 24.1989009 23.06412047 25.21484375 24.08203125 C26.13386475 25.00218018 27.05288574 25.9223291 27.99975586 26.87036133 C30 29 30 29 30 30 C20.1 30 10.2 30 0 30 C0 20.1 0 10.2 0 0 Z " fill="#6C419B" transform="translate(641,626)"/>
<path d="M0 0 C0 3 0 3 -1.25 4.47265625 C-1.8275 4.99730469 -2.405 5.52195313 -3 6.0625 C-7.48130833 10.33303104 -11.21528031 15.11427094 -15 20 C-15.66 19.34 -16.32 18.68 -17 18 C-16.57589844 17.5875 -16.15179688 17.175 -15.71484375 16.75 C-11.81595825 12.91109736 -8.13624596 8.95355837 -4.578125 4.796875 C-3.11118731 3.12659942 -1.59043707 1.55211328 0 0 Z " fill="#F4F0F7" transform="translate(155,195)"/>
<path d="M0 0 C0.66 0.33 1.32 0.66 2 1 C-1.3 4.3 -4.6 7.6 -8 11 C-8.66 10.67 -9.32 10.34 -10 10 C-6.66666667 6.66666667 -3.33333333 3.33333333 0 0 Z " fill="#F6F5F9" transform="translate(993,1053)"/>
</svg>
