<?xml version="1.0" encoding="UTF-8"?>
<svg version="1.1" xmlns="http://www.w3.org/2000/svg" width="157" height="151">
<path d="M0 0 C3.53459685 2.18092146 5.53588736 4.12762733 7 8 C6.86467097 9.85870286 6.67138075 11.71361112 6.4375 13.5625 C6.37507977 19.20112765 7.81222023 22.00163374 11.5 26.25 C15.82020238 30.38271237 20.01956182 32.17638504 26 32.375 C32.2693559 32.22613722 36.1802934 30.15680948 40.5625 25.75 C43.2714092 22.95560267 43.2714092 22.95560267 45 20 C44.90806116 17.84463539 44.90806116 17.84463539 44 16 C43.45720766 10.24640117 44.3463165 6.41629033 48 2 C51.51830199 -0.61827124 54.2153589 -1.23043448 58.5 -1 C63.29034478 -0.27982992 65.65228152 1.56858856 69 5 C70.85506839 8.71013678 70.45334699 12.95092823 70 17 C67.96673313 21.06653374 66.27694564 23.43304824 62 25 C60.14129714 24.86467097 58.28638888 24.67138075 56.4375 24.4375 C51.64436594 24.35496141 48.91376451 25.22065626 45.22875977 28.37255859 C41.96274446 31.55283898 39.32250408 34.34389797 38.421875 38.96875 C38.46150179 41.80000647 38.46150179 41.80000647 38.796875 44.55078125 C39.09003627 48.08562969 38.00087999 50.14160001 36 53 C33.01745106 56.3266892 29.53074625 56.7279227 25.24609375 57.05859375 C20.46160655 56.93378104 17.86023754 54.88287538 14.625 51.5625 C12.86060351 47.6944 13.0399206 46.40491725 13.4375 42.3125 C13.59306546 36.90829112 12.15199231 33.64627273 8.5 29.75 C4.17985879 25.61728357 -0.01959512 23.82361385 -6 23.625 C-12.2693559 23.77386278 -16.1802934 25.84319052 -20.5625 30.25 C-23.2714092 33.04439733 -23.2714092 33.04439733 -25 36 C-24.90806116 38.15536461 -24.90806116 38.15536461 -24 40 C-23.45720766 45.75359883 -24.3463165 49.58370967 -28 54 C-31.51830199 56.61827124 -34.2153589 57.23043448 -38.5 57 C-43.29034478 56.27982992 -45.65228152 54.43141144 -49 51 C-50.85506839 47.28986322 -50.45334699 43.04907177 -50 39 C-47.9593785 34.91875701 -46.27446008 32.59259321 -42 31 C-40.06073958 31.01094082 -38.12106447 31.10107334 -36.1875 31.25 C-31.83921738 31.32944487 -29.35138173 31.16953475 -26 28.3125 C-23.46062196 25.71133661 -21.25954175 22.84534887 -19 20 C-18.34 20 -17.68 20 -17 20 C-17.495 19.2265625 -17.495 19.2265625 -18 18.4375 C-19.83778375 13.9579021 -19.46630792 10.2124006 -17.75 5.75 C-13.32352247 -1.20589326 -7.54543819 -1.72391382 0 0 Z M-12 8 C-13.25329784 10.85289698 -13.25329784 10.85289698 -13 14 C-11.59121904 16.9901643 -11.59121904 16.9901643 -9 19 C-5.32209009 19.68960811 -3.71491389 19.45827813 -0.5625 17.4375 C1.32042676 14.98268571 1.32042676 14.98268571 1 11.4375 C0.28941318 7.9972852 0.28941318 7.9972852 -1.875 6.0625 C-6.01158607 3.99420696 -8.56783749 5.29039802 -12 8 Z M51 8 C49.74670216 10.85289698 49.74670216 10.85289698 50 14 C51.40878096 16.9901643 51.40878096 16.9901643 54 19 C57.37429445 19.56238241 59.2624367 19.32996253 62.375 17.9375 C64.30499938 15.97112293 64.30499938 15.97112293 64.5625 12.5625 C64.32638034 8.88294631 64.32638034 8.88294631 61.6875 6.5625 C57.2939283 4.00809785 54.83791472 4.97006733 51 8 Z M-42.375 38.625 C-44.19887378 40.94844013 -44.19887378 40.94844013 -44.5625 44 C-44.23496998 47.14627033 -44.23496998 47.14627033 -41.875 49.4375 C-39.08754252 51.23784957 -39.08754252 51.23784957 -35.875 51.0625 C-32.86914701 50.21555177 -32.86914701 50.21555177 -31.0625 47.75 C-29.82645952 44.55083641 -29.82275628 43.19537581 -31 40 C-32.08333333 38.08333333 -32.08333333 38.08333333 -34 37 C-37.63031776 36.45931438 -39.32214079 36.53620159 -42.375 38.625 Z M20.5625 38.5625 C18.67957324 41.01731429 18.67957324 41.01731429 19 44.5625 C19.73705196 47.96274624 19.73705196 47.96274624 21.6875 50 C24.89970645 51.38906225 26.6936636 51.05521374 30 50 C32.0785608 48.42304368 32.0785608 48.42304368 33 46 C32.87177883 42.85858144 32.4995896 40.78882568 30.8125 38.125 C27.16864233 35.86329524 24.07028131 36.31392224 20.5625 38.5625 Z " fill="#020202" transform="translate(68,47)"/>
<path d="M0 0 C0.6640625 1.765625 0.6640625 1.765625 1 4 C-0.51079588 6.7944044 -2.5641642 8.97199909 -5 11 C-7.875 11.4375 -7.875 11.4375 -10 11 C-10.69921875 9.234375 -10.69921875 9.234375 -11 7 C-9.70703125 5.078125 -9.70703125 5.078125 -7.8125 3.25 C-6.89404297 2.32960937 -6.89404297 2.32960937 -5.95703125 1.390625 C-4 0 -4 0 0 0 Z " fill="#020202" transform="translate(106,61)"/>
<path d="M0 0 C0.6953125 1.76171875 0.6953125 1.76171875 1 4 C-0.84298391 6.86749982 -3.21577224 9.0459578 -6 11 C-8.9375 10.9375 -8.9375 10.9375 -11 10 C-10.77771136 6.10994871 -10.01244362 5.01244362 -7.1875 2.1875 C-4 0 -4 0 0 0 Z " fill="#020202" transform="translate(60,78)"/>
</svg>
