<svg xmlns="http://www.w3.org/2000/svg" width="50" height="50" viewBox="0 0 50 50" fill="none"><g clip-path="url(#clip0_320_1551)"><mask id="mask0_320_1551" style="mask-type:luminance" maskUnits="userSpaceOnUse" x="0" y="0" width="50" height="50"><path d="M50 0H0V50H50V0Z" fill="white"></path></mask><g mask="url(#mask0_320_1551)"><mask id="mask1_320_1551" style="mask-type:luminance" maskUnits="userSpaceOnUse" x="0" y="0" width="50" height="50"><path d="M50 0H0V50H50V0Z" fill="white"></path></mask><g mask="url(#mask1_320_1551)"><path fill-rule="evenodd" clip-rule="evenodd" d="M1.66789 44.9935H0L0.00624796 46.8319C0.00624796 49.1117 0.869379 49.9861 3.13353 49.9861H45.9565C46.1421 49.9861 46.3278 49.9896 46.5133 49.9931C46.8842 50 47.2548 50.0069 47.6244 49.9861C48.769 49.9195 49.7801 49.1783 49.9303 48.0811C50.0258 47.3855 50.0027 46.6729 49.9797 45.9627C49.9696 45.6504 49.9594 45.3386 49.9594 45.0289L48.3624 44.9457V43.6465V18.6628C48.3624 16.8578 47.4368 15.9209 45.6292 15.8397C45.5187 15.8342 45.4091 15.8259 45.2792 15.8161C45.213 15.8111 45.1416 15.8057 45.0621 15.8001C45.0717 15.4982 45.0622 15.2 45.0528 14.9051C45.0193 13.8535 44.9871 12.8449 45.8272 11.8693C46.805 10.7305 46.9781 9.32101 46.1441 7.81575C45.111 5.95627 44.1831 4.034 43.2553 2.11194C43.0373 1.66029 42.8193 1.20866 42.5999 0.757849C42.3435 0.231109 42.062 1.3693e-05 41.4365 1.3693e-05C30.4897 0.0208334 19.5435 0.0208334 8.59795 1.3693e-05C7.97249 -0.00206828 7.69103 0.233191 7.4346 0.757849C7.2474 1.14535 7.06098 1.53363 6.87448 1.92209C5.92064 3.90877 4.96457 5.90013 3.89034 7.81575C3.04806 9.32101 3.22527 10.7305 4.20515 11.8693C5.04628 12.8474 5.01393 13.8534 4.98093 14.8793C4.97164 15.168 4.96231 15.4584 4.97238 15.7501C2.14948 16.0978 1.66789 16.6537 1.66789 19.4977V44.9935ZM6.75493 41.6103V13.9596C9.08163 14.5613 10.9643 13.8909 12.5133 12.0213C13.6183 13.3226 14.9213 14.1637 16.6413 14.172C18.3613 14.1803 19.7102 13.4225 20.8465 12.0317C21.9681 13.3184 23.2941 14.1845 25.0475 14.172C26.7633 14.172 28.0872 13.3663 29.1505 12.09C32.3945 14.9153 34.692 14.9153 37.5566 12.0609C39.0598 13.8639 40.9591 14.5946 43.3338 13.9451V41.6103H6.75493ZM3.3316 18.9855C3.3316 17.651 3.50464 17.5052 4.99949 17.5656L4.99531 43.2655H45.0246V17.6177C46.4027 17.449 46.6925 17.6343 46.6925 18.6982V44.5147C46.683 44.6621 46.6649 44.8087 46.6383 44.954H3.38997C3.38373 44.8674 3.376 44.7801 3.36823 44.6923C3.35003 44.4867 3.3316 44.2784 3.3316 44.0712V18.9855ZM1.71583 46.7341H48.3374C48.3979 48.1561 48.2478 48.3268 46.9135 48.3268H3.13145C1.80131 48.3268 1.6512 48.1581 1.71583 46.7341ZM22.1895 4.09636C22.273 3.31035 22.3571 2.51841 22.4331 1.71764H27.5931C27.6381 2.14219 27.6833 2.56636 27.7285 2.99024C27.8651 4.27294 28.0014 5.553 28.1331 6.83305C28.245 7.6555 28.3145 8.48312 28.3416 9.31268C28.3334 10.1702 27.9876 10.99 27.379 11.5951C26.7704 12.2001 25.9479 12.5417 25.0892 12.546C23.2858 12.5647 21.6533 11.1948 21.7305 9.44177C21.8103 7.66764 21.9983 5.89754 22.1895 4.09636ZM19.5203 1.68436C19.9226 1.68641 20.3313 1.68849 20.7485 1.68849C20.6648 2.57113 20.5858 3.43898 20.5077 4.29642C20.3407 6.13098 20.178 7.91787 19.9834 9.69993C19.89 10.4475 19.5389 11.1393 18.9903 11.6564C18.4416 12.1735 17.7298 12.4836 16.977 12.5335C15.3195 12.6459 13.9331 11.7215 13.5161 10.1476C13.4036 9.71968 13.4036 9.27003 13.5161 8.84216C14.1263 6.67552 14.7733 4.51998 15.4571 2.37555C15.5364 2.10073 15.9116 1.72805 16.1618 1.71764C17.2614 1.67285 18.3644 1.67847 19.5203 1.68436ZM29.53 4.16128C29.4579 3.35859 29.3854 2.55213 29.3068 1.74054H34.421C34.6243 2.406 34.8336 3.07146 35.0431 3.73761C35.609 5.53702 36.1766 7.34151 36.633 9.16486C37.1084 11.0865 34.6066 12.9978 32.5217 12.4107C31.202 12.0401 30.2867 11.1636 30.1137 9.82485C29.8703 7.94612 29.7011 6.0643 29.53 4.16128ZM36.3099 2.19233C36.2835 2.02549 36.2667 1.85726 36.2598 1.68849C36.6369 1.68849 37.0109 1.68724 37.3825 1.68599C38.525 1.68216 39.6451 1.67841 40.7652 1.7114C40.9057 1.73797 41.0385 1.79525 41.1542 1.87911C41.2699 1.96298 41.3656 2.07136 41.4345 2.19649C42.5936 4.44503 43.7229 6.70813 44.8224 8.98581C44.9609 9.32855 44.985 9.70676 44.8911 10.0643C44.7027 10.7631 44.2895 11.3807 43.7151 11.822C43.1407 12.2632 42.4369 12.5037 41.7122 12.5063C40.9875 12.5089 40.282 12.2735 39.7044 11.8364C39.1268 11.3993 38.7091 10.7846 38.5157 10.0872C37.9131 7.96415 37.3227 5.83841 36.7325 3.71325C36.5917 3.20623 36.4508 2.69924 36.3099 2.19233ZM12.6279 1.68392C13.0359 1.68618 13.4526 1.68849 13.881 1.68849C13.6793 2.36621 13.482 3.02279 13.2888 3.66589C12.9229 4.88384 12.5716 6.05341 12.2319 7.22654C12.058 7.83813 11.917 8.46333 11.7772 9.08373C11.7275 9.30389 11.678 9.52344 11.6272 9.74157C11.3145 11.1115 10.516 12.0463 9.1421 12.4002C8.55519 12.573 7.93018 12.5681 7.34607 12.3861C6.76196 12.2042 6.24499 11.8533 5.86053 11.378C5.23508 10.6514 4.71178 9.77072 5.44356 8.45283C6.10768 7.25733 6.71424 6.02973 7.32098 4.80177C7.72756 3.97891 8.13422 3.15588 8.55834 2.34223C8.70428 2.05909 9.06912 1.72805 9.34432 1.71764C10.4146 1.67164 11.4872 1.67759 12.6279 1.68392ZM19.2082 34.9977C19.4496 35.001 19.6961 35.0042 19.95 35.0042C18.1966 36.4387 17.8818 37.9315 19.0202 39.1599C19.2518 39.4204 19.536 39.629 19.8543 39.7719C20.1725 39.9147 20.5174 39.9886 20.8663 39.9886C21.2152 39.9886 21.5601 39.9147 21.8783 39.7719C22.1966 39.629 22.4808 39.4204 22.7124 39.1599C23.8362 37.919 23.5172 36.4262 21.8159 35.0396H32.4487C30.7329 36.3554 30.391 37.8565 31.473 39.1057C32.4216 40.2071 34.1395 40.3695 35.0485 39.2598C35.5197 38.6893 35.8575 37.7504 35.747 37.0238C35.6704 36.5206 35.304 36.0564 34.9301 35.5827C34.764 35.3723 34.5965 35.1601 34.4523 34.9418H37.4503C37.7175 32.9247 37.9847 30.9243 38.2518 28.924C38.6101 26.2415 38.9684 23.5591 39.3267 20.8364H15.7073C15.6427 20.5145 15.5813 20.1995 15.521 19.8899C15.3513 19.02 15.19 18.1925 14.9901 17.3741C14.9255 17.1118 14.6315 16.7203 14.423 16.7099C13.5534 16.6618 12.6791 16.6681 11.8063 16.6744C11.5094 16.6766 11.2126 16.6787 10.9163 16.6787V18.3693H13.4682C13.4845 18.4359 13.4993 18.4946 13.5128 18.5479C13.5405 18.6579 13.5625 18.7452 13.5808 18.8335C13.7783 19.8135 13.9761 20.7933 14.1739 21.7731C15.0118 25.9229 15.8496 30.0725 16.6643 34.2277C16.7727 34.8231 16.9937 35.0542 17.6066 35.0167C18.1316 34.9834 18.6566 34.9904 19.2082 34.9977ZM35.9805 33.2637H18.1904C17.6907 30.7392 17.1889 28.2415 16.6842 25.7299C16.4731 24.6789 16.2614 23.6254 16.0492 22.5665H37.4003C37.1342 24.5757 36.8701 26.564 36.6057 28.5541C36.3978 30.1192 36.1897 31.6854 35.9805 33.2637ZM21.2349 38.1915C21.1117 38.3271 20.9729 38.48 20.8402 38.6539C20.7132 38.4789 20.5799 38.3239 20.4612 38.1858C20.2312 37.9183 20.056 37.7146 20.0876 37.5526C20.1342 37.3241 20.3611 37.1302 20.5875 36.9368C20.685 36.8535 20.7824 36.7703 20.8652 36.6844C20.9463 36.7729 21.0419 36.8587 21.1376 36.9445C21.3592 37.1434 21.5806 37.3421 21.62 37.5734C21.6487 37.7359 21.4701 37.9326 21.2349 38.1915ZM34.0671 37.1392C34.2062 37.2721 34.3649 37.4238 34.5503 37.5713C34.3444 37.6909 34.1682 37.8135 34.0126 37.9217C33.7158 38.1281 33.494 38.2824 33.2847 38.2646C33.02 38.2417 32.5446 37.6733 32.603 37.4839C32.6776 37.3014 32.794 37.139 32.9428 37.0096C33.0916 36.8801 33.2687 36.7873 33.4599 36.7385C33.6255 36.717 33.8136 36.8969 34.0671 37.1392Z" fill="#0E0E2A"></path></g></g></g><defs><clipPath id="clip0_320_1551"><rect width="50" height="50" fill="white"></rect></clipPath></defs></svg>