<?xml version="1.0" standalone="no"?>
<!DOCTYPE svg PUBLIC "-//W3C//DTD SVG 20010904//EN"
 "http://www.w3.org/TR/2001/REC-SVG-20010904/DTD/svg10.dtd">
<svg version="1.0" xmlns="http://www.w3.org/2000/svg"
 width="512.000000pt" height="512.000000pt" viewBox="0 0 512.000000 512.000000"
 preserveAspectRatio="xMidYMid meet">

<g transform="translate(0.000000,512.000000) scale(0.100000,-0.100000)"
fill="#000000" stroke="none">
<path d="M1043 4835 c-507 -92 -846 -574 -758 -1078 62 -358 317 -641 668
-741 48 -14 123 -29 166 -32 78 -7 84 -9 412 -178 l333 -172 -1 -69 -1 -70
-343 -176 c-319 -165 -347 -177 -411 -184 -294 -29 -575 -214 -722 -478 -80
-142 -123 -339 -113 -506 22 -345 222 -640 538 -791 382 -182 857 -74 1119
256 33 42 67 89 75 105 l16 29 404 0 404 0 21 -48 c28 -62 64 -99 125 -128 90
-43 196 -25 269 44 53 51 76 104 76 180 0 187 -184 301 -354 218 -59 -29 -113
-90 -123 -138 l-5 -28 -383 0 -383 0 24 74 c62 195 58 401 -9 595 -15 41 -25
76 -24 78 4 3 177 89 641 315 214 104 392 186 395 181 4 -4 28 -37 53 -73 86
-124 221 -237 365 -306 80 -39 244 -84 304 -84 l39 0 0 -399 0 -399 -37 -13
c-50 -16 -126 -94 -141 -145 -16 -55 -15 -137 2 -178 49 -116 186 -181 303
-142 216 72 234 363 27 461 l-54 26 2 392 3 392 63 7 c372 41 692 322 793 698
33 122 33 338 0 460 -44 163 -117 293 -235 418 -146 154 -353 257 -558 280
l-63 7 -3 392 -2 392 54 26 c131 62 183 209 119 336 -81 158 -287 185 -403 53
-18 -21 -39 -52 -46 -70 -17 -41 -18 -123 -2 -178 15 -51 91 -129 141 -145
l37 -13 0 -399 0 -399 -39 0 c-55 0 -215 -42 -292 -78 -139 -63 -289 -187
-377 -312 -25 -36 -49 -69 -52 -73 -4 -5 -182 77 -396 181 -451 220 -637 311
-641 315 -1 2 9 37 24 78 67 194 71 400 9 595 l-24 74 383 0 383 0 5 -27 c10
-49 64 -110 122 -139 171 -83 355 31 355 218 0 76 -23 129 -76 180 -73 69
-179 87 -269 44 -61 -29 -97 -66 -125 -128 l-21 -48 -404 0 -404 0 -16 29 c-8
16 -42 63 -75 105 -205 258 -560 391 -887 331z m335 -105 c299 -61 547 -295
634 -597 33 -112 33 -324 0 -436 -24 -83 -76 -195 -123 -264 l-29 -42 -51 35
c-60 40 -121 59 -244 75 -112 14 -125 21 -125 63 0 25 10 43 40 75 27 28 42
54 46 81 6 34 11 41 40 50 76 25 124 89 124 164 0 58 -16 92 -55 116 -30 18
-32 23 -32 83 -2 80 -15 128 -53 194 -120 208 -460 243 -638 66 -62 -63 -94
-139 -100 -237 -5 -78 -5 -79 -48 -121 -40 -38 -44 -46 -44 -89 0 -85 46 -150
125 -176 24 -8 35 -18 35 -31 0 -29 36 -94 65 -117 18 -15 25 -29 25 -56 0
-43 -13 -51 -95 -61 -143 -17 -227 -43 -291 -91 l-31 -23 -32 45 c-18 24 -51
83 -73 130 -101 216 -102 473 -3 690 164 360 546 554 933 474z m2622 -80 c80
-57 78 -191 -4 -241 -50 -30 -88 -33 -140 -11 -57 26 -86 70 -86 133 0 120
133 188 230 119z m-862 -194 c54 -28 75 -62 79 -124 5 -68 -17 -111 -69 -138
-44 -23 -114 -21 -147 4 -51 37 -73 82 -68 135 2 27 13 61 24 75 40 55 124 77
181 48z m-1808 -69 c68 -29 117 -74 145 -132 25 -50 28 -66 27 -152 -1 -102 6
-123 42 -123 52 0 64 -65 19 -100 -20 -16 -36 -20 -58 -16 -43 8 -69 -12 -68
-55 2 -56 -15 -94 -57 -128 -39 -31 -40 -34 -40 -94 0 -75 22 -124 68 -150 18
-11 83 -27 152 -37 119 -18 206 -49 217 -77 11 -29 -142 -136 -267 -186 -109
-43 -219 -60 -344 -54 -136 7 -231 33 -345 93 -87 46 -190 121 -190 139 -1 31
103 71 217 85 112 13 156 27 189 62 25 26 28 38 31 108 4 72 2 80 -19 97 -63
50 -69 61 -69 113 0 65 -23 91 -74 83 -28 -4 -39 -1 -60 20 -42 42 -30 97 20
97 38 0 47 24 45 115 -1 46 3 101 8 122 21 78 95 148 186 177 59 19 172 15
225 -7z m1206 -1209 c411 -200 514 -255 509 -267 -79 -203 -84 -454 -15 -656
11 -32 18 -60 17 -62 -8 -7 -1026 -503 -1034 -503 -4 0 -21 21 -38 48 -47 76
-182 203 -275 260 -91 56 -212 107 -279 118 -23 4 -41 9 -41 13 0 3 119 67
263 141 l263 134 43 -33 c109 -86 251 -75 343 27 131 145 42 381 -155 408 -57
8 -142 -17 -187 -54 l-35 -30 -80 40 c-44 22 -163 83 -264 136 l-184 95 74 22
c95 27 170 62 261 120 81 53 209 178 254 249 16 25 33 46 37 46 5 0 240 -113
523 -252z m1583 191 c472 -120 740 -614 585 -1078 -24 -73 -81 -180 -122 -231
l-19 -24 -32 26 c-45 39 -125 65 -246 82 -58 8 -113 20 -121 27 -27 22 -17 69
26 115 27 29 42 56 46 84 4 26 12 40 21 40 32 0 96 46 119 86 43 73 23 177
-40 205 -22 10 -24 18 -28 98 -3 69 -10 99 -31 143 -34 69 -109 141 -185 176
-52 25 -68 27 -177 27 -115 0 -123 -1 -185 -32 -79 -39 -142 -99 -176 -168
-27 -57 -46 -161 -37 -205 4 -22 1 -29 -16 -35 -11 -3 -32 -20 -46 -36 -20
-24 -25 -41 -25 -82 0 -77 31 -125 103 -161 40 -20 57 -34 57 -48 0 -28 24
-69 59 -102 34 -32 42 -84 17 -105 -7 -6 -61 -18 -119 -26 -120 -17 -203 -44
-249 -83 l-31 -26 -28 34 c-41 49 -93 153 -125 250 -26 78 -28 97 -28 240 0
143 2 162 28 240 35 104 66 167 121 245 196 276 556 408 884 324z m-68 -342
c56 -23 114 -81 138 -138 18 -40 22 -67 20 -139 -2 -100 5 -115 55 -128 24 -6
32 -14 34 -36 5 -42 -31 -76 -81 -76 -57 0 -77 -21 -77 -83 0 -47 -3 -53 -45
-91 -44 -41 -45 -43 -45 -104 0 -129 36 -160 220 -187 117 -17 184 -39 208
-68 18 -21 14 -27 -61 -83 -146 -110 -312 -165 -502 -165 -140 0 -237 21 -354
76 -74 35 -185 109 -210 139 -33 39 51 79 209 101 180 26 220 59 220 185 0 61
-1 63 -46 104 -42 39 -46 47 -49 94 -3 67 -17 82 -71 82 -51 0 -84 28 -84 72
0 22 6 31 28 38 56 20 57 22 57 111 1 46 7 105 14 132 17 59 77 128 137 157
80 39 202 42 285 7z m-1888 -331 c101 -43 124 -173 43 -244 -49 -42 -103 -50
-161 -22 -110 53 -112 205 -3 259 50 25 77 26 121 7z m-795 -672 c408 -84 690
-445 669 -858 -8 -165 -60 -317 -150 -444 -30 -42 -31 -42 -51 -23 -51 47
-127 72 -280 95 -57 8 -102 20 -107 28 -17 27 -10 70 16 90 29 22 55 69 64
111 5 22 15 32 45 42 73 25 116 84 116 160 0 58 -21 100 -61 121 -26 13 -30
20 -26 42 8 40 -11 147 -34 197 -84 178 -317 261 -521 185 -149 -56 -238 -182
-238 -340 0 -67 -1 -70 -30 -85 -77 -40 -80 -174 -5 -245 13 -12 40 -28 61
-35 31 -10 40 -19 45 -43 8 -39 46 -99 70 -112 14 -8 19 -22 19 -50 0 -21 -5
-42 -10 -45 -6 -4 -65 -15 -132 -26 -126 -20 -189 -42 -244 -84 l-32 -24 -35
53 c-205 309 -193 693 31 985 121 158 326 280 532 314 62 10 218 6 288 -9z
m-60 -339 c73 -22 131 -70 165 -137 26 -50 29 -67 31 -160 l1 -103 43 -13 c36
-12 42 -18 42 -42 0 -46 -30 -73 -83 -75 -26 0 -52 -6 -58 -12 -5 -5 -12 -33
-14 -61 -4 -50 -19 -92 -33 -92 -4 0 -20 -11 -35 -25 -24 -23 -27 -33 -27 -88
0 -74 22 -124 66 -149 17 -10 78 -25 135 -33 57 -9 120 -20 139 -25 46 -13
100 -46 100 -62 -1 -23 -120 -108 -214 -153 -133 -63 -206 -79 -361 -80 -171
0 -293 33 -431 116 -61 37 -144 106 -144 119 0 12 77 56 110 63 14 3 71 13
127 21 118 18 156 34 183 79 28 45 28 159 1 185 -10 9 -31 28 -45 41 -21 19
-26 32 -26 70 0 66 -17 84 -75 86 -37 2 -53 7 -67 25 -31 38 -18 90 22 90 9 0
24 6 34 13 16 12 18 27 17 113 -2 92 1 105 26 154 15 29 45 66 65 83 77 62
201 83 306 52z m1845 -762 c47 -24 69 -69 64 -136 -3 -46 -9 -63 -32 -87 -74
-77 -202 -58 -241 36 -27 64 -13 123 39 172 45 43 106 48 170 15z m827 -205
c130 -67 93 -260 -53 -275 -159 -16 -220 211 -74 277 54 25 73 25 127 -2z"/>
</g>
</svg>
