<?xml version="1.0" encoding="UTF-8"?>
<!DOCTYPE svg PUBLIC "-//W3C//DTD SVG 1.1//EN" "http://www.w3.org/Graphics/SVG/1.1/DTD/svg11.dtd">
<svg xmlns="http://www.w3.org/2000/svg" version="1.1" width="512px" height="512px" style="shape-rendering:geometricPrecision; text-rendering:geometricPrecision; image-rendering:optimizeQuality; fill-rule:evenodd; clip-rule:evenodd" xmlns:xlink="http://www.w3.org/1999/xlink">
<g><path style="opacity:0.895" fill="#000000" d="M 354.5,14.5 C 356.857,14.3367 359.19,14.5034 361.5,15C 362.701,15.9025 363.535,17.0692 364,18.5C 364.667,27.8333 364.667,37.1667 364,46.5C 360.478,51.3977 356.478,51.731 352,47.5C 351.333,37.5 351.333,27.5 352,17.5C 352.698,16.3094 353.531,15.3094 354.5,14.5 Z"/></g>
<g><path style="opacity:0.881" fill="#000000" d="M 289.5,31.5 C 292.862,31.0695 295.695,32.0695 298,34.5C 302.862,42.1799 307.029,50.1799 310.5,58.5C 309.422,64.0945 306.088,65.9278 300.5,64C 294.721,55.7753 289.721,47.1086 285.5,38C 286.226,35.3661 287.559,33.1995 289.5,31.5 Z"/></g>
<g><path style="opacity:0.885" fill="#000000" d="M 420.5,31.5 C 427.825,30.9924 430.658,34.3258 429,41.5C 424.898,49.2621 420.398,56.7621 415.5,64C 407.333,65.8333 404.167,62.6667 406,54.5C 410.344,46.4678 415.177,38.8011 420.5,31.5 Z"/></g>
<g><path style="opacity:0.916" fill="#000000" d="M 351.5,60.5 C 392.767,60.2028 422.267,78.5361 440,115.5C 450.594,144.971 448.261,173.304 433,200.5C 425.425,211.412 417.092,221.745 408,231.5C 402.468,238.233 398.801,245.899 397,254.5C 396.667,275.167 396.333,295.833 396,316.5C 394.167,322.333 390.333,326.167 384.5,328C 376.833,328.333 369.167,328.667 361.5,329C 347.821,344.839 330.487,353.172 309.5,354C 297.171,354.5 284.838,354.667 272.5,354.5C 272.5,361.833 272.5,369.167 272.5,376.5C 287.504,376.333 302.504,376.5 317.5,377C 318.701,377.903 319.535,379.069 320,380.5C 320.5,392.495 320.667,404.495 320.5,416.5C 338.3,421.82 346.467,433.82 345,452.5C 341.49,469.502 330.99,478.502 313.5,479.5C 294.502,477.169 283.836,466.502 281.5,447.5C 282.949,431.055 291.616,420.722 307.5,416.5C 307.5,407.5 307.5,398.5 307.5,389.5C 292.095,389.952 276.762,389.452 261.5,388C 260.874,387.25 260.374,386.416 260,385.5C 259.5,375.172 259.334,364.839 259.5,354.5C 243.5,354.5 227.5,354.5 211.5,354.5C 211.5,381.167 211.5,407.833 211.5,434.5C 231.693,440.87 239.527,454.536 235,475.5C 227.692,492.407 214.858,499.241 196.5,496C 176.49,488.325 169.323,474.158 175,453.5C 179.661,443.252 187.494,436.918 198.5,434.5C 198.5,407.833 198.5,381.167 198.5,354.5C 183.167,354.5 167.833,354.5 152.5,354.5C 152.667,376.503 152.5,398.503 152,420.5C 151.5,422.333 150.333,423.5 148.5,424C 141.174,424.5 133.841,424.666 126.5,424.5C 123.314,437.852 114.981,446.019 101.5,449C 79.161,450.5 66.4943,440.166 63.5,418C 66.7291,394.711 80.0624,384.378 103.5,387C 116.047,390.601 123.714,398.768 126.5,411.5C 130.833,411.5 135.167,411.5 139.5,411.5C 139.5,392.5 139.5,373.5 139.5,354.5C 118.805,354.871 98.1385,354.371 77.5,353C 54.0127,347.513 39.5127,333.013 34,309.5C 31.4321,273.962 47.4321,251.962 82,243.5C 88.5,209 109,188.5 143.5,182C 153.836,180.912 164.002,181.745 174,184.5C 195.575,147.802 227.408,133.469 269.5,141.5C 277.014,94.3184 304.348,67.3184 351.5,60.5 Z M 351.5,73.5 C 393.796,73.7043 420.629,94.0377 432,134.5C 436.359,157.36 432.026,178.36 419,197.5C 409.619,208.545 400.619,219.879 392,231.5C 388.953,236.474 386.786,241.808 385.5,247.5C 367.155,247.833 348.821,247.5 330.5,246.5C 328.47,240.106 325.636,234.106 322,228.5C 310.699,215.89 300.366,202.556 291,188.5C 281.639,168.161 279.972,147.161 286,125.5C 298.005,95.6501 319.838,78.3168 351.5,73.5 Z M 246.5,151.5 C 253.992,151.939 261.325,153.272 268.5,155.5C 269.597,171.222 274.097,185.889 282,199.5C 291.518,212.53 301.518,225.197 312,237.5C 314.551,241.935 316.551,246.601 318,251.5C 318.043,273.55 318.71,295.55 320,317.5C 324.625,326.73 332.125,330.564 342.5,329C 332.75,336.362 321.75,340.362 309.5,341C 236.833,341.667 164.167,341.667 91.5,341C 55.003,336.814 41.1697,316.98 50,281.5C 59.624,265.182 73.9573,256.516 93,255.5C 95.496,222.682 112.663,202.515 144.5,195C 155.198,193.647 165.532,194.98 175.5,199C 177.5,199.667 179.5,199.667 181.5,199C 185.792,192.25 189.959,185.417 194,178.5C 207.843,162.163 225.343,153.163 246.5,151.5 Z M 331.5,260.5 C 348.833,260.5 366.167,260.5 383.5,260.5C 383.5,267.5 383.5,274.5 383.5,281.5C 366.167,281.5 348.833,281.5 331.5,281.5C 331.5,274.5 331.5,267.5 331.5,260.5 Z M 331.5,294.5 C 348.833,294.5 366.167,294.5 383.5,294.5C 383.666,300.842 383.5,307.175 383,313.5C 382.5,314 382,314.5 381.5,315C 365.456,315.818 349.456,315.651 333.5,314.5C 332.808,313.975 332.308,313.308 332,312.5C 331.501,306.509 331.334,300.509 331.5,294.5 Z M 90.5,399.5 C 106.647,398.151 114.48,405.484 114,421.5C 108.949,434.776 99.7823,438.943 86.5,434C 77.1575,427.052 74.9909,418.219 80,407.5C 82.8552,403.789 86.3552,401.123 90.5,399.5 Z M 310.5,428.5 C 327.287,429.444 334.12,438.11 331,454.5C 324.44,465.765 315.274,468.598 303.5,463C 293.589,454.473 292.422,444.973 300,434.5C 303.101,431.648 306.601,429.648 310.5,428.5 Z M 200.5,446.5 C 219.181,447.331 226.014,456.664 221,474.5C 214.887,483.374 206.72,485.874 196.5,482C 185.489,474.406 183.322,464.906 190,453.5C 193.154,450.488 196.654,448.155 200.5,446.5 Z"/></g>
<g><path style="opacity:0.877" fill="#000000" d="M 241.5,79.5 C 243.199,79.3398 244.866,79.5065 246.5,80C 254.329,84.0801 261.996,88.4135 269.5,93C 272.733,100.2 270.4,103.867 262.5,104C 254.671,99.9199 247.004,95.5865 239.5,91C 236.698,86.5702 237.365,82.7368 241.5,79.5 Z"/></g>
<g><path style="opacity:0.877" fill="#000000" d="M 468.5,79.5 C 475.825,78.9924 478.658,82.3258 477,89.5C 469.418,94.7094 461.584,99.5427 453.5,104C 445.516,104.55 443.016,101.05 446,93.5C 453.648,88.9335 461.148,84.2669 468.5,79.5 Z"/></g>
<g><path style="opacity:0.916" fill="#000000" d="M 407.5,118.5 C 414.097,118.679 416.597,122.012 415,128.5C 392.139,151.695 368.972,174.528 345.5,197C 343.447,197.325 341.447,196.991 339.5,196C 326.304,183.138 313.47,169.971 301,156.5C 299.507,148.323 302.674,145.49 310.5,148C 321.667,159.167 332.833,170.333 344,181.5C 365.062,160.271 386.228,139.271 407.5,118.5 Z"/></g>
<g><path style="opacity:0.905" fill="#000000" d="M 189.5,233.5 C 227.636,230.045 260.802,241.045 289,266.5C 290.719,273.78 287.885,276.947 280.5,276C 246.941,246.955 208.941,239.288 166.5,253C 152.937,257.921 140.937,265.254 130.5,275C 121.333,277.833 118.167,274.667 121,265.5C 140.638,247.93 163.471,237.264 189.5,233.5 Z"/></g>
<g><path style="opacity:0.906" fill="#000000" d="M 202.5,267.5 C 224.571,267.689 244.238,274.522 261.5,288C 267.983,292.938 267.983,297.604 261.5,302C 260.167,302.667 258.833,302.667 257.5,302C 223.088,273.797 188.421,273.464 153.5,301C 144.977,303.309 141.977,300.142 144.5,291.5C 161.061,276.65 180.394,268.65 202.5,267.5 Z"/></g>
<g><path style="opacity:0.903" fill="#000000" d="M 199.5,302.5 C 215.824,301.662 229.991,306.662 242,317.5C 244.15,323.66 242.15,327.327 236,328.5C 226.985,320.748 216.485,316.414 204.5,315.5C 193.863,316.319 184.53,320.153 176.5,327C 169.17,328.666 166.003,325.833 167,318.5C 176.116,309.525 186.949,304.192 199.5,302.5 Z"/></g>
</svg>
