<?xml version="1.0" encoding="UTF-8"?>
<svg version="1.1" xmlns="http://www.w3.org/2000/svg" width="225" height="224">
<path d="M0 0 C74.25 0 148.5 0 225 0 C225 73.92 225 147.84 225 224 C150.75 224 76.5 224 0 224 C0 150.08 0 76.16 0 0 Z " fill="#FDFEFE" transform="translate(0,0)"/>
<path d="M0 0 C1.093125 0.474375 2.18625 0.94875 3.3125 1.4375 C12.16495836 6.58427811 17.69567802 14.52511073 21.31640625 24.03515625 C22.68095006 29.95337768 23.76152686 39.47694627 21 45 C21.86625 45.2475 22.7325 45.495 23.625 45.75 C32.48234258 49.03049725 37.2470835 54.94783334 41.203125 63.16796875 C44.38412807 70.48115719 44.1819686 79.76070113 41.5625 87.25 C37.76623991 95.40792062 31.23494543 102.35762029 23 106 C19.68153284 106.80216968 16.59147069 107.12928464 13.18283081 107.14717102 C11.77016685 107.15790398 11.77016685 107.15790398 10.32896423 107.16885376 C9.30758865 107.17154266 8.28621307 107.17423157 7.23388672 107.17700195 C6.14867233 107.18357315 5.06345795 107.19014435 3.94535828 107.19691467 C0.3568006 107.2166114 -3.23171527 107.22830293 -6.8203125 107.23828125 C-8.04867702 107.24235678 -9.27704155 107.2464323 -10.54262924 107.25063133 C-16.37588273 107.26933058 -22.20911988 107.28389882 -28.04239762 107.2922433 C-34.08372086 107.30103071 -40.12479223 107.32029457 -46.16601562 107.35668945 C-52.66220812 107.39519656 -59.15817367 107.41393795 -65.65447617 107.41844749 C-68.12389242 107.42330491 -70.59330535 107.43489462 -73.0626564 107.45348549 C-76.52787567 107.4779502 -79.99223953 107.47689792 -83.45751953 107.4699707 C-84.46674973 107.48278076 -85.47597992 107.49559082 -86.51579285 107.50878906 C-94.68631774 107.44961004 -102.14484973 105.71365221 -108.90234375 100.95703125 C-117.15546717 92.26036185 -120.38737971 84.08276007 -120.19921875 72.15625 C-119.5533898 61.92429336 -115.38270657 55.97326704 -108 49 C-104.86909836 46.25370048 -104.40275285 46 -100 46 C-100.04640625 45.02160156 -100.0928125 44.04320312 -100.140625 43.03515625 C-100.40664011 33.37310727 -99.60075291 26.38787754 -93.5 18.625 C-87.81306532 12.65371859 -81.72082014 10.61195817 -73.625 9.5625 C-65.75536814 10.51228316 -58.27578049 13.11883739 -52 18 C-51.6596875 17.43152344 -51.319375 16.86304687 -50.96875 16.27734375 C-44.15907891 5.42895815 -36.23429236 0.07224455 -23.95703125 -3.61328125 C-15.27646944 -5.32860185 -7.95282045 -3.49210385 0 0 Z " fill="#0187CE" transform="translate(148,36)"/>
<path d="M0 0 C3.36415551 1.26705319 6.37031789 2.71113193 9.42578125 4.6015625 C10.22177734 5.09140625 11.01777344 5.58125 11.83789062 6.0859375 C12.65451172 6.59382813 13.47113281 7.10171875 14.3125 7.625 C15.14845703 8.140625 15.98441406 8.65625 16.84570312 9.1875 C18.89931199 10.45487004 20.95063341 11.72578573 23 13 C21.78156309 16.65531073 20.83642925 16.99418151 17.59765625 18.91796875 C16.70755859 19.44970703 15.81746094 19.98144531 14.90039062 20.52929688 C13.96388672 21.07650391 13.02738281 21.62371094 12.0625 22.1875 C11.12986328 22.74630859 10.19722656 23.30511719 9.23632812 23.88085938 C2.28056319 28 2.28056319 28 0 28 C0 25.03 0 22.06 0 19 C-11.22 19 -22.44 19 -34 19 C-34 15.7 -34 12.4 -34 9 C-22.78 9 -11.56 9 0 9 C0 6.03 0 3.06 0 0 Z " fill="#EDF2F3" transform="translate(117,100)"/>
<path d="M0 0 C0 2.97 0 5.94 0 9 C11.22 9 22.44 9 34 9 C34 12.3 34 15.6 34 19 C22.78 19 11.56 19 0 19 C0 21.97 0 24.94 0 28 C-3.36415551 26.73294681 -6.37031789 25.28886807 -9.42578125 23.3984375 C-10.22177734 22.90859375 -11.01777344 22.41875 -11.83789062 21.9140625 C-12.65451172 21.40617187 -13.47113281 20.89828125 -14.3125 20.375 C-15.14845703 19.859375 -15.98441406 19.34375 -16.84570312 18.8125 C-18.89931199 17.54512996 -20.95063341 16.27421427 -23 15 C-21.78156309 11.34468927 -20.83642925 11.00581849 -17.59765625 9.08203125 C-16.70755859 8.55029297 -15.81746094 8.01855469 -14.90039062 7.47070312 C-13.96388672 6.92349609 -13.02738281 6.37628906 -12.0625 5.8125 C-10.66354492 4.97428711 -10.66354492 4.97428711 -9.23632812 4.11914062 C-2.28056319 0 -2.28056319 0 0 0 Z " fill="#EEF2F3" transform="translate(107,73)"/>
<path d="M0 0 C0.66 0 1.32 0 2 0 C2 3.3 2 6.6 2 10 C2.66 9.34 3.32 8.68 4 8 C10.96692343 7.43815134 10.96692343 7.43815134 14.2265625 9.2109375 C16 11 16 11 16.53125 13.33984375 C16.44758873 20.29418701 16.44758873 20.29418701 14.375 23.5625 C11.49001981 25.30867222 9.36600287 25.85676584 6 26 C5.01 25.34 4.02 24.68 3 24 C2.01 24.33 1.02 24.66 0 25 C0 16.75 0 8.5 0 0 Z " fill="#2B9AD6" transform="translate(98,156)"/>
<path d="M0 0 C0.99 0 1.98 0 3 0 C3.84479453 2.37145894 4.67593283 4.74634124 5.5 7.125 C5.73847656 7.79015625 5.97695313 8.4553125 6.22265625 9.140625 C7.62708806 13.23354055 8.27343814 16.61131792 8 21 C8.66 21 9.32 21 10 21 C10.0825 19.9275 10.165 18.855 10.25 17.75 C10.97900661 12.03089184 12.4005467 6.15764544 15 1 C17.13671875 0.15234375 17.13671875 0.15234375 19 0 C21.37688265 6.27681633 23.51708173 12.45044429 25 19 C27.05344344 13.71971687 28.74814165 8.49385249 30.15625 3.00390625 C30.4346875 2.34261719 30.713125 1.68132812 31 1 C31.99 0.67 32.98 0.34 34 0 C33.40531984 5.66828055 31.90757199 10.60322154 29.9375 15.9375 C29.65583984 16.71673828 29.37417969 17.49597656 29.08398438 18.29882812 C28.39532294 20.20140125 27.69850097 22.10101725 27 24 C25.68 24 24.36 24 23 24 C22.81824219 23.29875 22.63648437 22.5975 22.44921875 21.875 C20.92000933 16.10321471 19.19945637 10.55100893 17 5 C16.87882812 5.66386719 16.75765625 6.32773438 16.6328125 7.01171875 C15.77452292 11.53424459 14.96028689 15.79938524 13 20 C12.34 20 11.68 20 11 20 C11 21.32 11 22.64 11 24 C9.68 24 8.36 24 7 24 C5.82865778 20.37649379 4.66372198 16.75096001 3.5 13.125 C3.16613281 12.09246094 2.83226562 11.05992187 2.48828125 9.99609375 C2.17246094 9.00996094 1.85664062 8.02382812 1.53125 7.0078125 C1.09135742 5.64100342 1.09135742 5.64100342 0.64257812 4.24658203 C0 2 0 2 0 0 Z " fill="#309CD7" transform="translate(43,157)"/>
<path d="M0 0 C11.35483871 0 11.35483871 0 16 3 C17.1875 6.4375 17.1875 6.4375 17 10 C15.6875 12.4375 15.6875 12.4375 13 14 C9.59234691 14.32530022 6.43889981 14.18099473 3 14 C3 17.3 3 20.6 3 24 C2.01 24 1.02 24 0 24 C0 16.08 0 8.16 0 0 Z " fill="#2397D5" transform="translate(151,157)"/>
<path d="M0 0 C1.88427734 0.29052734 1.88427734 0.29052734 4 1 C5.41156011 3.55510247 6.54170124 5.93592652 7.625 8.625 C7.9240625 9.32496094 8.223125 10.02492187 8.53125 10.74609375 C10.35601004 15.0980657 11.79110186 19.43970107 13 24 C12.01 24 11.02 24 10 24 C9.34 22.02 8.68 20.04 8 18 C3.71 18 -0.58 18 -5 18 C-5.33 19.65 -5.66 21.3 -6 23 C-6.99 23.33 -7.98 23.66 -9 24 C-8.42266085 18.3365779 -6.29383632 13.72836052 -3.9375 8.625 C-3.56044922 7.79355469 -3.18339844 6.96210938 -2.79492188 6.10546875 C-1.86956644 4.06734412 -0.9378163 2.0324133 0 0 Z " fill="#45A6DB" transform="translate(135,157)"/>
<path d="M0 0 C3.00963365 0.66606646 4.25064133 1.8694783 5.90625 4.421875 C5.90625 6.071875 5.90625 7.721875 5.90625 9.421875 C-0.52875 9.916875 -0.52875 9.916875 -7.09375 10.421875 C-6.76375 11.741875 -6.43375 13.061875 -6.09375 14.421875 C-2.46375 14.421875 1.16625 14.421875 4.90625 14.421875 C4.57625 15.411875 4.24625 16.401875 3.90625 17.421875 C-3.3293544 18.89352335 -3.3293544 18.89352335 -7.03125 16.609375 C-9.65494461 13.8266686 -10.04303068 12.95949974 -10.40625 9.109375 C-10.09375 5.421875 -10.09375 5.421875 -8.59375 2.484375 C-5.55064722 -0.0261848 -3.85330453 -0.25880404 0 0 Z " fill="#1792D3" transform="translate(88.09375,163.578125)"/>
<path d="M0 0 C1.9375 1.5625 1.9375 1.5625 3 4 C2.67272727 10.32727273 2.67272727 10.32727273 0 13 C-3.07108055 13.3267107 -5.15050101 13.48138276 -7.875 11.9375 C-9.64273274 8.8930714 -9.36823916 6.4368988 -9 3 C-6.85106865 -0.70093733 -4.00059138 -0.58341958 0 0 Z " fill="#E8F4FA" transform="translate(109,166)"/>
<path d="M0 0 C1.91870117 0.37524414 1.91870117 0.37524414 4 1 C5.30078125 2.99609375 5.30078125 2.99609375 6.3125 5.4375 C6.65925781 6.24058594 7.00601563 7.04367188 7.36328125 7.87109375 C8 10 8 10 7 12 C6.34 12 5.68 12 5 12 C4.01 9.69 3.02 7.38 2 5 C0.35 8.63 -1.3 12.26 -3 16 C-0.03 16 2.94 16 6 16 C6 16.33 6 16.66 6 17 C2.37 17 -1.26 17 -5 17 C-5.33 18.98 -5.66 20.96 -6 23 C-6.99 23.33 -7.98 23.66 -9 24 C-8.42266085 18.3365779 -6.29383632 13.72836052 -3.9375 8.625 C-3.56044922 7.79355469 -3.18339844 6.96210938 -2.79492188 6.10546875 C-1.86956644 4.06734412 -0.9378163 2.0324133 0 0 Z " fill="#339ED8" transform="translate(135,157)"/>
<path d="M0 0 C6.8359375 -0.1953125 6.8359375 -0.1953125 9 0 C9.66 0.66 10.32 1.32 11 2 C10.75 5.0625 10.75 5.0625 10 8 C6.78548731 9.60725635 3.56387464 9.05748185 0 9 C0 6.03 0 3.06 0 0 Z " fill="#F4F9FC" transform="translate(154,160)"/>
<path d="M0 0 C0.66 0.33 1.32 0.66 2 1 C2 3.64 2 6.28 2 9 C-9.22 9 -20.44 9 -32 9 C-31.67 8.34 -31.34 7.68 -31 7 C-20.77 7 -10.54 7 0 7 C0 4.69 0 2.38 0 0 Z " fill="#007BCA" transform="translate(115,100)"/>
<path d="M0 0 C0.99 0 1.98 0 3 0 C3.84479453 2.37145894 4.67593283 4.74634124 5.5 7.125 C5.73847656 7.79015625 5.97695313 8.4553125 6.22265625 9.140625 C7.62708806 13.23354055 8.27343814 16.61131792 8 21 C8.66 21 9.32 21 10 21 C10 19.35 10 17.7 10 16 C10.66 16 11.32 16 12 16 C11.67 18.64 11.34 21.28 11 24 C9.68 24 8.36 24 7 24 C5.82865778 20.37649379 4.66372198 16.75096001 3.5 13.125 C3.16613281 12.09246094 2.83226562 11.05992187 2.48828125 9.99609375 C2.17246094 9.00996094 1.85664062 8.02382812 1.53125 7.0078125 C1.09135742 5.64100342 1.09135742 5.64100342 0.64257812 4.24658203 C0 2 0 2 0 0 Z " fill="#1D94D4" transform="translate(43,157)"/>
<path d="M0 0 C0.99 0 1.98 0 3 0 C3 7.92 3 15.84 3 24 C2.01 24 1.02 24 0 24 C0 16.08 0 8.16 0 0 Z " fill="#2C9AD6" transform="translate(172,157)"/>
<path d="M0 0 C2.97 0 5.94 0 9 0 C9.66 0.66 10.32 1.32 11 2 C8.36 2 5.72 2 3 2 C3 5.3 3 8.6 3 12 C2.34 12 1.68 12 1 12 C1 15.96 1 19.92 1 24 C0.67 24 0.34 24 0 24 C0 16.08 0 8.16 0 0 Z " fill="#3BA2D9" transform="translate(151,157)"/>
<path d="M0 0 C0.66 0 1.32 0 2 0 C1.3885614 5.17371125 0.29702104 9.92413286 -1.3125 14.875 C-1.51294922 15.55046875 -1.71339844 16.2259375 -1.91992188 16.921875 C-2.55078125 18.8671875 -2.55078125 18.8671875 -4 22 C-6.16796875 22.9453125 -6.16796875 22.9453125 -8 23 C-7.34 22.67 -6.68 22.34 -6 22 C-5.79267329 20.2031685 -5.59111821 18.40553516 -5.4140625 16.60546875 C-3.29946524 3.29946524 -3.29946524 3.29946524 0 0 Z " fill="#1C94D4" transform="translate(75,157)"/>
<path d="M0 0 C0.66 0 1.32 0 2 0 C2 3.3 2 6.6 2 10 C3.32 9.67 4.64 9.34 6 9 C5.505 9.474375 5.01 9.94875 4.5 10.4375 C2.56438659 13.74417291 2.8022563 16.12459955 2.9921875 19.87890625 C3 22 3 22 2 25 C1.34 25 0.68 25 0 25 C0 16.75 0 8.5 0 0 Z " fill="#058AD0" transform="translate(98,156)"/>
<path d="M0 0 C3.28220895 1.64110448 3.74570789 4.69322988 5 8 C5 8.99 5 9.98 5 11 C2.03 11 -0.94 11 -4 11 C-2.7874262 7.27566618 -1.49140021 3.62197194 0 0 Z " fill="#F4FAFD" transform="translate(136,161)"/>
<path d="M0 0 C0.33 0 0.66 0 1 0 C1.12375 0.7425 1.2475 1.485 1.375 2.25 C1.95498665 5.30642118 1.95498665 5.30642118 4 9 C7.63 9 11.26 9 15 9 C14.67 9.99 14.34 10.98 14 12 C6.7643956 13.47164835 6.7643956 13.47164835 3.0625 11.1875 C-0.42858881 7.48483005 -0.09253614 4.99695161 0 0 Z " fill="#349FD8" transform="translate(78,169)"/>
<path d="M0 0 C0.93423645 3.01031744 1.04449911 3.86650268 0 7 C2.97 7 5.94 7 9 7 C9 7.33 9 7.66 9 8 C5.37 8 1.74 8 -2 8 C-2.33 9.98 -2.66 11.96 -3 14 C-3.99 14.33 -4.98 14.66 -6 15 C-5.54979057 9.14727744 -2.96160773 4.91779881 0 0 Z " fill="#1891D3" transform="translate(132,166)"/>
<path d="M0 0 C2 2 2 2 2 5 C-1.3 5 -4.6 5 -8 5 C-7.67 3.68 -7.34 2.36 -7 1 C-4.48718205 -0.25640898 -2.78302919 -0.20872719 0 0 Z " fill="#D7ECF7" transform="translate(89,166)"/>
<path d="M0 0 C3.3 0 6.6 0 10 0 C9.67 0.66 9.34 1.32 9 2 C6.69 2 4.38 2 2 2 C2 5.3 2 8.6 2 12 C1.34 12 0.68 12 0 12 C0 8.04 0 4.08 0 0 Z " fill="#0C8ED1" transform="translate(152,169)"/>
<path d="M0 0 C0.66 0.33 1.32 0.66 2 1 C0.92173635 2.27513763 -0.16285519 3.54492569 -1.25 4.8125 C-1.85328125 5.52019531 -2.4565625 6.22789063 -3.078125 6.95703125 C-4.92370398 8.91889671 -6.79945332 10.45669625 -9 12 C-8.52379711 7.62346871 -7.33100111 5.93461995 -3.9375 3.1875 C-3.20402344 2.58292969 -2.47054687 1.97835937 -1.71484375 1.35546875 C-1.14894531 0.90816406 -0.58304688 0.46085937 0 0 Z " fill="#228DD1" transform="translate(61,49)"/>
<path d="M0 0 C0.99 0 1.98 0 3 0 C3.33 2.31 3.66 4.62 4 7 C-2.93 6.505 -2.93 6.505 -10 6 C-9.67 5.34 -9.34 4.68 -9 4 C-5.7 4.33 -2.4 4.66 1 5 C0.67 3.35 0.34 1.7 0 0 Z " fill="#299AD6" transform="translate(90,166)"/>
<path d="M0 0 C0.66 0 1.32 0 2 0 C2.16682272 4.92127034 2.24828052 8.50343896 0 13 C-1.44977894 10.65887549 -2.04314411 9.4203071 -1.7578125 6.640625 C-1.54898438 5.85171875 -1.34015625 5.0628125 -1.125 4.25 C-0.92132813 3.45078125 -0.71765625 2.6515625 -0.5078125 1.828125 C-0.34023438 1.22484375 -0.17265625 0.6215625 0 0 Z " fill="#4BAADC" transform="translate(56,164)"/>
<path d="M0 0 C-0.33 1.98 -0.66 3.96 -1 6 C-1.309375 5.360625 -1.61875 4.72125 -1.9375 4.0625 C-2.8345163 2.06389179 -2.8345163 2.06389179 -4 1 C-5.51469448 0.76807135 -7.03754562 0.58784762 -8.5625 0.4375 C-9.38878906 0.35371094 -10.21507812 0.26992187 -11.06640625 0.18359375 C-11.70449219 0.12300781 -12.34257812 0.06242188 -13 0 C-13 -0.33 -13 -0.66 -13 -1 C-4.57142857 -2.42857143 -4.57142857 -2.42857143 0 0 Z " fill="#36A0D8" transform="translate(167,160)"/>
<path d="M0 0 C2.64465038 3.1254959 3.84414715 6.08788267 5 10 C4.01 10 3.02 10 2 10 C-0.09350689 6.5980513 -0.17942163 3.94727588 0 0 Z " fill="#2899D6" transform="translate(138,159)"/>
<path d="M0 0 C0.66 0 1.32 0 2 0 C1.25 6.625 1.25 6.625 -1 10 C-2.23076923 4.58461538 -2.23076923 4.58461538 -1.0625 1.625 C-0.5365625 0.820625 -0.5365625 0.820625 0 0 Z " fill="#3AA1D9" transform="translate(75,157)"/>
<path d="M0 0 C0.33 0.66 0.66 1.32 1 2 C0.34 2 -0.32 2 -1 2 C-1.268125 2.598125 -1.53625 3.19625 -1.8125 3.8125 C-2.99917406 5.99847854 -4.09599113 7.41332594 -6 9 C-6.66 9 -7.32 9 -8 9 C-6.4169423 4.7257442 -3.49431596 2.73468206 0 0 Z " fill="#1484CD" transform="translate(42,84)"/>
<path d="M0 0 C0.66 0.33 1.32 0.66 2 1 C2 1.99 2 2.98 2 4 C2.99 4.66 3.98 5.32 5 6 C4.67 6.66 4.34 7.32 4 8 C0.535 6.02 0.535 6.02 -3 4 C-2.67 3.01 -2.34 2.02 -2 1 C-1.34 0.67 -0.68 0.34 0 0 Z " fill="#E2F0F5" transform="translate(87,84)"/>
<path d="M0 0 C0.99 0 1.98 0 3 0 C3.66 2.31 4.32 4.62 5 7 C4.01 7.33 3.02 7.66 2 8 C1.34 5.36 0.68 2.72 0 0 Z " fill="#2B9BD6" transform="translate(43,157)"/>
<path d="M0 0 C2.625 -0.1875 2.625 -0.1875 5 0 C5.33 0.99 5.66 1.98 6 3 C3.36 3 0.72 3 -2 3 C-1.34 2.01 -0.68 1.02 0 0 Z " fill="#FAFCFE" transform="translate(85,167)"/>
</svg>
